<svg width="600" height="400" viewBox="0 0 600 400" fill="none" xmlns="http://www.w3.org/2000/svg">
<path d="M0 20C0 8.95431 8.95431 0 20 0H580C591.046 0 600 8.95431 600 20V380C600 391.046 591.046 400 580 400H20C8.95432 400 0 391.046 0 380V20Z" fill="#2E2E2E"/>
<rect y="71" width="600" height="2" fill="#2B2B2B"/>
<circle cx="40" cy="37" r="15" fill="#FF383C"/>
<circle cx="85" cy="37" r="15" fill="#FFCC00"/>
<circle cx="130" cy="37" r="15" fill="#34C759"/>
<g opacity="0.5">
<path d="M32.407 102V99.264H26.521V96.348L31.633 88.86H33.793L28.393 96.816V97.518H32.407V94.44H34.333V102H32.407ZM41.4 102.18C40.56 102.18 39.834 102.036 39.222 101.748C38.61 101.46 38.136 101.052 37.8 100.524C37.464 99.984 37.296 99.36 37.296 98.652C37.296 97.86 37.512 97.182 37.944 96.618C38.376 96.054 39.042 95.562 39.942 95.142L41.832 94.26C42.312 94.032 42.684 93.732 42.948 93.36C43.212 92.976 43.344 92.556 43.344 92.1C43.344 91.56 43.17 91.134 42.822 90.822C42.474 90.51 42 90.354 41.4 90.354C40.8 90.354 40.32 90.516 39.96 90.84C39.612 91.152 39.438 91.578 39.438 92.118C39.438 92.562 39.57 92.976 39.834 93.36C40.098 93.732 40.458 94.026 40.914 94.242L42.804 95.106C43.752 95.55 44.436 96.06 44.856 96.636C45.288 97.2 45.504 97.872 45.504 98.652C45.504 99.732 45.132 100.59 44.388 101.226C43.656 101.862 42.66 102.18 41.4 102.18ZM41.4 100.488C42.072 100.488 42.606 100.314 43.002 99.966C43.398 99.606 43.596 99.138 43.596 98.562C43.596 98.094 43.464 97.662 43.2 97.266C42.936 96.858 42.57 96.54 42.102 96.312L40.158 95.394C39.27 94.974 38.61 94.494 38.178 93.954C37.746 93.414 37.53 92.766 37.53 92.01C37.53 91.35 37.686 90.768 37.998 90.264C38.322 89.76 38.772 89.37 39.348 89.094C39.924 88.806 40.608 88.662 41.4 88.662C42.192 88.662 42.876 88.806 43.452 89.094C44.028 89.37 44.472 89.76 44.784 90.264C45.096 90.768 45.252 91.35 45.252 92.01C45.252 92.778 45.036 93.426 44.604 93.954C44.184 94.482 43.524 94.968 42.624 95.412L40.662 96.33C40.206 96.546 39.846 96.852 39.582 97.248C39.33 97.644 39.204 98.07 39.204 98.526C39.204 99.114 39.402 99.588 39.798 99.948C40.194 100.308 40.728 100.488 41.4 100.488Z" fill="#1A1A1A"/>
<path d="M30.571 136.18C29.431 136.18 28.507 135.892 27.799 135.316C27.091 134.728 26.695 133.942 26.611 132.958H28.537C28.597 133.438 28.801 133.81 29.149 134.074C29.497 134.338 29.977 134.47 30.589 134.47C31.273 134.47 31.789 134.29 32.137 133.93C32.497 133.558 32.677 133.042 32.677 132.382V131.104C32.677 130.432 32.503 129.916 32.155 129.556C31.807 129.184 31.291 128.998 30.607 128.998C30.175 128.998 29.803 129.1 29.491 129.304C29.179 129.496 28.951 129.766 28.807 130.114H26.881L26.971 122.86H34.135V124.624H28.825L28.789 128.71H29.293L28.771 129.178C28.771 128.614 28.993 128.17 29.437 127.846C29.881 127.522 30.475 127.36 31.219 127.36C32.287 127.36 33.115 127.69 33.703 128.35C34.303 128.998 34.603 129.916 34.603 131.104V132.382C34.603 133.546 34.249 134.47 33.541 135.154C32.833 135.838 31.843 136.18 30.571 136.18ZM41.4 136.18C40.572 136.18 39.852 136.018 39.24 135.694C38.64 135.37 38.172 134.92 37.836 134.344C37.5 133.756 37.332 133.072 37.332 132.292V126.568C37.332 125.776 37.494 125.092 37.818 124.516C38.154 123.94 38.628 123.49 39.24 123.166C39.852 122.842 40.572 122.68 41.4 122.68C42.24 122.68 42.96 122.842 43.56 123.166C44.172 123.49 44.64 123.94 44.964 124.516C45.3 125.092 45.468 125.776 45.468 126.568V132.292C45.468 133.072 45.3 133.756 44.964 134.344C44.628 134.92 44.154 135.37 43.542 135.694C42.942 136.018 42.228 136.18 41.4 136.18ZM41.4 134.506C42.072 134.506 42.606 134.302 43.002 133.894C43.41 133.486 43.614 132.952 43.614 132.292V126.568C43.614 125.908 43.41 125.374 43.002 124.966C42.606 124.558 42.072 124.354 41.4 124.354C40.728 124.354 40.188 124.558 39.78 124.966C39.384 125.374 39.186 125.908 39.186 126.568V132.292C39.186 132.952 39.384 133.486 39.78 133.894C40.188 134.302 40.728 134.506 41.4 134.506ZM41.4 130.546C41.064 130.546 40.788 130.438 40.572 130.222C40.368 130.006 40.266 129.724 40.266 129.376C40.266 129.04 40.368 128.77 40.572 128.566C40.788 128.35 41.064 128.242 41.4 128.242C41.736 128.242 42.006 128.35 42.21 128.566C42.426 128.77 42.534 129.04 42.534 129.376C42.534 129.724 42.426 130.006 42.21 130.222C42.006 130.438 41.736 130.546 41.4 130.546Z" fill="#1A1A1A"/>
<path d="M30.571 170.18C29.431 170.18 28.507 169.892 27.799 169.316C27.091 168.728 26.695 167.942 26.611 166.958H28.537C28.597 167.438 28.801 167.81 29.149 168.074C29.497 168.338 29.977 168.47 30.589 168.47C31.273 168.47 31.789 168.29 32.137 167.93C32.497 167.558 32.677 167.042 32.677 166.382V165.104C32.677 164.432 32.503 163.916 32.155 163.556C31.807 163.184 31.291 162.998 30.607 162.998C30.175 162.998 29.803 163.1 29.491 163.304C29.179 163.496 28.951 163.766 28.807 164.114H26.881L26.971 156.86H34.135V158.624H28.825L28.789 162.71H29.293L28.771 163.178C28.771 162.614 28.993 162.17 29.437 161.846C29.881 161.522 30.475 161.36 31.219 161.36C32.287 161.36 33.115 161.69 33.703 162.35C34.303 162.998 34.603 163.916 34.603 165.104V166.382C34.603 167.546 34.249 168.47 33.541 169.154C32.833 169.838 31.843 170.18 30.571 170.18ZM37.566 170V168.272H41.058V158.552L37.548 161.162V159.056L40.554 156.86H43.002V168.272H45.828V170H37.566Z" fill="#1A1A1A"/>
<path d="M30.571 204.18C29.431 204.18 28.507 203.892 27.799 203.316C27.091 202.728 26.695 201.942 26.611 200.958H28.537C28.597 201.438 28.801 201.81 29.149 202.074C29.497 202.338 29.977 202.47 30.589 202.47C31.273 202.47 31.789 202.29 32.137 201.93C32.497 201.558 32.677 201.042 32.677 200.382V199.104C32.677 198.432 32.503 197.916 32.155 197.556C31.807 197.184 31.291 196.998 30.607 196.998C30.175 196.998 29.803 197.1 29.491 197.304C29.179 197.496 28.951 197.766 28.807 198.114H26.881L26.971 190.86H34.135V192.624H28.825L28.789 196.71H29.293L28.771 197.178C28.771 196.614 28.993 196.17 29.437 195.846C29.881 195.522 30.475 195.36 31.219 195.36C32.287 195.36 33.115 195.69 33.703 196.35C34.303 196.998 34.603 197.916 34.603 199.104V200.382C34.603 201.546 34.249 202.47 33.541 203.154C32.833 203.838 31.843 204.18 30.571 204.18ZM37.53 204V202.074L41.598 197.88C42.222 197.232 42.678 196.65 42.966 196.134C43.266 195.606 43.416 195.084 43.416 194.568C43.416 193.896 43.23 193.368 42.858 192.984C42.498 192.6 42 192.408 41.364 192.408C40.668 192.408 40.116 192.612 39.708 193.02C39.312 193.416 39.114 193.962 39.114 194.658H37.17C37.194 193.842 37.38 193.14 37.728 192.552C38.076 191.952 38.562 191.49 39.186 191.166C39.81 190.842 40.542 190.68 41.382 190.68C42.186 190.68 42.888 190.836 43.488 191.148C44.088 191.46 44.55 191.898 44.874 192.462C45.198 193.026 45.36 193.692 45.36 194.46C45.36 195.24 45.156 196.002 44.748 196.746C44.352 197.49 43.698 198.318 42.786 199.23L39.816 202.236H45.558V204H37.53Z" fill="#1A1A1A"/>
<path d="M30.571 238.18C29.431 238.18 28.507 237.892 27.799 237.316C27.091 236.728 26.695 235.942 26.611 234.958H28.537C28.597 235.438 28.801 235.81 29.149 236.074C29.497 236.338 29.977 236.47 30.589 236.47C31.273 236.47 31.789 236.29 32.137 235.93C32.497 235.558 32.677 235.042 32.677 234.382V233.104C32.677 232.432 32.503 231.916 32.155 231.556C31.807 231.184 31.291 230.998 30.607 230.998C30.175 230.998 29.803 231.1 29.491 231.304C29.179 231.496 28.951 231.766 28.807 232.114H26.881L26.971 224.86H34.135V226.624H28.825L28.789 230.71H29.293L28.771 231.178C28.771 230.614 28.993 230.17 29.437 229.846C29.881 229.522 30.475 229.36 31.219 229.36C32.287 229.36 33.115 229.69 33.703 230.35C34.303 230.998 34.603 231.916 34.603 233.104V234.382C34.603 235.546 34.249 236.47 33.541 237.154C32.833 237.838 31.843 238.18 30.571 238.18ZM41.238 238.18C40.41 238.18 39.69 238.024 39.078 237.712C38.466 237.4 37.992 236.962 37.656 236.398C37.332 235.822 37.17 235.156 37.17 234.4H39.114C39.114 235.06 39.3 235.576 39.672 235.948C40.056 236.32 40.584 236.506 41.256 236.506C41.94 236.506 42.468 236.314 42.84 235.93C43.212 235.546 43.398 235.036 43.398 234.4V233.428C43.398 232.756 43.212 232.24 42.84 231.88C42.468 231.508 41.94 231.322 41.256 231.322H39.852V229.486L42.912 226.57H37.728V224.86H44.892V226.696L41.274 230.098V229.63C42.522 229.63 43.512 229.972 44.244 230.656C44.976 231.34 45.342 232.258 45.342 233.41V234.4C45.342 235.156 45.174 235.822 44.838 236.398C44.502 236.962 44.022 237.4 43.398 237.712C42.786 238.024 42.066 238.18 41.238 238.18Z" fill="#1A1A1A"/>
<path d="M30.571 272.18C29.431 272.18 28.507 271.892 27.799 271.316C27.091 270.728 26.695 269.942 26.611 268.958H28.537C28.597 269.438 28.801 269.81 29.149 270.074C29.497 270.338 29.977 270.47 30.589 270.47C31.273 270.47 31.789 270.29 32.137 269.93C32.497 269.558 32.677 269.042 32.677 268.382V267.104C32.677 266.432 32.503 265.916 32.155 265.556C31.807 265.184 31.291 264.998 30.607 264.998C30.175 264.998 29.803 265.1 29.491 265.304C29.179 265.496 28.951 265.766 28.807 266.114H26.881L26.971 258.86H34.135V260.624H28.825L28.789 264.71H29.293L28.771 265.178C28.771 264.614 28.993 264.17 29.437 263.846C29.881 263.522 30.475 263.36 31.219 263.36C32.287 263.36 33.115 263.69 33.703 264.35C34.303 264.998 34.603 265.916 34.603 267.104V268.382C34.603 269.546 34.249 270.47 33.541 271.154C32.833 271.838 31.843 272.18 30.571 272.18ZM43.2 272V269.264H37.314V266.348L42.426 258.86H44.586L39.186 266.816V267.518H43.2V264.44H45.126V272H43.2Z" fill="#1A1A1A"/>
<path d="M30.571 306.18C29.431 306.18 28.507 305.892 27.799 305.316C27.091 304.728 26.695 303.942 26.611 302.958H28.537C28.597 303.438 28.801 303.81 29.149 304.074C29.497 304.338 29.977 304.47 30.589 304.47C31.273 304.47 31.789 304.29 32.137 303.93C32.497 303.558 32.677 303.042 32.677 302.382V301.104C32.677 300.432 32.503 299.916 32.155 299.556C31.807 299.184 31.291 298.998 30.607 298.998C30.175 298.998 29.803 299.1 29.491 299.304C29.179 299.496 28.951 299.766 28.807 300.114H26.881L26.971 292.86H34.135V294.624H28.825L28.789 298.71H29.293L28.771 299.178C28.771 298.614 28.993 298.17 29.437 297.846C29.881 297.522 30.475 297.36 31.219 297.36C32.287 297.36 33.115 297.69 33.703 298.35C34.303 298.998 34.603 299.916 34.603 301.104V302.382C34.603 303.546 34.249 304.47 33.541 305.154C32.833 305.838 31.843 306.18 30.571 306.18ZM43.2 306V303.264H37.314V300.348L42.426 292.86H44.586L39.186 300.816V301.518H43.2V298.44H45.126V306H43.2Z" fill="#1A1A1A"/>
<path d="M30.571 340.18C29.431 340.18 28.507 339.892 27.799 339.316C27.091 338.728 26.695 337.942 26.611 336.958H28.537C28.597 337.438 28.801 337.81 29.149 338.074C29.497 338.338 29.977 338.47 30.589 338.47C31.273 338.47 31.789 338.29 32.137 337.93C32.497 337.558 32.677 337.042 32.677 336.382V335.104C32.677 334.432 32.503 333.916 32.155 333.556C31.807 333.184 31.291 332.998 30.607 332.998C30.175 332.998 29.803 333.1 29.491 333.304C29.179 333.496 28.951 333.766 28.807 334.114H26.881L26.971 326.86H34.135V328.624H28.825L28.789 332.71H29.293L28.771 333.178C28.771 332.614 28.993 332.17 29.437 331.846C29.881 331.522 30.475 331.36 31.219 331.36C32.287 331.36 33.115 331.69 33.703 332.35C34.303 332.998 34.603 333.916 34.603 335.104V336.382C34.603 337.546 34.249 338.47 33.541 339.154C32.833 339.838 31.843 340.18 30.571 340.18ZM43.2 340V337.264H37.314V334.348L42.426 326.86H44.586L39.186 334.816V335.518H43.2V332.44H45.126V340H43.2Z" fill="#1A1A1A"/>
<path d="M30.571 374.18C29.431 374.18 28.507 373.892 27.799 373.316C27.091 372.728 26.695 371.942 26.611 370.958H28.537C28.597 371.438 28.801 371.81 29.149 372.074C29.497 372.338 29.977 372.47 30.589 372.47C31.273 372.47 31.789 372.29 32.137 371.93C32.497 371.558 32.677 371.042 32.677 370.382V369.104C32.677 368.432 32.503 367.916 32.155 367.556C31.807 367.184 31.291 366.998 30.607 366.998C30.175 366.998 29.803 367.1 29.491 367.304C29.179 367.496 28.951 367.766 28.807 368.114H26.881L26.971 360.86H34.135V362.624H28.825L28.789 366.71H29.293L28.771 367.178C28.771 366.614 28.993 366.17 29.437 365.846C29.881 365.522 30.475 365.36 31.219 365.36C32.287 365.36 33.115 365.69 33.703 366.35C34.303 366.998 34.603 367.916 34.603 369.104V370.382C34.603 371.546 34.249 372.47 33.541 373.154C32.833 373.838 31.843 374.18 30.571 374.18ZM43.2 374V371.264H37.314V368.348L42.426 360.86H44.586L39.186 368.816V369.518H43.2V366.44H45.126V374H43.2Z" fill="#1A1A1A"/>
</g>
<path d="M71.458 102V100.236H74.932V93.864H71.908V92.1H76.822V100.236H80.008V102H71.458ZM75.688 90.39C75.268 90.39 74.932 90.282 74.68 90.066C74.428 89.838 74.302 89.538 74.302 89.166C74.302 88.782 74.428 88.482 74.68 88.266C74.932 88.038 75.268 87.924 75.688 87.924C76.108 87.924 76.444 88.038 76.696 88.266C76.948 88.482 77.074 88.782 77.074 89.166C77.074 89.538 76.948 89.838 76.696 90.066C76.444 90.282 76.108 90.39 75.688 90.39ZM84.627 102V94.908H81.819V93.144H84.627V91.542C84.627 90.714 84.891 90.06 85.419 89.58C85.947 89.1 86.667 88.86 87.579 88.86H90.477V90.588H87.615C87.279 90.588 87.015 90.672 86.823 90.84C86.643 91.008 86.553 91.248 86.553 91.56V93.144H90.477V94.908H86.553V102H84.627ZM168.57 94.746V93H187.29V94.746H168.57ZM168.57 99.12V97.374H187.29V99.12H168.57ZM211.821 128.746V127H219.597V128.746H211.821ZM211.821 133.12V131.374H219.597V133.12H211.821ZM118.572 204.18C117.768 204.18 117.06 204.024 116.448 203.712C115.848 203.388 115.386 202.938 115.062 202.362C114.738 201.786 114.576 201.114 114.576 200.346V197.754C114.576 196.974 114.738 196.302 115.062 195.738C115.386 195.162 115.848 194.718 116.448 194.406C117.06 194.082 117.768 193.92 118.572 193.92C119.388 193.92 120.096 194.082 120.696 194.406C121.296 194.718 121.758 195.162 122.082 195.738C122.406 196.302 122.568 196.974 122.568 197.754V199.518H116.448V200.346C116.448 201.078 116.628 201.636 116.988 202.02C117.36 202.404 117.894 202.596 118.59 202.596C119.154 202.596 119.61 202.5 119.958 202.308C120.306 202.104 120.522 201.81 120.606 201.426H122.532C122.388 202.266 121.956 202.938 121.236 203.442C120.516 203.934 119.628 204.18 118.572 204.18ZM120.696 198.348V197.736C120.696 197.016 120.516 196.458 120.156 196.062C119.796 195.666 119.268 195.468 118.572 195.468C117.888 195.468 117.36 195.666 116.988 196.062C116.628 196.458 116.448 197.022 116.448 197.754V198.204L120.84 198.186L120.696 198.348ZM130.787 204C130.175 204 129.641 203.88 129.185 203.64C128.729 203.388 128.369 203.034 128.105 202.578C127.853 202.122 127.727 201.594 127.727 200.994V192.624H124.487V190.86H129.671V200.994C129.671 201.378 129.779 201.684 129.995 201.912C130.211 202.128 130.505 202.236 130.877 202.236H133.937V204H130.787ZM136.216 204V202.236H139.69V195.864H136.666V194.1H141.58V202.236H144.766V204H136.216ZM140.446 192.39C140.026 192.39 139.69 192.282 139.438 192.066C139.186 191.838 139.06 191.538 139.06 191.166C139.06 190.782 139.186 190.482 139.438 190.266C139.69 190.038 140.026 189.924 140.446 189.924C140.866 189.924 141.202 190.038 141.454 190.266C141.706 190.482 141.832 190.782 141.832 191.166C141.832 191.538 141.706 191.838 141.454 192.066C141.202 192.282 140.866 192.39 140.446 192.39ZM149.385 204V196.908H146.577V195.144H149.385V193.542C149.385 192.714 149.649 192.06 150.177 191.58C150.705 191.1 151.425 190.86 152.337 190.86H155.235V192.588H152.373C152.037 192.588 151.773 192.672 151.581 192.84C151.401 193.008 151.311 193.248 151.311 193.56V195.144H155.235V196.908H151.311V204H149.385ZM233.327 196.746V195H252.048V196.746H233.327ZM233.327 201.12V199.374H252.048V201.12H233.327ZM118.572 272.18C117.768 272.18 117.06 272.024 116.448 271.712C115.848 271.388 115.386 270.938 115.062 270.362C114.738 269.786 114.576 269.114 114.576 268.346V265.754C114.576 264.974 114.738 264.302 115.062 263.738C115.386 263.162 115.848 262.718 116.448 262.406C117.06 262.082 117.768 261.92 118.572 261.92C119.388 261.92 120.096 262.082 120.696 262.406C121.296 262.718 121.758 263.162 122.082 263.738C122.406 264.302 122.568 264.974 122.568 265.754V267.518H116.448V268.346C116.448 269.078 116.628 269.636 116.988 270.02C117.36 270.404 117.894 270.596 118.59 270.596C119.154 270.596 119.61 270.5 119.958 270.308C120.306 270.104 120.522 269.81 120.606 269.426H122.532C122.388 270.266 121.956 270.938 121.236 271.442C120.516 271.934 119.628 272.18 118.572 272.18ZM120.696 266.348V265.736C120.696 265.016 120.516 264.458 120.156 264.062C119.796 263.666 119.268 263.468 118.572 263.468C117.888 263.468 117.36 263.666 116.988 264.062C116.628 264.458 116.448 265.022 116.448 265.754V266.204L120.84 266.186L120.696 266.348ZM130.787 272C130.175 272 129.641 271.88 129.185 271.64C128.729 271.388 128.369 271.034 128.105 270.578C127.853 270.122 127.727 269.594 127.727 268.994V260.624H124.487V258.86H129.671V268.994C129.671 269.378 129.779 269.684 129.995 269.912C130.211 270.128 130.505 270.236 130.877 270.236H133.937V272H130.787ZM136.216 272V270.236H139.69V263.864H136.666V262.1H141.58V270.236H144.766V272H136.216ZM140.446 260.39C140.026 260.39 139.69 260.282 139.438 260.066C139.186 259.838 139.06 259.538 139.06 259.166C139.06 258.782 139.186 258.482 139.438 258.266C139.69 258.038 140.026 257.924 140.446 257.924C140.866 257.924 141.202 258.038 141.454 258.266C141.706 258.482 141.832 258.782 141.832 259.166C141.832 259.538 141.706 259.838 141.454 260.066C141.202 260.282 140.866 260.39 140.446 260.39ZM149.385 272V264.908H146.577V263.144H149.385V261.542C149.385 260.714 149.649 260.06 150.177 259.58C150.705 259.1 151.425 258.86 152.337 258.86H155.235V260.588H152.373C152.037 260.588 151.773 260.672 151.581 260.84C151.401 261.008 151.311 261.248 151.311 261.56V263.144H155.235V264.908H151.311V272H149.385ZM233.327 264.746V263H252.048V264.746H233.327ZM233.327 269.12V267.374H252.048V269.12H233.327ZM118.572 340.18C117.768 340.18 117.06 340.024 116.448 339.712C115.848 339.388 115.386 338.938 115.062 338.362C114.738 337.786 114.576 337.114 114.576 336.346V333.754C114.576 332.974 114.738 332.302 115.062 331.738C115.386 331.162 115.848 330.718 116.448 330.406C117.06 330.082 117.768 329.92 118.572 329.92C119.388 329.92 120.096 330.082 120.696 330.406C121.296 330.718 121.758 331.162 122.082 331.738C122.406 332.302 122.568 332.974 122.568 333.754V335.518H116.448V336.346C116.448 337.078 116.628 337.636 116.988 338.02C117.36 338.404 117.894 338.596 118.59 338.596C119.154 338.596 119.61 338.5 119.958 338.308C120.306 338.104 120.522 337.81 120.606 337.426H122.532C122.388 338.266 121.956 338.938 121.236 339.442C120.516 339.934 119.628 340.18 118.572 340.18ZM120.696 334.348V333.736C120.696 333.016 120.516 332.458 120.156 332.062C119.796 331.666 119.268 331.468 118.572 331.468C117.888 331.468 117.36 331.666 116.988 332.062C116.628 332.458 116.448 333.022 116.448 333.754V334.204L120.84 334.186L120.696 334.348ZM130.787 340C130.175 340 129.641 339.88 129.185 339.64C128.729 339.388 128.369 339.034 128.105 338.578C127.853 338.122 127.727 337.594 127.727 336.994V328.624H124.487V326.86H129.671V336.994C129.671 337.378 129.779 337.684 129.995 337.912C130.211 338.128 130.505 338.236 130.877 338.236H133.937V340H130.787ZM136.216 340V338.236H139.69V331.864H136.666V330.1H141.58V338.236H144.766V340H136.216ZM140.446 328.39C140.026 328.39 139.69 328.282 139.438 328.066C139.186 327.838 139.06 327.538 139.06 327.166C139.06 326.782 139.186 326.482 139.438 326.266C139.69 326.038 140.026 325.924 140.446 325.924C140.866 325.924 141.202 326.038 141.454 326.266C141.706 326.482 141.832 326.782 141.832 327.166C141.832 327.538 141.706 327.838 141.454 328.066C141.202 328.282 140.866 328.39 140.446 328.39ZM149.385 340V332.908H146.577V331.144H149.385V329.542C149.385 328.714 149.649 328.06 150.177 327.58C150.705 327.1 151.425 326.86 152.337 326.86H155.235V328.588H152.373C152.037 328.588 151.773 328.672 151.581 328.84C151.401 329.008 151.311 329.248 151.311 329.56V331.144H155.235V332.908H151.311V340H149.385ZM233.327 332.746V331H252.048V332.746H233.327ZM233.327 337.12V335.374H252.048V337.12H233.327ZM162.446 374.18C161.63 374.18 160.982 373.958 160.502 373.514C160.022 373.058 159.782 372.44 159.782 371.66L160.196 372.11H159.782V374H157.856V360.86H159.8V363.686L159.746 365.99H160.196L159.782 366.44C159.782 365.66 160.022 365.048 160.502 364.604C160.994 364.148 161.642 363.92 162.446 363.92C163.442 363.92 164.24 364.256 164.84 364.928C165.44 365.6 165.74 366.512 165.74 367.664V370.454C165.74 371.594 165.44 372.5 164.84 373.172C164.24 373.844 163.442 374.18 162.446 374.18ZM161.78 372.488C162.416 372.488 162.914 372.308 163.274 371.948C163.634 371.576 163.814 371.042 163.814 370.346V367.754C163.814 367.058 163.634 366.53 163.274 366.17C162.914 365.798 162.416 365.612 161.78 365.612C161.168 365.612 160.682 365.804 160.322 366.188C159.974 366.56 159.8 367.082 159.8 367.754V370.346C159.8 371.018 159.974 371.546 160.322 371.93C160.682 372.302 161.168 372.488 161.78 372.488ZM168.973 374V364.1H170.845V365.99H171.313L170.719 367.16C170.719 366.092 170.953 365.288 171.421 364.748C171.889 364.196 172.585 363.92 173.509 363.92C174.565 363.92 175.399 364.25 176.011 364.91C176.635 365.558 176.947 366.452 176.947 367.592V368.258H174.949V367.754C174.949 367.046 174.769 366.506 174.409 366.134C174.061 365.75 173.569 365.558 172.933 365.558C172.297 365.558 171.799 365.75 171.439 366.134C171.091 366.518 170.917 367.058 170.917 367.754V374H168.973ZM183.33 374.18C182.526 374.18 181.818 374.024 181.206 373.712C180.606 373.388 180.144 372.938 179.82 372.362C179.496 371.786 179.334 371.114 179.334 370.346V367.754C179.334 366.974 179.496 366.302 179.82 365.738C180.144 365.162 180.606 364.718 181.206 364.406C181.818 364.082 182.526 363.92 183.33 363.92C184.146 363.92 184.854 364.082 185.454 364.406C186.054 364.718 186.516 365.162 186.84 365.738C187.164 366.302 187.326 366.974 187.326 367.754V369.518H181.206V370.346C181.206 371.078 181.386 371.636 181.746 372.02C182.118 372.404 182.652 372.596 183.348 372.596C183.912 372.596 184.368 372.5 184.716 372.308C185.064 372.104 185.28 371.81 185.364 371.426H187.29C187.146 372.266 186.714 372.938 185.994 373.442C185.274 373.934 184.386 374.18 183.33 374.18ZM185.454 368.348V367.736C185.454 367.016 185.274 366.458 184.914 366.062C184.554 365.666 184.026 365.468 183.33 365.468C182.646 365.468 182.118 365.666 181.746 366.062C181.386 366.458 181.206 367.022 181.206 367.754V368.204L185.598 368.186L185.454 368.348ZM193.133 374.18C192.101 374.18 191.285 373.916 190.685 373.388C190.097 372.848 189.803 372.116 189.803 371.192C189.803 370.256 190.115 369.524 190.739 368.996C191.375 368.456 192.245 368.186 193.349 368.186H196.103V367.268C196.103 366.728 195.935 366.308 195.599 366.008C195.263 365.708 194.789 365.558 194.177 365.558C193.637 365.558 193.187 365.678 192.827 365.918C192.467 366.146 192.257 366.452 192.197 366.836H190.289C190.397 365.948 190.805 365.24 191.513 364.712C192.233 364.184 193.139 363.92 194.231 363.92C195.407 363.92 196.337 364.22 197.021 364.82C197.705 365.408 198.047 366.212 198.047 367.232V374H196.157V372.182H195.833L196.157 371.822C196.157 372.542 195.881 373.118 195.329 373.55C194.777 373.97 194.045 374.18 193.133 374.18ZM193.709 372.686C194.405 372.686 194.975 372.512 195.419 372.164C195.875 371.804 196.103 371.348 196.103 370.796V369.5H193.385C192.881 369.5 192.479 369.638 192.179 369.914C191.891 370.19 191.747 370.568 191.747 371.048C191.747 371.552 191.921 371.954 192.269 372.254C192.617 372.542 193.097 372.686 193.709 372.686ZM201.082 374V360.86H203.026V368.078H204.772L207.4 364.1H209.596L206.446 368.852L209.65 374H207.418L204.772 369.752H203.026V374H201.082Z" fill="#0088FF"/>
<path d="M107.779 102.162C106.963 102.162 106.255 102.006 105.655 101.694C105.055 101.382 104.593 100.938 104.269 100.362C103.945 99.786 103.783 99.108 103.783 98.328V95.772C103.783 94.98 103.945 94.302 104.269 93.738C104.593 93.162 105.055 92.718 105.655 92.406C106.255 92.094 106.963 91.938 107.779 91.938C108.595 91.938 109.303 92.094 109.903 92.406C110.503 92.718 110.965 93.162 111.289 93.738C111.613 94.302 111.775 94.98 111.775 95.772V98.328C111.775 99.108 111.613 99.786 111.289 100.362C110.965 100.938 110.503 101.382 109.903 101.694C109.303 102.006 108.595 102.162 107.779 102.162ZM107.779 100.452C108.439 100.452 108.949 100.272 109.309 99.912C109.669 99.54 109.849 99.012 109.849 98.328V95.772C109.849 95.076 109.669 94.548 109.309 94.188C108.949 93.828 108.439 93.648 107.779 93.648C107.131 93.648 106.621 93.828 106.249 94.188C105.889 94.548 105.709 95.076 105.709 95.772V98.328C105.709 99.012 105.889 99.54 106.249 99.912C106.621 100.272 107.131 100.452 107.779 100.452ZM114.684 105.24V92.1H116.61V93.99H117.024L116.61 94.44C116.61 93.66 116.85 93.048 117.33 92.604C117.822 92.148 118.476 91.92 119.292 91.92C120.288 91.92 121.08 92.256 121.668 92.928C122.268 93.588 122.568 94.494 122.568 95.646V98.436C122.568 99.204 122.43 99.87 122.154 100.434C121.89 100.986 121.512 101.418 121.02 101.73C120.54 102.03 119.964 102.18 119.292 102.18C118.488 102.18 117.84 101.958 117.348 101.514C116.856 101.058 116.61 100.44 116.61 99.66L117.024 100.11H116.574L116.628 102.414V105.24H114.684ZM118.626 100.488C119.262 100.488 119.754 100.308 120.102 99.948C120.462 99.576 120.642 99.042 120.642 98.346V95.754C120.642 95.058 120.462 94.53 120.102 94.17C119.754 93.798 119.262 93.612 118.626 93.612C118.014 93.612 117.528 93.804 117.168 94.188C116.808 94.56 116.628 95.082 116.628 95.754V98.346C116.628 99.018 116.808 99.546 117.168 99.93C117.528 100.302 118.014 100.488 118.626 100.488ZM129.437 102.18C128.621 102.18 127.901 102.03 127.277 101.73C126.665 101.418 126.191 100.974 125.855 100.398C125.531 99.81 125.369 99.126 125.369 98.346V95.754C125.369 94.962 125.531 94.278 125.855 93.702C126.191 93.126 126.665 92.688 127.277 92.388C127.901 92.076 128.621 91.92 129.437 91.92C130.625 91.92 131.579 92.232 132.299 92.856C133.019 93.48 133.397 94.332 133.433 95.412H131.489C131.453 94.848 131.255 94.41 130.895 94.098C130.535 93.786 130.049 93.63 129.437 93.63C128.777 93.63 128.255 93.816 127.871 94.188C127.487 94.548 127.295 95.064 127.295 95.736V98.346C127.295 99.018 127.487 99.54 127.871 99.912C128.255 100.284 128.777 100.47 129.437 100.47C130.049 100.47 130.535 100.314 130.895 100.002C131.255 99.69 131.453 99.252 131.489 98.688H133.433C133.397 99.768 133.019 100.62 132.299 101.244C131.579 101.868 130.625 102.18 129.437 102.18ZM139.168 102.18C138.136 102.18 137.32 101.916 136.72 101.388C136.132 100.848 135.838 100.116 135.838 99.192C135.838 98.256 136.15 97.524 136.774 96.996C137.41 96.456 138.28 96.186 139.384 96.186H142.138V95.268C142.138 94.728 141.97 94.308 141.634 94.008C141.298 93.708 140.824 93.558 140.212 93.558C139.672 93.558 139.222 93.678 138.862 93.918C138.502 94.146 138.292 94.452 138.232 94.836H136.324C136.432 93.948 136.84 93.24 137.548 92.712C138.268 92.184 139.174 91.92 140.266 91.92C141.442 91.92 142.372 92.22 143.056 92.82C143.74 93.408 144.082 94.212 144.082 95.232V102H142.192V100.182H141.868L142.192 99.822C142.192 100.542 141.916 101.118 141.364 101.55C140.812 101.97 140.08 102.18 139.168 102.18ZM139.744 100.686C140.44 100.686 141.01 100.512 141.454 100.164C141.91 99.804 142.138 99.348 142.138 98.796V97.5H139.42C138.916 97.5 138.514 97.638 138.214 97.914C137.926 98.19 137.782 98.568 137.782 99.048C137.782 99.552 137.956 99.954 138.304 100.254C138.652 100.542 139.132 100.686 139.744 100.686ZM150.951 102.162C150.135 102.162 149.427 102.006 148.827 101.694C148.227 101.382 147.765 100.938 147.441 100.362C147.117 99.786 146.955 99.108 146.955 98.328V95.772C146.955 94.98 147.117 94.302 147.441 93.738C147.765 93.162 148.227 92.718 148.827 92.406C149.427 92.094 150.135 91.938 150.951 91.938C151.767 91.938 152.475 92.094 153.075 92.406C153.675 92.718 154.137 93.162 154.461 93.738C154.785 94.302 154.947 94.98 154.947 95.772V98.328C154.947 99.108 154.785 99.786 154.461 100.362C154.137 100.938 153.675 101.382 153.075 101.694C152.475 102.006 151.767 102.162 150.951 102.162ZM150.951 100.452C151.611 100.452 152.121 100.272 152.481 99.912C152.841 99.54 153.021 99.012 153.021 98.328V95.772C153.021 95.076 152.841 94.548 152.481 94.188C152.121 93.828 151.611 93.648 150.951 93.648C150.303 93.648 149.793 93.828 149.421 94.188C149.061 94.548 148.881 95.076 148.881 95.772V98.328C148.881 99.012 149.061 99.54 149.421 99.912C149.793 100.272 150.303 100.452 150.951 100.452ZM237.295 94.782C236.827 94.782 236.443 94.65 236.143 94.386C235.855 94.122 235.711 93.774 235.711 93.342C235.711 92.91 235.855 92.568 236.143 92.316C236.443 92.052 236.827 91.92 237.295 91.92C237.775 91.92 238.159 92.052 238.447 92.316C238.735 92.568 238.879 92.91 238.879 93.342C238.879 93.774 238.735 94.122 238.447 94.386C238.159 94.65 237.775 94.782 237.295 94.782ZM237.295 102.18C236.827 102.18 236.443 102.048 236.143 101.784C235.855 101.52 235.711 101.178 235.711 100.758C235.711 100.314 235.855 99.966 236.143 99.714C236.443 99.45 236.827 99.318 237.295 99.318C237.775 99.318 238.159 99.45 238.447 99.714C238.735 99.966 238.879 100.314 238.879 100.758C238.879 101.178 238.735 101.52 238.447 101.784C238.159 102.048 237.775 102.18 237.295 102.18ZM157.856 136V126.1H159.782V127.99H160.25L159.782 128.44C159.782 127.648 160.016 127.03 160.484 126.586C160.952 126.142 161.6 125.92 162.428 125.92C163.412 125.92 164.198 126.238 164.786 126.874C165.374 127.498 165.668 128.344 165.668 129.412V136H163.724V129.628C163.724 128.98 163.55 128.482 163.202 128.134C162.854 127.786 162.38 127.612 161.78 127.612C161.168 127.612 160.682 127.798 160.322 128.17C159.974 128.53 159.8 129.058 159.8 129.754V136H157.856ZM172.537 136.162C171.721 136.162 171.013 136.006 170.413 135.694C169.813 135.382 169.351 134.938 169.027 134.362C168.703 133.786 168.541 133.108 168.541 132.328V129.772C168.541 128.98 168.703 128.302 169.027 127.738C169.351 127.162 169.813 126.718 170.413 126.406C171.013 126.094 171.721 125.938 172.537 125.938C173.353 125.938 174.061 126.094 174.661 126.406C175.261 126.718 175.723 127.162 176.047 127.738C176.371 128.302 176.533 128.98 176.533 129.772V132.328C176.533 133.108 176.371 133.786 176.047 134.362C175.723 134.938 175.261 135.382 174.661 135.694C174.061 136.006 173.353 136.162 172.537 136.162ZM172.537 134.452C173.197 134.452 173.707 134.272 174.067 133.912C174.427 133.54 174.607 133.012 174.607 132.328V129.772C174.607 129.076 174.427 128.548 174.067 128.188C173.707 127.828 173.197 127.648 172.537 127.648C171.889 127.648 171.379 127.828 171.007 128.188C170.647 128.548 170.467 129.076 170.467 129.772V132.328C170.467 133.012 170.647 133.54 171.007 133.912C171.379 134.272 171.889 134.452 172.537 134.452ZM178.992 136V126.1H180.612V127.36H180.972L180.702 127.738C180.702 127.186 180.852 126.748 181.152 126.424C181.452 126.088 181.854 125.92 182.358 125.92C182.898 125.92 183.312 126.13 183.6 126.55C183.9 126.97 184.05 127.546 184.05 128.278L183.618 127.36H184.302L184.014 127.738C184.014 127.186 184.164 126.748 184.464 126.424C184.776 126.088 185.19 125.92 185.706 125.92C186.318 125.92 186.798 126.154 187.146 126.622C187.494 127.078 187.668 127.69 187.668 128.458V136H185.94V128.512C185.94 128.14 185.856 127.852 185.688 127.648C185.532 127.444 185.304 127.342 185.004 127.342C184.704 127.342 184.47 127.444 184.302 127.648C184.146 127.84 184.068 128.122 184.068 128.494V136H182.61V128.512C182.61 128.128 182.526 127.84 182.358 127.648C182.19 127.444 181.95 127.342 181.638 127.342C181.338 127.342 181.11 127.444 180.954 127.648C180.81 127.84 180.738 128.122 180.738 128.494V136H178.992ZM194.123 136.18C193.319 136.18 192.611 136.024 191.999 135.712C191.399 135.388 190.937 134.938 190.613 134.362C190.289 133.786 190.127 133.114 190.127 132.346V129.754C190.127 128.974 190.289 128.302 190.613 127.738C190.937 127.162 191.399 126.718 191.999 126.406C192.611 126.082 193.319 125.92 194.123 125.92C194.939 125.92 195.647 126.082 196.247 126.406C196.847 126.718 197.309 127.162 197.633 127.738C197.957 128.302 198.119 128.974 198.119 129.754V131.518H191.999V132.346C191.999 133.078 192.179 133.636 192.539 134.02C192.911 134.404 193.445 134.596 194.141 134.596C194.705 134.596 195.161 134.5 195.509 134.308C195.857 134.104 196.073 133.81 196.157 133.426H198.083C197.939 134.266 197.507 134.938 196.787 135.442C196.067 135.934 195.179 136.18 194.123 136.18ZM196.247 130.348V129.736C196.247 129.016 196.067 128.458 195.707 128.062C195.347 127.666 194.819 127.468 194.123 127.468C193.439 127.468 192.911 127.666 192.539 128.062C192.179 128.458 191.999 129.022 191.999 129.754V130.204L196.391 130.186L196.247 130.348ZM294.589 138.16C292.825 137.716 291.457 136.882 290.485 135.658C289.513 134.422 289.027 132.916 289.027 131.14V127.9C289.027 126.736 289.249 125.68 289.693 124.732C290.149 123.784 290.791 122.98 291.619 122.32C292.459 121.648 293.449 121.168 294.589 120.88V122.752C293.845 122.932 293.203 123.262 292.663 123.742C292.123 124.21 291.703 124.798 291.403 125.506C291.115 126.214 290.971 127.012 290.971 127.9V131.14C290.971 132.004 291.115 132.79 291.403 133.498C291.703 134.206 292.123 134.794 292.663 135.262C293.203 135.718 293.845 136.036 294.589 136.216V138.16ZM514.582 138.16V136.216C515.326 136.036 515.968 135.718 516.508 135.262C517.048 134.794 517.462 134.206 517.75 133.498C518.05 132.79 518.2 132.004 518.2 131.14V127.9C518.2 127.012 518.05 126.214 517.75 125.506C517.462 124.798 517.048 124.21 516.508 123.742C515.968 123.262 515.326 122.932 514.582 122.752V120.88C515.734 121.168 516.724 121.648 517.552 122.32C518.38 122.98 519.016 123.784 519.46 124.732C519.916 125.68 520.144 126.736 520.144 127.9V131.14C520.144 132.916 519.658 134.422 518.686 135.658C517.714 136.882 516.346 137.716 514.582 138.16ZM240.625 172.16C238.861 171.716 237.493 170.882 236.521 169.658C235.549 168.422 235.063 166.916 235.063 165.14V161.9C235.063 160.736 235.285 159.68 235.729 158.732C236.185 157.784 236.827 156.98 237.655 156.32C238.495 155.648 239.485 155.168 240.625 154.88V156.752C239.881 156.932 239.239 157.262 238.699 157.742C238.159 158.21 237.739 158.798 237.439 159.506C237.151 160.214 237.007 161.012 237.007 161.9V165.14C237.007 166.004 237.151 166.79 237.439 167.498C237.739 168.206 238.159 168.794 238.699 169.262C239.239 169.718 239.881 170.036 240.625 170.216V172.16ZM244.2 170V160.1H246.126V161.99H246.594L246.126 162.44C246.126 161.648 246.36 161.03 246.828 160.586C247.296 160.142 247.944 159.92 248.772 159.92C249.756 159.92 250.542 160.238 251.13 160.874C251.718 161.498 252.012 162.344 252.012 163.412V170H250.068V163.628C250.068 162.98 249.894 162.482 249.546 162.134C249.198 161.786 248.724 161.612 248.124 161.612C247.512 161.612 247.026 161.798 246.666 162.17C246.318 162.53 246.144 163.058 246.144 163.754V170H244.2ZM258.88 170.162C258.064 170.162 257.356 170.006 256.756 169.694C256.156 169.382 255.694 168.938 255.37 168.362C255.046 167.786 254.884 167.108 254.884 166.328V163.772C254.884 162.98 255.046 162.302 255.37 161.738C255.694 161.162 256.156 160.718 256.756 160.406C257.356 160.094 258.064 159.938 258.88 159.938C259.696 159.938 260.404 160.094 261.004 160.406C261.604 160.718 262.066 161.162 262.39 161.738C262.714 162.302 262.876 162.98 262.876 163.772V166.328C262.876 167.108 262.714 167.786 262.39 168.362C262.066 168.938 261.604 169.382 261.004 169.694C260.404 170.006 259.696 170.162 258.88 170.162ZM258.88 168.452C259.54 168.452 260.05 168.272 260.41 167.912C260.77 167.54 260.95 167.012 260.95 166.328V163.772C260.95 163.076 260.77 162.548 260.41 162.188C260.05 161.828 259.54 161.648 258.88 161.648C258.232 161.648 257.722 161.828 257.35 162.188C256.99 162.548 256.81 163.076 256.81 163.772V166.328C256.81 167.012 256.99 167.54 257.35 167.912C257.722 168.272 258.232 168.452 258.88 168.452ZM265.335 170V160.1H266.955V161.36H267.315L267.045 161.738C267.045 161.186 267.195 160.748 267.495 160.424C267.795 160.088 268.197 159.92 268.701 159.92C269.241 159.92 269.655 160.13 269.943 160.55C270.243 160.97 270.393 161.546 270.393 162.278L269.961 161.36H270.645L270.357 161.738C270.357 161.186 270.507 160.748 270.807 160.424C271.119 160.088 271.533 159.92 272.049 159.92C272.661 159.92 273.141 160.154 273.489 160.622C273.837 161.078 274.011 161.69 274.011 162.458V170H272.283V162.512C272.283 162.14 272.199 161.852 272.031 161.648C271.875 161.444 271.647 161.342 271.347 161.342C271.047 161.342 270.813 161.444 270.645 161.648C270.489 161.84 270.411 162.122 270.411 162.494V170H268.953V162.512C268.953 162.128 268.869 161.84 268.701 161.648C268.533 161.444 268.293 161.342 267.981 161.342C267.681 161.342 267.453 161.444 267.297 161.648C267.153 161.84 267.081 162.122 267.081 162.494V170H265.335ZM280.466 170.18C279.662 170.18 278.954 170.024 278.342 169.712C277.742 169.388 277.28 168.938 276.956 168.362C276.632 167.786 276.47 167.114 276.47 166.346V163.754C276.47 162.974 276.632 162.302 276.956 161.738C277.28 161.162 277.742 160.718 278.342 160.406C278.954 160.082 279.662 159.92 280.466 159.92C281.282 159.92 281.99 160.082 282.59 160.406C283.19 160.718 283.652 161.162 283.976 161.738C284.3 162.302 284.462 162.974 284.462 163.754V165.518H278.342V166.346C278.342 167.078 278.522 167.636 278.882 168.02C279.254 168.404 279.788 168.596 280.484 168.596C281.048 168.596 281.504 168.5 281.852 168.308C282.2 168.104 282.416 167.81 282.5 167.426H284.426C284.282 168.266 283.85 168.938 283.13 169.442C282.41 169.934 281.522 170.18 280.466 170.18ZM282.59 164.348V163.736C282.59 163.016 282.41 162.458 282.05 162.062C281.69 161.666 281.162 161.468 280.466 161.468C279.782 161.468 279.254 161.666 278.882 162.062C278.522 162.458 278.342 163.022 278.342 163.754V164.204L282.734 164.186L282.59 164.348ZM287.929 172.16V170.216C288.673 170.036 289.315 169.718 289.855 169.262C290.395 168.794 290.809 168.206 291.097 167.498C291.397 166.79 291.547 166.004 291.547 165.14V161.9C291.547 161.012 291.397 160.214 291.097 159.506C290.809 158.798 290.395 158.21 289.855 157.742C289.315 157.262 288.673 156.932 287.929 156.752V154.88C289.081 155.168 290.071 155.648 290.899 156.32C291.727 156.98 292.363 157.784 292.807 158.732C293.263 159.68 293.491 160.736 293.491 161.9V165.14C293.491 166.916 293.005 168.422 292.033 169.658C291.061 170.882 289.693 171.716 287.929 172.16ZM172.537 204.162C171.721 204.162 171.013 204.006 170.413 203.694C169.813 203.382 169.351 202.938 169.027 202.362C168.703 201.786 168.541 201.108 168.541 200.328V197.772C168.541 196.98 168.703 196.302 169.027 195.738C169.351 195.162 169.813 194.718 170.413 194.406C171.013 194.094 171.721 193.938 172.537 193.938C173.353 193.938 174.061 194.094 174.661 194.406C175.261 194.718 175.723 195.162 176.047 195.738C176.371 196.302 176.533 196.98 176.533 197.772V200.328C176.533 201.108 176.371 201.786 176.047 202.362C175.723 202.938 175.261 203.382 174.661 203.694C174.061 204.006 173.353 204.162 172.537 204.162ZM172.537 202.452C173.197 202.452 173.707 202.272 174.067 201.912C174.427 201.54 174.607 201.012 174.607 200.328V197.772C174.607 197.076 174.427 196.548 174.067 196.188C173.707 195.828 173.197 195.648 172.537 195.648C171.889 195.648 171.379 195.828 171.007 196.188C170.647 196.548 170.467 197.076 170.467 197.772V200.328C170.467 201.012 170.647 201.54 171.007 201.912C171.379 202.272 171.889 202.452 172.537 202.452ZM179.442 207.24V194.1H181.368V195.99H181.782L181.368 196.44C181.368 195.66 181.608 195.048 182.088 194.604C182.58 194.148 183.234 193.92 184.05 193.92C185.046 193.92 185.838 194.256 186.426 194.928C187.026 195.588 187.326 196.494 187.326 197.646V200.436C187.326 201.204 187.188 201.87 186.912 202.434C186.648 202.986 186.27 203.418 185.778 203.73C185.298 204.03 184.722 204.18 184.05 204.18C183.246 204.18 182.598 203.958 182.106 203.514C181.614 203.058 181.368 202.44 181.368 201.66L181.782 202.11H181.332L181.386 204.414V207.24H179.442ZM183.384 202.488C184.02 202.488 184.512 202.308 184.86 201.948C185.22 201.576 185.4 201.042 185.4 200.346V197.754C185.4 197.058 185.22 196.53 184.86 196.17C184.512 195.798 184.02 195.612 183.384 195.612C182.772 195.612 182.286 195.804 181.926 196.188C181.566 196.56 181.386 197.082 181.386 197.754V200.346C181.386 201.018 181.566 201.546 181.926 201.93C182.286 202.302 182.772 202.488 183.384 202.488ZM194.195 204.18C193.379 204.18 192.659 204.03 192.035 203.73C191.423 203.418 190.949 202.974 190.613 202.398C190.289 201.81 190.127 201.126 190.127 200.346V197.754C190.127 196.962 190.289 196.278 190.613 195.702C190.949 195.126 191.423 194.688 192.035 194.388C192.659 194.076 193.379 193.92 194.195 193.92C195.383 193.92 196.337 194.232 197.057 194.856C197.777 195.48 198.155 196.332 198.191 197.412H196.247C196.211 196.848 196.013 196.41 195.653 196.098C195.293 195.786 194.807 195.63 194.195 195.63C193.535 195.63 193.013 195.816 192.629 196.188C192.245 196.548 192.053 197.064 192.053 197.736V200.346C192.053 201.018 192.245 201.54 192.629 201.912C193.013 202.284 193.535 202.47 194.195 202.47C194.807 202.47 195.293 202.314 195.653 202.002C196.013 201.69 196.211 201.252 196.247 200.688H198.191C198.155 201.768 197.777 202.62 197.057 203.244C196.337 203.868 195.383 204.18 194.195 204.18ZM203.926 204.18C202.894 204.18 202.078 203.916 201.478 203.388C200.89 202.848 200.596 202.116 200.596 201.192C200.596 200.256 200.908 199.524 201.532 198.996C202.168 198.456 203.038 198.186 204.142 198.186H206.896V197.268C206.896 196.728 206.728 196.308 206.392 196.008C206.056 195.708 205.582 195.558 204.97 195.558C204.43 195.558 203.98 195.678 203.62 195.918C203.26 196.146 203.05 196.452 202.99 196.836H201.082C201.19 195.948 201.598 195.24 202.306 194.712C203.026 194.184 203.932 193.92 205.024 193.92C206.2 193.92 207.13 194.22 207.814 194.82C208.498 195.408 208.84 196.212 208.84 197.232V204H206.95V202.182H206.626L206.95 201.822C206.95 202.542 206.674 203.118 206.122 203.55C205.57 203.97 204.838 204.18 203.926 204.18ZM204.502 202.686C205.198 202.686 205.768 202.512 206.212 202.164C206.668 201.804 206.896 201.348 206.896 200.796V199.5H204.178C203.674 199.5 203.272 199.638 202.972 199.914C202.684 200.19 202.54 200.568 202.54 201.048C202.54 201.552 202.714 201.954 203.062 202.254C203.41 202.542 203.89 202.686 204.502 202.686ZM215.709 204.162C214.893 204.162 214.185 204.006 213.585 203.694C212.985 203.382 212.523 202.938 212.199 202.362C211.875 201.786 211.713 201.108 211.713 200.328V197.772C211.713 196.98 211.875 196.302 212.199 195.738C212.523 195.162 212.985 194.718 213.585 194.406C214.185 194.094 214.893 193.938 215.709 193.938C216.525 193.938 217.233 194.094 217.833 194.406C218.433 194.718 218.895 195.162 219.219 195.738C219.543 196.302 219.705 196.98 219.705 197.772V200.328C219.705 201.108 219.543 201.786 219.219 202.362C218.895 202.938 218.433 203.382 217.833 203.694C217.233 204.006 216.525 204.162 215.709 204.162ZM215.709 202.452C216.369 202.452 216.879 202.272 217.239 201.912C217.599 201.54 217.779 201.012 217.779 200.328V197.772C217.779 197.076 217.599 196.548 217.239 196.188C216.879 195.828 216.369 195.648 215.709 195.648C215.061 195.648 214.551 195.828 214.179 196.188C213.819 196.548 213.639 197.076 213.639 197.772V200.328C213.639 201.012 213.819 201.54 214.179 201.912C214.551 202.272 215.061 202.452 215.709 202.452ZM302.052 196.782C301.584 196.782 301.2 196.65 300.9 196.386C300.612 196.122 300.468 195.774 300.468 195.342C300.468 194.91 300.612 194.568 300.9 194.316C301.2 194.052 301.584 193.92 302.052 193.92C302.532 193.92 302.916 194.052 303.204 194.316C303.492 194.568 303.636 194.91 303.636 195.342C303.636 195.774 303.492 196.122 303.204 196.386C302.916 196.65 302.532 196.782 302.052 196.782ZM302.052 204.18C301.584 204.18 301.2 204.048 300.9 203.784C300.612 203.52 300.468 203.178 300.468 202.758C300.468 202.314 300.612 201.966 300.9 201.714C301.2 201.45 301.584 201.318 302.052 201.318C302.532 201.318 302.916 201.45 303.204 201.714C303.492 201.966 303.636 202.314 303.636 202.758C303.636 203.178 303.492 203.52 303.204 203.784C302.916 204.048 302.532 204.18 302.052 204.18ZM229.832 240.16C228.068 239.716 226.7 238.882 225.728 237.658C224.756 236.422 224.27 234.916 224.27 233.14V229.9C224.27 228.736 224.492 227.68 224.936 226.732C225.392 225.784 226.034 224.98 226.862 224.32C227.702 223.648 228.692 223.168 229.832 222.88V224.752C229.088 224.932 228.446 225.262 227.906 225.742C227.366 226.21 226.946 226.798 226.646 227.506C226.358 228.214 226.214 229.012 226.214 229.9V233.14C226.214 234.004 226.358 234.79 226.646 235.498C226.946 236.206 227.366 236.794 227.906 237.262C228.446 237.718 229.088 238.036 229.832 238.216V240.16ZM233.965 240.16V238.216C234.709 238.036 235.351 237.718 235.891 237.262C236.431 236.794 236.845 236.206 237.133 235.498C237.433 234.79 237.583 234.004 237.583 233.14V229.9C237.583 229.012 237.433 228.214 237.133 227.506C236.845 226.798 236.431 226.21 235.891 225.742C235.351 225.262 234.709 224.932 233.965 224.752V222.88C235.117 223.168 236.107 223.648 236.935 224.32C237.763 224.98 238.399 225.784 238.843 226.732C239.299 227.68 239.527 228.736 239.527 229.9V233.14C239.527 234.916 239.041 236.422 238.069 237.658C237.097 238.882 235.729 239.716 233.965 240.16ZM172.537 272.162C171.721 272.162 171.013 272.006 170.413 271.694C169.813 271.382 169.351 270.938 169.027 270.362C168.703 269.786 168.541 269.108 168.541 268.328V265.772C168.541 264.98 168.703 264.302 169.027 263.738C169.351 263.162 169.813 262.718 170.413 262.406C171.013 262.094 171.721 261.938 172.537 261.938C173.353 261.938 174.061 262.094 174.661 262.406C175.261 262.718 175.723 263.162 176.047 263.738C176.371 264.302 176.533 264.98 176.533 265.772V268.328C176.533 269.108 176.371 269.786 176.047 270.362C175.723 270.938 175.261 271.382 174.661 271.694C174.061 272.006 173.353 272.162 172.537 272.162ZM172.537 270.452C173.197 270.452 173.707 270.272 174.067 269.912C174.427 269.54 174.607 269.012 174.607 268.328V265.772C174.607 265.076 174.427 264.548 174.067 264.188C173.707 263.828 173.197 263.648 172.537 263.648C171.889 263.648 171.379 263.828 171.007 264.188C170.647 264.548 170.467 265.076 170.467 265.772V268.328C170.467 269.012 170.647 269.54 171.007 269.912C171.379 270.272 171.889 270.452 172.537 270.452ZM179.442 275.24V262.1H181.368V263.99H181.782L181.368 264.44C181.368 263.66 181.608 263.048 182.088 262.604C182.58 262.148 183.234 261.92 184.05 261.92C185.046 261.92 185.838 262.256 186.426 262.928C187.026 263.588 187.326 264.494 187.326 265.646V268.436C187.326 269.204 187.188 269.87 186.912 270.434C186.648 270.986 186.27 271.418 185.778 271.73C185.298 272.03 184.722 272.18 184.05 272.18C183.246 272.18 182.598 271.958 182.106 271.514C181.614 271.058 181.368 270.44 181.368 269.66L181.782 270.11H181.332L181.386 272.414V275.24H179.442ZM183.384 270.488C184.02 270.488 184.512 270.308 184.86 269.948C185.22 269.576 185.4 269.042 185.4 268.346V265.754C185.4 265.058 185.22 264.53 184.86 264.17C184.512 263.798 184.02 263.612 183.384 263.612C182.772 263.612 182.286 263.804 181.926 264.188C181.566 264.56 181.386 265.082 181.386 265.754V268.346C181.386 269.018 181.566 269.546 181.926 269.93C182.286 270.302 182.772 270.488 183.384 270.488ZM194.195 272.18C193.379 272.18 192.659 272.03 192.035 271.73C191.423 271.418 190.949 270.974 190.613 270.398C190.289 269.81 190.127 269.126 190.127 268.346V265.754C190.127 264.962 190.289 264.278 190.613 263.702C190.949 263.126 191.423 262.688 192.035 262.388C192.659 262.076 193.379 261.92 194.195 261.92C195.383 261.92 196.337 262.232 197.057 262.856C197.777 263.48 198.155 264.332 198.191 265.412H196.247C196.211 264.848 196.013 264.41 195.653 264.098C195.293 263.786 194.807 263.63 194.195 263.63C193.535 263.63 193.013 263.816 192.629 264.188C192.245 264.548 192.053 265.064 192.053 265.736V268.346C192.053 269.018 192.245 269.54 192.629 269.912C193.013 270.284 193.535 270.47 194.195 270.47C194.807 270.47 195.293 270.314 195.653 270.002C196.013 269.69 196.211 269.252 196.247 268.688H198.191C198.155 269.768 197.777 270.62 197.057 271.244C196.337 271.868 195.383 272.18 194.195 272.18ZM203.926 272.18C202.894 272.18 202.078 271.916 201.478 271.388C200.89 270.848 200.596 270.116 200.596 269.192C200.596 268.256 200.908 267.524 201.532 266.996C202.168 266.456 203.038 266.186 204.142 266.186H206.896V265.268C206.896 264.728 206.728 264.308 206.392 264.008C206.056 263.708 205.582 263.558 204.97 263.558C204.43 263.558 203.98 263.678 203.62 263.918C203.26 264.146 203.05 264.452 202.99 264.836H201.082C201.19 263.948 201.598 263.24 202.306 262.712C203.026 262.184 203.932 261.92 205.024 261.92C206.2 261.92 207.13 262.22 207.814 262.82C208.498 263.408 208.84 264.212 208.84 265.232V272H206.95V270.182H206.626L206.95 269.822C206.95 270.542 206.674 271.118 206.122 271.55C205.57 271.97 204.838 272.18 203.926 272.18ZM204.502 270.686C205.198 270.686 205.768 270.512 206.212 270.164C206.668 269.804 206.896 269.348 206.896 268.796V267.5H204.178C203.674 267.5 203.272 267.638 202.972 267.914C202.684 268.19 202.54 268.568 202.54 269.048C202.54 269.552 202.714 269.954 203.062 270.254C203.41 270.542 203.89 270.686 204.502 270.686ZM215.709 272.162C214.893 272.162 214.185 272.006 213.585 271.694C212.985 271.382 212.523 270.938 212.199 270.362C211.875 269.786 211.713 269.108 211.713 268.328V265.772C211.713 264.98 211.875 264.302 212.199 263.738C212.523 263.162 212.985 262.718 213.585 262.406C214.185 262.094 214.893 261.938 215.709 261.938C216.525 261.938 217.233 262.094 217.833 262.406C218.433 262.718 218.895 263.162 219.219 263.738C219.543 264.302 219.705 264.98 219.705 265.772V268.328C219.705 269.108 219.543 269.786 219.219 270.362C218.895 270.938 218.433 271.382 217.833 271.694C217.233 272.006 216.525 272.162 215.709 272.162ZM215.709 270.452C216.369 270.452 216.879 270.272 217.239 269.912C217.599 269.54 217.779 269.012 217.779 268.328V265.772C217.779 265.076 217.599 264.548 217.239 264.188C216.879 263.828 216.369 263.648 215.709 263.648C215.061 263.648 214.551 263.828 214.179 264.188C213.819 264.548 213.639 265.076 213.639 265.772V268.328C213.639 269.012 213.819 269.54 214.179 269.912C214.551 270.272 215.061 270.452 215.709 270.452ZM302.052 264.782C301.584 264.782 301.2 264.65 300.9 264.386C300.612 264.122 300.468 263.774 300.468 263.342C300.468 262.91 300.612 262.568 300.9 262.316C301.2 262.052 301.584 261.92 302.052 261.92C302.532 261.92 302.916 262.052 303.204 262.316C303.492 262.568 303.636 262.91 303.636 263.342C303.636 263.774 303.492 264.122 303.204 264.386C302.916 264.65 302.532 264.782 302.052 264.782ZM302.052 272.18C301.584 272.18 301.2 272.048 300.9 271.784C300.612 271.52 300.468 271.178 300.468 270.758C300.468 270.314 300.612 269.966 300.9 269.714C301.2 269.45 301.584 269.318 302.052 269.318C302.532 269.318 302.916 269.45 303.204 269.714C303.492 269.966 303.636 270.314 303.636 270.758C303.636 271.178 303.492 271.52 303.204 271.784C302.916 272.048 302.532 272.18 302.052 272.18ZM240.625 308.16C238.861 307.716 237.493 306.882 236.521 305.658C235.549 304.422 235.063 302.916 235.063 301.14V297.9C235.063 296.736 235.285 295.68 235.729 294.732C236.185 293.784 236.827 292.98 237.655 292.32C238.495 291.648 239.485 291.168 240.625 290.88V292.752C239.881 292.932 239.239 293.262 238.699 293.742C238.159 294.21 237.739 294.798 237.439 295.506C237.151 296.214 237.007 297.012 237.007 297.9V301.14C237.007 302.004 237.151 302.79 237.439 303.498C237.739 304.206 238.159 304.794 238.699 305.262C239.239 305.718 239.881 306.036 240.625 306.216V308.16ZM244.758 308.16V306.216C245.502 306.036 246.144 305.718 246.684 305.262C247.224 304.794 247.638 304.206 247.926 303.498C248.226 302.79 248.376 302.004 248.376 301.14V297.9C248.376 297.012 248.226 296.214 247.926 295.506C247.638 294.798 247.224 294.21 246.684 293.742C246.144 293.262 245.502 292.932 244.758 292.752V290.88C245.91 291.168 246.9 291.648 247.728 292.32C248.556 292.98 249.192 293.784 249.636 294.732C250.092 295.68 250.32 296.736 250.32 297.9V301.14C250.32 302.916 249.834 304.422 248.862 305.658C247.89 306.882 246.522 307.716 244.758 308.16ZM172.537 340.162C171.721 340.162 171.013 340.006 170.413 339.694C169.813 339.382 169.351 338.938 169.027 338.362C168.703 337.786 168.541 337.108 168.541 336.328V333.772C168.541 332.98 168.703 332.302 169.027 331.738C169.351 331.162 169.813 330.718 170.413 330.406C171.013 330.094 171.721 329.938 172.537 329.938C173.353 329.938 174.061 330.094 174.661 330.406C175.261 330.718 175.723 331.162 176.047 331.738C176.371 332.302 176.533 332.98 176.533 333.772V336.328C176.533 337.108 176.371 337.786 176.047 338.362C175.723 338.938 175.261 339.382 174.661 339.694C174.061 340.006 173.353 340.162 172.537 340.162ZM172.537 338.452C173.197 338.452 173.707 338.272 174.067 337.912C174.427 337.54 174.607 337.012 174.607 336.328V333.772C174.607 333.076 174.427 332.548 174.067 332.188C173.707 331.828 173.197 331.648 172.537 331.648C171.889 331.648 171.379 331.828 171.007 332.188C170.647 332.548 170.467 333.076 170.467 333.772V336.328C170.467 337.012 170.647 337.54 171.007 337.912C171.379 338.272 171.889 338.452 172.537 338.452ZM179.442 343.24V330.1H181.368V331.99H181.782L181.368 332.44C181.368 331.66 181.608 331.048 182.088 330.604C182.58 330.148 183.234 329.92 184.05 329.92C185.046 329.92 185.838 330.256 186.426 330.928C187.026 331.588 187.326 332.494 187.326 333.646V336.436C187.326 337.204 187.188 337.87 186.912 338.434C186.648 338.986 186.27 339.418 185.778 339.73C185.298 340.03 184.722 340.18 184.05 340.18C183.246 340.18 182.598 339.958 182.106 339.514C181.614 339.058 181.368 338.44 181.368 337.66L181.782 338.11H181.332L181.386 340.414V343.24H179.442ZM183.384 338.488C184.02 338.488 184.512 338.308 184.86 337.948C185.22 337.576 185.4 337.042 185.4 336.346V333.754C185.4 333.058 185.22 332.53 184.86 332.17C184.512 331.798 184.02 331.612 183.384 331.612C182.772 331.612 182.286 331.804 181.926 332.188C181.566 332.56 181.386 333.082 181.386 333.754V336.346C181.386 337.018 181.566 337.546 181.926 337.93C182.286 338.302 182.772 338.488 183.384 338.488ZM194.195 340.18C193.379 340.18 192.659 340.03 192.035 339.73C191.423 339.418 190.949 338.974 190.613 338.398C190.289 337.81 190.127 337.126 190.127 336.346V333.754C190.127 332.962 190.289 332.278 190.613 331.702C190.949 331.126 191.423 330.688 192.035 330.388C192.659 330.076 193.379 329.92 194.195 329.92C195.383 329.92 196.337 330.232 197.057 330.856C197.777 331.48 198.155 332.332 198.191 333.412H196.247C196.211 332.848 196.013 332.41 195.653 332.098C195.293 331.786 194.807 331.63 194.195 331.63C193.535 331.63 193.013 331.816 192.629 332.188C192.245 332.548 192.053 333.064 192.053 333.736V336.346C192.053 337.018 192.245 337.54 192.629 337.912C193.013 338.284 193.535 338.47 194.195 338.47C194.807 338.47 195.293 338.314 195.653 338.002C196.013 337.69 196.211 337.252 196.247 336.688H198.191C198.155 337.768 197.777 338.62 197.057 339.244C196.337 339.868 195.383 340.18 194.195 340.18ZM203.926 340.18C202.894 340.18 202.078 339.916 201.478 339.388C200.89 338.848 200.596 338.116 200.596 337.192C200.596 336.256 200.908 335.524 201.532 334.996C202.168 334.456 203.038 334.186 204.142 334.186H206.896V333.268C206.896 332.728 206.728 332.308 206.392 332.008C206.056 331.708 205.582 331.558 204.97 331.558C204.43 331.558 203.98 331.678 203.62 331.918C203.26 332.146 203.05 332.452 202.99 332.836H201.082C201.19 331.948 201.598 331.24 202.306 330.712C203.026 330.184 203.932 329.92 205.024 329.92C206.2 329.92 207.13 330.22 207.814 330.82C208.498 331.408 208.84 332.212 208.84 333.232V340H206.95V338.182H206.626L206.95 337.822C206.95 338.542 206.674 339.118 206.122 339.55C205.57 339.97 204.838 340.18 203.926 340.18ZM204.502 338.686C205.198 338.686 205.768 338.512 206.212 338.164C206.668 337.804 206.896 337.348 206.896 336.796V335.5H204.178C203.674 335.5 203.272 335.638 202.972 335.914C202.684 336.19 202.54 336.568 202.54 337.048C202.54 337.552 202.714 337.954 203.062 338.254C203.41 338.542 203.89 338.686 204.502 338.686ZM215.709 340.162C214.893 340.162 214.185 340.006 213.585 339.694C212.985 339.382 212.523 338.938 212.199 338.362C211.875 337.786 211.713 337.108 211.713 336.328V333.772C211.713 332.98 211.875 332.302 212.199 331.738C212.523 331.162 212.985 330.718 213.585 330.406C214.185 330.094 214.893 329.938 215.709 329.938C216.525 329.938 217.233 330.094 217.833 330.406C218.433 330.718 218.895 331.162 219.219 331.738C219.543 332.302 219.705 332.98 219.705 333.772V336.328C219.705 337.108 219.543 337.786 219.219 338.362C218.895 338.938 218.433 339.382 217.833 339.694C217.233 340.006 216.525 340.162 215.709 340.162ZM215.709 338.452C216.369 338.452 216.879 338.272 217.239 337.912C217.599 337.54 217.779 337.012 217.779 336.328V333.772C217.779 333.076 217.599 332.548 217.239 332.188C216.879 331.828 216.369 331.648 215.709 331.648C215.061 331.648 214.551 331.828 214.179 332.188C213.819 332.548 213.639 333.076 213.639 333.772V336.328C213.639 337.012 213.819 337.54 214.179 337.912C214.551 338.272 215.061 338.452 215.709 338.452ZM302.052 332.782C301.584 332.782 301.2 332.65 300.9 332.386C300.612 332.122 300.468 331.774 300.468 331.342C300.468 330.91 300.612 330.568 300.9 330.316C301.2 330.052 301.584 329.92 302.052 329.92C302.532 329.92 302.916 330.052 303.204 330.316C303.492 330.568 303.636 330.91 303.636 331.342C303.636 331.774 303.492 332.122 303.204 332.386C302.916 332.65 302.532 332.782 302.052 332.782ZM302.052 340.18C301.584 340.18 301.2 340.048 300.9 339.784C300.612 339.52 300.468 339.178 300.468 338.758C300.468 338.314 300.612 337.966 300.9 337.714C301.2 337.45 301.584 337.318 302.052 337.318C302.532 337.318 302.916 337.45 303.204 337.714C303.492 337.966 303.636 338.314 303.636 338.758C303.636 339.178 303.492 339.52 303.204 339.784C302.916 340.048 302.532 340.18 302.052 340.18Z" fill="#E6E6E6"/>
<path d="M206.032 94.26L205.816 90.858V88.86H207.832V90.858L207.616 94.26H206.032ZM202.234 94.26L202 90.858V88.86H204.016V90.858L203.818 94.26H202.234ZM211.875 102V100.272H215.367V90.552L211.857 93.162V91.056L214.863 88.86H217.311V100.272H220.137V102H211.875ZM227.618 94.26L227.402 90.858V88.86H229.418V90.858L229.202 94.26H227.618ZM223.82 94.26L223.586 90.858V88.86H225.602V90.858L225.404 94.26H223.82ZM303.168 128.26L302.952 124.858V122.86H304.968V124.858L304.752 128.26H303.168ZM299.37 128.26L299.136 124.858V122.86H301.152V124.858L300.954 128.26H299.37ZM308.903 136V122.86H311.351L315.185 133.786C315.161 133.438 315.131 133.024 315.095 132.544C315.059 132.064 315.029 131.566 315.005 131.05C314.993 130.534 314.987 130.066 314.987 129.646V122.86H316.787V136H314.339L310.523 125.074C310.547 125.386 310.571 125.776 310.595 126.244C310.631 126.712 310.655 127.198 310.667 127.702C310.691 128.206 310.703 128.674 310.703 129.106V136H308.903ZM323.638 136.162C322.822 136.162 322.114 136.006 321.514 135.694C320.914 135.382 320.452 134.938 320.128 134.362C319.804 133.786 319.642 133.108 319.642 132.328V129.772C319.642 128.98 319.804 128.302 320.128 127.738C320.452 127.162 320.914 126.718 321.514 126.406C322.114 126.094 322.822 125.938 323.638 125.938C324.454 125.938 325.162 126.094 325.762 126.406C326.362 126.718 326.824 127.162 327.148 127.738C327.472 128.302 327.634 128.98 327.634 129.772V132.328C327.634 133.108 327.472 133.786 327.148 134.362C326.824 134.938 326.362 135.382 325.762 135.694C325.162 136.006 324.454 136.162 323.638 136.162ZM323.638 134.452C324.298 134.452 324.808 134.272 325.168 133.912C325.528 133.54 325.708 133.012 325.708 132.328V129.772C325.708 129.076 325.528 128.548 325.168 128.188C324.808 127.828 324.298 127.648 323.638 127.648C322.99 127.648 322.48 127.828 322.108 128.188C321.748 128.548 321.568 129.076 321.568 129.772V132.328C321.568 133.012 321.748 133.54 322.108 133.912C322.48 134.272 322.99 134.452 323.638 134.452ZM330.093 136V126.1H331.713V127.36H332.073L331.803 127.738C331.803 127.186 331.953 126.748 332.253 126.424C332.553 126.088 332.955 125.92 333.459 125.92C333.999 125.92 334.413 126.13 334.701 126.55C335.001 126.97 335.151 127.546 335.151 128.278L334.719 127.36H335.403L335.115 127.738C335.115 127.186 335.265 126.748 335.565 126.424C335.877 126.088 336.291 125.92 336.807 125.92C337.419 125.92 337.899 126.154 338.247 126.622C338.595 127.078 338.769 127.69 338.769 128.458V136H337.041V128.512C337.041 128.14 336.957 127.852 336.789 127.648C336.633 127.444 336.405 127.342 336.105 127.342C335.805 127.342 335.571 127.444 335.403 127.648C335.247 127.84 335.169 128.122 335.169 128.494V136H333.711V128.512C333.711 128.128 333.627 127.84 333.459 127.648C333.291 127.444 333.051 127.342 332.739 127.342C332.439 127.342 332.211 127.444 332.055 127.648C331.911 127.84 331.839 128.122 331.839 128.494V136H330.093ZM345.224 136.18C344.42 136.18 343.712 136.024 343.1 135.712C342.5 135.388 342.038 134.938 341.714 134.362C341.39 133.786 341.228 133.114 341.228 132.346V129.754C341.228 128.974 341.39 128.302 341.714 127.738C342.038 127.162 342.5 126.718 343.1 126.406C343.712 126.082 344.42 125.92 345.224 125.92C346.04 125.92 346.748 126.082 347.348 126.406C347.948 126.718 348.41 127.162 348.734 127.738C349.058 128.302 349.22 128.974 349.22 129.754V131.518H343.1V132.346C343.1 133.078 343.28 133.636 343.64 134.02C344.012 134.404 344.546 134.596 345.242 134.596C345.806 134.596 346.262 134.5 346.61 134.308C346.958 134.104 347.174 133.81 347.258 133.426H349.184C349.04 134.266 348.608 134.938 347.888 135.442C347.168 135.934 346.28 136.18 345.224 136.18ZM347.348 130.348V129.736C347.348 129.016 347.168 128.458 346.808 128.062C346.448 127.666 345.92 127.468 345.224 127.468C344.54 127.468 344.012 127.666 343.64 128.062C343.28 128.458 343.1 129.022 343.1 129.754V130.204L347.492 130.186L347.348 130.348ZM366.108 136.18C365.112 136.18 364.314 135.844 363.714 135.172C363.114 134.5 362.814 133.594 362.814 132.454V129.664C362.814 128.512 363.114 127.6 363.714 126.928C364.314 126.256 365.112 125.92 366.108 125.92C366.924 125.92 367.572 126.148 368.052 126.604C368.532 127.048 368.772 127.66 368.772 128.44L368.358 127.99H368.808L368.754 125.686V122.86H370.698V136H368.772V134.11H368.358L368.772 133.66C368.772 134.44 368.532 135.058 368.052 135.514C367.572 135.958 366.924 136.18 366.108 136.18ZM366.774 134.488C367.386 134.488 367.866 134.302 368.214 133.93C368.574 133.546 368.754 133.018 368.754 132.346V129.754C368.754 129.082 368.574 128.56 368.214 128.188C367.866 127.804 367.386 127.612 366.774 127.612C366.138 127.612 365.64 127.798 365.28 128.17C364.92 128.53 364.74 129.058 364.74 129.754V132.346C364.74 133.042 364.92 133.576 365.28 133.948C365.64 134.308 366.138 134.488 366.774 134.488ZM377.603 136.162C376.787 136.162 376.079 136.006 375.479 135.694C374.879 135.382 374.417 134.938 374.093 134.362C373.769 133.786 373.607 133.108 373.607 132.328V129.772C373.607 128.98 373.769 128.302 374.093 127.738C374.417 127.162 374.879 126.718 375.479 126.406C376.079 126.094 376.787 125.938 377.603 125.938C378.419 125.938 379.127 126.094 379.727 126.406C380.327 126.718 380.789 127.162 381.113 127.738C381.437 128.302 381.599 128.98 381.599 129.772V132.328C381.599 133.108 381.437 133.786 381.113 134.362C380.789 134.938 380.327 135.382 379.727 135.694C379.127 136.006 378.419 136.162 377.603 136.162ZM377.603 134.452C378.263 134.452 378.773 134.272 379.133 133.912C379.493 133.54 379.673 133.012 379.673 132.328V129.772C379.673 129.076 379.493 128.548 379.133 128.188C378.773 127.828 378.263 127.648 377.603 127.648C376.955 127.648 376.445 127.828 376.073 128.188C375.713 128.548 375.533 129.076 375.533 129.772V132.328C375.533 133.012 375.713 133.54 376.073 133.912C376.445 134.272 376.955 134.452 377.603 134.452ZM395.301 139.24V126.1H397.227V127.99H397.641L397.227 128.44C397.227 127.66 397.467 127.048 397.947 126.604C398.439 126.148 399.093 125.92 399.909 125.92C400.905 125.92 401.697 126.256 402.285 126.928C402.885 127.588 403.185 128.494 403.185 129.646V132.436C403.185 133.204 403.047 133.87 402.771 134.434C402.507 134.986 402.129 135.418 401.637 135.73C401.157 136.03 400.581 136.18 399.909 136.18C399.105 136.18 398.457 135.958 397.965 135.514C397.473 135.058 397.227 134.44 397.227 133.66L397.641 134.11H397.191L397.245 136.414V139.24H395.301ZM399.243 134.488C399.879 134.488 400.371 134.308 400.719 133.948C401.079 133.576 401.259 133.042 401.259 132.346V129.754C401.259 129.058 401.079 128.53 400.719 128.17C400.371 127.798 399.879 127.612 399.243 127.612C398.631 127.612 398.145 127.804 397.785 128.188C397.425 128.56 397.245 129.082 397.245 129.754V132.346C397.245 133.018 397.425 133.546 397.785 133.93C398.145 134.302 398.631 134.488 399.243 134.488ZM408.992 136.18C407.96 136.18 407.144 135.916 406.544 135.388C405.956 134.848 405.662 134.116 405.662 133.192C405.662 132.256 405.974 131.524 406.598 130.996C407.234 130.456 408.104 130.186 409.208 130.186H411.962V129.268C411.962 128.728 411.794 128.308 411.458 128.008C411.122 127.708 410.648 127.558 410.036 127.558C409.496 127.558 409.046 127.678 408.686 127.918C408.326 128.146 408.116 128.452 408.056 128.836H406.148C406.256 127.948 406.664 127.24 407.372 126.712C408.092 126.184 408.998 125.92 410.09 125.92C411.266 125.92 412.196 126.22 412.88 126.82C413.564 127.408 413.906 128.212 413.906 129.232V136H412.016V134.182H411.692L412.016 133.822C412.016 134.542 411.74 135.118 411.188 135.55C410.636 135.97 409.904 136.18 408.992 136.18ZM409.568 134.686C410.264 134.686 410.834 134.512 411.278 134.164C411.734 133.804 411.962 133.348 411.962 132.796V131.5H409.244C408.74 131.5 408.338 131.638 408.038 131.914C407.75 132.19 407.606 132.568 407.606 133.048C407.606 133.552 407.78 133.954 408.128 134.254C408.476 134.542 408.956 134.686 409.568 134.686ZM420.847 136.18C420.031 136.18 419.311 136.03 418.687 135.73C418.075 135.418 417.601 134.974 417.265 134.398C416.941 133.81 416.779 133.126 416.779 132.346V129.754C416.779 128.962 416.941 128.278 417.265 127.702C417.601 127.126 418.075 126.688 418.687 126.388C419.311 126.076 420.031 125.92 420.847 125.92C422.035 125.92 422.989 126.232 423.709 126.856C424.429 127.48 424.807 128.332 424.843 129.412H422.899C422.863 128.848 422.665 128.41 422.305 128.098C421.945 127.786 421.459 127.63 420.847 127.63C420.187 127.63 419.665 127.816 419.281 128.188C418.897 128.548 418.705 129.064 418.705 129.736V132.346C418.705 133.018 418.897 133.54 419.281 133.912C419.665 134.284 420.187 134.47 420.847 134.47C421.459 134.47 421.945 134.314 422.305 134.002C422.665 133.69 422.863 133.252 422.899 132.688H424.843C424.807 133.768 424.429 134.62 423.709 135.244C422.989 135.868 422.035 136.18 420.847 136.18ZM427.626 136V134.236H431.1V127.864H428.076V126.1H432.99V134.236H436.176V136H427.626ZM431.856 124.39C431.436 124.39 431.1 124.282 430.848 124.066C430.596 123.838 430.47 123.538 430.47 123.166C430.47 122.782 430.596 122.482 430.848 122.266C431.1 122.038 431.436 121.924 431.856 121.924C432.276 121.924 432.612 122.038 432.864 122.266C433.116 122.482 433.242 122.782 433.242 123.166C433.242 123.538 433.116 123.838 432.864 124.066C432.612 124.282 432.276 124.39 431.856 124.39ZM442.361 136.18C441.557 136.18 440.849 136.024 440.237 135.712C439.637 135.388 439.175 134.938 438.851 134.362C438.527 133.786 438.365 133.114 438.365 132.346V129.754C438.365 128.974 438.527 128.302 438.851 127.738C439.175 127.162 439.637 126.718 440.237 126.406C440.849 126.082 441.557 125.92 442.361 125.92C443.177 125.92 443.885 126.082 444.485 126.406C445.085 126.718 445.547 127.162 445.871 127.738C446.195 128.302 446.357 128.974 446.357 129.754V131.518H440.237V132.346C440.237 133.078 440.417 133.636 440.777 134.02C441.149 134.404 441.683 134.596 442.379 134.596C442.943 134.596 443.399 134.5 443.747 134.308C444.095 134.104 444.311 133.81 444.395 133.426H446.321C446.177 134.266 445.745 134.938 445.025 135.442C444.305 135.934 443.417 136.18 442.361 136.18ZM444.485 130.348V129.736C444.485 129.016 444.305 128.458 443.945 128.062C443.585 127.666 443.057 127.468 442.361 127.468C441.677 127.468 441.149 127.666 440.777 128.062C440.417 128.458 440.237 129.022 440.237 129.754V130.204L444.629 130.186L444.485 130.348ZM449.266 136V126.1H451.192V127.99H451.66L451.192 128.44C451.192 127.648 451.426 127.03 451.894 126.586C452.362 126.142 453.01 125.92 453.838 125.92C454.822 125.92 455.608 126.238 456.196 126.874C456.784 127.498 457.078 128.344 457.078 129.412V136H455.134V129.628C455.134 128.98 454.96 128.482 454.612 128.134C454.264 127.786 453.79 127.612 453.19 127.612C452.578 127.612 452.092 127.798 451.732 128.17C451.384 128.53 451.21 129.058 451.21 129.754V136H449.266ZM465.027 136C464.127 136 463.425 135.754 462.921 135.262C462.417 134.77 462.165 134.086 462.165 133.21V127.864H459.429V126.1H462.165V123.31H464.109V126.1H467.979V127.864H464.109V133.21C464.109 133.894 464.439 134.236 465.099 134.236H467.799V136H465.027ZM474.74 136.18C473.936 136.18 473.228 136.024 472.616 135.712C472.016 135.388 471.554 134.938 471.23 134.362C470.906 133.786 470.744 133.114 470.744 132.346V129.754C470.744 128.974 470.906 128.302 471.23 127.738C471.554 127.162 472.016 126.718 472.616 126.406C473.228 126.082 473.936 125.92 474.74 125.92C475.556 125.92 476.264 126.082 476.864 126.406C477.464 126.718 477.926 127.162 478.25 127.738C478.574 128.302 478.736 128.974 478.736 129.754V131.518H472.616V132.346C472.616 133.078 472.796 133.636 473.156 134.02C473.528 134.404 474.062 134.596 474.758 134.596C475.322 134.596 475.778 134.5 476.126 134.308C476.474 134.104 476.69 133.81 476.774 133.426H478.7C478.556 134.266 478.124 134.938 477.404 135.442C476.684 135.934 475.796 136.18 474.74 136.18ZM476.864 130.348V129.736C476.864 129.016 476.684 128.458 476.324 128.062C475.964 127.666 475.436 127.468 474.74 127.468C474.056 127.468 473.528 127.666 473.156 128.062C472.796 128.458 472.616 129.022 472.616 129.754V130.204L477.008 130.186L476.864 130.348ZM485.533 128.782C485.065 128.782 484.681 128.65 484.381 128.386C484.093 128.122 483.949 127.774 483.949 127.342C483.949 126.91 484.093 126.568 484.381 126.316C484.681 126.052 485.065 125.92 485.533 125.92C486.013 125.92 486.397 126.052 486.685 126.316C486.973 126.568 487.117 126.91 487.117 127.342C487.117 127.774 486.973 128.122 486.685 128.386C486.397 128.65 486.013 128.782 485.533 128.782ZM485.533 136.18C485.065 136.18 484.681 136.048 484.381 135.784C484.093 135.52 483.949 135.178 483.949 134.758C483.949 134.314 484.093 133.966 484.381 133.714C484.681 133.45 485.065 133.318 485.533 133.318C486.013 133.318 486.397 133.45 486.685 133.714C486.973 133.966 487.117 134.314 487.117 134.758C487.117 135.178 486.973 135.52 486.685 135.784C486.397 136.048 486.013 136.18 485.533 136.18ZM508.235 128.26L508.019 124.858V122.86H510.035V124.858L509.819 128.26H508.235ZM504.437 128.26L504.203 124.858V122.86H506.219V124.858L506.021 128.26H504.437ZM270.789 196.26L270.573 192.858V190.86H272.589V192.858L272.373 196.26H270.789ZM266.991 196.26L266.757 192.858V190.86H268.773V192.858L268.575 196.26H266.991ZM276.596 204V202.074L280.664 197.88C281.288 197.232 281.744 196.65 282.032 196.134C282.332 195.606 282.482 195.084 282.482 194.568C282.482 193.896 282.296 193.368 281.924 192.984C281.564 192.6 281.066 192.408 280.43 192.408C279.734 192.408 279.182 192.612 278.774 193.02C278.378 193.416 278.18 193.962 278.18 194.658H276.236C276.26 193.842 276.446 193.14 276.794 192.552C277.142 191.952 277.628 191.49 278.252 191.166C278.876 190.842 279.608 190.68 280.448 190.68C281.252 190.68 281.954 190.836 282.554 191.148C283.154 191.46 283.616 191.898 283.94 192.462C284.264 193.026 284.426 193.692 284.426 194.46C284.426 195.24 284.222 196.002 283.814 196.746C283.418 197.49 282.764 198.318 281.852 199.23L278.882 202.236H284.624V204H276.596ZM292.375 196.26L292.159 192.858V190.86H294.175V192.858L293.959 196.26H292.375ZM288.577 196.26L288.343 192.858V190.86H290.359V192.858L290.161 196.26H288.577ZM270.789 264.26L270.573 260.858V258.86H272.589V260.858L272.373 264.26H270.789ZM266.991 264.26L266.757 260.858V258.86H268.773V260.858L268.575 264.26H266.991ZM280.304 272.18C279.476 272.18 278.756 272.024 278.144 271.712C277.532 271.4 277.058 270.962 276.722 270.398C276.398 269.822 276.236 269.156 276.236 268.4H278.18C278.18 269.06 278.366 269.576 278.738 269.948C279.122 270.32 279.65 270.506 280.322 270.506C281.006 270.506 281.534 270.314 281.906 269.93C282.278 269.546 282.464 269.036 282.464 268.4V267.428C282.464 266.756 282.278 266.24 281.906 265.88C281.534 265.508 281.006 265.322 280.322 265.322H278.918V263.486L281.978 260.57H276.794V258.86H283.958V260.696L280.34 264.098V263.63C281.588 263.63 282.578 263.972 283.31 264.656C284.042 265.34 284.408 266.258 284.408 267.41V268.4C284.408 269.156 284.24 269.822 283.904 270.398C283.568 270.962 283.088 271.4 282.464 271.712C281.852 272.024 281.132 272.18 280.304 272.18ZM292.375 264.26L292.159 260.858V258.86H294.175V260.858L293.959 264.26H292.375ZM288.577 264.26L288.343 260.858V258.86H290.359V260.858L290.161 264.26H288.577ZM270.789 332.26L270.573 328.858V326.86H272.589V328.858L272.373 332.26H270.789ZM266.991 332.26L266.757 328.858V326.86H268.773V328.858L268.575 332.26H266.991ZM282.266 340V337.264H276.38V334.348L281.492 326.86H283.652L278.252 334.816V335.518H282.266V332.44H284.192V340H282.266ZM292.375 332.26L292.159 328.858V326.86H294.175V328.858L293.959 332.26H292.375ZM288.577 332.26L288.343 328.858V326.86H290.359V328.858L290.161 332.26H288.577Z" fill="#34C759"/>
<path d="M233.353 136V134.236H236.827V127.864H233.803V126.1H238.717V134.236H241.903V136H233.353ZM237.583 124.39C237.163 124.39 236.827 124.282 236.575 124.066C236.323 123.838 236.197 123.538 236.197 123.166C236.197 122.782 236.323 122.482 236.575 122.266C236.827 122.038 237.163 121.924 237.583 121.924C238.003 121.924 238.339 122.038 238.591 122.266C238.843 122.482 238.969 122.782 238.969 123.166C238.969 123.538 238.843 123.838 238.591 124.066C238.339 124.282 238.003 124.39 237.583 124.39ZM244.2 136V126.1H246.126V127.99H246.594L246.126 128.44C246.126 127.648 246.36 127.03 246.828 126.586C247.296 126.142 247.944 125.92 248.772 125.92C249.756 125.92 250.542 126.238 251.13 126.874C251.718 127.498 252.012 128.344 252.012 129.412V136H250.068V129.628C250.068 128.98 249.894 128.482 249.546 128.134C249.198 127.786 248.724 127.612 248.124 127.612C247.512 127.612 247.026 127.798 246.666 128.17C246.318 128.53 246.144 129.058 246.144 129.754V136H244.2ZM254.992 139.24V126.1H256.918V127.99H257.332L256.918 128.44C256.918 127.66 257.158 127.048 257.638 126.604C258.13 126.148 258.784 125.92 259.6 125.92C260.596 125.92 261.388 126.256 261.976 126.928C262.576 127.588 262.876 128.494 262.876 129.646V132.436C262.876 133.204 262.738 133.87 262.462 134.434C262.198 134.986 261.82 135.418 261.328 135.73C260.848 136.03 260.272 136.18 259.6 136.18C258.796 136.18 258.148 135.958 257.656 135.514C257.164 135.058 256.918 134.44 256.918 133.66L257.332 134.11H256.882L256.936 136.414V139.24H254.992ZM258.934 134.488C259.57 134.488 260.062 134.308 260.41 133.948C260.77 133.576 260.95 133.042 260.95 132.346V129.754C260.95 129.058 260.77 128.53 260.41 128.17C260.062 127.798 259.57 127.612 258.934 127.612C258.322 127.612 257.836 127.804 257.476 128.188C257.116 128.56 256.936 129.082 256.936 129.754V132.346C256.936 133.018 257.116 133.546 257.476 133.93C257.836 134.302 258.322 134.488 258.934 134.488ZM269.655 136.18C268.467 136.18 267.519 135.838 266.811 135.154C266.103 134.458 265.749 133.516 265.749 132.328V126.1H267.693V132.328C267.693 133.012 267.867 133.546 268.215 133.93C268.563 134.302 269.043 134.488 269.655 134.488C270.279 134.488 270.765 134.302 271.113 133.93C271.473 133.546 271.653 133.012 271.653 132.328V126.1H273.597V132.328C273.597 133.516 273.237 134.458 272.517 135.154C271.809 135.838 270.855 136.18 269.655 136.18ZM281.546 136C280.646 136 279.944 135.754 279.44 135.262C278.936 134.77 278.684 134.086 278.684 133.21V127.864H275.948V126.1H278.684V123.31H280.628V126.1H284.498V127.864H280.628V133.21C280.628 133.894 280.958 134.236 281.618 134.236H284.318V136H281.546ZM157.802 170V168.236H161.276V161.864H158.252V160.1H163.166V168.236H166.352V170H157.802ZM162.032 158.39C161.612 158.39 161.276 158.282 161.024 158.066C160.772 157.838 160.646 157.538 160.646 157.166C160.646 156.782 160.772 156.482 161.024 156.266C161.276 156.038 161.612 155.924 162.032 155.924C162.452 155.924 162.788 156.038 163.04 156.266C163.292 156.482 163.418 156.782 163.418 157.166C163.418 157.538 163.292 157.838 163.04 158.066C162.788 158.282 162.452 158.39 162.032 158.39ZM168.649 170V160.1H170.575V161.99H171.043L170.575 162.44C170.575 161.648 170.809 161.03 171.277 160.586C171.745 160.142 172.393 159.92 173.221 159.92C174.205 159.92 174.991 160.238 175.579 160.874C176.167 161.498 176.461 162.344 176.461 163.412V170H174.517V163.628C174.517 162.98 174.343 162.482 173.995 162.134C173.647 161.786 173.173 161.612 172.573 161.612C171.961 161.612 171.475 161.798 171.115 162.17C170.767 162.53 170.593 163.058 170.593 163.754V170H168.649ZM182.988 170.162C182.28 170.162 181.656 170.048 181.116 169.82C180.588 169.592 180.168 169.28 179.856 168.884C179.556 168.476 179.382 167.996 179.334 167.444H181.278C181.326 167.768 181.5 168.032 181.8 168.236C182.1 168.428 182.496 168.524 182.988 168.524H183.762C184.35 168.524 184.794 168.404 185.094 168.164C185.394 167.924 185.544 167.606 185.544 167.21C185.544 166.826 185.406 166.526 185.13 166.31C184.866 166.082 184.47 165.932 183.942 165.86L182.664 165.662C181.608 165.494 180.828 165.194 180.324 164.762C179.832 164.318 179.586 163.664 179.586 162.8C179.586 161.888 179.88 161.186 180.468 160.694C181.068 160.19 181.95 159.938 183.114 159.938H183.798C184.83 159.938 185.652 160.178 186.264 160.658C186.888 161.126 187.242 161.756 187.326 162.548H185.382C185.334 162.26 185.172 162.026 184.896 161.846C184.632 161.666 184.266 161.576 183.798 161.576H183.114C182.55 161.576 182.136 161.684 181.872 161.9C181.62 162.104 181.494 162.41 181.494 162.818C181.494 163.178 181.608 163.448 181.836 163.628C182.064 163.808 182.418 163.934 182.898 164.006L184.212 164.222C185.328 164.378 186.144 164.69 186.66 165.158C187.188 165.614 187.452 166.28 187.452 167.156C187.452 168.104 187.14 168.842 186.516 169.37C185.904 169.898 184.986 170.162 183.762 170.162H182.988ZM194.123 170.18C193.319 170.18 192.611 170.024 191.999 169.712C191.399 169.388 190.937 168.938 190.613 168.362C190.289 167.786 190.127 167.114 190.127 166.346V163.754C190.127 162.974 190.289 162.302 190.613 161.738C190.937 161.162 191.399 160.718 191.999 160.406C192.611 160.082 193.319 159.92 194.123 159.92C194.939 159.92 195.647 160.082 196.247 160.406C196.847 160.718 197.309 161.162 197.633 161.738C197.957 162.302 198.119 162.974 198.119 163.754V165.518H191.999V166.346C191.999 167.078 192.179 167.636 192.539 168.02C192.911 168.404 193.445 168.596 194.141 168.596C194.705 168.596 195.161 168.5 195.509 168.308C195.857 168.104 196.073 167.81 196.157 167.426H198.083C197.939 168.266 197.507 168.938 196.787 169.442C196.067 169.934 195.179 170.18 194.123 170.18ZM196.247 164.348V163.736C196.247 163.016 196.067 162.458 195.707 162.062C195.347 161.666 194.819 161.468 194.123 161.468C193.439 161.468 192.911 161.666 192.539 162.062C192.179 162.458 191.999 163.022 191.999 163.754V164.204L196.391 164.186L196.247 164.348ZM201.352 170V160.1H203.224V161.99H203.692L203.098 163.16C203.098 162.092 203.332 161.288 203.8 160.748C204.268 160.196 204.964 159.92 205.888 159.92C206.944 159.92 207.778 160.25 208.39 160.91C209.014 161.558 209.326 162.452 209.326 163.592V164.258H207.328V163.754C207.328 163.046 207.148 162.506 206.788 162.134C206.44 161.75 205.948 161.558 205.312 161.558C204.676 161.558 204.178 161.75 203.818 162.134C203.47 162.518 203.296 163.058 203.296 163.754V170H201.352ZM211.767 170V168.236H215.241V161.864H212.217V160.1H217.131V168.236H220.317V170H211.767ZM215.997 158.39C215.577 158.39 215.241 158.282 214.989 158.066C214.737 157.838 214.611 157.538 214.611 157.166C214.611 156.782 214.737 156.482 214.989 156.266C215.241 156.038 215.577 155.924 215.997 155.924C216.417 155.924 216.753 156.038 217.005 156.266C217.257 156.482 217.383 156.782 217.383 157.166C217.383 157.538 217.257 157.838 217.005 158.066C216.753 158.282 216.417 158.39 215.997 158.39ZM222.938 170V160.1H224.81V161.99H225.278L224.684 163.16C224.684 162.092 224.918 161.288 225.386 160.748C225.854 160.196 226.55 159.92 227.474 159.92C228.53 159.92 229.364 160.25 229.976 160.91C230.6 161.558 230.912 162.452 230.912 163.592V164.258H228.914V163.754C228.914 163.046 228.734 162.506 228.374 162.134C228.026 161.75 227.534 161.558 226.898 161.558C226.262 161.558 225.764 161.75 225.404 162.134C225.056 162.518 224.882 163.058 224.882 163.754V170H222.938ZM161.816 238.18C161 238.18 160.28 238.03 159.656 237.73C159.044 237.418 158.57 236.974 158.234 236.398C157.91 235.81 157.748 235.126 157.748 234.346V231.754C157.748 230.962 157.91 230.278 158.234 229.702C158.57 229.126 159.044 228.688 159.656 228.388C160.28 228.076 161 227.92 161.816 227.92C163.004 227.92 163.958 228.232 164.678 228.856C165.398 229.48 165.776 230.332 165.812 231.412H163.868C163.832 230.848 163.634 230.41 163.274 230.098C162.914 229.786 162.428 229.63 161.816 229.63C161.156 229.63 160.634 229.816 160.25 230.188C159.866 230.548 159.674 231.064 159.674 231.736V234.346C159.674 235.018 159.866 235.54 160.25 235.912C160.634 236.284 161.156 236.47 161.816 236.47C162.428 236.47 162.914 236.314 163.274 236.002C163.634 235.69 163.832 235.252 163.868 234.688H165.812C165.776 235.768 165.398 236.62 164.678 237.244C163.958 237.868 163.004 238.18 161.816 238.18ZM168.649 238V224.86H170.593V228.1L170.575 229.99H171.043L170.575 230.44C170.575 229.648 170.809 229.03 171.277 228.586C171.745 228.142 172.393 227.92 173.221 227.92C174.205 227.92 174.991 228.238 175.579 228.874C176.167 229.498 176.461 230.344 176.461 231.412V238H174.517V231.628C174.517 230.98 174.343 230.476 173.995 230.116C173.647 229.756 173.173 229.576 172.573 229.576C171.961 229.576 171.475 229.768 171.115 230.152C170.767 230.524 170.593 231.058 170.593 231.754V238H168.649ZM182.34 238.18C181.308 238.18 180.492 237.916 179.892 237.388C179.304 236.848 179.01 236.116 179.01 235.192C179.01 234.256 179.322 233.524 179.946 232.996C180.582 232.456 181.452 232.186 182.556 232.186H185.31V231.268C185.31 230.728 185.142 230.308 184.806 230.008C184.47 229.708 183.996 229.558 183.384 229.558C182.844 229.558 182.394 229.678 182.034 229.918C181.674 230.146 181.464 230.452 181.404 230.836H179.496C179.604 229.948 180.012 229.24 180.72 228.712C181.44 228.184 182.346 227.92 183.438 227.92C184.614 227.92 185.544 228.22 186.228 228.82C186.912 229.408 187.254 230.212 187.254 231.232V238H185.364V236.182H185.04L185.364 235.822C185.364 236.542 185.088 237.118 184.536 237.55C183.984 237.97 183.252 238.18 182.34 238.18ZM182.916 236.686C183.612 236.686 184.182 236.512 184.626 236.164C185.082 235.804 185.31 235.348 185.31 234.796V233.5H182.592C182.088 233.5 181.686 233.638 181.386 233.914C181.098 234.19 180.954 234.568 180.954 235.048C180.954 235.552 181.128 235.954 181.476 236.254C181.824 236.542 182.304 236.686 182.916 236.686ZM189.785 238V228.1H191.405V229.36H191.765L191.495 229.738C191.495 229.186 191.645 228.748 191.945 228.424C192.245 228.088 192.647 227.92 193.151 227.92C193.691 227.92 194.105 228.13 194.393 228.55C194.693 228.97 194.843 229.546 194.843 230.278L194.411 229.36H195.095L194.807 229.738C194.807 229.186 194.957 228.748 195.257 228.424C195.569 228.088 195.983 227.92 196.499 227.92C197.111 227.92 197.591 228.154 197.939 228.622C198.287 229.078 198.461 229.69 198.461 230.458V238H196.733V230.512C196.733 230.14 196.649 229.852 196.481 229.648C196.325 229.444 196.097 229.342 195.797 229.342C195.497 229.342 195.263 229.444 195.095 229.648C194.939 229.84 194.861 230.122 194.861 230.494V238H193.403V230.512C193.403 230.128 193.319 229.84 193.151 229.648C192.983 229.444 192.743 229.342 192.431 229.342C192.131 229.342 191.903 229.444 191.747 229.648C191.603 229.84 191.531 230.122 191.531 230.494V238H189.785ZM203.926 238.18C202.894 238.18 202.078 237.916 201.478 237.388C200.89 236.848 200.596 236.116 200.596 235.192C200.596 234.256 200.908 233.524 201.532 232.996C202.168 232.456 203.038 232.186 204.142 232.186H206.896V231.268C206.896 230.728 206.728 230.308 206.392 230.008C206.056 229.708 205.582 229.558 204.97 229.558C204.43 229.558 203.98 229.678 203.62 229.918C203.26 230.146 203.05 230.452 202.99 230.836H201.082C201.19 229.948 201.598 229.24 202.306 228.712C203.026 228.184 203.932 227.92 205.024 227.92C206.2 227.92 207.13 228.22 207.814 228.82C208.498 229.408 208.84 230.212 208.84 231.232V238H206.95V236.182H206.626L206.95 235.822C206.95 236.542 206.674 237.118 206.122 237.55C205.57 237.97 204.838 238.18 203.926 238.18ZM204.502 236.686C205.198 236.686 205.768 236.512 206.212 236.164C206.668 235.804 206.896 235.348 206.896 234.796V233.5H204.178C203.674 233.5 203.272 233.638 202.972 233.914C202.684 234.19 202.54 234.568 202.54 235.048C202.54 235.552 202.714 235.954 203.062 236.254C203.41 236.542 203.89 236.686 204.502 236.686ZM212.145 238V228.1H214.017V229.99H214.485L213.891 231.16C213.891 230.092 214.125 229.288 214.593 228.748C215.061 228.196 215.757 227.92 216.681 227.92C217.737 227.92 218.571 228.25 219.183 228.91C219.807 229.558 220.119 230.452 220.119 231.592V232.258H218.121V231.754C218.121 231.046 217.941 230.506 217.581 230.134C217.233 229.75 216.741 229.558 216.105 229.558C215.469 229.558 214.971 229.75 214.611 230.134C214.263 230.518 214.089 231.058 214.089 231.754V238H212.145ZM157.406 306V296.1H159.026V297.36H159.386L159.116 297.738C159.116 297.186 159.266 296.748 159.566 296.424C159.866 296.088 160.268 295.92 160.772 295.92C161.312 295.92 161.726 296.13 162.014 296.55C162.314 296.97 162.464 297.546 162.464 298.278L162.032 297.36H162.716L162.428 297.738C162.428 297.186 162.578 296.748 162.878 296.424C163.19 296.088 163.604 295.92 164.12 295.92C164.732 295.92 165.212 296.154 165.56 296.622C165.908 297.078 166.082 297.69 166.082 298.458V306H164.354V298.512C164.354 298.14 164.27 297.852 164.102 297.648C163.946 297.444 163.718 297.342 163.418 297.342C163.118 297.342 162.884 297.444 162.716 297.648C162.56 297.84 162.482 298.122 162.482 298.494V306H161.024V298.512C161.024 298.128 160.94 297.84 160.772 297.648C160.604 297.444 160.364 297.342 160.052 297.342C159.752 297.342 159.524 297.444 159.368 297.648C159.224 297.84 159.152 298.122 159.152 298.494V306H157.406ZM172.537 306.162C171.721 306.162 171.013 306.006 170.413 305.694C169.813 305.382 169.351 304.938 169.027 304.362C168.703 303.786 168.541 303.108 168.541 302.328V299.772C168.541 298.98 168.703 298.302 169.027 297.738C169.351 297.162 169.813 296.718 170.413 296.406C171.013 296.094 171.721 295.938 172.537 295.938C173.353 295.938 174.061 296.094 174.661 296.406C175.261 296.718 175.723 297.162 176.047 297.738C176.371 298.302 176.533 298.98 176.533 299.772V302.328C176.533 303.108 176.371 303.786 176.047 304.362C175.723 304.938 175.261 305.382 174.661 305.694C174.061 306.006 173.353 306.162 172.537 306.162ZM172.537 304.452C173.197 304.452 173.707 304.272 174.067 303.912C174.427 303.54 174.607 303.012 174.607 302.328V299.772C174.607 299.076 174.427 298.548 174.067 298.188C173.707 297.828 173.197 297.648 172.537 297.648C171.889 297.648 171.379 297.828 171.007 298.188C170.647 298.548 170.467 299.076 170.467 299.772V302.328C170.467 303.012 170.647 303.54 171.007 303.912C171.379 304.272 171.889 304.452 172.537 304.452ZM182.988 306.162C182.28 306.162 181.656 306.048 181.116 305.82C180.588 305.592 180.168 305.28 179.856 304.884C179.556 304.476 179.382 303.996 179.334 303.444H181.278C181.326 303.768 181.5 304.032 181.8 304.236C182.1 304.428 182.496 304.524 182.988 304.524H183.762C184.35 304.524 184.794 304.404 185.094 304.164C185.394 303.924 185.544 303.606 185.544 303.21C185.544 302.826 185.406 302.526 185.13 302.31C184.866 302.082 184.47 301.932 183.942 301.86L182.664 301.662C181.608 301.494 180.828 301.194 180.324 300.762C179.832 300.318 179.586 299.664 179.586 298.8C179.586 297.888 179.88 297.186 180.468 296.694C181.068 296.19 181.95 295.938 183.114 295.938H183.798C184.83 295.938 185.652 296.178 186.264 296.658C186.888 297.126 187.242 297.756 187.326 298.548H185.382C185.334 298.26 185.172 298.026 184.896 297.846C184.632 297.666 184.266 297.576 183.798 297.576H183.114C182.55 297.576 182.136 297.684 181.872 297.9C181.62 298.104 181.494 298.41 181.494 298.818C181.494 299.178 181.608 299.448 181.836 299.628C182.064 299.808 182.418 299.934 182.898 300.006L184.212 300.222C185.328 300.378 186.144 300.69 186.66 301.158C187.188 301.614 187.452 302.28 187.452 303.156C187.452 304.104 187.14 304.842 186.516 305.37C185.904 305.898 184.986 306.162 183.762 306.162H182.988ZM195.203 306C194.303 306 193.601 305.754 193.097 305.262C192.593 304.77 192.341 304.086 192.341 303.21V297.864H189.605V296.1H192.341V293.31H194.285V296.1H198.155V297.864H194.285V303.21C194.285 303.894 194.615 304.236 195.275 304.236H197.975V306H195.203ZM201.352 306V296.1H203.224V297.99H203.692L203.098 299.16C203.098 298.092 203.332 297.288 203.8 296.748C204.268 296.196 204.964 295.92 205.888 295.92C206.944 295.92 207.778 296.25 208.39 296.91C209.014 297.558 209.326 298.452 209.326 299.592V300.258H207.328V299.754C207.328 299.046 207.148 298.506 206.788 298.134C206.44 297.75 205.948 297.558 205.312 297.558C204.676 297.558 204.178 297.75 203.818 298.134C203.47 298.518 203.296 299.058 203.296 299.754V306H201.352ZM214.719 306.18C213.687 306.18 212.871 305.916 212.271 305.388C211.683 304.848 211.389 304.116 211.389 303.192C211.389 302.256 211.701 301.524 212.325 300.996C212.961 300.456 213.831 300.186 214.935 300.186H217.689V299.268C217.689 298.728 217.521 298.308 217.185 298.008C216.849 297.708 216.375 297.558 215.763 297.558C215.223 297.558 214.773 297.678 214.413 297.918C214.053 298.146 213.843 298.452 213.783 298.836H211.875C211.983 297.948 212.391 297.24 213.099 296.712C213.819 296.184 214.725 295.92 215.817 295.92C216.993 295.92 217.923 296.22 218.607 296.82C219.291 297.408 219.633 298.212 219.633 299.232V306H217.743V304.182H217.419L217.743 303.822C217.743 304.542 217.467 305.118 216.915 305.55C216.363 305.97 215.631 306.18 214.719 306.18ZM215.295 304.686C215.991 304.686 216.561 304.512 217.005 304.164C217.461 303.804 217.689 303.348 217.689 302.796V301.5H214.971C214.467 301.5 214.065 301.638 213.765 301.914C213.477 302.19 213.333 302.568 213.333 303.048C213.333 303.552 213.507 303.954 213.855 304.254C214.203 304.542 214.683 304.686 215.295 304.686ZM222.938 306V296.1H224.81V297.99H225.278L224.684 299.16C224.684 298.092 224.918 297.288 225.386 296.748C225.854 296.196 226.55 295.92 227.474 295.92C228.53 295.92 229.364 296.25 229.976 296.91C230.6 297.558 230.912 298.452 230.912 299.592V300.258H228.914V299.754C228.914 299.046 228.734 298.506 228.374 298.134C228.026 297.75 227.534 297.558 226.898 297.558C226.262 297.558 225.764 297.75 225.404 298.134C225.056 298.518 224.882 299.058 224.882 299.754V306H222.938Z" fill="#FFCC00"/>
</svg>
