<svg width="780" height="400" viewBox="0 0 780 400" fill="none" xmlns="http://www.w3.org/2000/svg">
<path d="M0 20C0 8.95431 8.95431 0 20 0H760C771.046 0 780 8.95431 780 20V380C780 391.046 771.046 400 760 400H20C8.9543 400 0 391.046 0 380V20Z" fill="#2E2E2E"/>
<rect y="71" width="780" height="2" fill="#2B2B2B"/>
<circle cx="45" cy="37" r="15" fill="#FF383C"/>
<circle cx="90" cy="37" r="15" fill="#FFCC00"/>
<circle cx="135" cy="37" r="15" fill="#34C759"/>
<g opacity="0.5">
<path d="M33.737 112V110.074L37.805 105.88C38.429 105.232 38.885 104.65 39.173 104.134C39.473 103.606 39.623 103.084 39.623 102.568C39.623 101.896 39.437 101.368 39.065 100.984C38.705 100.6 38.207 100.408 37.571 100.408C36.875 100.408 36.323 100.612 35.915 101.02C35.519 101.416 35.321 101.962 35.321 102.658H33.377C33.401 101.842 33.587 101.14 33.935 100.552C34.283 99.952 34.769 99.49 35.393 99.166C36.017 98.842 36.749 98.68 37.589 98.68C38.393 98.68 39.095 98.836 39.695 99.148C40.295 99.46 40.757 99.898 41.081 100.462C41.405 101.026 41.567 101.692 41.567 102.46C41.567 103.24 41.363 104.002 40.955 104.746C40.559 105.49 39.905 106.318 38.993 107.23L36.023 110.236H41.765V112H33.737ZM48.418 112.18C47.554 112.18 46.798 112 46.15 111.64C45.502 111.28 44.998 110.776 44.638 110.128C44.278 109.468 44.098 108.712 44.098 107.86C44.098 107.212 44.194 106.564 44.386 105.916C44.59 105.256 44.878 104.626 45.25 104.026L48.454 98.86H50.614L46.798 104.908L46.888 104.962C47.128 104.614 47.446 104.35 47.842 104.17C48.25 103.978 48.7 103.882 49.192 103.882C49.9 103.882 50.518 104.05 51.046 104.386C51.574 104.722 51.982 105.196 52.27 105.808C52.558 106.408 52.702 107.122 52.702 107.95C52.702 108.79 52.522 109.528 52.162 110.164C51.802 110.8 51.304 111.298 50.668 111.658C50.032 112.006 49.282 112.18 48.418 112.18ZM48.4 110.506C49.12 110.506 49.696 110.272 50.128 109.804C50.56 109.336 50.776 108.718 50.776 107.95C50.776 107.182 50.56 106.564 50.128 106.096C49.696 105.628 49.12 105.394 48.4 105.394C47.68 105.394 47.104 105.628 46.672 106.096C46.24 106.564 46.024 107.182 46.024 107.95C46.024 108.718 46.24 109.336 46.672 109.804C47.104 110.272 47.68 110.506 48.4 110.506Z" fill="#1A1A1A"/>
<path d="M33.737 146V144.074L37.805 139.88C38.429 139.232 38.885 138.65 39.173 138.134C39.473 137.606 39.623 137.084 39.623 136.568C39.623 135.896 39.437 135.368 39.065 134.984C38.705 134.6 38.207 134.408 37.571 134.408C36.875 134.408 36.323 134.612 35.915 135.02C35.519 135.416 35.321 135.962 35.321 136.658H33.377C33.401 135.842 33.587 135.14 33.935 134.552C34.283 133.952 34.769 133.49 35.393 133.166C36.017 132.842 36.749 132.68 37.589 132.68C38.393 132.68 39.095 132.836 39.695 133.148C40.295 133.46 40.757 133.898 41.081 134.462C41.405 135.026 41.567 135.692 41.567 136.46C41.567 137.24 41.363 138.002 40.955 138.746C40.559 139.49 39.905 140.318 38.993 141.23L36.023 144.236H41.765V146H33.737ZM46.06 146L50.776 134.642H46.186V136.568H44.26V132.86H52.702V134.732L48.148 146H46.06Z" fill="#1A1A1A"/>
<path d="M33.737 180V178.074L37.805 173.88C38.429 173.232 38.885 172.65 39.173 172.134C39.473 171.606 39.623 171.084 39.623 170.568C39.623 169.896 39.437 169.368 39.065 168.984C38.705 168.6 38.207 168.408 37.571 168.408C36.875 168.408 36.323 168.612 35.915 169.02C35.519 169.416 35.321 169.962 35.321 170.658H33.377C33.401 169.842 33.587 169.14 33.935 168.552C34.283 167.952 34.769 167.49 35.393 167.166C36.017 166.842 36.749 166.68 37.589 166.68C38.393 166.68 39.095 166.836 39.695 167.148C40.295 167.46 40.757 167.898 41.081 168.462C41.405 169.026 41.567 169.692 41.567 170.46C41.567 171.24 41.363 172.002 40.955 172.746C40.559 173.49 39.905 174.318 38.993 175.23L36.023 178.236H41.765V180H33.737ZM48.4 180.18C47.56 180.18 46.834 180.036 46.222 179.748C45.61 179.46 45.136 179.052 44.8 178.524C44.464 177.984 44.296 177.36 44.296 176.652C44.296 175.86 44.512 175.182 44.944 174.618C45.376 174.054 46.042 173.562 46.942 173.142L48.832 172.26C49.312 172.032 49.684 171.732 49.948 171.36C50.212 170.976 50.344 170.556 50.344 170.1C50.344 169.56 50.17 169.134 49.822 168.822C49.474 168.51 49 168.354 48.4 168.354C47.8 168.354 47.32 168.516 46.96 168.84C46.612 169.152 46.438 169.578 46.438 170.118C46.438 170.562 46.57 170.976 46.834 171.36C47.098 171.732 47.458 172.026 47.914 172.242L49.804 173.106C50.752 173.55 51.436 174.06 51.856 174.636C52.288 175.2 52.504 175.872 52.504 176.652C52.504 177.732 52.132 178.59 51.388 179.226C50.656 179.862 49.66 180.18 48.4 180.18ZM48.4 178.488C49.072 178.488 49.606 178.314 50.002 177.966C50.398 177.606 50.596 177.138 50.596 176.562C50.596 176.094 50.464 175.662 50.2 175.266C49.936 174.858 49.57 174.54 49.102 174.312L47.158 173.394C46.27 172.974 45.61 172.494 45.178 171.954C44.746 171.414 44.53 170.766 44.53 170.01C44.53 169.35 44.686 168.768 44.998 168.264C45.322 167.76 45.772 167.37 46.348 167.094C46.924 166.806 47.608 166.662 48.4 166.662C49.192 166.662 49.876 166.806 50.452 167.094C51.028 167.37 51.472 167.76 51.784 168.264C52.096 168.768 52.252 169.35 52.252 170.01C52.252 170.778 52.036 171.426 51.604 171.954C51.184 172.482 50.524 172.968 49.624 173.412L47.662 174.33C47.206 174.546 46.846 174.852 46.582 175.248C46.33 175.644 46.204 176.07 46.204 176.526C46.204 177.114 46.402 177.588 46.798 177.948C47.194 178.308 47.728 178.488 48.4 178.488Z" fill="#1A1A1A"/>
<path d="M33.737 214V212.074L37.805 207.88C38.429 207.232 38.885 206.65 39.173 206.134C39.473 205.606 39.623 205.084 39.623 204.568C39.623 203.896 39.437 203.368 39.065 202.984C38.705 202.6 38.207 202.408 37.571 202.408C36.875 202.408 36.323 202.612 35.915 203.02C35.519 203.416 35.321 203.962 35.321 204.658H33.377C33.401 203.842 33.587 203.14 33.935 202.552C34.283 201.952 34.769 201.49 35.393 201.166C36.017 200.842 36.749 200.68 37.589 200.68C38.393 200.68 39.095 200.836 39.695 201.148C40.295 201.46 40.757 201.898 41.081 202.462C41.405 203.026 41.567 203.692 41.567 204.46C41.567 205.24 41.363 206.002 40.955 206.746C40.559 207.49 39.905 208.318 38.993 209.23L36.023 212.236H41.765V214H33.737ZM46.186 214L50.002 207.952L49.912 207.898C49.672 208.246 49.348 208.516 48.94 208.708C48.544 208.888 48.1 208.978 47.608 208.978C46.9 208.978 46.282 208.81 45.754 208.474C45.226 208.138 44.818 207.664 44.53 207.052C44.242 206.44 44.098 205.726 44.098 204.91C44.098 204.058 44.278 203.32 44.638 202.696C44.998 202.06 45.496 201.568 46.132 201.22C46.78 200.86 47.53 200.68 48.382 200.68C49.246 200.68 50.002 200.86 50.65 201.22C51.298 201.58 51.802 202.084 52.162 202.732C52.522 203.38 52.702 204.136 52.702 205C52.702 205.636 52.6 206.284 52.396 206.944C52.204 207.604 51.922 208.234 51.55 208.834L48.346 214H46.186ZM48.4 207.466C49.12 207.466 49.696 207.232 50.128 206.764C50.56 206.296 50.776 205.678 50.776 204.91C50.776 204.142 50.56 203.524 50.128 203.056C49.696 202.588 49.12 202.354 48.4 202.354C47.68 202.354 47.104 202.588 46.672 203.056C46.24 203.524 46.024 204.142 46.024 204.91C46.024 205.678 46.24 206.296 46.672 206.764C47.104 207.232 47.68 207.466 48.4 207.466Z" fill="#1A1A1A"/>
<path d="M37.445 248.18C36.617 248.18 35.897 248.024 35.285 247.712C34.673 247.4 34.199 246.962 33.863 246.398C33.539 245.822 33.377 245.156 33.377 244.4H35.321C35.321 245.06 35.507 245.576 35.879 245.948C36.263 246.32 36.791 246.506 37.463 246.506C38.147 246.506 38.675 246.314 39.047 245.93C39.419 245.546 39.605 245.036 39.605 244.4V243.428C39.605 242.756 39.419 242.24 39.047 241.88C38.675 241.508 38.147 241.322 37.463 241.322H36.059V239.486L39.119 236.57H33.935V234.86H41.099V236.696L37.481 240.098V239.63C38.729 239.63 39.719 239.972 40.451 240.656C41.183 241.34 41.549 242.258 41.549 243.41V244.4C41.549 245.156 41.381 245.822 41.045 246.398C40.709 246.962 40.229 247.4 39.605 247.712C38.993 248.024 38.273 248.18 37.445 248.18ZM48.4 248.18C47.572 248.18 46.852 248.018 46.24 247.694C45.64 247.37 45.172 246.92 44.836 246.344C44.5 245.756 44.332 245.072 44.332 244.292V238.568C44.332 237.776 44.494 237.092 44.818 236.516C45.154 235.94 45.628 235.49 46.24 235.166C46.852 234.842 47.572 234.68 48.4 234.68C49.24 234.68 49.96 234.842 50.56 235.166C51.172 235.49 51.64 235.94 51.964 236.516C52.3 237.092 52.468 237.776 52.468 238.568V244.292C52.468 245.072 52.3 245.756 51.964 246.344C51.628 246.92 51.154 247.37 50.542 247.694C49.942 248.018 49.228 248.18 48.4 248.18ZM48.4 246.506C49.072 246.506 49.606 246.302 50.002 245.894C50.41 245.486 50.614 244.952 50.614 244.292V238.568C50.614 237.908 50.41 237.374 50.002 236.966C49.606 236.558 49.072 236.354 48.4 236.354C47.728 236.354 47.188 236.558 46.78 236.966C46.384 237.374 46.186 237.908 46.186 238.568V244.292C46.186 244.952 46.384 245.486 46.78 245.894C47.188 246.302 47.728 246.506 48.4 246.506ZM48.4 242.546C48.064 242.546 47.788 242.438 47.572 242.222C47.368 242.006 47.266 241.724 47.266 241.376C47.266 241.04 47.368 240.77 47.572 240.566C47.788 240.35 48.064 240.242 48.4 240.242C48.736 240.242 49.006 240.35 49.21 240.566C49.426 240.77 49.534 241.04 49.534 241.376C49.534 241.724 49.426 242.006 49.21 242.222C49.006 242.438 48.736 242.546 48.4 242.546Z" fill="#1A1A1A"/>
<path d="M37.445 282.18C36.617 282.18 35.897 282.024 35.285 281.712C34.673 281.4 34.199 280.962 33.863 280.398C33.539 279.822 33.377 279.156 33.377 278.4H35.321C35.321 279.06 35.507 279.576 35.879 279.948C36.263 280.32 36.791 280.506 37.463 280.506C38.147 280.506 38.675 280.314 39.047 279.93C39.419 279.546 39.605 279.036 39.605 278.4V277.428C39.605 276.756 39.419 276.24 39.047 275.88C38.675 275.508 38.147 275.322 37.463 275.322H36.059V273.486L39.119 270.57H33.935V268.86H41.099V270.696L37.481 274.098V273.63C38.729 273.63 39.719 273.972 40.451 274.656C41.183 275.34 41.549 276.258 41.549 277.41V278.4C41.549 279.156 41.381 279.822 41.045 280.398C40.709 280.962 40.229 281.4 39.605 281.712C38.993 282.024 38.273 282.18 37.445 282.18ZM44.566 282V280.272H48.058V270.552L44.548 273.162V271.056L47.554 268.86H50.002V280.272H52.828V282H44.566Z" fill="#1A1A1A"/>
<path d="M37.445 316.18C36.617 316.18 35.897 316.024 35.285 315.712C34.673 315.4 34.199 314.962 33.863 314.398C33.539 313.822 33.377 313.156 33.377 312.4H35.321C35.321 313.06 35.507 313.576 35.879 313.948C36.263 314.32 36.791 314.506 37.463 314.506C38.147 314.506 38.675 314.314 39.047 313.93C39.419 313.546 39.605 313.036 39.605 312.4V311.428C39.605 310.756 39.419 310.24 39.047 309.88C38.675 309.508 38.147 309.322 37.463 309.322H36.059V307.486L39.119 304.57H33.935V302.86H41.099V304.696L37.481 308.098V307.63C38.729 307.63 39.719 307.972 40.451 308.656C41.183 309.34 41.549 310.258 41.549 311.41V312.4C41.549 313.156 41.381 313.822 41.045 314.398C40.709 314.962 40.229 315.4 39.605 315.712C38.993 316.024 38.273 316.18 37.445 316.18ZM44.53 316V314.074L48.598 309.88C49.222 309.232 49.678 308.65 49.966 308.134C50.266 307.606 50.416 307.084 50.416 306.568C50.416 305.896 50.23 305.368 49.858 304.984C49.498 304.6 49 304.408 48.364 304.408C47.668 304.408 47.116 304.612 46.708 305.02C46.312 305.416 46.114 305.962 46.114 306.658H44.17C44.194 305.842 44.38 305.14 44.728 304.552C45.076 303.952 45.562 303.49 46.186 303.166C46.81 302.842 47.542 302.68 48.382 302.68C49.186 302.68 49.888 302.836 50.488 303.148C51.088 303.46 51.55 303.898 51.874 304.462C52.198 305.026 52.36 305.692 52.36 306.46C52.36 307.24 52.156 308.002 51.748 308.746C51.352 309.49 50.698 310.318 49.786 311.23L46.816 314.236H52.558V316H44.53Z" fill="#1A1A1A"/>
<path d="M37.445 350.18C36.617 350.18 35.897 350.024 35.285 349.712C34.673 349.4 34.199 348.962 33.863 348.398C33.539 347.822 33.377 347.156 33.377 346.4H35.321C35.321 347.06 35.507 347.576 35.879 347.948C36.263 348.32 36.791 348.506 37.463 348.506C38.147 348.506 38.675 348.314 39.047 347.93C39.419 347.546 39.605 347.036 39.605 346.4V345.428C39.605 344.756 39.419 344.24 39.047 343.88C38.675 343.508 38.147 343.322 37.463 343.322H36.059V341.486L39.119 338.57H33.935V336.86H41.099V338.696L37.481 342.098V341.63C38.729 341.63 39.719 341.972 40.451 342.656C41.183 343.34 41.549 344.258 41.549 345.41V346.4C41.549 347.156 41.381 347.822 41.045 348.398C40.709 348.962 40.229 349.4 39.605 349.712C38.993 350.024 38.273 350.18 37.445 350.18ZM48.238 350.18C47.41 350.18 46.69 350.024 46.078 349.712C45.466 349.4 44.992 348.962 44.656 348.398C44.332 347.822 44.17 347.156 44.17 346.4H46.114C46.114 347.06 46.3 347.576 46.672 347.948C47.056 348.32 47.584 348.506 48.256 348.506C48.94 348.506 49.468 348.314 49.84 347.93C50.212 347.546 50.398 347.036 50.398 346.4V345.428C50.398 344.756 50.212 344.24 49.84 343.88C49.468 343.508 48.94 343.322 48.256 343.322H46.852V341.486L49.912 338.57H44.728V336.86H51.892V338.696L48.274 342.098V341.63C49.522 341.63 50.512 341.972 51.244 342.656C51.976 343.34 52.342 344.258 52.342 345.41V346.4C52.342 347.156 52.174 347.822 51.838 348.398C51.502 348.962 51.022 349.4 50.398 349.712C49.786 350.024 49.066 350.18 48.238 350.18Z" fill="#1A1A1A"/>
</g>
<path d="M123.369 116.942V104.198H124.899L125.025 105.782C125.619 104.576 126.807 103.946 128.211 103.946C130.731 103.946 132.297 105.836 132.297 108.536C132.297 111.218 130.821 113.234 128.211 113.234C126.807 113.234 125.637 112.64 125.061 111.56V116.942H123.369ZM125.079 108.608C125.079 110.408 126.123 111.704 127.851 111.704C129.579 111.704 130.605 110.408 130.605 108.608C130.605 106.79 129.579 105.494 127.851 105.494C126.123 105.494 125.079 106.772 125.079 108.608ZM164.465 113V105.62H160.559V113H158.867V105.62H157.571V104.198H158.867V102.794C158.867 100.634 160.037 99.752 161.567 99.752C161.891 99.752 162.287 99.77 162.611 99.824V101.282H161.855C160.829 101.282 160.559 101.84 160.559 102.794V104.198H166.157V113H164.465ZM165.311 102.038C164.699 102.038 164.231 101.57 164.231 100.958C164.231 100.346 164.699 99.878 165.311 99.878C165.905 99.878 166.373 100.346 166.373 100.958C166.373 101.57 165.905 102.038 165.311 102.038ZM170.29 113H168.598V99.752H170.29V113ZM175.355 113.216C173.465 113.216 172.349 112.154 172.349 110.552C172.349 108.932 173.555 107.924 175.625 107.762L178.397 107.546V107.294C178.397 105.818 177.515 105.296 176.327 105.296C174.905 105.296 174.095 105.926 174.095 106.988H172.619C172.619 105.152 174.131 103.946 176.399 103.946C178.577 103.946 180.053 105.098 180.053 107.474V113H178.613L178.433 111.578C177.983 112.586 176.777 113.216 175.355 113.216ZM175.841 111.902C177.443 111.902 178.415 110.858 178.415 109.202V108.734L176.165 108.914C174.671 109.058 174.059 109.634 174.059 110.498C174.059 111.434 174.743 111.902 175.841 111.902ZM182.252 114.656V113.324H189.632V114.656H182.252ZM193.633 113H191.941V104.198H193.471L193.651 105.548C194.209 104.54 195.325 103.946 196.567 103.946C198.889 103.946 199.951 105.368 199.951 107.618V113H198.259V107.996C198.259 106.214 197.431 105.494 196.135 105.494C194.551 105.494 193.633 106.628 193.633 108.338V113ZM201.718 108.59C201.718 105.872 203.662 103.964 206.308 103.964C208.936 103.964 210.88 105.872 210.88 108.59C210.88 111.308 208.936 113.216 206.308 113.216C203.662 113.216 201.718 111.308 201.718 108.59ZM203.428 108.59C203.428 110.426 204.598 111.704 206.308 111.704C208 111.704 209.188 110.426 209.188 108.59C209.188 106.754 208 105.476 206.308 105.476C204.598 105.476 203.428 106.754 203.428 108.59ZM217.793 104.126V105.674H217.037C215.435 105.674 214.445 106.646 214.445 108.338V113H212.753V104.216H214.337L214.445 105.548C214.805 104.63 215.687 104.018 216.893 104.018C217.199 104.018 217.451 104.054 217.793 104.126ZM221.072 113H219.38V104.198H220.892L221.054 105.35C221.504 104.522 222.44 103.946 223.682 103.946C225.05 103.946 226.022 104.63 226.472 105.728C226.886 104.63 227.948 103.946 229.316 103.946C231.332 103.946 232.556 105.206 232.556 107.24V113H230.9V107.654C230.9 106.268 230.126 105.476 228.938 105.476C227.66 105.476 226.814 106.376 226.814 107.78V113H225.14V107.636C225.14 106.25 224.384 105.494 223.196 105.494C221.918 105.494 221.072 106.376 221.072 107.78V113ZM237.476 113.216C235.586 113.216 234.47 112.154 234.47 110.552C234.47 108.932 235.676 107.924 237.746 107.762L240.518 107.546V107.294C240.518 105.818 239.636 105.296 238.448 105.296C237.026 105.296 236.216 105.926 236.216 106.988H234.74C234.74 105.152 236.252 103.946 238.52 103.946C240.698 103.946 242.174 105.098 242.174 107.474V113H240.734L240.554 111.578C240.104 112.586 238.898 113.216 237.476 113.216ZM237.962 111.902C239.564 111.902 240.536 110.858 240.536 109.202V108.734L238.286 108.914C236.792 109.058 236.18 109.634 236.18 110.498C236.18 111.434 236.864 111.902 237.962 111.902ZM246.245 113H244.553V99.752H246.245V113ZM250.176 106.466C249.474 106.466 248.88 105.89 248.88 105.224C248.88 104.522 249.474 103.946 250.176 103.946C250.86 103.946 251.454 104.522 251.454 105.224C251.454 105.89 250.86 106.466 250.176 106.466ZM250.176 113.216C249.474 113.216 248.88 112.64 248.88 111.956C248.88 111.254 249.474 110.678 250.176 110.678C250.86 110.678 251.454 111.254 251.454 111.956C251.454 112.64 250.86 113.216 250.176 113.216ZM115.599 150.942V138.198H117.129L117.255 139.782C117.849 138.576 119.037 137.946 120.441 137.946C122.961 137.946 124.527 139.836 124.527 142.536C124.527 145.218 123.051 147.234 120.441 147.234C119.037 147.234 117.867 146.64 117.291 145.56V150.942H115.599ZM117.309 142.608C117.309 144.408 118.353 145.704 120.081 145.704C121.809 145.704 122.835 144.408 122.835 142.608C122.835 140.79 121.809 139.494 120.081 139.494C118.353 139.494 117.309 140.772 117.309 142.608ZM130.382 184.942V172.198H131.912L132.038 173.782C132.632 172.576 133.82 171.946 135.224 171.946C137.744 171.946 139.31 173.836 139.31 176.536C139.31 179.218 137.834 181.234 135.224 181.234C133.82 181.234 132.65 180.64 132.074 179.56V184.942H130.382ZM132.092 176.608C132.092 178.408 133.136 179.704 134.864 179.704C136.592 179.704 137.618 178.408 137.618 176.608C137.618 174.79 136.592 173.494 134.864 173.494C133.136 173.494 132.092 174.772 132.092 176.608ZM253.603 174.466C252.901 174.466 252.307 173.89 252.307 173.224C252.307 172.522 252.901 171.946 253.603 171.946C254.287 171.946 254.881 172.522 254.881 173.224C254.881 173.89 254.287 174.466 253.603 174.466ZM253.603 181.216C252.901 181.216 252.307 180.64 252.307 179.956C252.307 179.254 252.901 178.678 253.603 178.678C254.287 178.678 254.881 179.254 254.881 179.956C254.881 180.64 254.287 181.216 253.603 181.216ZM448.353 218.942V206.198H449.883L450.009 207.782C450.603 206.576 451.791 205.946 453.195 205.946C455.715 205.946 457.281 207.836 457.281 210.536C457.281 213.218 455.805 215.234 453.195 215.234C451.791 215.234 450.621 214.64 450.045 213.56V218.942H448.353ZM450.063 210.608C450.063 212.408 451.107 213.704 452.835 213.704C454.563 213.704 455.589 212.408 455.589 210.608C455.589 208.79 454.563 207.494 452.835 207.494C451.107 207.494 450.063 208.772 450.063 210.608ZM141.245 249V241.62H137.339V249H135.647V241.62H134.351V240.198H135.647V238.794C135.647 236.634 136.817 235.752 138.347 235.752C138.671 235.752 139.067 235.77 139.391 235.824V237.282H138.635C137.609 237.282 137.339 237.84 137.339 238.794V240.198H142.937V249H141.245ZM142.091 238.038C141.479 238.038 141.011 237.57 141.011 236.958C141.011 236.346 141.479 235.878 142.091 235.878C142.685 235.878 143.152 236.346 143.152 236.958C143.152 237.57 142.685 238.038 142.091 238.038ZM147.069 249H145.377V235.752H147.069V249ZM152.134 249.216C150.244 249.216 149.128 248.154 149.128 246.552C149.128 244.932 150.334 243.924 152.404 243.762L155.176 243.546V243.294C155.176 241.818 154.294 241.296 153.106 241.296C151.684 241.296 150.874 241.926 150.874 242.988H149.398C149.398 241.152 150.91 239.946 153.178 239.946C155.356 239.946 156.832 241.098 156.832 243.474V249H155.392L155.212 247.578C154.762 248.586 153.556 249.216 152.134 249.216ZM152.62 247.902C154.222 247.902 155.194 246.858 155.194 245.202V244.734L152.944 244.914C151.45 245.058 150.838 245.634 150.838 246.498C150.838 247.434 151.522 247.902 152.62 247.902ZM159.031 250.656V249.324H166.411V250.656H159.031ZM168.72 252.942V240.198H170.25L170.376 241.782C170.97 240.576 172.158 239.946 173.562 239.946C176.082 239.946 177.648 241.836 177.648 244.536C177.648 247.218 176.172 249.234 173.562 249.234C172.158 249.234 170.988 248.64 170.412 247.56V252.942H168.72ZM170.43 244.608C170.43 246.408 171.474 247.704 173.202 247.704C174.93 247.704 175.956 246.408 175.956 244.608C175.956 242.79 174.93 241.494 173.202 241.494C171.474 241.494 170.43 242.772 170.43 244.608ZM184.553 240.126V241.674H183.797C182.195 241.674 181.205 242.646 181.205 244.338V249H179.513V240.216H181.097L181.205 241.548C181.565 240.63 182.447 240.018 183.653 240.018C183.959 240.018 184.211 240.054 184.553 240.126ZM189.622 249.216C187.03 249.216 185.248 247.344 185.248 244.608C185.248 241.854 186.994 239.946 189.55 239.946C192.052 239.946 193.69 241.674 193.69 244.284V244.914L186.886 244.932C187.012 246.786 187.984 247.812 189.658 247.812C190.972 247.812 191.836 247.272 192.124 246.264H193.708C193.276 248.154 191.8 249.216 189.622 249.216ZM189.55 241.368C188.074 241.368 187.138 242.25 186.922 243.798H191.998C191.998 242.34 191.044 241.368 189.55 241.368ZM194.643 240.198H195.939V238.794C195.939 236.634 197.127 235.752 198.729 235.752C199.053 235.752 199.431 235.77 199.773 235.824V237.282H199.017C197.919 237.282 197.631 237.84 197.631 238.794V240.198H199.719V241.62H197.631V249H195.939V241.62H194.643V240.198ZM204.827 249.216C202.235 249.216 200.453 247.344 200.453 244.608C200.453 241.854 202.199 239.946 204.755 239.946C207.257 239.946 208.895 241.674 208.895 244.284V244.914L202.091 244.932C202.217 246.786 203.189 247.812 204.863 247.812C206.177 247.812 207.041 247.272 207.329 246.264H208.913C208.481 248.154 207.005 249.216 204.827 249.216ZM204.755 241.368C203.279 241.368 202.343 242.25 202.127 243.798H207.203C207.203 242.34 206.249 241.368 204.755 241.368ZM215.825 240.126V241.674H215.069C213.467 241.674 212.477 242.646 212.477 244.338V249H210.785V240.216H212.369L212.477 241.548C212.837 240.63 213.719 240.018 214.925 240.018C215.231 240.018 215.483 240.054 215.825 240.126ZM220.893 249.216C218.301 249.216 216.519 247.344 216.519 244.608C216.519 241.854 218.265 239.946 220.821 239.946C223.323 239.946 224.961 241.674 224.961 244.284V244.914L218.157 244.932C218.283 246.786 219.255 247.812 220.929 247.812C222.243 247.812 223.107 247.272 223.395 246.264H224.979C224.547 248.154 223.071 249.216 220.893 249.216ZM220.821 241.368C219.345 241.368 218.409 242.25 218.193 243.798H223.269C223.269 242.34 222.315 241.368 220.821 241.368ZM228.543 249H226.851V240.198H228.381L228.561 241.548C229.119 240.54 230.235 239.946 231.477 239.946C233.799 239.946 234.861 241.368 234.861 243.618V249H233.169V243.996C233.169 242.214 232.341 241.494 231.045 241.494C229.461 241.494 228.543 242.628 228.543 244.338V249ZM236.628 244.608C236.628 241.854 238.374 239.946 240.948 239.946C243.162 239.946 244.71 241.206 245.016 243.168H243.324C243.036 242.052 242.136 241.458 241.002 241.458C239.4 241.458 238.302 242.682 238.302 244.59C238.302 246.48 239.328 247.704 240.93 247.704C242.136 247.704 243.036 247.074 243.342 246.03H245.034C244.692 247.938 243.054 249.216 240.93 249.216C238.338 249.216 236.628 247.38 236.628 244.608ZM247.648 238.11C247.036 238.11 246.532 237.606 246.532 236.994C246.532 236.364 247.036 235.878 247.648 235.878C248.26 235.878 248.764 236.364 248.764 236.994C248.764 237.606 248.26 238.11 247.648 238.11ZM246.82 249V240.198H248.512V249H246.82ZM253.542 249.216C251.652 249.216 250.536 248.154 250.536 246.552C250.536 244.932 251.742 243.924 253.812 243.762L256.584 243.546V243.294C256.584 241.818 255.702 241.296 254.514 241.296C253.092 241.296 252.282 241.926 252.282 242.988H250.806C250.806 241.152 252.318 239.946 254.586 239.946C256.764 239.946 258.24 241.098 258.24 243.474V249H256.8L256.62 247.578C256.17 248.586 254.964 249.216 253.542 249.216ZM254.028 247.902C255.63 247.902 256.602 246.858 256.602 245.202V244.734L254.352 244.914C252.858 245.058 252.246 245.634 252.246 246.498C252.246 247.434 252.93 247.902 254.028 247.902ZM262.311 249H260.619V235.752H262.311V249ZM266.062 249.216C265.36 249.216 264.766 248.64 264.766 247.956C264.766 247.254 265.36 246.678 266.062 246.678C266.746 246.678 267.34 247.254 267.34 247.956C267.34 248.64 266.746 249.216 266.062 249.216ZM336.732 252.942V240.198H338.262L338.388 241.782C338.982 240.576 340.17 239.946 341.574 239.946C344.094 239.946 345.66 241.836 345.66 244.536C345.66 247.218 344.184 249.234 341.574 249.234C340.17 249.234 339 248.64 338.424 247.56V252.942H336.732ZM338.442 244.608C338.442 246.408 339.486 247.704 341.214 247.704C342.942 247.704 343.968 246.408 343.968 244.608C343.968 242.79 342.942 241.494 341.214 241.494C339.486 241.494 338.442 242.772 338.442 244.608ZM149.084 317V309.62H145.178V317H143.486V309.62H142.19V308.198H143.486V306.794C143.486 304.634 144.656 303.752 146.186 303.752C146.51 303.752 146.906 303.77 147.23 303.824V305.282H146.474C145.448 305.282 145.178 305.84 145.178 306.794V308.198H150.776V317H149.084ZM149.93 306.038C149.318 306.038 148.85 305.57 148.85 304.958C148.85 304.346 149.318 303.878 149.93 303.878C150.524 303.878 150.992 304.346 150.992 304.958C150.992 305.57 150.524 306.038 149.93 306.038ZM154.909 317H153.217V303.752H154.909V317ZM159.974 317.216C158.084 317.216 156.968 316.154 156.968 314.552C156.968 312.932 158.174 311.924 160.244 311.762L163.016 311.546V311.294C163.016 309.818 162.134 309.296 160.946 309.296C159.524 309.296 158.714 309.926 158.714 310.988H157.238C157.238 309.152 158.75 307.946 161.018 307.946C163.196 307.946 164.672 309.098 164.672 311.474V317H163.232L163.052 315.578C162.602 316.586 161.396 317.216 159.974 317.216ZM160.46 315.902C162.062 315.902 163.034 314.858 163.034 313.202V312.734L160.784 312.914C159.29 313.058 158.678 313.634 158.678 314.498C158.678 315.434 159.362 315.902 160.46 315.902ZM166.871 318.656V317.324H174.251V318.656H166.871ZM178.252 317H176.56V308.198H178.09L178.27 309.548C178.828 308.54 179.944 307.946 181.186 307.946C183.508 307.946 184.57 309.368 184.57 311.618V317H182.878V311.996C182.878 310.214 182.05 309.494 180.754 309.494C179.17 309.494 178.252 310.628 178.252 312.338V317ZM186.337 312.59C186.337 309.872 188.281 307.964 190.927 307.964C193.555 307.964 195.499 309.872 195.499 312.59C195.499 315.308 193.555 317.216 190.927 317.216C188.281 317.216 186.337 315.308 186.337 312.59ZM188.047 312.59C188.047 314.426 189.217 315.704 190.927 315.704C192.619 315.704 193.807 314.426 193.807 312.59C193.807 310.754 192.619 309.476 190.927 309.476C189.217 309.476 188.047 310.754 188.047 312.59ZM202.412 308.126V309.674H201.656C200.054 309.674 199.064 310.646 199.064 312.338V317H197.372V308.216H198.956L199.064 309.548C199.424 308.63 200.306 308.018 201.512 308.018C201.818 308.018 202.07 308.054 202.412 308.126ZM205.691 317H203.999V308.198H205.511L205.673 309.35C206.123 308.522 207.059 307.946 208.301 307.946C209.669 307.946 210.641 308.63 211.091 309.728C211.505 308.63 212.567 307.946 213.935 307.946C215.951 307.946 217.175 309.206 217.175 311.24V317H215.519V311.654C215.519 310.268 214.745 309.476 213.557 309.476C212.279 309.476 211.433 310.376 211.433 311.78V317H209.759V311.636C209.759 310.25 209.003 309.494 207.815 309.494C206.537 309.494 205.691 310.376 205.691 311.78V317ZM222.095 317.216C220.205 317.216 219.089 316.154 219.089 314.552C219.089 312.932 220.295 311.924 222.365 311.762L225.137 311.546V311.294C225.137 309.818 224.255 309.296 223.067 309.296C221.645 309.296 220.835 309.926 220.835 310.988H219.359C219.359 309.152 220.871 307.946 223.139 307.946C225.317 307.946 226.793 309.098 226.793 311.474V317H225.353L225.173 315.578C224.723 316.586 223.517 317.216 222.095 317.216ZM222.581 315.902C224.183 315.902 225.155 314.858 225.155 313.202V312.734L222.905 312.914C221.411 313.058 220.799 313.634 220.799 314.498C220.799 315.434 221.483 315.902 222.581 315.902ZM230.864 317H229.172V303.752H230.864V317ZM279.918 317V309.62H276.012V317H274.32V309.62H273.024V308.198H274.32V306.794C274.32 304.634 275.49 303.752 277.02 303.752C277.344 303.752 277.74 303.77 278.064 303.824V305.282H277.308C276.282 305.282 276.012 305.84 276.012 306.794V308.198H281.61V317H279.918ZM280.764 306.038C280.152 306.038 279.684 305.57 279.684 304.958C279.684 304.346 280.152 303.878 280.764 303.878C281.358 303.878 281.826 304.346 281.826 304.958C281.826 305.57 281.358 306.038 280.764 306.038ZM285.743 317H284.051V303.752H285.743V317ZM290.808 317.216C288.918 317.216 287.802 316.154 287.802 314.552C287.802 312.932 289.008 311.924 291.078 311.762L293.85 311.546V311.294C293.85 309.818 292.968 309.296 291.78 309.296C290.358 309.296 289.548 309.926 289.548 310.988H288.072C288.072 309.152 289.584 307.946 291.852 307.946C294.03 307.946 295.506 309.098 295.506 311.474V317H294.066L293.886 315.578C293.436 316.586 292.23 317.216 290.808 317.216ZM291.294 315.902C292.896 315.902 293.868 314.858 293.868 313.202V312.734L291.618 312.914C290.124 313.058 289.512 313.634 289.512 314.498C289.512 315.434 290.196 315.902 291.294 315.902ZM297.705 318.656V317.324H305.085V318.656H297.705ZM309.086 317H307.394V308.198H308.924L309.104 309.548C309.662 308.54 310.778 307.946 312.02 307.946C314.342 307.946 315.404 309.368 315.404 311.618V317H313.712V311.996C313.712 310.214 312.884 309.494 311.588 309.494C310.004 309.494 309.086 310.628 309.086 312.338V317ZM317.171 312.59C317.171 309.872 319.115 307.964 321.761 307.964C324.389 307.964 326.333 309.872 326.333 312.59C326.333 315.308 324.389 317.216 321.761 317.216C319.115 317.216 317.171 315.308 317.171 312.59ZM318.881 312.59C318.881 314.426 320.051 315.704 321.761 315.704C323.453 315.704 324.641 314.426 324.641 312.59C324.641 310.754 323.453 309.476 321.761 309.476C320.051 309.476 318.881 310.754 318.881 312.59ZM333.246 308.126V309.674H332.49C330.888 309.674 329.898 310.646 329.898 312.338V317H328.206V308.216H329.79L329.898 309.548C330.258 308.63 331.14 308.018 332.346 308.018C332.652 308.018 332.904 308.054 333.246 308.126ZM336.525 317H334.833V308.198H336.345L336.507 309.35C336.957 308.522 337.893 307.946 339.135 307.946C340.503 307.946 341.475 308.63 341.925 309.728C342.339 308.63 343.401 307.946 344.769 307.946C346.785 307.946 348.009 309.206 348.009 311.24V317H346.353V311.654C346.353 310.268 345.579 309.476 344.391 309.476C343.113 309.476 342.267 310.376 342.267 311.78V317H340.593V311.636C340.593 310.25 339.837 309.494 338.649 309.494C337.371 309.494 336.525 310.376 336.525 311.78V317ZM352.929 317.216C351.039 317.216 349.923 316.154 349.923 314.552C349.923 312.932 351.129 311.924 353.199 311.762L355.971 311.546V311.294C355.971 309.818 355.089 309.296 353.901 309.296C352.479 309.296 351.669 309.926 351.669 310.988H350.193C350.193 309.152 351.705 307.946 353.973 307.946C356.151 307.946 357.627 309.098 357.627 311.474V317H356.187L356.007 315.578C355.557 316.586 354.351 317.216 352.929 317.216ZM353.415 315.902C355.017 315.902 355.989 314.858 355.989 313.202V312.734L353.739 312.914C352.245 313.058 351.633 313.634 351.633 314.498C351.633 315.434 352.317 315.902 353.415 315.902ZM361.698 317H360.006V303.752H361.698V317ZM499.152 310.466C498.45 310.466 497.856 309.89 497.856 309.224C497.856 308.522 498.45 307.946 499.152 307.946C499.836 307.946 500.43 308.522 500.43 309.224C500.43 309.89 499.836 310.466 499.152 310.466ZM499.152 317.216C498.45 317.216 497.856 316.64 497.856 315.956C497.856 315.254 498.45 314.678 499.152 314.678C499.836 314.678 500.43 315.254 500.43 315.956C500.43 316.64 499.836 317.216 499.152 317.216ZM121.557 351V343.62H117.651V351H115.959V343.62H114.663V342.198H115.959V340.794C115.959 338.634 117.129 337.752 118.659 337.752C118.983 337.752 119.379 337.77 119.703 337.824V339.282H118.947C117.921 339.282 117.651 339.84 117.651 340.794V342.198H123.249V351H121.557ZM122.403 340.038C121.791 340.038 121.323 339.57 121.323 338.958C121.323 338.346 121.791 337.878 122.403 337.878C122.997 337.878 123.465 338.346 123.465 338.958C123.465 339.57 122.997 340.038 122.403 340.038ZM127.382 351H125.69V337.752H127.382V351ZM132.446 351.216C130.556 351.216 129.44 350.154 129.44 348.552C129.44 346.932 130.646 345.924 132.716 345.762L135.488 345.546V345.294C135.488 343.818 134.606 343.296 133.418 343.296C131.996 343.296 131.186 343.926 131.186 344.988H129.71C129.71 343.152 131.222 341.946 133.49 341.946C135.668 341.946 137.144 343.098 137.144 345.474V351H135.704L135.524 349.578C135.074 350.586 133.868 351.216 132.446 351.216ZM132.932 349.902C134.534 349.902 135.506 348.858 135.506 347.202V346.734L133.256 346.914C131.762 347.058 131.15 347.634 131.15 348.498C131.15 349.434 131.834 349.902 132.932 349.902ZM139.344 352.656V351.324H146.724V352.656H139.344ZM150.725 351H149.033V342.198H150.563L150.743 343.548C151.301 342.54 152.417 341.946 153.659 341.946C155.981 341.946 157.043 343.368 157.043 345.618V351H155.351V345.996C155.351 344.214 154.523 343.494 153.227 343.494C151.643 343.494 150.725 344.628 150.725 346.338V351ZM158.81 346.59C158.81 343.872 160.754 341.964 163.4 341.964C166.028 341.964 167.972 343.872 167.972 346.59C167.972 349.308 166.028 351.216 163.4 351.216C160.754 351.216 158.81 349.308 158.81 346.59ZM160.52 346.59C160.52 348.426 161.69 349.704 163.4 349.704C165.092 349.704 166.28 348.426 166.28 346.59C166.28 344.754 165.092 343.476 163.4 343.476C161.69 343.476 160.52 344.754 160.52 346.59ZM174.885 342.126V343.674H174.129C172.527 343.674 171.537 344.646 171.537 346.338V351H169.845V342.216H171.429L171.537 343.548C171.897 342.63 172.779 342.018 173.985 342.018C174.291 342.018 174.543 342.054 174.885 342.126ZM178.164 351H176.472V342.198H177.984L178.146 343.35C178.596 342.522 179.532 341.946 180.774 341.946C182.142 341.946 183.114 342.63 183.564 343.728C183.978 342.63 185.04 341.946 186.408 341.946C188.424 341.946 189.648 343.206 189.648 345.24V351H187.992V345.654C187.992 344.268 187.218 343.476 186.03 343.476C184.752 343.476 183.906 344.376 183.906 345.78V351H182.232V345.636C182.232 344.25 181.476 343.494 180.288 343.494C179.01 343.494 178.164 344.376 178.164 345.78V351ZM194.568 351.216C192.678 351.216 191.562 350.154 191.562 348.552C191.562 346.932 192.768 345.924 194.838 345.762L197.61 345.546V345.294C197.61 343.818 196.728 343.296 195.54 343.296C194.118 343.296 193.308 343.926 193.308 344.988H191.832C191.832 343.152 193.344 341.946 195.612 341.946C197.79 341.946 199.266 343.098 199.266 345.474V351H197.826L197.646 349.578C197.196 350.586 195.99 351.216 194.568 351.216ZM195.054 349.902C196.656 349.902 197.628 348.858 197.628 347.202V346.734L195.378 346.914C193.884 347.058 193.272 347.634 193.272 348.498C193.272 349.434 193.956 349.902 195.054 349.902ZM203.337 351H201.645V337.752H203.337V351ZM207.088 351.216C206.386 351.216 205.792 350.64 205.792 349.956C205.792 349.254 206.386 348.678 207.088 348.678C207.772 348.678 208.366 349.254 208.366 349.956C208.366 350.64 207.772 351.216 207.088 351.216Z" fill="white"/>
<path d="M94.9755 104.198H96.2715V102.794C96.2715 100.634 97.4595 99.752 99.0615 99.752C99.3855 99.752 99.7635 99.77 100.106 99.824V101.282H99.3495C98.2515 101.282 97.9635 101.84 97.9635 102.794V104.198H100.052V105.62H97.9635V113H96.2715V105.62H94.9755V104.198ZM100.785 108.59C100.785 105.872 102.729 103.964 105.375 103.964C108.003 103.964 109.947 105.872 109.947 108.59C109.947 111.308 108.003 113.216 105.375 113.216C102.729 113.216 100.785 111.308 100.785 108.59ZM102.495 108.59C102.495 110.426 103.665 111.704 105.375 111.704C107.067 111.704 108.255 110.426 108.255 108.59C108.255 106.754 107.067 105.476 105.375 105.476C103.665 105.476 102.495 106.754 102.495 108.59ZM116.86 104.126V105.674H116.104C114.502 105.674 113.512 106.646 113.512 108.338V113H111.82V104.216H113.404L113.512 105.548C113.872 104.63 114.754 104.018 115.96 104.018C116.266 104.018 116.518 104.054 116.86 104.126ZM139.911 102.11C139.299 102.11 138.795 101.606 138.795 100.994C138.795 100.364 139.299 99.878 139.911 99.878C140.523 99.878 141.027 100.364 141.027 100.994C141.027 101.606 140.523 102.11 139.911 102.11ZM139.083 113V104.198H140.775V113H139.083ZM144.924 113H143.232V104.198H144.762L144.942 105.548C145.5 104.54 146.616 103.946 147.858 103.946C150.18 103.946 151.242 105.368 151.242 107.618V113H149.55V107.996C149.55 106.214 148.722 105.494 147.426 105.494C145.842 105.494 144.924 106.628 144.924 108.338V113ZM210.157 140.214H213.937V136.434H215.377V140.214H219.157V141.654H215.377V145.452H213.937V141.654H210.157V140.214ZM222.04 139.008H231.04V140.466H222.04V139.008ZM222.04 142.788H231.04V144.246H222.04V142.788ZM240.77 135.57H238.034V133.986H242.462V147H240.77V135.57ZM116.427 170.11C115.815 170.11 115.311 169.606 115.311 168.994C115.311 168.364 115.815 167.878 116.427 167.878C117.039 167.878 117.543 168.364 117.543 168.994C117.543 169.606 117.039 170.11 116.427 170.11ZM115.599 181V172.198H117.291V181H115.599ZM118.811 172.198H120.107V170.794C120.107 168.634 121.295 167.752 122.897 167.752C123.221 167.752 123.599 167.77 123.941 167.824V169.282H123.185C122.087 169.282 121.799 169.84 121.799 170.794V172.198H123.887V173.62H121.799V181H120.107V173.62H118.811V172.198ZM233.94 177.436L224.94 180.622V178.966L232.194 176.554L224.94 174.142V172.486L233.94 175.672V177.436ZM245.561 181.216C242.897 181.216 241.169 179.524 241.169 176.932H242.915C242.915 178.606 243.941 179.632 245.597 179.632C247.361 179.632 248.495 178.462 248.495 176.698C248.495 175.024 247.433 173.782 245.615 173.782C244.517 173.782 243.509 174.304 242.915 175.042L241.421 174.664L243.005 167.986H249.521V169.606H244.283L243.419 173.062C244.103 172.54 244.967 172.27 245.939 172.27C248.585 172.27 250.295 174.124 250.295 176.626C250.295 179.326 248.369 181.216 245.561 181.216ZM442.208 209.114V207.728C443.432 207.728 443.9 207.188 443.9 206.306V202.418C443.9 201.266 444.692 200.492 445.934 200.492H447.032V201.842H446.186C445.718 201.842 445.43 202.148 445.43 202.652V206.468C445.43 207.512 445.034 208.124 444.098 208.412C445.034 208.718 445.43 209.348 445.43 210.374V214.19C445.43 214.712 445.718 215.018 446.186 215.018H447.032V216.35H445.934C444.692 216.35 443.9 215.594 443.9 214.442V210.536C443.9 209.672 443.432 209.114 442.208 209.114ZM524.026 216.35H522.91V215.018H523.756C524.224 215.018 524.512 214.712 524.512 214.19V210.374C524.512 209.348 524.926 208.718 525.862 208.412C524.926 208.124 524.512 207.512 524.512 206.468V202.652C524.512 202.148 524.224 201.842 523.756 201.842H522.91V200.492H524.026C525.268 200.492 526.06 201.266 526.06 202.418V206.306C526.06 207.188 526.528 207.728 527.734 207.728V209.114C526.528 209.114 526.06 209.672 526.06 210.536V214.442C526.06 215.594 525.268 216.35 524.026 216.35ZM97.8015 317L94.9215 308.198H96.6675L98.1255 312.77C98.3235 313.418 98.5035 314.084 98.6655 314.858C98.8095 314.084 99.0435 313.346 99.2415 312.77L100.718 308.198H102.446L103.904 312.77C104.048 313.202 104.336 314.228 104.48 314.858C104.624 314.156 104.786 313.544 105.038 312.77L106.514 308.198H108.278L105.271 317H103.67L102.14 312.284C101.852 311.402 101.672 310.718 101.582 310.232C101.492 310.664 101.33 311.24 101.006 312.302L99.4755 317H97.8015ZM111.42 316.982H109.728V303.752H111.42V309.548C111.978 308.594 113.04 307.946 114.408 307.946C116.658 307.946 117.738 309.368 117.738 311.618V317H116.046V311.996C116.046 310.214 115.2 309.494 113.94 309.494C112.302 309.494 111.42 310.682 111.42 312.194V316.982ZM120.909 306.11C120.297 306.11 119.793 305.606 119.793 304.994C119.793 304.364 120.297 303.878 120.909 303.878C121.521 303.878 122.025 304.364 122.025 304.994C122.025 305.606 121.521 306.11 120.909 306.11ZM120.081 317V308.198H121.773V317H120.081ZM125.958 317H124.266V303.752H125.958V317ZM132.247 317.216C129.655 317.216 127.873 315.344 127.873 312.608C127.873 309.854 129.619 307.946 132.175 307.946C134.677 307.946 136.315 309.674 136.315 312.284V312.914L129.511 312.932C129.637 314.786 130.609 315.812 132.283 315.812C133.597 315.812 134.461 315.272 134.749 314.264H136.333C135.901 316.154 134.425 317.216 132.247 317.216ZM132.175 309.368C130.699 309.368 129.763 310.25 129.547 311.798H134.623C134.623 310.34 133.669 309.368 132.175 309.368ZM240.851 317.216C238.961 317.216 237.845 316.154 237.845 314.552C237.845 312.932 239.051 311.924 241.121 311.762L243.893 311.546V311.294C243.893 309.818 243.011 309.296 241.823 309.296C240.401 309.296 239.591 309.926 239.591 310.988H238.115C238.115 309.152 239.627 307.946 241.895 307.946C244.073 307.946 245.549 309.098 245.549 311.474V317H244.109L243.929 315.578C243.479 316.586 242.273 317.216 240.851 317.216ZM241.337 315.902C242.939 315.902 243.911 314.858 243.911 313.202V312.734L241.661 312.914C240.167 313.058 239.555 313.634 239.555 314.498C239.555 315.434 240.239 315.902 241.337 315.902ZM249.584 317H247.892V308.198H249.422L249.602 309.548C250.16 308.54 251.276 307.946 252.518 307.946C254.84 307.946 255.902 309.368 255.902 311.618V317H254.21V311.996C254.21 310.214 253.382 309.494 252.086 309.494C250.502 309.494 249.584 310.628 249.584 312.338V317ZM261.773 317.216C259.217 317.216 257.669 315.308 257.669 312.626C257.669 309.926 259.235 307.946 261.845 307.946C263.195 307.946 264.329 308.54 264.923 309.62V303.752H266.597V317H265.085L264.941 315.398C264.365 316.604 263.177 317.216 261.773 317.216ZM262.115 315.686C263.843 315.686 264.905 314.408 264.905 312.572C264.905 310.772 263.843 309.476 262.115 309.476C260.387 309.476 259.379 310.772 259.379 312.572C259.379 314.39 260.387 315.686 262.115 315.686ZM368.874 310.502C368.874 306.47 370.962 303.734 374.238 303.734C377.496 303.734 379.584 306.47 379.584 310.502C379.584 314.552 377.586 317.234 374.238 317.234C370.872 317.234 368.874 314.552 368.874 310.502ZM370.62 310.502C370.62 313.706 371.952 315.65 374.238 315.65C376.524 315.65 377.838 313.706 377.838 310.502C377.838 307.262 376.524 305.318 374.238 305.318C371.952 305.318 370.62 307.262 370.62 310.502ZM479.489 313.436L470.489 316.622V314.966L477.743 312.554L470.489 310.142V308.486L479.489 311.672V313.436ZM491.11 317.216C488.446 317.216 486.718 315.524 486.718 312.932H488.464C488.464 314.606 489.49 315.632 491.146 315.632C492.91 315.632 494.044 314.462 494.044 312.698C494.044 311.024 492.982 309.782 491.164 309.782C490.066 309.782 489.058 310.304 488.464 311.042L486.97 310.664L488.554 303.986H495.07V305.606H489.832L488.968 309.062C489.652 308.54 490.516 308.27 491.488 308.27C494.134 308.27 495.844 310.124 495.844 312.626C495.844 315.326 493.918 317.216 491.11 317.216Z" fill="#0088FF"/>
<path d="M258.876 107.798H260.676L261.18 105.188H259.092L259.416 103.604H261.504L262.206 99.986H263.88L263.178 103.604H265.932L266.634 99.986H268.326L267.624 103.604H269.478L269.172 105.188H267.3L266.796 107.798H268.812L268.506 109.382H266.472L265.77 113H264.096L264.798 109.382H262.026L261.324 113H259.65L260.352 109.382H258.552L258.876 107.798ZM262.35 107.798H265.104L265.626 105.188H262.854L262.35 107.798ZM279.743 113H271.805V99.986H279.743V101.606H273.569V105.674H279.131V107.24H273.569V111.362H279.743V113ZM281.291 110.444H282.911C282.911 111.344 283.595 111.884 284.711 111.884C285.899 111.884 286.583 111.398 286.583 110.588C286.583 109.994 286.295 109.634 285.377 109.4L283.829 109.04C282.263 108.662 281.525 107.888 281.525 106.592C281.525 104.972 282.893 103.946 284.837 103.946C286.763 103.946 288.023 105.026 288.059 106.7H286.439C286.403 105.818 285.809 105.26 284.783 105.26C283.721 105.26 283.127 105.728 283.127 106.538C283.127 107.132 283.559 107.528 284.423 107.744L285.971 108.122C287.465 108.482 288.203 109.166 288.203 110.48C288.203 112.154 286.763 113.216 284.675 113.216C282.605 113.216 281.291 112.118 281.291 110.444ZM292.563 113H290.871V105.62H289.143V104.198H290.871V101.444H292.563V104.198H294.291V105.62H292.563V113ZM300.85 104.126V105.674H300.094C298.492 105.674 297.502 106.646 297.502 108.338V113H295.81V104.216H297.394L297.502 105.548C297.862 104.63 298.744 104.018 299.95 104.018C300.256 104.018 300.508 104.054 300.85 104.126ZM308.521 104.198H310.195V113H308.683L308.503 111.668C307.999 112.586 306.829 113.216 305.533 113.216C303.481 113.216 302.329 111.83 302.329 109.67V104.198H304.021V109.112C304.021 111.002 304.831 111.722 306.127 111.722C307.675 111.722 308.521 110.732 308.521 108.842V104.198ZM315.134 113H313.442V105.62H311.714V104.198H313.442V101.444H315.134V104.198H316.862V105.62H315.134V113ZM324.464 104.198H326.138V113H324.626L324.446 111.668C323.942 112.586 322.772 113.216 321.476 113.216C319.424 113.216 318.272 111.83 318.272 109.67V104.198H319.964V109.112C319.964 111.002 320.774 111.722 322.07 111.722C323.618 111.722 324.464 110.732 324.464 108.842V104.198ZM333.633 104.126V105.674H332.877C331.275 105.674 330.285 106.646 330.285 108.338V113H328.593V104.216H330.177L330.285 105.548C330.645 104.63 331.527 104.018 332.733 104.018C333.039 104.018 333.291 104.054 333.633 104.126ZM337.443 113.216C335.553 113.216 334.437 112.154 334.437 110.552C334.437 108.932 335.643 107.924 337.713 107.762L340.485 107.546V107.294C340.485 105.818 339.603 105.296 338.415 105.296C336.993 105.296 336.183 105.926 336.183 106.988H334.707C334.707 105.152 336.219 103.946 338.487 103.946C340.665 103.946 342.141 105.098 342.141 107.474V113H340.701L340.521 111.578C340.071 112.586 338.865 113.216 337.443 113.216ZM337.929 111.902C339.531 111.902 340.503 110.858 340.503 109.202V108.734L338.253 108.914C336.759 109.058 336.147 109.634 336.147 110.498C336.147 111.434 336.831 111.902 337.929 111.902ZM349.406 116.942V104.198H350.936L351.062 105.782C351.656 104.576 352.844 103.946 354.248 103.946C356.768 103.946 358.334 105.836 358.334 108.536C358.334 111.218 356.858 113.234 354.248 113.234C352.844 113.234 351.674 112.64 351.098 111.56V116.942H349.406ZM351.116 108.608C351.116 110.408 352.16 111.704 353.888 111.704C355.616 111.704 356.642 110.408 356.642 108.608C356.642 106.79 355.616 105.494 353.888 105.494C352.16 105.494 351.116 106.772 351.116 108.608ZM362.773 113.216C360.883 113.216 359.767 112.154 359.767 110.552C359.767 108.932 360.973 107.924 363.043 107.762L365.815 107.546V107.294C365.815 105.818 364.933 105.296 363.745 105.296C362.323 105.296 361.513 105.926 361.513 106.988H360.037C360.037 105.152 361.549 103.946 363.817 103.946C365.995 103.946 367.471 105.098 367.471 107.474V113H366.031L365.851 111.578C365.401 112.586 364.195 113.216 362.773 113.216ZM363.259 111.902C364.861 111.902 365.833 110.858 365.833 109.202V108.734L363.583 108.914C362.089 109.058 361.477 109.634 361.477 110.498C361.477 111.434 362.161 111.902 363.259 111.902ZM374.854 104.126V105.674H374.098C372.496 105.674 371.506 106.646 371.506 108.338V113H369.814V104.216H371.398L371.506 105.548C371.866 104.63 372.748 104.018 373.954 104.018C374.26 104.018 374.512 104.054 374.854 104.126ZM378.663 113.216C376.773 113.216 375.657 112.154 375.657 110.552C375.657 108.932 376.863 107.924 378.933 107.762L381.705 107.546V107.294C381.705 105.818 380.823 105.296 379.635 105.296C378.213 105.296 377.403 105.926 377.403 106.988H375.927C375.927 105.152 377.439 103.946 379.707 103.946C381.885 103.946 383.361 105.098 383.361 107.474V113H381.921L381.741 111.578C381.291 112.586 380.085 113.216 378.663 113.216ZM379.149 111.902C380.751 111.902 381.723 110.858 381.723 109.202V108.734L379.473 108.914C377.979 109.058 377.367 109.634 377.367 110.498C377.367 111.434 378.051 111.902 379.149 111.902ZM390.626 116.942V104.198H392.156L392.282 105.782C392.876 104.576 394.064 103.946 395.468 103.946C397.988 103.946 399.554 105.836 399.554 108.536C399.554 111.218 398.078 113.234 395.468 113.234C394.064 113.234 392.894 112.64 392.318 111.56V116.942H390.626ZM392.336 108.608C392.336 110.408 393.38 111.704 395.108 111.704C396.836 111.704 397.862 110.408 397.862 108.608C397.862 106.79 396.836 105.494 395.108 105.494C393.38 105.494 392.336 106.772 392.336 108.608ZM406.459 104.126V105.674H405.703C404.101 105.674 403.111 106.646 403.111 108.338V113H401.419V104.216H403.003L403.111 105.548C403.471 104.63 404.353 104.018 405.559 104.018C405.865 104.018 406.117 104.054 406.459 104.126ZM407.154 108.59C407.154 105.872 409.098 103.964 411.744 103.964C414.372 103.964 416.316 105.872 416.316 108.59C416.316 111.308 414.372 113.216 411.744 113.216C409.098 113.216 407.154 111.308 407.154 108.59ZM408.864 108.59C408.864 110.426 410.034 111.704 411.744 111.704C413.436 111.704 414.624 110.426 414.624 108.59C414.624 106.754 413.436 105.476 411.744 105.476C410.034 105.476 408.864 106.754 408.864 108.59ZM419.881 113H418.189V104.198H419.701L419.863 105.35C420.313 104.522 421.249 103.946 422.491 103.946C423.859 103.946 424.831 104.63 425.281 105.728C425.695 104.63 426.757 103.946 428.125 103.946C430.141 103.946 431.365 105.206 431.365 107.24V113H429.709V107.654C429.709 106.268 428.935 105.476 427.747 105.476C426.469 105.476 425.623 106.376 425.623 107.78V113H423.949V107.636C423.949 106.25 423.193 105.494 422.005 105.494C420.727 105.494 419.881 106.376 419.881 107.78V113ZM433.134 108.59C433.134 105.872 435.078 103.964 437.724 103.964C440.352 103.964 442.296 105.872 442.296 108.59C442.296 111.308 440.352 113.216 437.724 113.216C435.078 113.216 433.134 111.308 433.134 108.59ZM434.844 108.59C434.844 110.426 436.014 111.704 437.724 111.704C439.416 111.704 440.604 110.426 440.604 108.59C440.604 106.754 439.416 105.476 437.724 105.476C436.014 105.476 434.844 106.754 434.844 108.59ZM443.593 108.608C443.593 105.854 445.339 103.946 447.913 103.946C450.127 103.946 451.675 105.206 451.981 107.168H450.289C450.001 106.052 449.101 105.458 447.967 105.458C446.365 105.458 445.267 106.682 445.267 108.59C445.267 110.48 446.293 111.704 447.895 111.704C449.101 111.704 450.001 111.074 450.307 110.03H451.999C451.675 111.83 450.199 113.072 448.237 113.198L447.949 113.81C448.129 113.756 448.309 113.72 448.507 113.72C449.191 113.72 449.839 114.152 449.839 115.016C449.839 116.042 448.993 116.546 448.039 116.546C447.517 116.546 447.157 116.456 446.815 116.258V115.394C447.193 115.574 447.517 115.7 447.913 115.7C448.453 115.7 448.813 115.448 448.813 115.052C448.813 114.656 448.525 114.44 448.057 114.44C447.733 114.44 447.517 114.494 447.175 114.638L446.995 114.116L447.427 113.198C445.105 112.982 443.593 111.218 443.593 108.608ZM455.783 102.938H454.703C454.595 101.588 455.171 100.742 456.179 100.742C457.259 100.742 457.799 101.75 458.537 101.75C458.969 101.75 459.149 101.39 459.149 100.742H460.247C460.337 102.2 459.725 102.938 458.681 102.938C457.547 102.938 457.007 101.93 456.377 101.93C455.981 101.93 455.783 102.29 455.783 102.938ZM456.359 113.216C454.469 113.216 453.353 112.154 453.353 110.552C453.353 108.932 454.559 107.924 456.629 107.762L459.401 107.546V107.294C459.401 105.818 458.519 105.296 457.331 105.296C455.909 105.296 455.099 105.926 455.099 106.988H453.623C453.623 105.152 455.135 103.946 457.403 103.946C459.581 103.946 461.057 105.098 461.057 107.474V113H459.617L459.437 111.578C458.987 112.586 457.781 113.216 456.359 113.216ZM456.845 111.902C458.447 111.902 459.419 110.858 459.419 109.202V108.734L457.169 108.914C455.675 109.058 455.063 109.634 455.063 110.498C455.063 111.434 455.747 111.902 456.845 111.902ZM462.824 108.59C462.824 105.872 464.768 103.964 467.414 103.964C470.042 103.964 471.986 105.872 471.986 108.59C471.986 111.308 470.042 113.216 467.414 113.216C464.768 113.216 462.824 111.308 462.824 108.59ZM464.534 108.59C464.534 110.426 465.704 111.704 467.414 111.704C469.106 111.704 470.294 110.426 470.294 108.59C470.294 106.754 469.106 105.476 467.414 105.476C465.704 105.476 464.534 106.754 464.534 108.59ZM482.309 113.216C479.753 113.216 478.205 111.308 478.205 108.626C478.205 105.926 479.771 103.946 482.381 103.946C483.731 103.946 484.865 104.54 485.459 105.62V99.752H487.133V113H485.621L485.477 111.398C484.901 112.604 483.713 113.216 482.309 113.216ZM482.651 111.686C484.379 111.686 485.441 110.408 485.441 108.572C485.441 106.772 484.379 105.476 482.651 105.476C480.923 105.476 479.915 106.772 479.915 108.572C479.915 110.39 480.923 111.686 482.651 111.686ZM493.372 113.216C490.78 113.216 488.998 111.344 488.998 108.608C488.998 105.854 490.744 103.946 493.3 103.946C495.802 103.946 497.44 105.674 497.44 108.284V108.914L490.636 108.932C490.762 110.786 491.734 111.812 493.408 111.812C494.722 111.812 495.586 111.272 495.874 110.264H497.458C497.026 112.154 495.55 113.216 493.372 113.216ZM493.3 105.368C491.824 105.368 490.888 106.25 490.672 107.798H495.748C495.748 106.34 494.794 105.368 493.3 105.368ZM508.049 113.216C505.457 113.216 503.675 111.344 503.675 108.608C503.675 105.854 505.421 103.946 507.977 103.946C510.479 103.946 512.117 105.674 512.117 108.284V108.914L505.313 108.932C505.439 110.786 506.411 111.812 508.085 111.812C509.399 111.812 510.263 111.272 510.551 110.264H512.135C511.703 112.154 510.227 113.216 508.049 113.216ZM507.977 105.368C506.501 105.368 505.565 106.25 505.349 107.798H510.425C510.425 106.34 509.471 105.368 507.977 105.368ZM513.287 110.444H514.907C514.907 111.344 515.591 111.884 516.707 111.884C517.895 111.884 518.579 111.398 518.579 110.588C518.579 109.994 518.291 109.634 517.373 109.4L515.825 109.04C514.259 108.662 513.521 107.888 513.521 106.592C513.521 104.972 514.889 103.946 516.833 103.946C518.759 103.946 520.019 105.026 520.055 106.7H518.435C518.399 105.818 517.805 105.26 516.779 105.26C515.717 105.26 515.123 105.728 515.123 106.538C515.123 107.132 515.555 107.528 516.419 107.744L517.967 108.122C519.461 108.482 520.199 109.166 520.199 110.48C520.199 112.154 518.759 113.216 516.671 113.216C514.601 113.216 513.287 112.118 513.287 110.444ZM522.076 116.942V104.198H523.606L523.732 105.782C524.326 104.576 525.514 103.946 526.918 103.946C529.438 103.946 531.004 105.836 531.004 108.536C531.004 111.218 529.528 113.234 526.918 113.234C525.514 113.234 524.344 112.64 523.768 111.56V116.942H522.076ZM523.786 108.608C523.786 110.408 524.83 111.704 526.558 111.704C528.286 111.704 529.312 110.408 529.312 108.608C529.312 106.79 528.286 105.494 526.558 105.494C524.83 105.494 523.786 106.772 523.786 108.608ZM536.667 113.216C534.075 113.216 532.293 111.344 532.293 108.608C532.293 105.854 534.039 103.946 536.595 103.946C539.097 103.946 540.735 105.674 540.735 108.284V108.914L533.931 108.932C534.057 110.786 535.029 111.812 536.703 111.812C538.017 111.812 538.881 111.272 539.169 110.264H540.753C540.321 112.154 538.845 113.216 536.667 113.216ZM536.595 105.368C535.119 105.368 534.183 106.25 533.967 107.798H539.043C539.043 106.34 538.089 105.368 536.595 105.368ZM547.664 104.126V105.674H546.908C545.306 105.674 544.316 106.646 544.316 108.338V113H542.624V104.216H544.208L544.316 105.548C544.676 104.63 545.558 104.018 546.764 104.018C547.07 104.018 547.322 104.054 547.664 104.126ZM551.474 113.216C549.584 113.216 548.468 112.154 548.468 110.552C548.468 108.932 549.674 107.924 551.744 107.762L554.516 107.546V107.294C554.516 105.818 553.634 105.296 552.446 105.296C551.024 105.296 550.214 105.926 550.214 106.988H548.738C548.738 105.152 550.25 103.946 552.518 103.946C554.696 103.946 556.172 105.098 556.172 107.474V113H554.732L554.552 111.578C554.102 112.586 552.896 113.216 551.474 113.216ZM551.96 111.902C553.562 111.902 554.534 110.858 554.534 109.202V108.734L552.284 108.914C550.79 109.058 550.178 109.634 550.178 110.498C550.178 111.434 550.862 111.902 551.96 111.902ZM127.778 147.018H130.1V148.35H126.23V132.492H130.1V133.842H127.778V147.018ZM198.858 148.35V147.018H201.18V133.842H198.858V132.492H202.728V148.35H198.858ZM142.561 181.018H144.883V182.35H141.013V166.492H144.883V167.842H142.561V181.018ZM213.641 182.35V181.018H215.963V167.842H213.641V166.492H217.511V182.35H213.641ZM176.737 218.114H175.333C173.677 216.044 172.579 212.912 172.579 209.654C172.579 206.594 173.569 203.39 175.333 201.212H176.737C175.315 203.192 174.307 206.288 174.307 209.654C174.307 212.84 175.207 216.008 176.737 218.114ZM460.532 215.018H462.854V216.35H458.984V200.492H462.854V201.842H460.532V215.018ZM517.883 216.35V215.018H520.205V201.842H517.883V200.492H521.753V216.35H517.883ZM733.176 218.114H731.754C733.284 216.008 734.184 212.84 734.184 209.654C734.184 206.288 733.194 203.192 731.754 201.212H733.176C734.922 203.39 735.912 206.594 735.912 209.654C735.912 212.912 734.814 216.044 733.176 218.114ZM335.502 252.114H334.098C332.442 250.044 331.344 246.912 331.344 243.654C331.344 240.594 332.334 237.39 334.098 235.212H335.502C334.08 237.192 333.072 240.288 333.072 243.654C333.072 246.84 333.972 250.008 335.502 252.114ZM347.723 252.114H346.301C347.831 250.008 348.731 246.84 348.731 243.654C348.731 240.288 347.741 237.192 346.301 235.212H347.723C349.469 237.39 350.459 240.594 350.459 243.654C350.459 246.912 349.361 250.044 347.723 252.114ZM365.575 317.018H367.897V318.35H364.027V302.492H367.897V303.842H365.575V317.018ZM380.563 318.35V317.018H382.885V303.842H380.563V302.492H384.433V318.35H380.563ZM388.11 317.018H390.432V318.35H386.562V302.492H390.432V303.842H388.11V317.018ZM459.19 318.35V317.018H461.512V303.842H459.19V302.492H463.06V318.35H459.19ZM271.729 354.114H270.325C268.669 352.044 267.571 348.912 267.571 345.654C267.571 342.594 268.561 339.39 270.325 337.212H271.729C270.307 339.192 269.299 342.288 269.299 345.654C269.299 348.84 270.199 352.008 271.729 354.114ZM273.156 354.114H271.734C273.264 352.008 274.164 348.84 274.164 345.654C274.164 342.288 273.174 339.192 271.734 337.212H273.156C274.902 339.39 275.892 342.594 275.892 345.654C275.892 348.912 274.794 352.044 273.156 354.114Z" fill="#595959"/>
<path d="M133.724 135.084L133.292 138.81H132.32L131.852 135.084C131.744 134.274 132.302 133.932 132.824 133.932C133.274 133.932 133.832 134.274 133.724 135.084ZM136.676 135.084L136.244 138.81H135.272L134.804 135.084C134.696 134.274 135.254 133.932 135.776 133.932C136.226 133.932 136.784 134.274 136.676 135.084ZM142.284 147.216C139.692 147.216 137.91 145.344 137.91 142.608C137.91 139.854 139.656 137.946 142.212 137.946C144.714 137.946 146.352 139.674 146.352 142.284V142.914L139.548 142.932C139.674 144.786 140.646 145.812 142.32 145.812C143.634 145.812 144.498 145.272 144.786 144.264H146.37C145.938 146.154 144.462 147.216 142.284 147.216ZM142.212 139.368C140.736 139.368 139.8 140.25 139.584 141.798H144.66C144.66 140.34 143.706 139.368 142.212 139.368ZM147.522 144.444H149.142C149.142 145.344 149.826 145.884 150.942 145.884C152.13 145.884 152.814 145.398 152.814 144.588C152.814 143.994 152.526 143.634 151.608 143.4L150.06 143.04C148.494 142.662 147.756 141.888 147.756 140.592C147.756 138.972 149.124 137.946 151.068 137.946C152.994 137.946 154.254 139.026 154.29 140.7H152.67C152.634 139.818 152.04 139.26 151.014 139.26C149.952 139.26 149.358 139.728 149.358 140.538C149.358 141.132 149.79 141.528 150.654 141.744L152.202 142.122C153.696 142.482 154.434 143.166 154.434 144.48C154.434 146.154 152.994 147.216 150.906 147.216C148.836 147.216 147.522 146.118 147.522 144.444ZM156.31 150.942V138.198H157.84L157.966 139.782C158.56 138.576 159.748 137.946 161.152 137.946C163.672 137.946 165.238 139.836 165.238 142.536C165.238 145.218 163.762 147.234 161.152 147.234C159.748 147.234 158.578 146.64 158.002 145.56V150.942H156.31ZM158.02 142.608C158.02 144.408 159.064 145.704 160.792 145.704C162.52 145.704 163.546 144.408 163.546 142.608C163.546 140.79 162.52 139.494 160.792 139.494C159.064 139.494 158.02 140.772 158.02 142.608ZM170.901 147.216C168.309 147.216 166.527 145.344 166.527 142.608C166.527 139.854 168.273 137.946 170.829 137.946C173.331 137.946 174.969 139.674 174.969 142.284V142.914L168.165 142.932C168.291 144.786 169.263 145.812 170.937 145.812C172.251 145.812 173.115 145.272 173.403 144.264H174.987C174.555 146.154 173.079 147.216 170.901 147.216ZM170.829 139.368C169.353 139.368 168.417 140.25 168.201 141.798H173.277C173.277 140.34 172.323 139.368 170.829 139.368ZM181.899 138.126V139.674H181.143C179.541 139.674 178.551 140.646 178.551 142.338V147H176.859V138.216H178.443L178.551 139.548C178.911 138.63 179.793 138.018 180.999 138.018C181.305 138.018 181.557 138.054 181.899 138.126ZM185.708 147.216C183.818 147.216 182.702 146.154 182.702 144.552C182.702 142.932 183.908 141.924 185.978 141.762L188.75 141.546V141.294C188.75 139.818 187.868 139.296 186.68 139.296C185.258 139.296 184.448 139.926 184.448 140.988H182.972C182.972 139.152 184.484 137.946 186.752 137.946C188.93 137.946 190.406 139.098 190.406 141.474V147H188.966L188.786 145.578C188.336 146.586 187.13 147.216 185.708 147.216ZM186.194 145.902C187.796 145.902 188.768 144.858 188.768 143.202V142.734L186.518 142.914C185.024 143.058 184.412 143.634 184.412 144.498C184.412 145.434 185.096 145.902 186.194 145.902ZM194.158 135.084L193.726 138.81H192.754L192.286 135.084C192.178 134.274 192.736 133.932 193.258 133.932C193.708 133.932 194.266 134.274 194.158 135.084ZM197.11 135.084L196.678 138.81H195.706L195.238 135.084C195.13 134.274 195.688 133.932 196.21 133.932C196.66 133.932 197.218 134.274 197.11 135.084ZM148.507 169.084L148.075 172.81H147.103L146.635 169.084C146.527 168.274 147.085 167.932 147.607 167.932C148.057 167.932 148.615 168.274 148.507 169.084ZM151.459 169.084L151.027 172.81H150.055L149.587 169.084C149.479 168.274 150.037 167.932 150.559 167.932C151.009 167.932 151.567 168.274 151.459 169.084ZM157.067 181.216C154.475 181.216 152.693 179.344 152.693 176.608C152.693 173.854 154.439 171.946 156.995 171.946C159.497 171.946 161.135 173.674 161.135 176.284V176.914L154.331 176.932C154.457 178.786 155.429 179.812 157.103 179.812C158.417 179.812 159.281 179.272 159.569 178.264H161.153C160.721 180.154 159.245 181.216 157.067 181.216ZM156.995 173.368C155.519 173.368 154.583 174.25 154.367 175.798H159.443C159.443 174.34 158.489 173.368 156.995 173.368ZM162.305 178.444H163.925C163.925 179.344 164.609 179.884 165.725 179.884C166.913 179.884 167.597 179.398 167.597 178.588C167.597 177.994 167.309 177.634 166.391 177.4L164.843 177.04C163.277 176.662 162.539 175.888 162.539 174.592C162.539 172.972 163.907 171.946 165.851 171.946C167.777 171.946 169.037 173.026 169.073 174.7H167.453C167.417 173.818 166.823 173.26 165.797 173.26C164.735 173.26 164.141 173.728 164.141 174.538C164.141 175.132 164.573 175.528 165.437 175.744L166.985 176.122C168.479 176.482 169.217 177.166 169.217 178.48C169.217 180.154 167.777 181.216 165.689 181.216C163.619 181.216 162.305 180.118 162.305 178.444ZM171.093 184.942V172.198H172.623L172.749 173.782C173.343 172.576 174.531 171.946 175.935 171.946C178.455 171.946 180.021 173.836 180.021 176.536C180.021 179.218 178.545 181.234 175.935 181.234C174.531 181.234 173.361 180.64 172.785 179.56V184.942H171.093ZM172.803 176.608C172.803 178.408 173.847 179.704 175.575 179.704C177.303 179.704 178.329 178.408 178.329 176.608C178.329 174.79 177.303 173.494 175.575 173.494C173.847 173.494 172.803 174.772 172.803 176.608ZM185.684 181.216C183.092 181.216 181.31 179.344 181.31 176.608C181.31 173.854 183.056 171.946 185.612 171.946C188.114 171.946 189.752 173.674 189.752 176.284V176.914L182.948 176.932C183.074 178.786 184.046 179.812 185.72 179.812C187.034 179.812 187.898 179.272 188.186 178.264H189.77C189.338 180.154 187.862 181.216 185.684 181.216ZM185.612 173.368C184.136 173.368 183.2 174.25 182.984 175.798H188.06C188.06 174.34 187.106 173.368 185.612 173.368ZM196.682 172.126V173.674H195.926C194.324 173.674 193.334 174.646 193.334 176.338V181H191.642V172.216H193.226L193.334 173.548C193.694 172.63 194.576 172.018 195.782 172.018C196.088 172.018 196.34 172.054 196.682 172.126ZM200.491 181.216C198.601 181.216 197.485 180.154 197.485 178.552C197.485 176.932 198.691 175.924 200.761 175.762L203.533 175.546V175.294C203.533 173.818 202.651 173.296 201.463 173.296C200.041 173.296 199.231 173.926 199.231 174.988H197.755C197.755 173.152 199.267 171.946 201.535 171.946C203.713 171.946 205.189 173.098 205.189 175.474V181H203.749L203.569 179.578C203.119 180.586 201.913 181.216 200.491 181.216ZM200.977 179.902C202.579 179.902 203.551 178.858 203.551 177.202V176.734L201.301 176.914C199.807 177.058 199.195 177.634 199.195 178.498C199.195 179.434 199.879 179.902 200.977 179.902ZM208.941 169.084L208.509 172.81H207.537L207.069 169.084C206.961 168.274 207.519 167.932 208.041 167.932C208.491 167.932 209.049 168.274 208.941 169.084ZM211.893 169.084L211.461 172.81H210.489L210.021 169.084C209.913 168.274 210.471 167.932 210.993 167.932C211.443 167.932 212.001 168.274 211.893 169.084ZM185.984 203.084L185.552 206.81H184.58L184.112 203.084C184.004 202.274 184.562 201.932 185.084 201.932C185.534 201.932 186.092 202.274 185.984 203.084ZM188.936 203.084L188.504 206.81H187.532L187.064 203.084C186.956 202.274 187.514 201.932 188.036 201.932C188.486 201.932 189.044 202.274 188.936 203.084ZM190.484 215H188.648L193.4 201.986H195.362L200.132 215H198.278L197.108 211.76H191.636L190.484 215ZM194.156 204.794L192.176 210.23H196.586L194.588 204.794C194.498 204.542 194.408 204.236 194.372 204.038C194.336 204.218 194.246 204.524 194.156 204.794ZM203.722 215L198.772 201.986H200.662L203.83 210.302C204.118 211.04 204.37 211.778 204.64 212.75C204.946 211.724 205.252 210.86 205.468 210.284L208.618 201.986H210.454L205.558 215H203.722ZM213.909 201.986V215H212.145V201.986H213.909ZM216.188 205.496C216.188 203.264 217.988 201.752 220.67 201.752C223.154 201.752 224.756 203.138 224.9 205.388H223.118C223.028 204.092 222.11 203.336 220.652 203.336C219.014 203.336 217.952 204.164 217.952 205.442C217.952 206.486 218.546 207.116 219.77 207.404L221.912 207.908C224.036 208.394 225.116 209.546 225.116 211.382C225.116 213.722 223.298 215.216 220.526 215.216C217.88 215.216 216.116 213.83 216.008 211.598H217.808C217.844 212.84 218.888 213.632 220.526 213.632C222.254 213.632 223.352 212.822 223.352 211.526C223.352 210.5 222.794 209.852 221.552 209.564L219.41 209.078C217.286 208.592 216.188 207.368 216.188 205.496ZM239.068 208.484C239.068 212.444 236.476 215.216 232.786 215.216C229.114 215.216 226.558 212.444 226.558 208.484C226.558 204.542 229.132 201.752 232.804 201.752C236.494 201.752 239.068 204.524 239.068 208.484ZM237.214 208.484C237.214 205.46 235.45 203.462 232.804 203.462C230.158 203.462 228.412 205.46 228.412 208.484C228.412 211.508 230.158 213.524 232.804 213.524C235.45 213.524 237.214 211.49 237.214 208.484ZM246.966 216.566V200.762H248.316V216.566H246.966ZM262.045 210.356H258.751V215H256.987V201.986H262.045C264.601 201.986 266.239 203.66 266.239 206.162C266.239 208.592 264.583 210.356 262.045 210.356ZM261.739 203.57H258.751V208.772H261.667C263.413 208.772 264.385 207.746 264.385 206.144C264.385 204.506 263.395 203.57 261.739 203.57ZM272.989 206.126V207.674H272.233C270.631 207.674 269.641 208.646 269.641 210.338V215H267.949V206.216H269.533L269.641 207.548C270.001 206.63 270.883 206.018 272.089 206.018C272.395 206.018 272.647 206.054 272.989 206.126ZM273.683 210.59C273.683 207.872 275.627 205.964 278.273 205.964C280.901 205.964 282.845 207.872 282.845 210.59C282.845 213.308 280.901 215.216 278.273 215.216C275.627 215.216 273.683 213.308 273.683 210.59ZM275.393 210.59C275.393 212.426 276.563 213.704 278.273 213.704C279.965 213.704 281.153 212.426 281.153 210.59C281.153 208.754 279.965 207.476 278.273 207.476C276.563 207.476 275.393 208.754 275.393 210.59ZM286.41 215H284.718V206.198H286.23L286.392 207.35C286.842 206.522 287.778 205.946 289.02 205.946C290.388 205.946 291.36 206.63 291.81 207.728C292.224 206.63 293.286 205.946 294.654 205.946C296.67 205.946 297.894 207.206 297.894 209.24V215H296.238V209.654C296.238 208.268 295.464 207.476 294.276 207.476C292.998 207.476 292.152 208.376 292.152 209.78V215H290.478V209.636C290.478 208.25 289.722 207.494 288.534 207.494C287.256 207.494 286.41 208.376 286.41 209.78V215ZM299.664 210.59C299.664 207.872 301.608 205.964 304.254 205.964C306.882 205.964 308.826 207.872 308.826 210.59C308.826 213.308 306.882 215.216 304.254 215.216C301.608 215.216 299.664 213.308 299.664 210.59ZM301.374 210.59C301.374 212.426 302.544 213.704 304.254 213.704C305.946 213.704 307.134 212.426 307.134 210.59C307.134 208.754 305.946 207.476 304.254 207.476C302.544 207.476 301.374 208.754 301.374 210.59ZM310.123 210.608C310.123 207.854 311.869 205.946 314.443 205.946C316.657 205.946 318.205 207.206 318.511 209.168H316.819C316.531 208.052 315.631 207.458 314.497 207.458C312.895 207.458 311.797 208.682 311.797 210.59C311.797 212.48 312.823 213.704 314.425 213.704C315.631 213.704 316.531 213.074 316.837 212.03H318.529C318.205 213.83 316.729 215.072 314.767 215.198L314.479 215.81C314.659 215.756 314.839 215.72 315.037 215.72C315.721 215.72 316.369 216.152 316.369 217.016C316.369 218.042 315.523 218.546 314.569 218.546C314.047 218.546 313.687 218.456 313.345 218.258V217.394C313.723 217.574 314.047 217.7 314.443 217.7C314.983 217.7 315.343 217.448 315.343 217.052C315.343 216.656 315.055 216.44 314.587 216.44C314.263 216.44 314.047 216.494 313.705 216.638L313.525 216.116L313.957 215.198C311.635 214.982 310.123 213.218 310.123 210.608ZM322.312 204.938H321.232C321.124 203.588 321.7 202.742 322.708 202.742C323.788 202.742 324.328 203.75 325.066 203.75C325.498 203.75 325.678 203.39 325.678 202.742H326.776C326.866 204.2 326.254 204.938 325.21 204.938C324.076 204.938 323.536 203.93 322.906 203.93C322.51 203.93 322.312 204.29 322.312 204.938ZM322.888 215.216C320.998 215.216 319.882 214.154 319.882 212.552C319.882 210.932 321.088 209.924 323.158 209.762L325.93 209.546V209.294C325.93 207.818 325.048 207.296 323.86 207.296C322.438 207.296 321.628 207.926 321.628 208.988H320.152C320.152 207.152 321.664 205.946 323.932 205.946C326.11 205.946 327.586 207.098 327.586 209.474V215H326.146L325.966 213.578C325.516 214.586 324.31 215.216 322.888 215.216ZM323.374 213.902C324.976 213.902 325.948 212.858 325.948 211.202V210.734L323.698 210.914C322.204 211.058 321.592 211.634 321.592 212.498C321.592 213.434 322.276 213.902 323.374 213.902ZM329.353 210.59C329.353 207.872 331.297 205.964 333.943 205.964C336.571 205.964 338.515 207.872 338.515 210.59C338.515 213.308 336.571 215.216 333.943 215.216C331.297 215.216 329.353 213.308 329.353 210.59ZM331.063 210.59C331.063 212.426 332.233 213.704 333.943 213.704C335.635 213.704 336.823 212.426 336.823 210.59C336.823 208.754 335.635 207.476 333.943 207.476C332.233 207.476 331.063 208.754 331.063 210.59ZM345.31 218.942V206.198H346.84L346.966 207.782C347.56 206.576 348.748 205.946 350.152 205.946C352.672 205.946 354.238 207.836 354.238 210.536C354.238 213.218 352.762 215.234 350.152 215.234C348.748 215.234 347.578 214.64 347.002 213.56V218.942H345.31ZM347.02 210.608C347.02 212.408 348.064 213.704 349.792 213.704C351.52 213.704 352.546 212.408 352.546 210.608C352.546 208.79 351.52 207.494 349.792 207.494C348.064 207.494 347.02 208.772 347.02 210.608ZM355.527 210.59C355.527 207.872 357.471 205.964 360.117 205.964C362.745 205.964 364.689 207.872 364.689 210.59C364.689 213.308 362.745 215.216 360.117 215.216C357.471 215.216 355.527 213.308 355.527 210.59ZM357.237 210.59C357.237 212.426 358.407 213.704 360.117 213.704C361.809 213.704 362.997 212.426 362.997 210.59C362.997 208.754 361.809 207.476 360.117 207.476C358.407 207.476 357.237 208.754 357.237 210.59ZM371.602 206.126V207.674H370.846C369.244 207.674 368.254 208.646 368.254 210.338V215H366.562V206.216H368.146L368.254 207.548C368.614 206.63 369.496 206.018 370.702 206.018C371.008 206.018 371.26 206.054 371.602 206.126ZM381.909 215.216C379.317 215.216 377.535 213.344 377.535 210.608C377.535 207.854 379.281 205.946 381.837 205.946C384.339 205.946 385.977 207.674 385.977 210.284V210.914L379.173 210.932C379.299 212.786 380.271 213.812 381.945 213.812C383.259 213.812 384.123 213.272 384.411 212.264H385.995C385.563 214.154 384.087 215.216 381.909 215.216ZM381.837 207.368C380.361 207.368 379.425 208.25 379.209 209.798H384.285C384.285 208.34 383.331 207.368 381.837 207.368ZM387.147 212.444H388.767C388.767 213.344 389.451 213.884 390.567 213.884C391.755 213.884 392.439 213.398 392.439 212.588C392.439 211.994 392.151 211.634 391.233 211.4L389.685 211.04C388.119 210.662 387.381 209.888 387.381 208.592C387.381 206.972 388.749 205.946 390.693 205.946C392.619 205.946 393.879 207.026 393.915 208.7H392.295C392.259 207.818 391.665 207.26 390.639 207.26C389.577 207.26 388.983 207.728 388.983 208.538C388.983 209.132 389.415 209.528 390.279 209.744L391.827 210.122C393.321 210.482 394.059 211.166 394.059 212.48C394.059 214.154 392.619 215.216 390.531 215.216C388.461 215.216 387.147 214.118 387.147 212.444ZM395.935 218.942V206.198H397.465L397.591 207.782C398.185 206.576 399.373 205.946 400.777 205.946C403.297 205.946 404.863 207.836 404.863 210.536C404.863 213.218 403.387 215.234 400.777 215.234C399.373 215.234 398.203 214.64 397.627 213.56V218.942H395.935ZM397.645 210.608C397.645 212.408 398.689 213.704 400.417 213.704C402.145 213.704 403.171 212.408 403.171 210.608C403.171 208.79 402.145 207.494 400.417 207.494C398.689 207.494 397.645 208.772 397.645 210.608ZM410.526 215.216C407.934 215.216 406.152 213.344 406.152 210.608C406.152 207.854 407.898 205.946 410.454 205.946C412.956 205.946 414.594 207.674 414.594 210.284V210.914L407.79 210.932C407.916 212.786 408.888 213.812 410.562 213.812C411.876 213.812 412.74 213.272 413.028 212.264H414.612C414.18 214.154 412.704 215.216 410.526 215.216ZM410.454 207.368C408.978 207.368 408.042 208.25 407.826 209.798H412.902C412.902 208.34 411.948 207.368 410.454 207.368ZM421.524 206.126V207.674H420.768C419.166 207.674 418.176 208.646 418.176 210.338V215H416.484V206.216H418.068L418.176 207.548C418.536 206.63 419.418 206.018 420.624 206.018C420.93 206.018 421.182 206.054 421.524 206.126ZM425.333 215.216C423.443 215.216 422.327 214.154 422.327 212.552C422.327 210.932 423.533 209.924 425.603 209.762L428.375 209.546V209.294C428.375 207.818 427.493 207.296 426.305 207.296C424.883 207.296 424.073 207.926 424.073 208.988H422.597C422.597 207.152 424.109 205.946 426.377 205.946C428.555 205.946 430.031 207.098 430.031 209.474V215H428.591L428.411 213.578C427.961 214.586 426.755 215.216 425.333 215.216ZM425.819 213.902C427.421 213.902 428.393 212.858 428.393 211.202V210.734L426.143 210.914C424.649 211.058 424.037 211.634 424.037 212.498C424.037 213.434 424.721 213.902 425.819 213.902ZM433.814 208.466C433.112 208.466 432.518 207.89 432.518 207.224C432.518 206.522 433.112 205.946 433.814 205.946C434.498 205.946 435.092 206.522 435.092 207.224C435.092 207.89 434.498 208.466 433.814 208.466ZM433.814 215.216C433.112 215.216 432.518 214.64 432.518 213.956C432.518 213.254 433.112 212.678 433.814 212.678C434.498 212.678 435.092 213.254 435.092 213.956C435.092 214.64 434.498 215.216 433.814 215.216ZM466.478 203.084L466.046 206.81H465.074L464.606 203.084C464.498 202.274 465.056 201.932 465.578 201.932C466.028 201.932 466.586 202.274 466.478 203.084ZM470.33 215H468.638V206.198H470.168L470.348 207.548C470.906 206.54 472.022 205.946 473.264 205.946C475.586 205.946 476.648 207.368 476.648 209.618V215H474.956V209.996C474.956 208.214 474.128 207.494 472.832 207.494C471.248 207.494 470.33 208.628 470.33 210.338V215ZM478.416 210.59C478.416 207.872 480.36 205.964 483.006 205.964C485.634 205.964 487.578 207.872 487.578 210.59C487.578 213.308 485.634 215.216 483.006 215.216C480.36 215.216 478.416 213.308 478.416 210.59ZM480.126 210.59C480.126 212.426 481.296 213.704 483.006 213.704C484.698 213.704 485.886 212.426 485.886 210.59C485.886 208.754 484.698 207.476 483.006 207.476C481.296 207.476 480.126 208.754 480.126 210.59ZM491.143 215H489.451V206.198H490.963L491.125 207.35C491.575 206.522 492.511 205.946 493.753 205.946C495.121 205.946 496.093 206.63 496.543 207.728C496.957 206.63 498.019 205.946 499.387 205.946C501.403 205.946 502.627 207.206 502.627 209.24V215H500.971V209.654C500.971 208.268 500.197 207.476 499.009 207.476C497.731 207.476 496.885 208.376 496.885 209.78V215H495.211V209.636C495.211 208.25 494.455 207.494 493.267 207.494C491.989 207.494 491.143 208.376 491.143 209.78V215ZM508.77 215.216C506.178 215.216 504.396 213.344 504.396 210.608C504.396 207.854 506.142 205.946 508.698 205.946C511.2 205.946 512.838 207.674 512.838 210.284V210.914L506.034 210.932C506.16 212.786 507.132 213.812 508.806 213.812C510.12 213.812 510.984 213.272 511.272 212.264H512.856C512.424 214.154 510.948 215.216 508.77 215.216ZM508.698 207.368C507.222 207.368 506.286 208.25 506.07 209.798H511.146C511.146 208.34 510.192 207.368 508.698 207.368ZM516.136 203.084L515.704 206.81H514.732L514.264 203.084C514.156 202.274 514.714 201.932 515.236 201.932C515.686 201.932 516.244 202.274 516.136 203.084ZM533.977 212.444H535.597C535.597 213.344 536.281 213.884 537.397 213.884C538.585 213.884 539.269 213.398 539.269 212.588C539.269 211.994 538.981 211.634 538.063 211.4L536.515 211.04C534.949 210.662 534.211 209.888 534.211 208.592C534.211 206.972 535.579 205.946 537.523 205.946C539.449 205.946 540.709 207.026 540.745 208.7H539.125C539.089 207.818 538.495 207.26 537.469 207.26C536.407 207.26 535.813 207.728 535.813 208.538C535.813 209.132 536.245 209.528 537.109 209.744L538.657 210.122C540.151 210.482 540.889 211.166 540.889 212.48C540.889 214.154 539.449 215.216 537.361 215.216C535.291 215.216 533.977 214.118 533.977 212.444ZM548.849 206.198H550.523V215H549.011L548.831 213.668C548.327 214.586 547.157 215.216 545.861 215.216C543.809 215.216 542.657 213.83 542.657 211.67V206.198H544.349V211.112C544.349 213.002 545.159 213.722 546.455 213.722C548.003 213.722 548.849 212.732 548.849 210.842V206.198ZM554.508 215H552.978V201.752H554.67V207.71C555.246 206.558 556.434 205.946 557.874 205.946C560.394 205.946 561.906 207.926 561.906 210.644C561.906 213.308 560.322 215.216 557.766 215.216C556.38 215.216 555.21 214.604 554.634 213.398L554.508 215ZM554.688 210.572C554.688 212.408 555.732 213.686 557.46 213.686C559.188 213.686 560.214 212.39 560.214 210.572C560.214 208.772 559.188 207.476 557.46 207.476C555.732 207.476 554.688 208.772 554.688 210.572ZM564.599 204.11C563.987 204.11 563.483 203.606 563.483 202.994C563.483 202.364 563.987 201.878 564.599 201.878C565.211 201.878 565.715 202.364 565.715 202.994C565.715 203.606 565.211 204.11 564.599 204.11ZM563.771 215V206.198H565.463V215H563.771ZM573.458 206.198H575.132V215H573.62L573.44 213.668C572.936 214.586 571.766 215.216 570.47 215.216C568.418 215.216 567.266 213.83 567.266 211.67V206.198H568.958V211.112C568.958 213.002 569.768 213.722 571.064 213.722C572.612 213.722 573.458 212.732 573.458 210.842V206.198ZM582.509 218.942V206.198H584.039L584.165 207.782C584.759 206.576 585.947 205.946 587.351 205.946C589.871 205.946 591.437 207.836 591.437 210.536C591.437 213.218 589.961 215.234 587.351 215.234C585.947 215.234 584.777 214.64 584.201 213.56V218.942H582.509ZM584.219 210.608C584.219 212.408 585.263 213.704 586.991 213.704C588.719 213.704 589.745 212.408 589.745 210.608C589.745 208.79 588.719 207.494 586.991 207.494C585.263 207.494 584.219 208.772 584.219 210.608ZM595.876 215.216C593.986 215.216 592.87 214.154 592.87 212.552C592.87 210.932 594.076 209.924 596.146 209.762L598.918 209.546V209.294C598.918 207.818 598.036 207.296 596.848 207.296C595.426 207.296 594.616 207.926 594.616 208.988H593.14C593.14 207.152 594.652 205.946 596.92 205.946C599.098 205.946 600.574 207.098 600.574 209.474V215H599.134L598.954 213.578C598.504 214.586 597.298 215.216 595.876 215.216ZM596.362 213.902C597.964 213.902 598.936 212.858 598.936 211.202V210.734L596.686 210.914C595.192 211.058 594.58 211.634 594.58 212.498C594.58 213.434 595.264 213.902 596.362 213.902ZM607.957 206.126V207.674H607.201C605.599 207.674 604.609 208.646 604.609 210.338V215H602.917V206.216H604.501L604.609 207.548C604.969 206.63 605.851 206.018 607.057 206.018C607.363 206.018 607.615 206.054 607.957 206.126ZM611.767 215.216C609.877 215.216 608.761 214.154 608.761 212.552C608.761 210.932 609.967 209.924 612.037 209.762L614.809 209.546V209.294C614.809 207.818 613.927 207.296 612.739 207.296C611.317 207.296 610.507 207.926 610.507 208.988H609.031C609.031 207.152 610.543 205.946 612.811 205.946C614.989 205.946 616.465 207.098 616.465 209.474V215H615.025L614.845 213.578C614.395 214.586 613.189 215.216 611.767 215.216ZM612.253 213.902C613.855 213.902 614.827 212.858 614.827 211.202V210.734L612.577 210.914C611.083 211.058 610.471 211.634 610.471 212.498C610.471 213.434 611.155 213.902 612.253 213.902ZM629.076 210.356H625.782V215H624.018V201.986H629.076C631.632 201.986 633.27 203.66 633.27 206.162C633.27 208.592 631.614 210.356 629.076 210.356ZM628.77 203.57H625.782V208.772H628.698C630.444 208.772 631.416 207.746 631.416 206.144C631.416 204.506 630.426 203.57 628.77 203.57ZM640.02 206.126V207.674H639.264C637.662 207.674 636.672 208.646 636.672 210.338V215H634.98V206.216H636.564L636.672 207.548C637.032 206.63 637.914 206.018 639.12 206.018C639.426 206.018 639.678 206.054 640.02 206.126ZM645.088 215.216C642.496 215.216 640.714 213.344 640.714 210.608C640.714 207.854 642.46 205.946 645.016 205.946C647.518 205.946 649.156 207.674 649.156 210.284V210.914L642.352 210.932C642.478 212.786 643.45 213.812 645.124 213.812C646.438 213.812 647.302 213.272 647.59 212.264H649.174C648.742 214.154 647.266 215.216 645.088 215.216ZM645.016 207.368C643.54 207.368 642.604 208.25 642.388 209.798H647.464C647.464 208.34 646.51 207.368 645.016 207.368ZM650.11 206.198H651.406V204.794C651.406 202.634 652.594 201.752 654.196 201.752C654.52 201.752 654.898 201.77 655.24 201.824V203.282H654.484C653.386 203.282 653.098 203.84 653.098 204.794V206.198H655.186V207.62H653.098V215H651.406V207.62H650.11V206.198ZM660.293 215.216C657.701 215.216 655.919 213.344 655.919 210.608C655.919 207.854 657.665 205.946 660.221 205.946C662.723 205.946 664.361 207.674 664.361 210.284V210.914L657.557 210.932C657.683 212.786 658.655 213.812 660.329 213.812C661.643 213.812 662.507 213.272 662.795 212.264H664.379C663.947 214.154 662.471 215.216 660.293 215.216ZM660.221 207.368C658.745 207.368 657.809 208.25 657.593 209.798H662.669C662.669 208.34 661.715 207.368 660.221 207.368ZM671.291 206.126V207.674H670.535C668.933 207.674 667.943 208.646 667.943 210.338V215H666.251V206.216H667.835L667.943 207.548C668.303 206.63 669.185 206.018 670.391 206.018C670.697 206.018 670.949 206.054 671.291 206.126ZM676.36 215.216C673.768 215.216 671.986 213.344 671.986 210.608C671.986 207.854 673.732 205.946 676.288 205.946C678.79 205.946 680.428 207.674 680.428 210.284V210.914L673.624 210.932C673.75 212.786 674.722 213.812 676.396 213.812C677.71 213.812 678.574 213.272 678.862 212.264H680.446C680.014 214.154 678.538 215.216 676.36 215.216ZM676.288 207.368C674.812 207.368 673.876 208.25 673.66 209.798H678.736C678.736 208.34 677.782 207.368 676.288 207.368ZM684.01 215H682.318V206.198H683.848L684.028 207.548C684.586 206.54 685.702 205.946 686.944 205.946C689.266 205.946 690.328 207.368 690.328 209.618V215H688.636V209.996C688.636 208.214 687.808 207.494 686.512 207.494C684.928 207.494 684.01 208.628 684.01 210.338V215ZM692.095 210.608C692.095 207.854 693.841 205.946 696.415 205.946C698.629 205.946 700.177 207.206 700.483 209.168H698.791C698.503 208.052 697.603 207.458 696.469 207.458C694.867 207.458 693.769 208.682 693.769 210.59C693.769 212.48 694.795 213.704 696.397 213.704C697.603 213.704 698.503 213.074 698.809 212.03H700.501C700.159 213.938 698.521 215.216 696.397 215.216C693.805 215.216 692.095 213.38 692.095 210.608ZM703.115 204.11C702.503 204.11 701.999 203.606 701.999 202.994C701.999 202.364 702.503 201.878 703.115 201.878C703.727 201.878 704.231 202.364 704.231 202.994C704.231 203.606 703.727 204.11 703.115 204.11ZM702.287 215V206.198H703.979V215H702.287ZM709.009 215.216C707.119 215.216 706.003 214.154 706.003 212.552C706.003 210.932 707.209 209.924 709.279 209.762L712.051 209.546V209.294C712.051 207.818 711.169 207.296 709.981 207.296C708.559 207.296 707.749 207.926 707.749 208.988H706.273C706.273 207.152 707.785 205.946 710.053 205.946C712.231 205.946 713.707 207.098 713.707 209.474V215H712.267L712.087 213.578C711.637 214.586 710.431 215.216 709.009 215.216ZM709.495 213.902C711.097 213.902 712.069 212.858 712.069 211.202V210.734L709.819 210.914C708.325 211.058 707.713 211.634 707.713 212.498C707.713 213.434 708.397 213.902 709.495 213.902ZM717.778 215H716.086V201.752H717.778V215ZM722.339 211.094H721.025C720.845 209.744 720.719 207.35 720.719 205.01V201.986H722.663V205.01C722.663 207.386 722.519 209.762 722.339 211.094ZM721.691 215.252C720.971 215.252 720.395 214.676 720.395 213.974C720.395 213.272 720.971 212.696 721.691 212.696C722.375 212.696 722.969 213.272 722.969 213.974C722.969 214.676 722.375 215.252 721.691 215.252ZM727.144 203.084L726.712 206.81H725.74L725.272 203.084C725.164 202.274 725.722 201.932 726.244 201.932C726.694 201.932 727.252 202.274 727.144 203.084ZM730.096 203.084L729.664 206.81H728.692L728.224 203.084C728.116 202.274 728.674 201.932 729.196 201.932C729.646 201.932 730.204 202.274 730.096 203.084ZM394.056 305.084L393.624 308.81H392.652L392.184 305.084C392.076 304.274 392.634 303.932 393.156 303.932C393.606 303.932 394.164 304.274 394.056 305.084ZM397.008 305.084L396.576 308.81H395.604L395.136 305.084C395.028 304.274 395.586 303.932 396.108 303.932C396.558 303.932 397.116 304.274 397.008 305.084ZM402.616 317.216C400.024 317.216 398.242 315.344 398.242 312.608C398.242 309.854 399.988 307.946 402.544 307.946C405.046 307.946 406.684 309.674 406.684 312.284V312.914L399.88 312.932C400.006 314.786 400.978 315.812 402.652 315.812C403.966 315.812 404.83 315.272 405.118 314.264H406.702C406.27 316.154 404.794 317.216 402.616 317.216ZM402.544 309.368C401.068 309.368 400.132 310.25 399.916 311.798H404.992C404.992 310.34 404.038 309.368 402.544 309.368ZM407.854 314.444H409.474C409.474 315.344 410.158 315.884 411.274 315.884C412.462 315.884 413.146 315.398 413.146 314.588C413.146 313.994 412.858 313.634 411.94 313.4L410.392 313.04C408.826 312.662 408.088 311.888 408.088 310.592C408.088 308.972 409.456 307.946 411.4 307.946C413.326 307.946 414.586 309.026 414.622 310.7H413.002C412.966 309.818 412.372 309.26 411.346 309.26C410.284 309.26 409.69 309.728 409.69 310.538C409.69 311.132 410.122 311.528 410.986 311.744L412.534 312.122C414.028 312.482 414.766 313.166 414.766 314.48C414.766 316.154 413.326 317.216 411.238 317.216C409.168 317.216 407.854 316.118 407.854 314.444ZM416.642 320.942V308.198H418.172L418.298 309.782C418.892 308.576 420.08 307.946 421.484 307.946C424.004 307.946 425.57 309.836 425.57 312.536C425.57 315.218 424.094 317.234 421.484 317.234C420.08 317.234 418.91 316.64 418.334 315.56V320.942H416.642ZM418.352 312.608C418.352 314.408 419.396 315.704 421.124 315.704C422.852 315.704 423.878 314.408 423.878 312.608C423.878 310.79 422.852 309.494 421.124 309.494C419.396 309.494 418.352 310.772 418.352 312.608ZM431.233 317.216C428.641 317.216 426.859 315.344 426.859 312.608C426.859 309.854 428.605 307.946 431.161 307.946C433.663 307.946 435.301 309.674 435.301 312.284V312.914L428.497 312.932C428.623 314.786 429.595 315.812 431.269 315.812C432.583 315.812 433.447 315.272 433.735 314.264H435.319C434.887 316.154 433.411 317.216 431.233 317.216ZM431.161 309.368C429.685 309.368 428.749 310.25 428.533 311.798H433.609C433.609 310.34 432.655 309.368 431.161 309.368ZM442.231 308.126V309.674H441.475C439.873 309.674 438.883 310.646 438.883 312.338V317H437.191V308.216H438.775L438.883 309.548C439.243 308.63 440.125 308.018 441.331 308.018C441.637 308.018 441.889 308.054 442.231 308.126ZM446.04 317.216C444.15 317.216 443.034 316.154 443.034 314.552C443.034 312.932 444.24 311.924 446.31 311.762L449.082 311.546V311.294C449.082 309.818 448.2 309.296 447.012 309.296C445.59 309.296 444.78 309.926 444.78 310.988H443.304C443.304 309.152 444.816 307.946 447.084 307.946C449.262 307.946 450.738 309.098 450.738 311.474V317H449.298L449.118 315.578C448.668 316.586 447.462 317.216 446.04 317.216ZM446.526 315.902C448.128 315.902 449.1 314.858 449.1 313.202V312.734L446.85 312.914C445.356 313.058 444.744 313.634 444.744 314.498C444.744 315.434 445.428 315.902 446.526 315.902ZM454.49 305.084L454.058 308.81H453.086L452.618 305.084C452.51 304.274 453.068 303.932 453.59 303.932C454.04 303.932 454.598 304.274 454.49 305.084ZM457.442 305.084L457.01 308.81H456.038L455.57 305.084C455.462 304.274 456.02 303.932 456.542 303.932C456.992 303.932 457.55 304.274 457.442 305.084Z" fill="#34C759"/>
<path d="M135.287 218.942V206.198H136.817L136.943 207.782C137.537 206.576 138.725 205.946 140.129 205.946C142.649 205.946 144.215 207.836 144.215 210.536C144.215 213.218 142.739 215.234 140.129 215.234C138.725 215.234 137.555 214.64 136.979 213.56V218.942H135.287ZM136.997 210.608C136.997 212.408 138.041 213.704 139.769 213.704C141.497 213.704 142.523 212.408 142.523 210.608C142.523 208.79 141.497 207.494 139.769 207.494C138.041 207.494 136.997 208.772 136.997 210.608ZM151.119 206.126V207.674H150.363C148.761 207.674 147.771 208.646 147.771 210.338V215H146.079V206.216H147.663L147.771 207.548C148.131 206.63 149.013 206.018 150.219 206.018C150.525 206.018 150.777 206.054 151.119 206.126ZM153.534 204.11C152.922 204.11 152.418 203.606 152.418 202.994C152.418 202.364 152.922 201.878 153.534 201.878C154.146 201.878 154.65 202.364 154.65 202.994C154.65 203.606 154.146 204.11 153.534 204.11ZM152.706 215V206.198H154.398V215H152.706ZM158.547 215H156.855V206.198H158.385L158.565 207.548C159.123 206.54 160.239 205.946 161.481 205.946C163.803 205.946 164.865 207.368 164.865 209.618V215H163.173V209.996C163.173 208.214 162.345 207.494 161.049 207.494C159.465 207.494 158.547 208.628 158.547 210.338V215ZM169.692 215H168V207.62H166.272V206.198H168V203.444H169.692V206.198H171.42V207.62H169.692V215ZM272.175 249.216C270.285 249.216 269.169 248.154 269.169 246.552C269.169 244.932 270.375 243.924 272.445 243.762L275.217 243.546V243.294C275.217 241.818 274.335 241.296 273.147 241.296C271.725 241.296 270.915 241.926 270.915 242.988H269.439C269.439 241.152 270.951 239.946 273.219 239.946C275.397 239.946 276.873 241.098 276.873 243.474V249H275.433L275.253 247.578C274.803 248.586 273.597 249.216 272.175 249.216ZM272.661 247.902C274.263 247.902 275.235 246.858 275.235 245.202V244.734L272.985 244.914C271.491 245.058 270.879 245.634 270.879 246.498C270.879 247.434 271.563 247.902 272.661 247.902ZM279.216 252.942V240.198H280.746L280.872 241.782C281.466 240.576 282.654 239.946 284.058 239.946C286.578 239.946 288.144 241.836 288.144 244.536C288.144 247.218 286.668 249.234 284.058 249.234C282.654 249.234 281.484 248.64 280.908 247.56V252.942H279.216ZM280.926 244.608C280.926 246.408 281.97 247.704 283.698 247.704C285.426 247.704 286.452 246.408 286.452 244.608C286.452 242.79 285.426 241.494 283.698 241.494C281.97 241.494 280.926 242.772 280.926 244.608ZM290.009 252.942V240.198H291.539L291.665 241.782C292.259 240.576 293.447 239.946 294.851 239.946C297.371 239.946 298.937 241.836 298.937 244.536C298.937 247.218 297.461 249.234 294.851 249.234C293.447 249.234 292.277 248.64 291.701 247.56V252.942H290.009ZM291.719 244.608C291.719 246.408 292.763 247.704 294.491 247.704C296.219 247.704 297.245 246.408 297.245 244.608C297.245 242.79 296.219 241.494 294.491 241.494C292.763 241.494 291.719 242.772 291.719 244.608ZM304.6 249.216C302.008 249.216 300.226 247.344 300.226 244.608C300.226 241.854 301.972 239.946 304.528 239.946C307.03 239.946 308.668 241.674 308.668 244.284V244.914L301.864 244.932C301.99 246.786 302.962 247.812 304.636 247.812C305.95 247.812 306.814 247.272 307.102 246.264H308.686C308.254 248.154 306.778 249.216 304.6 249.216ZM304.528 241.368C303.052 241.368 302.116 242.25 301.9 243.798H306.976C306.976 242.34 306.022 241.368 304.528 241.368ZM312.25 249H310.558V240.198H312.088L312.268 241.548C312.826 240.54 313.942 239.946 315.184 239.946C317.506 239.946 318.568 241.368 318.568 243.618V249H316.876V243.996C316.876 242.214 316.048 241.494 314.752 241.494C313.168 241.494 312.25 242.628 312.25 244.338V249ZM324.439 249.216C321.884 249.216 320.336 247.308 320.336 244.626C320.336 241.926 321.902 239.946 324.512 239.946C325.862 239.946 326.996 240.54 327.59 241.62V235.752H329.264V249H327.752L327.608 247.398C327.032 248.604 325.844 249.216 324.439 249.216ZM324.782 247.686C326.51 247.686 327.572 246.408 327.572 244.572C327.572 242.772 326.51 241.476 324.782 241.476C323.054 241.476 322.046 242.772 322.046 244.572C322.046 246.39 323.054 247.686 324.782 247.686ZM210.802 354.942V342.198H212.332L212.458 343.782C213.052 342.576 214.24 341.946 215.644 341.946C218.164 341.946 219.73 343.836 219.73 346.536C219.73 349.218 218.254 351.234 215.644 351.234C214.24 351.234 213.07 350.64 212.494 349.56V354.942H210.802ZM212.512 346.608C212.512 348.408 213.556 349.704 215.284 349.704C217.012 349.704 218.038 348.408 218.038 346.608C218.038 344.79 217.012 343.494 215.284 343.494C213.556 343.494 212.512 344.772 212.512 346.608ZM221.019 346.59C221.019 343.872 222.963 341.964 225.609 341.964C228.237 341.964 230.181 343.872 230.181 346.59C230.181 349.308 228.237 351.216 225.609 351.216C222.963 351.216 221.019 349.308 221.019 346.59ZM222.729 346.59C222.729 348.426 223.899 349.704 225.609 349.704C227.301 349.704 228.489 348.426 228.489 346.59C228.489 344.754 227.301 343.476 225.609 343.476C223.899 343.476 222.729 344.754 222.729 346.59ZM232.054 354.942V342.198H233.584L233.71 343.782C234.304 342.576 235.492 341.946 236.896 341.946C239.416 341.946 240.982 343.836 240.982 346.536C240.982 349.218 239.506 351.234 236.896 351.234C235.492 351.234 234.322 350.64 233.746 349.56V354.942H232.054ZM233.764 346.608C233.764 348.408 234.808 349.704 236.536 349.704C238.264 349.704 239.29 348.408 239.29 346.608C239.29 344.79 238.264 343.494 236.536 343.494C234.808 343.494 233.764 344.772 233.764 346.608ZM244.575 351H242.883V337.752H244.575V351ZM250.864 351.216C248.272 351.216 246.49 349.344 246.49 346.608C246.49 343.854 248.236 341.946 250.792 341.946C253.294 341.946 254.932 343.674 254.932 346.284V346.914L248.128 346.932C248.254 348.786 249.226 349.812 250.9 349.812C252.214 349.812 253.078 349.272 253.366 348.264H254.95C254.518 350.154 253.042 351.216 250.864 351.216ZM250.792 343.368C249.316 343.368 248.38 344.25 248.164 345.798H253.24C253.24 344.34 252.286 343.368 250.792 343.368ZM255.886 342.198H257.182V340.794C257.182 338.634 258.352 337.752 259.882 337.752C260.206 337.752 260.602 337.77 260.926 337.824V339.282H260.17C259.144 339.282 258.874 339.84 258.874 340.794V342.198H262.996V339.444H264.688V342.198H266.416V343.62H264.688V351H262.996V343.62H258.874V351H257.182V343.62H255.886V342.198Z" fill="#FFCC00"/>
<path d="M177.03 206.198H178.326V204.794C178.326 202.634 179.514 201.752 181.116 201.752C181.44 201.752 181.818 201.77 182.16 201.824V203.282H181.404C180.306 203.282 180.018 203.84 180.018 204.794V206.198H182.106V207.62H180.018V215H178.326V207.62H177.03V206.198Z" fill="#6155F5"/>
</svg>
