<svg width="400" height="288" viewBox="0 0 400 288" fill="none" xmlns="http://www.w3.org/2000/svg">
<path d="M0 20C0 8.95431 8.95431 0 20 0H380C391.046 0 400 8.95431 400 20V252C400 263.046 391.046 272 380 272H20C8.95431 272 0 263.046 0 252V20Z" fill="#2E2E2E"/>
<rect y="71" width="400" height="2" fill="#2B2B2B"/>
<circle cx="40" cy="37" r="15" fill="#FF383C"/>
<circle cx="85" cy="37" r="15" fill="#FFCC00"/>
<circle cx="130" cy="37" r="15" fill="#34C759"/>
<g opacity="0.5">
<path d="M25.1695 108V106.272H28.6615V96.552L25.1515 99.162V97.056L28.1575 94.86H30.6055V106.272H33.4315V108H25.1695Z" fill="#1A1A1A"/>
<path d="M25.1335 142V140.074L29.2015 135.88C29.8255 135.232 30.2815 134.65 30.5695 134.134C30.8695 133.606 31.0195 133.084 31.0195 132.568C31.0195 131.896 30.8335 131.368 30.4615 130.984C30.1015 130.6 29.6035 130.408 28.9675 130.408C28.2715 130.408 27.7195 130.612 27.3115 131.02C26.9155 131.416 26.7175 131.962 26.7175 132.658H24.7735C24.7975 131.842 24.9835 131.14 25.3315 130.552C25.6795 129.952 26.1655 129.49 26.7895 129.166C27.4135 128.842 28.1455 128.68 28.9855 128.68C29.7895 128.68 30.4915 128.836 31.0915 129.148C31.6915 129.46 32.1535 129.898 32.4775 130.462C32.8015 131.026 32.9635 131.692 32.9635 132.46C32.9635 133.24 32.7595 134.002 32.3515 134.746C31.9555 135.49 31.3015 136.318 30.3895 137.23L27.4195 140.236H33.1615V142H25.1335Z" fill="#1A1A1A"/>
<path d="M28.8415 176.18C28.0135 176.18 27.2935 176.024 26.6815 175.712C26.0695 175.4 25.5955 174.962 25.2595 174.398C24.9355 173.822 24.7735 173.156 24.7735 172.4H26.7175C26.7175 173.06 26.9035 173.576 27.2755 173.948C27.6595 174.32 28.1875 174.506 28.8595 174.506C29.5435 174.506 30.0715 174.314 30.4435 173.93C30.8155 173.546 31.0015 173.036 31.0015 172.4V171.428C31.0015 170.756 30.8155 170.24 30.4435 169.88C30.0715 169.508 29.5435 169.322 28.8595 169.322H27.4555V167.486L30.5155 164.57H25.3315V162.86H32.4955V164.696L28.8775 168.098V167.63C30.1255 167.63 31.1155 167.972 31.8475 168.656C32.5795 169.34 32.9455 170.258 32.9455 171.41V172.4C32.9455 173.156 32.7775 173.822 32.4415 174.398C32.1055 174.962 31.6255 175.4 31.0015 175.712C30.3895 176.024 29.6695 176.18 28.8415 176.18Z" fill="#1A1A1A"/>
<path d="M30.8035 210V207.264H24.9175V204.348L30.0295 196.86H32.1895L26.7895 204.816V205.518H30.8035V202.44H32.7295V210H30.8035Z" fill="#1A1A1A"/>
<path d="M28.9675 244.18C27.8275 244.18 26.9035 243.892 26.1955 243.316C25.4875 242.728 25.0915 241.942 25.0075 240.958H26.9335C26.9935 241.438 27.1975 241.81 27.5455 242.074C27.8935 242.338 28.3735 242.47 28.9855 242.47C29.6695 242.47 30.1855 242.29 30.5335 241.93C30.8935 241.558 31.0735 241.042 31.0735 240.382V239.104C31.0735 238.432 30.8995 237.916 30.5515 237.556C30.2035 237.184 29.6875 236.998 29.0035 236.998C28.5715 236.998 28.1995 237.1 27.8875 237.304C27.5755 237.496 27.3475 237.766 27.2035 238.114H25.2775L25.3675 230.86H32.5315V232.624H27.2215L27.1855 236.71H27.6895L27.1675 237.178C27.1675 236.614 27.3895 236.17 27.8335 235.846C28.2775 235.522 28.8715 235.36 29.6155 235.36C30.6835 235.36 31.5115 235.69 32.0995 236.35C32.6995 236.998 32.9995 237.916 32.9995 239.104V240.382C32.9995 241.546 32.6455 242.47 31.9375 243.154C31.2295 243.838 30.2395 244.18 28.9675 244.18Z" fill="#1A1A1A"/>
</g>
<path d="M60.288 99.198H61.584V97.794C61.584 95.634 62.772 94.752 64.374 94.752C64.698 94.752 65.076 94.77 65.418 94.824V96.282H64.662C63.564 96.282 63.276 96.84 63.276 97.794V99.198H65.364V100.62H63.276V108H61.584V100.62H60.288V99.198ZM71.9769 99.126V100.674H71.2209C69.6189 100.674 68.6289 101.646 68.6289 103.338V108H66.9369V99.216H68.5209L68.6289 100.548C68.9889 99.63 69.8709 99.018 71.0769 99.018C71.3829 99.018 71.6349 99.054 71.9769 99.126ZM72.6714 103.59C72.6714 100.872 74.6154 98.964 77.2614 98.964C79.8894 98.964 81.8334 100.872 81.8334 103.59C81.8334 106.308 79.8894 108.216 77.2614 108.216C74.6154 108.216 72.6714 106.308 72.6714 103.59ZM74.3814 103.59C74.3814 105.426 75.5514 106.704 77.2614 106.704C78.9534 106.704 80.1414 105.426 80.1414 103.59C80.1414 101.754 78.9534 100.476 77.2614 100.476C75.5514 100.476 74.3814 101.754 74.3814 103.59ZM85.3984 108H83.7064V99.198H85.2184L85.3804 100.35C85.8304 99.522 86.7664 98.946 88.0084 98.946C89.3764 98.946 90.3484 99.63 90.7984 100.728C91.2124 99.63 92.2744 98.946 93.6424 98.946C95.6584 98.946 96.8824 100.206 96.8824 102.24V108H95.2264V102.654C95.2264 101.268 94.4524 100.476 93.2644 100.476C91.9864 100.476 91.1404 101.376 91.1404 102.78V108H89.4664V102.636C89.4664 101.25 88.7104 100.494 87.5224 100.494C86.2444 100.494 85.3984 101.376 85.3984 102.78V108ZM196.437 97.11C195.825 97.11 195.321 96.606 195.321 95.994C195.321 95.364 195.825 94.878 196.437 94.878C197.049 94.878 197.553 95.364 197.553 95.994C197.553 96.606 197.049 97.11 196.437 97.11ZM195.609 108V99.198H197.301V108H195.609ZM201.449 108H199.757V99.198H201.269L201.431 100.35C201.881 99.522 202.817 98.946 204.059 98.946C205.427 98.946 206.399 99.63 206.849 100.728C207.263 99.63 208.325 98.946 209.693 98.946C211.709 98.946 212.933 100.206 212.933 102.24V108H211.277V102.654C211.277 101.268 210.503 100.476 209.315 100.476C208.037 100.476 207.191 101.376 207.191 102.78V108H205.517V102.636C205.517 101.25 204.761 100.494 203.573 100.494C202.295 100.494 201.449 101.376 201.449 102.78V108ZM215.279 111.942V99.198H216.809L216.935 100.782C217.529 99.576 218.717 98.946 220.121 98.946C222.641 98.946 224.207 100.836 224.207 103.536C224.207 106.218 222.731 108.234 220.121 108.234C218.717 108.234 217.547 107.64 216.971 106.56V111.942H215.279ZM216.989 103.608C216.989 105.408 218.033 106.704 219.761 106.704C221.489 106.704 222.515 105.408 222.515 103.608C222.515 101.79 221.489 100.494 219.761 100.494C218.033 100.494 216.989 101.772 216.989 103.608ZM225.496 103.59C225.496 100.872 227.44 98.964 230.086 98.964C232.714 98.964 234.658 100.872 234.658 103.59C234.658 106.308 232.714 108.216 230.086 108.216C227.44 108.216 225.496 106.308 225.496 103.59ZM227.206 103.59C227.206 105.426 228.376 106.704 230.086 106.704C231.778 106.704 232.966 105.426 232.966 103.59C232.966 101.754 231.778 100.476 230.086 100.476C228.376 100.476 227.206 101.754 227.206 103.59ZM241.571 99.126V100.674H240.815C239.213 100.674 238.223 101.646 238.223 103.338V108H236.531V99.216H238.115L238.223 100.548C238.583 99.63 239.465 99.018 240.671 99.018C240.977 99.018 241.229 99.054 241.571 99.126ZM245.993 108H244.301V100.62H242.573V99.198H244.301V96.444H245.993V99.198H247.721V100.62H245.993V108ZM195.878 168.008H204.878V169.466H195.878V168.008ZM195.878 171.788H204.878V173.246H195.878V171.788ZM156.59 202.008H165.59V203.466H156.59V202.008ZM156.59 205.788H165.59V207.246H156.59V205.788Z" fill="#00C3D0"/>
<path d="M103.574 103.608C103.574 100.854 105.32 98.946 107.894 98.946C110.108 98.946 111.656 100.206 111.962 102.168H110.27C109.982 101.052 109.082 100.458 107.948 100.458C106.346 100.458 105.248 101.682 105.248 103.59C105.248 105.48 106.274 106.704 107.876 106.704C109.082 106.704 109.982 106.074 110.288 105.03H111.98C111.638 106.938 110 108.216 107.876 108.216C105.284 108.216 103.574 106.38 103.574 103.608ZM113.189 103.59C113.189 100.872 115.133 98.964 117.779 98.964C120.407 98.964 122.351 100.872 122.351 103.59C122.351 106.308 120.407 108.216 117.779 108.216C115.133 108.216 113.189 106.308 113.189 103.59ZM114.899 103.59C114.899 105.426 116.069 106.704 117.779 106.704C119.471 106.704 120.659 105.426 120.659 103.59C120.659 101.754 119.471 100.476 117.779 100.476C116.069 100.476 114.899 101.754 114.899 103.59ZM125.952 108H124.26V94.752H125.952V108ZM130.171 108H128.479V94.752H130.171V108ZM136.46 108.216C133.868 108.216 132.086 106.344 132.086 103.608C132.086 100.854 133.832 98.946 136.388 98.946C138.89 98.946 140.527 100.674 140.527 103.284V103.914L133.724 103.932C133.85 105.786 134.822 106.812 136.496 106.812C137.81 106.812 138.674 106.272 138.962 105.264H140.546C140.114 107.154 138.638 108.216 136.46 108.216ZM136.388 100.368C134.912 100.368 133.976 101.25 133.76 102.798H138.836C138.836 101.34 137.882 100.368 136.388 100.368ZM141.841 103.608C141.841 100.854 143.587 98.946 146.161 98.946C148.375 98.946 149.923 100.206 150.229 102.168H148.537C148.249 101.052 147.349 100.458 146.215 100.458C144.613 100.458 143.515 101.682 143.515 103.59C143.515 105.48 144.541 106.704 146.143 106.704C147.349 106.704 148.249 106.074 148.555 105.03H150.247C149.905 106.938 148.267 108.216 146.143 108.216C143.551 108.216 141.841 106.38 141.841 103.608ZM154.517 108H152.825V100.62H151.097V99.198H152.825V96.444H154.517V99.198H156.245V100.62H154.517V108ZM158.591 97.11C157.979 97.11 157.475 96.606 157.475 95.994C157.475 95.364 157.979 94.878 158.591 94.878C159.203 94.878 159.707 95.364 159.707 95.994C159.707 96.606 159.203 97.11 158.591 97.11ZM157.763 108V99.198H159.455V108H157.763ZM161.336 103.59C161.336 100.872 163.28 98.964 165.926 98.964C168.554 98.964 170.498 100.872 170.498 103.59C170.498 106.308 168.554 108.216 165.926 108.216C163.28 108.216 161.336 106.308 161.336 103.59ZM163.046 103.59C163.046 105.426 164.216 106.704 165.926 106.704C167.618 106.704 168.806 105.426 168.806 103.59C168.806 101.754 167.618 100.476 165.926 100.476C164.216 100.476 163.046 101.754 163.046 103.59ZM174.062 108H172.37V99.198H173.9L174.08 100.548C174.638 99.54 175.754 98.946 176.996 98.946C179.318 98.946 180.38 100.368 180.38 102.618V108H178.688V102.996C178.688 101.214 177.86 100.494 176.564 100.494C174.98 100.494 174.062 101.628 174.062 103.338V108ZM181.899 105.444H183.519C183.519 106.344 184.203 106.884 185.319 106.884C186.507 106.884 187.191 106.398 187.191 105.588C187.191 104.994 186.903 104.634 185.985 104.4L184.437 104.04C182.871 103.662 182.133 102.888 182.133 101.592C182.133 99.972 183.501 98.946 185.445 98.946C187.371 98.946 188.631 100.026 188.667 101.7H187.047C187.011 100.818 186.417 100.26 185.391 100.26C184.329 100.26 183.735 100.728 183.735 101.538C183.735 102.132 184.167 102.528 185.031 102.744L186.579 103.122C188.073 103.482 188.811 104.166 188.811 105.48C188.811 107.154 187.371 108.216 185.283 108.216C183.213 108.216 181.899 107.118 181.899 105.444ZM257.689 108.216C255.134 108.216 253.586 106.308 253.586 103.626C253.586 100.926 255.152 98.946 257.762 98.946C259.112 98.946 260.246 99.54 260.84 100.62V94.752H262.514V108H261.002L260.858 106.398C260.282 107.604 259.094 108.216 257.689 108.216ZM258.032 106.686C259.76 106.686 260.822 105.408 260.822 103.572C260.822 101.772 259.76 100.476 258.032 100.476C256.304 100.476 255.296 101.772 255.296 103.572C255.296 105.39 256.304 106.686 258.032 106.686ZM268.752 108.216C266.16 108.216 264.378 106.344 264.378 103.608C264.378 100.854 266.124 98.946 268.68 98.946C271.182 98.946 272.82 100.674 272.82 103.284V103.914L266.016 103.932C266.142 105.786 267.114 106.812 268.788 106.812C270.102 106.812 270.966 106.272 271.254 105.264H272.838C272.406 107.154 270.93 108.216 268.752 108.216ZM268.68 100.368C267.204 100.368 266.268 101.25 266.052 102.798H271.128C271.128 101.34 270.174 100.368 268.68 100.368ZM274.134 103.536C274.134 100.836 275.718 98.946 278.238 98.946C279.624 98.946 280.83 99.576 281.406 100.782L281.55 99.198H283.062V111.942H281.388V106.56C280.794 107.64 279.624 108.234 278.22 108.234C275.628 108.234 274.134 106.218 274.134 103.536ZM275.844 103.608C275.844 105.408 276.852 106.704 278.58 106.704C280.308 106.704 281.37 105.408 281.37 103.608C281.37 101.772 280.308 100.494 278.58 100.494C276.852 100.494 275.844 101.79 275.844 103.608ZM291.587 99.198H293.261V108H291.749L291.569 106.668C291.065 107.586 289.895 108.216 288.599 108.216C286.547 108.216 285.395 106.83 285.395 104.67V99.198H287.087V104.112C287.087 106.002 287.897 106.722 289.193 106.722C290.741 106.722 291.587 105.732 291.587 103.842V99.198ZM299.338 108.216C296.746 108.216 294.964 106.344 294.964 103.608C294.964 100.854 296.71 98.946 299.266 98.946C301.768 98.946 303.406 100.674 303.406 103.284V103.914L296.602 103.932C296.728 105.786 297.7 106.812 299.374 106.812C300.688 106.812 301.552 106.272 301.84 105.264H303.424C302.992 107.154 301.516 108.216 299.338 108.216ZM299.266 100.368C297.79 100.368 296.854 101.25 296.638 102.798H301.714C301.714 101.34 300.76 100.368 299.266 100.368ZM67.182 176V168.62H63.276V176H61.584V168.62H60.288V167.198H61.584V165.794C61.584 163.634 62.754 162.752 64.284 162.752C64.608 162.752 65.004 162.77 65.328 162.824V164.282H64.572C63.546 164.282 63.276 164.84 63.276 165.794V167.198H68.874V176H67.182ZM68.028 165.038C67.416 165.038 66.948 164.57 66.948 163.958C66.948 163.346 67.416 162.878 68.028 162.878C68.622 162.878 69.09 163.346 69.09 163.958C69.09 164.57 68.622 165.038 68.028 165.038ZM73.0067 176H71.3147V162.752H73.0067V176ZM78.0714 176.216C76.1814 176.216 75.0654 175.154 75.0654 173.552C75.0654 171.932 76.2714 170.924 78.3414 170.762L81.1134 170.546V170.294C81.1134 168.818 80.2314 168.296 79.0434 168.296C77.6214 168.296 76.8114 168.926 76.8114 169.988H75.3354C75.3354 168.152 76.8474 166.946 79.1154 166.946C81.2934 166.946 82.7694 168.098 82.7694 170.474V176H81.3294L81.1494 174.578C80.6994 175.586 79.4934 176.216 78.0714 176.216ZM78.5574 174.902C80.1594 174.902 81.1314 173.858 81.1314 172.202V171.734L78.8814 171.914C77.3874 172.058 76.7754 172.634 76.7754 173.498C76.7754 174.434 77.4594 174.902 78.5574 174.902ZM84.9687 177.656V176.324H92.3487V177.656H84.9687ZM94.6576 179.942V167.198H96.1876L96.3136 168.782C96.9076 167.576 98.0956 166.946 99.4996 166.946C102.02 166.946 103.586 168.836 103.586 171.536C103.586 174.218 102.11 176.234 99.4996 176.234C98.0956 176.234 96.9256 175.64 96.3496 174.56V179.942H94.6576ZM96.3676 171.608C96.3676 173.408 97.4116 174.704 99.1396 174.704C100.868 174.704 101.894 173.408 101.894 171.608C101.894 169.79 100.868 168.494 99.1396 168.494C97.4116 168.494 96.3676 169.772 96.3676 171.608ZM110.491 167.126V168.674H109.735C108.133 168.674 107.143 169.646 107.143 171.338V176H105.451V167.216H107.035L107.143 168.548C107.503 167.63 108.385 167.018 109.591 167.018C109.897 167.018 110.149 167.054 110.491 167.126ZM115.559 176.216C112.967 176.216 111.185 174.344 111.185 171.608C111.185 168.854 112.931 166.946 115.487 166.946C117.989 166.946 119.627 168.674 119.627 171.284V171.914L112.823 171.932C112.949 173.786 113.921 174.812 115.595 174.812C116.909 174.812 117.773 174.272 118.061 173.264H119.645C119.213 175.154 117.737 176.216 115.559 176.216ZM115.487 168.368C114.011 168.368 113.075 169.25 112.859 170.798H117.935C117.935 169.34 116.981 168.368 115.487 168.368ZM120.581 167.198H121.877V165.794C121.877 163.634 123.065 162.752 124.667 162.752C124.991 162.752 125.369 162.77 125.711 162.824V164.282H124.955C123.857 164.282 123.569 164.84 123.569 165.794V167.198H125.657V168.62H123.569V176H121.877V168.62H120.581V167.198ZM130.764 176.216C128.172 176.216 126.39 174.344 126.39 171.608C126.39 168.854 128.136 166.946 130.692 166.946C133.194 166.946 134.832 168.674 134.832 171.284V171.914L128.028 171.932C128.154 173.786 129.126 174.812 130.8 174.812C132.114 174.812 132.978 174.272 133.266 173.264H134.85C134.418 175.154 132.942 176.216 130.764 176.216ZM130.692 168.368C129.216 168.368 128.28 169.25 128.064 170.798H133.14C133.14 169.34 132.186 168.368 130.692 168.368ZM141.762 167.126V168.674H141.006C139.404 168.674 138.414 169.646 138.414 171.338V176H136.722V167.216H138.306L138.414 168.548C138.774 167.63 139.656 167.018 140.862 167.018C141.168 167.018 141.42 167.054 141.762 167.126ZM146.831 176.216C144.239 176.216 142.457 174.344 142.457 171.608C142.457 168.854 144.203 166.946 146.759 166.946C149.261 166.946 150.899 168.674 150.899 171.284V171.914L144.095 171.932C144.221 173.786 145.193 174.812 146.867 174.812C148.181 174.812 149.045 174.272 149.333 173.264H150.917C150.485 175.154 149.009 176.216 146.831 176.216ZM146.759 168.368C145.283 168.368 144.347 169.25 144.131 170.798H149.207C149.207 169.34 148.253 168.368 146.759 168.368ZM154.48 176H152.788V167.198H154.318L154.498 168.548C155.056 167.54 156.172 166.946 157.414 166.946C159.736 166.946 160.798 168.368 160.798 170.618V176H159.106V170.996C159.106 169.214 158.278 168.494 156.982 168.494C155.398 168.494 154.48 169.628 154.48 171.338V176ZM162.566 171.608C162.566 168.854 164.312 166.946 166.886 166.946C169.1 166.946 170.648 168.206 170.954 170.168H169.262C168.974 169.052 168.074 168.458 166.94 168.458C165.338 168.458 164.24 169.682 164.24 171.59C164.24 173.48 165.266 174.704 166.868 174.704C168.074 174.704 168.974 174.074 169.28 173.03H170.972C170.63 174.938 168.992 176.216 166.868 176.216C164.276 176.216 162.566 174.38 162.566 171.608ZM173.585 165.11C172.973 165.11 172.469 164.606 172.469 163.994C172.469 163.364 172.973 162.878 173.585 162.878C174.197 162.878 174.701 163.364 174.701 163.994C174.701 164.606 174.197 165.11 173.585 165.11ZM172.757 176V167.198H174.449V176H172.757ZM179.48 176.216C177.59 176.216 176.474 175.154 176.474 173.552C176.474 171.932 177.68 170.924 179.75 170.762L182.522 170.546V170.294C182.522 168.818 181.64 168.296 180.452 168.296C179.03 168.296 178.22 168.926 178.22 169.988H176.744C176.744 168.152 178.256 166.946 180.524 166.946C182.702 166.946 184.178 168.098 184.178 170.474V176H182.738L182.558 174.578C182.108 175.586 180.902 176.216 179.48 176.216ZM179.966 174.902C181.568 174.902 182.54 173.858 182.54 172.202V171.734L180.29 171.914C178.796 172.058 178.184 172.634 178.184 173.498C178.184 174.434 178.868 174.902 179.966 174.902ZM188.249 176H186.557V162.752H188.249V176ZM67.182 210V202.62H63.276V210H61.584V202.62H60.288V201.198H61.584V199.794C61.584 197.634 62.754 196.752 64.284 196.752C64.608 196.752 65.004 196.77 65.328 196.824V198.282H64.572C63.546 198.282 63.276 198.84 63.276 199.794V201.198H68.874V210H67.182ZM68.028 199.038C67.416 199.038 66.948 198.57 66.948 197.958C66.948 197.346 67.416 196.878 68.028 196.878C68.622 196.878 69.09 197.346 69.09 197.958C69.09 198.57 68.622 199.038 68.028 199.038ZM73.0067 210H71.3147V196.752H73.0067V210ZM78.0714 210.216C76.1814 210.216 75.0654 209.154 75.0654 207.552C75.0654 205.932 76.2714 204.924 78.3414 204.762L81.1134 204.546V204.294C81.1134 202.818 80.2314 202.296 79.0434 202.296C77.6214 202.296 76.8114 202.926 76.8114 203.988H75.3354C75.3354 202.152 76.8474 200.946 79.1154 200.946C81.2934 200.946 82.7694 202.098 82.7694 204.474V210H81.3294L81.1494 208.578C80.6994 209.586 79.4934 210.216 78.0714 210.216ZM78.5574 208.902C80.1594 208.902 81.1314 207.858 81.1314 206.202V205.734L78.8814 205.914C77.3874 206.058 76.7754 206.634 76.7754 207.498C76.7754 208.434 77.4594 208.902 78.5574 208.902ZM84.9687 211.656V210.324H92.3487V211.656H84.9687ZM96.3496 210H94.6576V201.198H96.1876L96.3676 202.548C96.9256 201.54 98.0416 200.946 99.2836 200.946C101.606 200.946 102.668 202.368 102.668 204.618V210H100.976V204.996C100.976 203.214 100.148 202.494 98.8516 202.494C97.2676 202.494 96.3496 203.628 96.3496 205.338V210ZM104.435 205.59C104.435 202.872 106.379 200.964 109.025 200.964C111.653 200.964 113.597 202.872 113.597 205.59C113.597 208.308 111.653 210.216 109.025 210.216C106.379 210.216 104.435 208.308 104.435 205.59ZM106.145 205.59C106.145 207.426 107.315 208.704 109.025 208.704C110.717 208.704 111.905 207.426 111.905 205.59C111.905 203.754 110.717 202.476 109.025 202.476C107.315 202.476 106.145 203.754 106.145 205.59ZM120.51 201.126V202.674H119.754C118.152 202.674 117.162 203.646 117.162 205.338V210H115.47V201.216H117.054L117.162 202.548C117.522 201.63 118.404 201.018 119.61 201.018C119.916 201.018 120.168 201.054 120.51 201.126ZM123.789 210H122.097V201.198H123.609L123.771 202.35C124.221 201.522 125.157 200.946 126.399 200.946C127.767 200.946 128.739 201.63 129.189 202.728C129.603 201.63 130.665 200.946 132.033 200.946C134.049 200.946 135.273 202.206 135.273 204.24V210H133.617V204.654C133.617 203.268 132.843 202.476 131.655 202.476C130.377 202.476 129.531 203.376 129.531 204.78V210H127.857V204.636C127.857 203.25 127.101 202.494 125.913 202.494C124.635 202.494 123.789 203.376 123.789 204.78V210ZM140.193 210.216C138.303 210.216 137.187 209.154 137.187 207.552C137.187 205.932 138.393 204.924 140.463 204.762L143.235 204.546V204.294C143.235 202.818 142.353 202.296 141.165 202.296C139.743 202.296 138.933 202.926 138.933 203.988H137.457C137.457 202.152 138.969 200.946 141.237 200.946C143.415 200.946 144.891 202.098 144.891 204.474V210H143.451L143.271 208.578C142.821 209.586 141.615 210.216 140.193 210.216ZM140.679 208.902C142.281 208.902 143.253 207.858 143.253 206.202V205.734L141.003 205.914C139.509 206.058 138.897 206.634 138.897 207.498C138.897 208.434 139.581 208.902 140.679 208.902ZM148.962 210H147.27V196.752H148.962V210Z" fill="#DEDEDE"/>
<path d="M215.994 176.216C213.438 176.216 211.89 174.308 211.89 171.626C211.89 168.926 213.456 166.946 216.066 166.946C217.416 166.946 218.55 167.54 219.144 168.62V162.752H220.818V176H219.306L219.162 174.398C218.586 175.604 217.398 176.216 215.994 176.216ZM216.336 174.686C218.064 174.686 219.126 173.408 219.126 171.572C219.126 169.772 218.064 168.476 216.336 168.476C214.608 168.476 213.6 169.772 213.6 171.572C213.6 173.39 214.608 174.686 216.336 174.686ZM227.057 176.216C224.465 176.216 222.683 174.344 222.683 171.608C222.683 168.854 224.429 166.946 226.985 166.946C229.487 166.946 231.125 168.674 231.125 171.284V171.914L224.321 171.932C224.447 173.786 225.419 174.812 227.093 174.812C228.407 174.812 229.271 174.272 229.559 173.264H231.143C230.711 175.154 229.235 176.216 227.057 176.216ZM226.985 168.368C225.509 168.368 224.573 169.25 224.357 170.798H229.433C229.433 169.34 228.479 168.368 226.985 168.368ZM232.439 171.536C232.439 168.836 234.023 166.946 236.543 166.946C237.929 166.946 239.135 167.576 239.711 168.782L239.855 167.198H241.367V179.942H239.693V174.56C239.099 175.64 237.929 176.234 236.525 176.234C233.933 176.234 232.439 174.218 232.439 171.536ZM234.149 171.608C234.149 173.408 235.157 174.704 236.885 174.704C238.613 174.704 239.675 173.408 239.675 171.608C239.675 169.772 238.613 168.494 236.885 168.494C235.157 168.494 234.149 169.79 234.149 171.608ZM249.892 167.198H251.566V176H250.054L249.874 174.668C249.37 175.586 248.2 176.216 246.904 176.216C244.852 176.216 243.7 174.83 243.7 172.67V167.198H245.392V172.112C245.392 174.002 246.202 174.722 247.498 174.722C249.046 174.722 249.892 173.732 249.892 171.842V167.198ZM257.643 176.216C255.051 176.216 253.269 174.344 253.269 171.608C253.269 168.854 255.015 166.946 257.571 166.946C260.073 166.946 261.711 168.674 261.711 171.284V171.914L254.907 171.932C255.033 173.786 256.005 174.812 257.679 174.812C258.993 174.812 259.857 174.272 260.145 173.264H261.729C261.297 175.154 259.821 176.216 257.643 176.216ZM257.571 168.368C256.095 168.368 255.159 169.25 254.943 170.798H260.019C260.019 169.34 259.065 168.368 257.571 168.368Z" fill="#FFCC00"/>
<path d="M267.399 179.114H265.995C264.339 177.044 263.241 173.912 263.241 170.654C263.241 167.594 264.231 164.39 265.995 162.212H267.399C265.977 164.192 264.969 167.288 264.969 170.654C264.969 173.84 265.869 177.008 267.399 179.114ZM268.826 179.114H267.404C268.934 177.008 269.834 173.84 269.834 170.654C269.834 167.288 268.844 164.192 267.404 162.212H268.826C270.572 164.39 271.562 167.594 271.562 170.654C271.562 173.912 270.464 177.044 268.826 179.114ZM228.112 213.114H226.708C225.052 211.044 223.954 207.912 223.954 204.654C223.954 201.594 224.944 198.39 226.708 196.212H228.112C226.69 198.192 225.682 201.288 225.682 204.654C225.682 207.84 226.582 211.008 228.112 213.114ZM229.539 213.114H228.117C229.647 211.008 230.547 207.84 230.547 204.654C230.547 201.288 229.557 198.192 228.117 196.212H229.539C231.285 198.39 232.275 201.594 232.275 204.654C232.275 207.912 231.177 211.044 229.539 213.114Z" fill="#404040"/>
<path d="M176.707 210.216C174.151 210.216 172.603 208.308 172.603 205.626C172.603 202.926 174.169 200.946 176.779 200.946C178.129 200.946 179.263 201.54 179.857 202.62V196.752H181.531V210H180.019L179.875 208.398C179.299 209.604 178.111 210.216 176.707 210.216ZM177.049 208.686C178.777 208.686 179.839 207.408 179.839 205.572C179.839 203.772 178.777 202.476 177.049 202.476C175.321 202.476 174.313 203.772 174.313 205.572C174.313 207.39 175.321 208.686 177.049 208.686ZM187.77 210.216C185.178 210.216 183.396 208.344 183.396 205.608C183.396 202.854 185.142 200.946 187.698 200.946C190.2 200.946 191.838 202.674 191.838 205.284V205.914L185.034 205.932C185.16 207.786 186.132 208.812 187.806 208.812C189.12 208.812 189.984 208.272 190.272 207.264H191.856C191.424 209.154 189.948 210.216 187.77 210.216ZM187.698 202.368C186.222 202.368 185.286 203.25 185.07 204.798H190.146C190.146 203.34 189.192 202.368 187.698 202.368ZM193.152 205.536C193.152 202.836 194.736 200.946 197.256 200.946C198.642 200.946 199.848 201.576 200.424 202.782L200.568 201.198H202.08V213.942H200.406V208.56C199.812 209.64 198.642 210.234 197.238 210.234C194.646 210.234 193.152 208.218 193.152 205.536ZM194.862 205.608C194.862 207.408 195.87 208.704 197.598 208.704C199.326 208.704 200.388 207.408 200.388 205.608C200.388 203.772 199.326 202.494 197.598 202.494C195.87 202.494 194.862 203.79 194.862 205.608ZM210.605 201.198H212.279V210H210.767L210.587 208.668C210.083 209.586 208.913 210.216 207.617 210.216C205.565 210.216 204.413 208.83 204.413 206.67V201.198H206.105V206.112C206.105 208.002 206.915 208.722 208.211 208.722C209.759 208.722 210.605 207.732 210.605 205.842V201.198ZM218.356 210.216C215.764 210.216 213.982 208.344 213.982 205.608C213.982 202.854 215.728 200.946 218.284 200.946C220.786 200.946 222.424 202.674 222.424 205.284V205.914L215.62 205.932C215.746 207.786 216.718 208.812 218.392 208.812C219.706 208.812 220.57 208.272 220.858 207.264H222.442C222.01 209.154 220.534 210.216 218.356 210.216ZM218.284 202.368C216.808 202.368 215.872 203.25 215.656 204.798H220.732C220.732 203.34 219.778 202.368 218.284 202.368Z" fill="#FFCC00"/>
</svg>
