<svg width="600" height="324" viewBox="0 0 600 324" fill="none" xmlns="http://www.w3.org/2000/svg">
<path d="M0 20C0 8.95431 8.95431 0 20 0H580C591.046 0 600 8.95431 600 20V304C600 315.046 591.046 324 580 324H20C8.95432 324 0 315.046 0 304V20Z" fill="#2E2E2E"/>
<rect y="71" width="600" height="2" fill="#2B2B2B"/>
<circle cx="40" cy="37" r="15" fill="#FF383C"/>
<circle cx="85" cy="37" r="15" fill="#FFCC00"/>
<circle cx="130" cy="37" r="15" fill="#34C759"/>
<g opacity="0.5">
<path d="M30.445 112.18C29.617 112.18 28.897 112.024 28.285 111.712C27.673 111.4 27.199 110.962 26.863 110.398C26.539 109.822 26.377 109.156 26.377 108.4H28.321C28.321 109.06 28.507 109.576 28.879 109.948C29.263 110.32 29.791 110.506 30.463 110.506C31.147 110.506 31.675 110.314 32.047 109.93C32.419 109.546 32.605 109.036 32.605 108.4V107.428C32.605 106.756 32.419 106.24 32.047 105.88C31.675 105.508 31.147 105.322 30.463 105.322H29.059V103.486L32.119 100.57H26.935V98.86H34.099V100.696L30.481 104.098V103.63C31.729 103.63 32.719 103.972 33.451 104.656C34.183 105.34 34.549 106.258 34.549 107.41V108.4C34.549 109.156 34.381 109.822 34.045 110.398C33.709 110.962 33.229 111.4 32.605 111.712C31.993 112.024 31.273 112.18 30.445 112.18ZM41.364 112.18C40.224 112.18 39.3 111.892 38.592 111.316C37.884 110.728 37.488 109.942 37.404 108.958H39.33C39.39 109.438 39.594 109.81 39.942 110.074C40.29 110.338 40.77 110.47 41.382 110.47C42.066 110.47 42.582 110.29 42.93 109.93C43.29 109.558 43.47 109.042 43.47 108.382V107.104C43.47 106.432 43.296 105.916 42.948 105.556C42.6 105.184 42.084 104.998 41.4 104.998C40.968 104.998 40.596 105.1 40.284 105.304C39.972 105.496 39.744 105.766 39.6 106.114H37.674L37.764 98.86H44.928V100.624H39.618L39.582 104.71H40.086L39.564 105.178C39.564 104.614 39.786 104.17 40.23 103.846C40.674 103.522 41.268 103.36 42.012 103.36C43.08 103.36 43.908 103.69 44.496 104.35C45.096 104.998 45.396 105.916 45.396 107.104V108.382C45.396 109.546 45.042 110.47 44.334 111.154C43.626 111.838 42.636 112.18 41.364 112.18Z" fill="#1A1A1A"/>
<path d="M30.445 146.18C29.617 146.18 28.897 146.024 28.285 145.712C27.673 145.4 27.199 144.962 26.863 144.398C26.539 143.822 26.377 143.156 26.377 142.4H28.321C28.321 143.06 28.507 143.576 28.879 143.948C29.263 144.32 29.791 144.506 30.463 144.506C31.147 144.506 31.675 144.314 32.047 143.93C32.419 143.546 32.605 143.036 32.605 142.4V141.428C32.605 140.756 32.419 140.24 32.047 139.88C31.675 139.508 31.147 139.322 30.463 139.322H29.059V137.486L32.119 134.57H26.935V132.86H34.099V134.696L30.481 138.098V137.63C31.729 137.63 32.719 137.972 33.451 138.656C34.183 139.34 34.549 140.258 34.549 141.41V142.4C34.549 143.156 34.381 143.822 34.045 144.398C33.709 144.962 33.229 145.4 32.605 145.712C31.993 146.024 31.273 146.18 30.445 146.18ZM41.418 146.18C40.554 146.18 39.798 146 39.15 145.64C38.502 145.28 37.998 144.776 37.638 144.128C37.278 143.468 37.098 142.712 37.098 141.86C37.098 141.212 37.194 140.564 37.386 139.916C37.59 139.256 37.878 138.626 38.25 138.026L41.454 132.86H43.614L39.798 138.908L39.888 138.962C40.128 138.614 40.446 138.35 40.842 138.17C41.25 137.978 41.7 137.882 42.192 137.882C42.9 137.882 43.518 138.05 44.046 138.386C44.574 138.722 44.982 139.196 45.27 139.808C45.558 140.408 45.702 141.122 45.702 141.95C45.702 142.79 45.522 143.528 45.162 144.164C44.802 144.8 44.304 145.298 43.668 145.658C43.032 146.006 42.282 146.18 41.418 146.18ZM41.4 144.506C42.12 144.506 42.696 144.272 43.128 143.804C43.56 143.336 43.776 142.718 43.776 141.95C43.776 141.182 43.56 140.564 43.128 140.096C42.696 139.628 42.12 139.394 41.4 139.394C40.68 139.394 40.104 139.628 39.672 140.096C39.24 140.564 39.024 141.182 39.024 141.95C39.024 142.718 39.24 143.336 39.672 143.804C40.104 144.272 40.68 144.506 41.4 144.506Z" fill="#1A1A1A"/>
<path d="M30.445 180.18C29.617 180.18 28.897 180.024 28.285 179.712C27.673 179.4 27.199 178.962 26.863 178.398C26.539 177.822 26.377 177.156 26.377 176.4H28.321C28.321 177.06 28.507 177.576 28.879 177.948C29.263 178.32 29.791 178.506 30.463 178.506C31.147 178.506 31.675 178.314 32.047 177.93C32.419 177.546 32.605 177.036 32.605 176.4V175.428C32.605 174.756 32.419 174.24 32.047 173.88C31.675 173.508 31.147 173.322 30.463 173.322H29.059V171.486L32.119 168.57H26.935V166.86H34.099V168.696L30.481 172.098V171.63C31.729 171.63 32.719 171.972 33.451 172.656C34.183 173.34 34.549 174.258 34.549 175.41V176.4C34.549 177.156 34.381 177.822 34.045 178.398C33.709 178.962 33.229 179.4 32.605 179.712C31.993 180.024 31.273 180.18 30.445 180.18ZM39.06 180L43.776 168.642H39.186V170.568H37.26V166.86H45.702V168.732L41.148 180H39.06Z" fill="#1A1A1A"/>
<path d="M30.445 214.18C29.617 214.18 28.897 214.024 28.285 213.712C27.673 213.4 27.199 212.962 26.863 212.398C26.539 211.822 26.377 211.156 26.377 210.4H28.321C28.321 211.06 28.507 211.576 28.879 211.948C29.263 212.32 29.791 212.506 30.463 212.506C31.147 212.506 31.675 212.314 32.047 211.93C32.419 211.546 32.605 211.036 32.605 210.4V209.428C32.605 208.756 32.419 208.24 32.047 207.88C31.675 207.508 31.147 207.322 30.463 207.322H29.059V205.486L32.119 202.57H26.935V200.86H34.099V202.696L30.481 206.098V205.63C31.729 205.63 32.719 205.972 33.451 206.656C34.183 207.34 34.549 208.258 34.549 209.41V210.4C34.549 211.156 34.381 211.822 34.045 212.398C33.709 212.962 33.229 213.4 32.605 213.712C31.993 214.024 31.273 214.18 30.445 214.18ZM41.4 214.18C40.56 214.18 39.834 214.036 39.222 213.748C38.61 213.46 38.136 213.052 37.8 212.524C37.464 211.984 37.296 211.36 37.296 210.652C37.296 209.86 37.512 209.182 37.944 208.618C38.376 208.054 39.042 207.562 39.942 207.142L41.832 206.26C42.312 206.032 42.684 205.732 42.948 205.36C43.212 204.976 43.344 204.556 43.344 204.1C43.344 203.56 43.17 203.134 42.822 202.822C42.474 202.51 42 202.354 41.4 202.354C40.8 202.354 40.32 202.516 39.96 202.84C39.612 203.152 39.438 203.578 39.438 204.118C39.438 204.562 39.57 204.976 39.834 205.36C40.098 205.732 40.458 206.026 40.914 206.242L42.804 207.106C43.752 207.55 44.436 208.06 44.856 208.636C45.288 209.2 45.504 209.872 45.504 210.652C45.504 211.732 45.132 212.59 44.388 213.226C43.656 213.862 42.66 214.18 41.4 214.18ZM41.4 212.488C42.072 212.488 42.606 212.314 43.002 211.966C43.398 211.606 43.596 211.138 43.596 210.562C43.596 210.094 43.464 209.662 43.2 209.266C42.936 208.858 42.57 208.54 42.102 208.312L40.158 207.394C39.27 206.974 38.61 206.494 38.178 205.954C37.746 205.414 37.53 204.766 37.53 204.01C37.53 203.35 37.686 202.768 37.998 202.264C38.322 201.76 38.772 201.37 39.348 201.094C39.924 200.806 40.608 200.662 41.4 200.662C42.192 200.662 42.876 200.806 43.452 201.094C44.028 201.37 44.472 201.76 44.784 202.264C45.096 202.768 45.252 203.35 45.252 204.01C45.252 204.778 45.036 205.426 44.604 205.954C44.184 206.482 43.524 206.968 42.624 207.412L40.662 208.33C40.206 208.546 39.846 208.852 39.582 209.248C39.33 209.644 39.204 210.07 39.204 210.526C39.204 211.114 39.402 211.588 39.798 211.948C40.194 212.308 40.728 212.488 41.4 212.488Z" fill="#1A1A1A"/>
<path d="M30.445 248.18C29.617 248.18 28.897 248.024 28.285 247.712C27.673 247.4 27.199 246.962 26.863 246.398C26.539 245.822 26.377 245.156 26.377 244.4H28.321C28.321 245.06 28.507 245.576 28.879 245.948C29.263 246.32 29.791 246.506 30.463 246.506C31.147 246.506 31.675 246.314 32.047 245.93C32.419 245.546 32.605 245.036 32.605 244.4V243.428C32.605 242.756 32.419 242.24 32.047 241.88C31.675 241.508 31.147 241.322 30.463 241.322H29.059V239.486L32.119 236.57H26.935V234.86H34.099V236.696L30.481 240.098V239.63C31.729 239.63 32.719 239.972 33.451 240.656C34.183 241.34 34.549 242.258 34.549 243.41V244.4C34.549 245.156 34.381 245.822 34.045 246.398C33.709 246.962 33.229 247.4 32.605 247.712C31.993 248.024 31.273 248.18 30.445 248.18ZM39.186 248L43.002 241.952L42.912 241.898C42.672 242.246 42.348 242.516 41.94 242.708C41.544 242.888 41.1 242.978 40.608 242.978C39.9 242.978 39.282 242.81 38.754 242.474C38.226 242.138 37.818 241.664 37.53 241.052C37.242 240.44 37.098 239.726 37.098 238.91C37.098 238.058 37.278 237.32 37.638 236.696C37.998 236.06 38.496 235.568 39.132 235.22C39.78 234.86 40.53 234.68 41.382 234.68C42.246 234.68 43.002 234.86 43.65 235.22C44.298 235.58 44.802 236.084 45.162 236.732C45.522 237.38 45.702 238.136 45.702 239C45.702 239.636 45.6 240.284 45.396 240.944C45.204 241.604 44.922 242.234 44.55 242.834L41.346 248H39.186ZM41.4 241.466C42.12 241.466 42.696 241.232 43.128 240.764C43.56 240.296 43.776 239.678 43.776 238.91C43.776 238.142 43.56 237.524 43.128 237.056C42.696 236.588 42.12 236.354 41.4 236.354C40.68 236.354 40.104 236.588 39.672 237.056C39.24 237.524 39.024 238.142 39.024 238.91C39.024 239.678 39.24 240.296 39.672 240.764C40.104 241.232 40.68 241.466 41.4 241.466Z" fill="#1A1A1A"/>
<path d="M32.407 282V279.264H26.521V276.348L31.633 268.86H33.793L28.393 276.816V277.518H32.407V274.44H34.333V282H32.407ZM41.4 282.18C40.572 282.18 39.852 282.018 39.24 281.694C38.64 281.37 38.172 280.92 37.836 280.344C37.5 279.756 37.332 279.072 37.332 278.292V272.568C37.332 271.776 37.494 271.092 37.818 270.516C38.154 269.94 38.628 269.49 39.24 269.166C39.852 268.842 40.572 268.68 41.4 268.68C42.24 268.68 42.96 268.842 43.56 269.166C44.172 269.49 44.64 269.94 44.964 270.516C45.3 271.092 45.468 271.776 45.468 272.568V278.292C45.468 279.072 45.3 279.756 44.964 280.344C44.628 280.92 44.154 281.37 43.542 281.694C42.942 282.018 42.228 282.18 41.4 282.18ZM41.4 280.506C42.072 280.506 42.606 280.302 43.002 279.894C43.41 279.486 43.614 278.952 43.614 278.292V272.568C43.614 271.908 43.41 271.374 43.002 270.966C42.606 270.558 42.072 270.354 41.4 270.354C40.728 270.354 40.188 270.558 39.78 270.966C39.384 271.374 39.186 271.908 39.186 272.568V278.292C39.186 278.952 39.384 279.486 39.78 279.894C40.188 280.302 40.728 280.506 41.4 280.506ZM41.4 276.546C41.064 276.546 40.788 276.438 40.572 276.222C40.368 276.006 40.266 275.724 40.266 275.376C40.266 275.04 40.368 274.77 40.572 274.566C40.788 274.35 41.064 274.242 41.4 274.242C41.736 274.242 42.006 274.35 42.21 274.566C42.426 274.77 42.534 275.04 42.534 275.376C42.534 275.724 42.426 276.006 42.21 276.222C42.006 276.438 41.736 276.546 41.4 276.546Z" fill="#1A1A1A"/>
</g>
<path d="M74.752 112.216C72.196 112.216 70.648 110.308 70.648 107.626C70.648 104.926 72.214 102.946 74.824 102.946C76.174 102.946 77.308 103.54 77.902 104.62V98.752H79.576V112H78.064L77.92 110.398C77.344 111.604 76.156 112.216 74.752 112.216ZM75.094 110.686C76.822 110.686 77.884 109.408 77.884 107.572C77.884 105.772 76.822 104.476 75.094 104.476C73.366 104.476 72.358 105.772 72.358 107.572C72.358 109.39 73.366 110.686 75.094 110.686ZM85.815 112.216C83.223 112.216 81.441 110.344 81.441 107.608C81.441 104.854 83.187 102.946 85.743 102.946C88.245 102.946 89.883 104.674 89.883 107.284V107.914L83.079 107.932C83.205 109.786 84.177 110.812 85.851 110.812C87.165 110.812 88.029 110.272 88.317 109.264H89.901C89.469 111.154 87.993 112.216 85.815 112.216ZM85.743 104.368C84.267 104.368 83.331 105.25 83.115 106.798H88.191C88.191 105.34 87.237 104.368 85.743 104.368ZM90.8368 103.198H92.1328V101.794C92.1328 99.634 93.3208 98.752 94.9228 98.752C95.2468 98.752 95.6248 98.77 95.9668 98.824V100.282H95.2108C94.1128 100.282 93.8248 100.84 93.8248 101.794V103.198H95.9128V104.62H93.8248V112H92.1328V104.62H90.8368V103.198ZM152.343 205.198H153.639V203.794C153.639 201.634 154.827 200.752 156.429 200.752C156.753 200.752 157.131 200.77 157.473 200.824V202.282H156.717C155.619 202.282 155.331 202.84 155.331 203.794V205.198H157.419V206.62H155.331V214H153.639V206.62H152.343V205.198ZM152.343 273.198H153.639V271.794C153.639 269.634 154.827 268.752 156.429 268.752C156.753 268.752 157.131 268.77 157.473 268.824V270.282H156.717C155.619 270.282 155.331 270.84 155.331 271.794V273.198H157.419V274.62H155.331V282H153.639V274.62H152.343V273.198Z" fill="#6155F5"/>
<path d="M118.369 183.942V171.198H119.899L120.025 172.782C120.619 171.576 121.807 170.946 123.211 170.946C125.731 170.946 127.297 172.836 127.297 175.536C127.297 178.218 125.821 180.234 123.211 180.234C121.807 180.234 120.637 179.64 120.061 178.56V183.942H118.369ZM120.079 175.608C120.079 177.408 121.123 178.704 122.851 178.704C124.579 178.704 125.605 177.408 125.605 175.608C125.605 173.79 124.579 172.494 122.851 172.494C121.123 172.494 120.079 173.772 120.079 175.608ZM159.465 180V172.62H155.559V180H153.867V172.62H152.571V171.198H153.867V169.794C153.867 167.634 155.037 166.752 156.567 166.752C156.891 166.752 157.287 166.77 157.611 166.824V168.282H156.855C155.829 168.282 155.559 168.84 155.559 169.794V171.198H161.157V180H159.465ZM160.311 169.038C159.699 169.038 159.231 168.57 159.231 167.958C159.231 167.346 159.699 166.878 160.311 166.878C160.905 166.878 161.373 167.346 161.373 167.958C161.373 168.57 160.905 169.038 160.311 169.038ZM165.29 180H163.598V166.752H165.29V180ZM170.355 180.216C168.465 180.216 167.349 179.154 167.349 177.552C167.349 175.932 168.555 174.924 170.625 174.762L173.397 174.546V174.294C173.397 172.818 172.515 172.296 171.327 172.296C169.905 172.296 169.095 172.926 169.095 173.988H167.619C167.619 172.152 169.131 170.946 171.399 170.946C173.577 170.946 175.053 172.098 175.053 174.474V180H173.613L173.433 178.578C172.983 179.586 171.777 180.216 170.355 180.216ZM170.841 178.902C172.443 178.902 173.415 177.858 173.415 176.202V175.734L171.165 175.914C169.671 176.058 169.059 176.634 169.059 177.498C169.059 178.434 169.743 178.902 170.841 178.902ZM177.252 181.656V180.324H184.632V181.656H177.252ZM186.941 183.942V171.198H188.471L188.597 172.782C189.191 171.576 190.379 170.946 191.783 170.946C194.303 170.946 195.869 172.836 195.869 175.536C195.869 178.218 194.393 180.234 191.783 180.234C190.379 180.234 189.209 179.64 188.633 178.56V183.942H186.941ZM188.651 175.608C188.651 177.408 189.695 178.704 191.423 178.704C193.151 178.704 194.177 177.408 194.177 175.608C194.177 173.79 193.151 172.494 191.423 172.494C189.695 172.494 188.651 173.772 188.651 175.608ZM202.774 171.126V172.674H202.018C200.416 172.674 199.426 173.646 199.426 175.338V180H197.734V171.216H199.318L199.426 172.548C199.786 171.63 200.668 171.018 201.874 171.018C202.18 171.018 202.432 171.054 202.774 171.126ZM207.842 180.216C205.25 180.216 203.468 178.344 203.468 175.608C203.468 172.854 205.214 170.946 207.77 170.946C210.272 170.946 211.91 172.674 211.91 175.284V175.914L205.106 175.932C205.232 177.786 206.204 178.812 207.878 178.812C209.192 178.812 210.056 178.272 210.344 177.264H211.928C211.496 179.154 210.02 180.216 207.842 180.216ZM207.77 172.368C206.294 172.368 205.358 173.25 205.142 174.798H210.218C210.218 173.34 209.264 172.368 207.77 172.368ZM212.864 171.198H214.16V169.794C214.16 167.634 215.348 166.752 216.95 166.752C217.274 166.752 217.652 166.77 217.994 166.824V168.282H217.238C216.14 168.282 215.852 168.84 215.852 169.794V171.198H217.94V172.62H215.852V180H214.16V172.62H212.864V171.198ZM223.047 180.216C220.455 180.216 218.673 178.344 218.673 175.608C218.673 172.854 220.419 170.946 222.975 170.946C225.477 170.946 227.115 172.674 227.115 175.284V175.914L220.311 175.932C220.437 177.786 221.409 178.812 223.083 178.812C224.397 178.812 225.261 178.272 225.549 177.264H227.133C226.701 179.154 225.225 180.216 223.047 180.216ZM222.975 172.368C221.499 172.368 220.563 173.25 220.347 174.798H225.423C225.423 173.34 224.469 172.368 222.975 172.368ZM234.045 171.126V172.674H233.289C231.687 172.674 230.697 173.646 230.697 175.338V180H229.005V171.216H230.589L230.697 172.548C231.057 171.63 231.939 171.018 233.145 171.018C233.451 171.018 233.703 171.054 234.045 171.126ZM239.114 180.216C236.522 180.216 234.74 178.344 234.74 175.608C234.74 172.854 236.486 170.946 239.042 170.946C241.544 170.946 243.182 172.674 243.182 175.284V175.914L236.378 175.932C236.504 177.786 237.476 178.812 239.15 178.812C240.464 178.812 241.328 178.272 241.616 177.264H243.2C242.768 179.154 241.292 180.216 239.114 180.216ZM239.042 172.368C237.566 172.368 236.63 173.25 236.414 174.798H241.49C241.49 173.34 240.536 172.368 239.042 172.368ZM246.764 180H245.072V171.198H246.602L246.782 172.548C247.34 171.54 248.456 170.946 249.698 170.946C252.02 170.946 253.082 172.368 253.082 174.618V180H251.39V174.996C251.39 173.214 250.562 172.494 249.266 172.494C247.682 172.494 246.764 173.628 246.764 175.338V180ZM254.849 175.608C254.849 172.854 256.595 170.946 259.169 170.946C261.383 170.946 262.931 172.206 263.237 174.168H261.545C261.257 173.052 260.357 172.458 259.223 172.458C257.621 172.458 256.523 173.682 256.523 175.59C256.523 177.48 257.549 178.704 259.151 178.704C260.357 178.704 261.257 178.074 261.563 177.03H263.255C262.913 178.938 261.275 180.216 259.151 180.216C256.559 180.216 254.849 178.38 254.849 175.608ZM265.868 169.11C265.256 169.11 264.752 168.606 264.752 167.994C264.752 167.364 265.256 166.878 265.868 166.878C266.48 166.878 266.984 167.364 266.984 167.994C266.984 168.606 266.48 169.11 265.868 169.11ZM265.04 180V171.198H266.732V180H265.04ZM271.763 180.216C269.873 180.216 268.757 179.154 268.757 177.552C268.757 175.932 269.963 174.924 272.033 174.762L274.805 174.546V174.294C274.805 172.818 273.923 172.296 272.735 172.296C271.313 172.296 270.503 172.926 270.503 173.988H269.027C269.027 172.152 270.539 170.946 272.807 170.946C274.985 170.946 276.461 172.098 276.461 174.474V180H275.021L274.841 178.578C274.391 179.586 273.185 180.216 271.763 180.216ZM272.249 178.902C273.851 178.902 274.823 177.858 274.823 176.202V175.734L272.573 175.914C271.079 176.058 270.467 176.634 270.467 177.498C270.467 178.434 271.151 178.902 272.249 178.902ZM280.532 180H278.84V166.752H280.532V180ZM284.463 173.466C283.761 173.466 283.167 172.89 283.167 172.224C283.167 171.522 283.761 170.946 284.463 170.946C285.147 170.946 285.741 171.522 285.741 172.224C285.741 172.89 285.147 173.466 284.463 173.466ZM284.463 180.216C283.761 180.216 283.167 179.64 283.167 178.956C283.167 178.254 283.761 177.678 284.463 177.678C285.147 177.678 285.741 178.254 285.741 178.956C285.741 179.64 285.147 180.216 284.463 180.216ZM177.167 217.942V205.198H178.697L178.823 206.782C179.417 205.576 180.605 204.946 182.009 204.946C184.529 204.946 186.095 206.836 186.095 209.536C186.095 212.218 184.619 214.234 182.009 214.234C180.605 214.234 179.435 213.64 178.859 212.56V217.942H177.167ZM178.877 209.608C178.877 211.408 179.921 212.704 181.649 212.704C183.377 212.704 184.403 211.408 184.403 209.608C184.403 207.79 183.377 206.494 181.649 206.494C179.921 206.494 178.877 207.772 178.877 209.608ZM118.369 251.942V239.198H119.899L120.025 240.782C120.619 239.576 121.807 238.946 123.211 238.946C125.731 238.946 127.297 240.836 127.297 243.536C127.297 246.218 125.821 248.234 123.211 248.234C121.807 248.234 120.637 247.64 120.061 246.56V251.942H118.369ZM120.079 243.608C120.079 245.408 121.123 246.704 122.851 246.704C124.579 246.704 125.605 245.408 125.605 243.608C125.605 241.79 124.579 240.494 122.851 240.494C121.123 240.494 120.079 241.772 120.079 243.608ZM159.465 248V240.62H155.559V248H153.867V240.62H152.571V239.198H153.867V237.794C153.867 235.634 155.037 234.752 156.567 234.752C156.891 234.752 157.287 234.77 157.611 234.824V236.282H156.855C155.829 236.282 155.559 236.84 155.559 237.794V239.198H161.157V248H159.465ZM160.311 237.038C159.699 237.038 159.231 236.57 159.231 235.958C159.231 235.346 159.699 234.878 160.311 234.878C160.905 234.878 161.373 235.346 161.373 235.958C161.373 236.57 160.905 237.038 160.311 237.038ZM165.29 248H163.598V234.752H165.29V248ZM170.355 248.216C168.465 248.216 167.349 247.154 167.349 245.552C167.349 243.932 168.555 242.924 170.625 242.762L173.397 242.546V242.294C173.397 240.818 172.515 240.296 171.327 240.296C169.905 240.296 169.095 240.926 169.095 241.988H167.619C167.619 240.152 169.131 238.946 171.399 238.946C173.577 238.946 175.053 240.098 175.053 242.474V248H173.613L173.433 246.578C172.983 247.586 171.777 248.216 170.355 248.216ZM170.841 246.902C172.443 246.902 173.415 245.858 173.415 244.202V243.734L171.165 243.914C169.671 244.058 169.059 244.634 169.059 245.498C169.059 246.434 169.743 246.902 170.841 246.902ZM177.252 249.656V248.324H184.632V249.656H177.252ZM188.633 248H186.941V239.198H188.471L188.651 240.548C189.209 239.54 190.325 238.946 191.567 238.946C193.889 238.946 194.951 240.368 194.951 242.618V248H193.259V242.996C193.259 241.214 192.431 240.494 191.135 240.494C189.551 240.494 188.633 241.628 188.633 243.338V248ZM196.718 243.59C196.718 240.872 198.662 238.964 201.308 238.964C203.936 238.964 205.88 240.872 205.88 243.59C205.88 246.308 203.936 248.216 201.308 248.216C198.662 248.216 196.718 246.308 196.718 243.59ZM198.428 243.59C198.428 245.426 199.598 246.704 201.308 246.704C203 246.704 204.188 245.426 204.188 243.59C204.188 241.754 203 240.476 201.308 240.476C199.598 240.476 198.428 241.754 198.428 243.59ZM212.793 239.126V240.674H212.037C210.435 240.674 209.445 241.646 209.445 243.338V248H207.753V239.216H209.337L209.445 240.548C209.805 239.63 210.687 239.018 211.893 239.018C212.199 239.018 212.451 239.054 212.793 239.126ZM216.072 248H214.38V239.198H215.892L216.054 240.35C216.504 239.522 217.44 238.946 218.682 238.946C220.05 238.946 221.022 239.63 221.472 240.728C221.886 239.63 222.948 238.946 224.316 238.946C226.332 238.946 227.556 240.206 227.556 242.24V248H225.9V242.654C225.9 241.268 225.126 240.476 223.938 240.476C222.66 240.476 221.814 241.376 221.814 242.78V248H220.14V242.636C220.14 241.25 219.384 240.494 218.196 240.494C216.918 240.494 216.072 241.376 216.072 242.78V248ZM232.476 248.216C230.586 248.216 229.47 247.154 229.47 245.552C229.47 243.932 230.676 242.924 232.746 242.762L235.518 242.546V242.294C235.518 240.818 234.636 240.296 233.448 240.296C232.026 240.296 231.216 240.926 231.216 241.988H229.74C229.74 240.152 231.252 238.946 233.52 238.946C235.698 238.946 237.174 240.098 237.174 242.474V248H235.734L235.554 246.578C235.104 247.586 233.898 248.216 232.476 248.216ZM232.962 246.902C234.564 246.902 235.536 245.858 235.536 244.202V243.734L233.286 243.914C231.792 244.058 231.18 244.634 231.18 245.498C231.18 246.434 231.864 246.902 232.962 246.902ZM241.245 248H239.553V234.752H241.245V248ZM245.176 241.466C244.474 241.466 243.88 240.89 243.88 240.224C243.88 239.522 244.474 238.946 245.176 238.946C245.86 238.946 246.454 239.522 246.454 240.224C246.454 240.89 245.86 241.466 245.176 241.466ZM245.176 248.216C244.474 248.216 243.88 247.64 243.88 246.956C243.88 246.254 244.474 245.678 245.176 245.678C245.86 245.678 246.454 246.254 246.454 246.956C246.454 247.64 245.86 248.216 245.176 248.216ZM110.599 285.942V273.198H112.129L112.255 274.782C112.849 273.576 114.037 272.946 115.441 272.946C117.961 272.946 119.527 274.836 119.527 277.536C119.527 280.218 118.051 282.234 115.441 282.234C114.037 282.234 112.867 281.64 112.291 280.56V285.942H110.599ZM112.309 277.608C112.309 279.408 113.353 280.704 115.081 280.704C116.809 280.704 117.835 279.408 117.835 277.608C117.835 275.79 116.809 274.494 115.081 274.494C113.353 274.494 112.309 275.772 112.309 277.608ZM126.432 273.126V274.674H125.676C124.074 274.674 123.084 275.646 123.084 277.338V282H121.392V273.216H122.976L123.084 274.548C123.444 273.63 124.326 273.018 125.532 273.018C125.838 273.018 126.09 273.054 126.432 273.126ZM128.847 271.11C128.235 271.11 127.731 270.606 127.731 269.994C127.731 269.364 128.235 268.878 128.847 268.878C129.459 268.878 129.963 269.364 129.963 269.994C129.963 270.606 129.459 271.11 128.847 271.11ZM128.019 282V273.198H129.711V282H128.019ZM133.859 282H132.167V273.198H133.697L133.877 274.548C134.435 273.54 135.551 272.946 136.793 272.946C139.115 272.946 140.177 274.368 140.177 276.618V282H138.485V276.996C138.485 275.214 137.657 274.494 136.361 274.494C134.777 274.494 133.859 275.628 133.859 277.338V282ZM145.005 282H143.313V274.62H141.585V273.198H143.313V270.444H145.005V273.198H146.733V274.62H145.005V282ZM177.167 285.942V273.198H178.697L178.823 274.782C179.417 273.576 180.605 272.946 182.009 272.946C184.529 272.946 186.095 274.836 186.095 277.536C186.095 280.218 184.619 282.234 182.009 282.234C180.605 282.234 179.435 281.64 178.859 280.56V285.942H177.167ZM178.877 277.608C178.877 279.408 179.921 280.704 181.649 280.704C183.377 280.704 184.403 279.408 184.403 277.608C184.403 275.79 183.377 274.494 181.649 274.494C179.921 274.494 178.877 275.772 178.877 277.608ZM406.72 285.942V273.198H408.25L408.376 274.782C408.97 273.576 410.158 272.946 411.562 272.946C414.082 272.946 415.648 274.836 415.648 277.536C415.648 280.218 414.172 282.234 411.562 282.234C410.158 282.234 408.988 281.64 408.412 280.56V285.942H406.72ZM408.43 277.608C408.43 279.408 409.474 280.704 411.202 280.704C412.93 280.704 413.956 279.408 413.956 277.608C413.956 275.79 412.93 274.494 411.202 274.494C409.474 274.494 408.43 275.772 408.43 277.608Z" fill="white"/>
<path d="M104.1 112H102.408V103.198H103.92L104.082 104.35C104.532 103.522 105.468 102.946 106.71 102.946C108.078 102.946 109.05 103.63 109.5 104.728C109.914 103.63 110.976 102.946 112.344 102.946C114.36 102.946 115.584 104.206 115.584 106.24V112H113.928V106.654C113.928 105.268 113.154 104.476 111.966 104.476C110.688 104.476 109.842 105.376 109.842 106.78V112H108.168V106.636C108.168 105.25 107.412 104.494 106.224 104.494C104.946 104.494 104.1 105.376 104.1 106.78V112ZM117.353 107.59C117.353 104.872 119.297 102.964 121.943 102.964C124.571 102.964 126.515 104.872 126.515 107.59C126.515 110.308 124.571 112.216 121.943 112.216C119.297 112.216 117.353 110.308 117.353 107.59ZM119.063 107.59C119.063 109.426 120.233 110.704 121.943 110.704C123.635 110.704 124.823 109.426 124.823 107.59C124.823 105.754 123.635 104.476 121.943 104.476C120.233 104.476 119.063 105.754 119.063 107.59ZM127.668 109.444H129.288C129.288 110.344 129.972 110.884 131.088 110.884C132.276 110.884 132.96 110.398 132.96 109.588C132.96 108.994 132.672 108.634 131.754 108.4L130.206 108.04C128.64 107.662 127.902 106.888 127.902 105.592C127.902 103.972 129.27 102.946 131.214 102.946C133.14 102.946 134.4 104.026 134.436 105.7H132.816C132.78 104.818 132.186 104.26 131.16 104.26C130.098 104.26 129.504 104.728 129.504 105.538C129.504 106.132 129.936 106.528 130.8 106.744L132.348 107.122C133.842 107.482 134.58 108.166 134.58 109.48C134.58 111.154 133.14 112.216 131.052 112.216C128.982 112.216 127.668 111.118 127.668 109.444ZM138.94 112H137.248V104.62H135.52V103.198H137.248V100.444H138.94V103.198H140.668V104.62H138.94V112ZM147.227 103.126V104.674H146.471C144.869 104.674 143.879 105.646 143.879 107.338V112H142.187V103.216H143.771L143.879 104.548C144.239 103.63 145.121 103.018 146.327 103.018C146.633 103.018 146.885 103.054 147.227 103.126ZM151.036 112.216C149.146 112.216 148.03 111.154 148.03 109.552C148.03 107.932 149.236 106.924 151.306 106.762L154.078 106.546V106.294C154.078 104.818 153.196 104.296 152.008 104.296C150.586 104.296 149.776 104.926 149.776 105.988H148.3C148.3 104.152 149.812 102.946 152.08 102.946C154.258 102.946 155.734 104.098 155.734 106.474V112H154.294L154.114 110.578C153.664 111.586 152.458 112.216 151.036 112.216ZM151.522 110.902C153.124 110.902 154.096 109.858 154.096 108.202V107.734L151.846 107.914C150.352 108.058 149.74 108.634 149.74 109.498C149.74 110.434 150.424 110.902 151.522 110.902ZM163.118 103.126V104.674H162.362C160.76 104.674 159.77 105.646 159.77 107.338V112H158.078V103.216H159.662L159.77 104.548C160.13 103.63 161.012 103.018 162.218 103.018C162.524 103.018 162.776 103.054 163.118 103.126ZM90.9115 149.942V137.198H92.4415L92.5675 138.782C93.1615 137.576 94.3495 136.946 95.7535 136.946C98.2735 136.946 99.8395 138.836 99.8395 141.536C99.8395 144.218 98.3635 146.234 95.7535 146.234C94.3495 146.234 93.1795 145.64 92.6035 144.56V149.942H90.9115ZM92.6215 141.608C92.6215 143.408 93.6655 144.704 95.3935 144.704C97.1215 144.704 98.1475 143.408 98.1475 141.608C98.1475 139.79 97.1215 138.494 95.3935 138.494C93.6655 138.494 92.6215 139.772 92.6215 141.608ZM106.744 137.126V138.674H105.988C104.386 138.674 103.396 139.646 103.396 141.338V146H101.704V137.216H103.288L103.396 138.548C103.756 137.63 104.638 137.018 105.844 137.018C106.15 137.018 106.402 137.054 106.744 137.126ZM109.159 135.11C108.547 135.11 108.043 134.606 108.043 133.994C108.043 133.364 108.547 132.878 109.159 132.878C109.771 132.878 110.275 133.364 110.275 133.994C110.275 134.606 109.771 135.11 109.159 135.11ZM108.331 146V137.198H110.023V146H108.331ZM114.172 146H112.48V137.198H114.01L114.19 138.548C114.748 137.54 115.864 136.946 117.106 136.946C119.428 136.946 120.49 138.368 120.49 140.618V146H118.798V140.996C118.798 139.214 117.97 138.494 116.674 138.494C115.09 138.494 114.172 139.628 114.172 141.338V146ZM125.317 146H123.625V138.62H121.897V137.198H123.625V134.444H125.317V137.198H127.045V138.62H125.317V146ZM110.599 217.942V205.198H112.129L112.255 206.782C112.849 205.576 114.037 204.946 115.441 204.946C117.961 204.946 119.527 206.836 119.527 209.536C119.527 212.218 118.051 214.234 115.441 214.234C114.037 214.234 112.867 213.64 112.291 212.56V217.942H110.599ZM112.309 209.608C112.309 211.408 113.353 212.704 115.081 212.704C116.809 212.704 117.835 211.408 117.835 209.608C117.835 207.79 116.809 206.494 115.081 206.494C113.353 206.494 112.309 207.772 112.309 209.608ZM126.432 205.126V206.674H125.676C124.074 206.674 123.084 207.646 123.084 209.338V214H121.392V205.216H122.976L123.084 206.548C123.444 205.63 124.326 205.018 125.532 205.018C125.838 205.018 126.09 205.054 126.432 205.126ZM128.847 203.11C128.235 203.11 127.731 202.606 127.731 201.994C127.731 201.364 128.235 200.878 128.847 200.878C129.459 200.878 129.963 201.364 129.963 201.994C129.963 202.606 129.459 203.11 128.847 203.11ZM128.019 214V205.198H129.711V214H128.019ZM133.859 214H132.167V205.198H133.697L133.877 206.548C134.435 205.54 135.551 204.946 136.793 204.946C139.115 204.946 140.177 206.368 140.177 208.618V214H138.485V208.996C138.485 207.214 137.657 206.494 136.361 206.494C134.777 206.494 133.859 207.628 133.859 209.338V214ZM145.005 214H143.313V206.62H141.585V205.198H143.313V202.444H145.005V205.198H146.733V206.62H145.005V214Z" fill="#FFCC00"/>
<path d="M168.502 115.114H167.098C165.442 113.044 164.344 109.912 164.344 106.654C164.344 103.594 165.334 100.39 167.098 98.212H168.502C167.08 100.192 166.072 103.288 166.072 106.654C166.072 109.84 166.972 113.008 168.502 115.114ZM169.93 115.114H168.508C170.038 113.008 170.938 109.84 170.938 106.654C170.938 103.288 169.948 100.192 168.508 98.212H169.93C171.676 100.39 172.666 103.594 172.666 106.654C172.666 109.912 171.568 113.044 169.93 115.114ZM176.199 105.466C175.497 105.466 174.903 104.89 174.903 104.224C174.903 103.522 175.497 102.946 176.199 102.946C176.883 102.946 177.477 103.522 177.477 104.224C177.477 104.89 176.883 105.466 176.199 105.466ZM176.199 112.216C175.497 112.216 174.903 111.64 174.903 110.956C174.903 110.254 175.497 109.678 176.199 109.678C176.883 109.678 177.477 110.254 177.477 110.956C177.477 111.64 176.883 112.216 176.199 112.216ZM184.899 106.798H186.699L187.203 104.188H185.115L185.439 102.604H187.527L188.229 98.986H189.903L189.201 102.604H191.955L192.657 98.986H194.349L193.647 102.604H195.501L195.195 104.188H193.323L192.819 106.798H194.835L194.529 108.382H192.495L191.793 112H190.119L190.821 108.382H188.049L187.347 112H185.673L186.375 108.382H184.575L184.899 106.798ZM188.373 106.798H191.127L191.649 104.188H188.877L188.373 106.798ZM204.704 106.474H199.592V112H197.828V98.986H205.676V100.606H199.592V104.872H204.704V106.474ZM213.064 103.198H214.738V112H213.226L213.046 110.668C212.542 111.586 211.372 112.216 210.076 112.216C208.024 112.216 206.872 110.83 206.872 108.67V103.198H208.564V108.112C208.564 110.002 209.374 110.722 210.67 110.722C212.218 110.722 213.064 109.732 213.064 107.842V103.198ZM218.885 112H217.193V103.198H218.723L218.903 104.548C219.461 103.54 220.577 102.946 221.819 102.946C224.141 102.946 225.203 104.368 225.203 106.618V112H223.511V106.996C223.511 105.214 222.683 104.494 221.387 104.494C219.803 104.494 218.885 105.628 218.885 107.338V112ZM226.97 107.608C226.97 104.854 228.716 102.946 231.29 102.946C233.504 102.946 235.052 104.206 235.358 106.168H233.666C233.378 105.052 232.478 104.458 231.344 104.458C229.742 104.458 228.644 105.682 228.644 107.59C228.644 109.48 229.67 110.704 231.272 110.704C232.478 110.704 233.378 110.074 233.684 109.03H235.376C235.052 110.83 233.576 112.072 231.614 112.198L231.326 112.81C231.506 112.756 231.686 112.72 231.884 112.72C232.568 112.72 233.216 113.152 233.216 114.016C233.216 115.042 232.37 115.546 231.416 115.546C230.894 115.546 230.534 115.456 230.192 115.258V114.394C230.57 114.574 230.894 114.7 231.29 114.7C231.83 114.7 232.19 114.448 232.19 114.052C232.19 113.656 231.902 113.44 231.434 113.44C231.11 113.44 230.894 113.494 230.552 113.638L230.372 113.116L230.804 112.198C228.482 111.982 226.97 110.218 226.97 107.608ZM239.16 101.938H238.08C237.972 100.588 238.548 99.742 239.556 99.742C240.636 99.742 241.176 100.75 241.914 100.75C242.346 100.75 242.526 100.39 242.526 99.742H243.624C243.714 101.2 243.102 101.938 242.058 101.938C240.924 101.938 240.384 100.93 239.754 100.93C239.358 100.93 239.16 101.29 239.16 101.938ZM239.736 112.216C237.846 112.216 236.73 111.154 236.73 109.552C236.73 107.932 237.936 106.924 240.006 106.762L242.778 106.546V106.294C242.778 104.818 241.896 104.296 240.708 104.296C239.286 104.296 238.476 104.926 238.476 105.988H237C237 104.152 238.512 102.946 240.78 102.946C242.958 102.946 244.434 104.098 244.434 106.474V112H242.994L242.814 110.578C242.364 111.586 241.158 112.216 239.736 112.216ZM240.222 110.902C241.824 110.902 242.796 109.858 242.796 108.202V107.734L240.546 107.914C239.052 108.058 238.44 108.634 238.44 109.498C238.44 110.434 239.124 110.902 240.222 110.902ZM246.201 107.59C246.201 104.872 248.145 102.964 250.791 102.964C253.419 102.964 255.363 104.872 255.363 107.59C255.363 110.308 253.419 112.216 250.791 112.216C248.145 112.216 246.201 110.308 246.201 107.59ZM247.911 107.59C247.911 109.426 249.081 110.704 250.791 110.704C252.483 110.704 253.671 109.426 253.671 107.59C253.671 105.754 252.483 104.476 250.791 104.476C249.081 104.476 247.911 105.754 247.911 107.59ZM263.85 112H262.158V103.198H263.67L263.832 104.35C264.282 103.522 265.218 102.946 266.46 102.946C267.828 102.946 268.8 103.63 269.25 104.728C269.664 103.63 270.726 102.946 272.094 102.946C274.11 102.946 275.334 104.206 275.334 106.24V112H273.678V106.654C273.678 105.268 272.904 104.476 271.716 104.476C270.438 104.476 269.592 105.376 269.592 106.78V112H267.918V106.636C267.918 105.25 267.162 104.494 265.974 104.494C264.696 104.494 263.85 105.376 263.85 106.78V112ZM277.103 107.59C277.103 104.872 279.047 102.964 281.693 102.964C284.321 102.964 286.265 104.872 286.265 107.59C286.265 110.308 284.321 112.216 281.693 112.216C279.047 112.216 277.103 110.308 277.103 107.59ZM278.813 107.59C278.813 109.426 279.983 110.704 281.693 110.704C283.385 110.704 284.573 109.426 284.573 107.59C284.573 105.754 283.385 104.476 281.693 104.476C279.983 104.476 278.813 105.754 278.813 107.59ZM287.418 109.444H289.038C289.038 110.344 289.722 110.884 290.838 110.884C292.026 110.884 292.71 110.398 292.71 109.588C292.71 108.994 292.422 108.634 291.504 108.4L289.956 108.04C288.39 107.662 287.652 106.888 287.652 105.592C287.652 103.972 289.02 102.946 290.964 102.946C292.89 102.946 294.15 104.026 294.186 105.7H292.566C292.53 104.818 291.936 104.26 290.91 104.26C289.848 104.26 289.254 104.728 289.254 105.538C289.254 106.132 289.686 106.528 290.55 106.744L292.098 107.122C293.592 107.482 294.33 108.166 294.33 109.48C294.33 111.154 292.89 112.216 290.802 112.216C288.732 112.216 287.418 111.118 287.418 109.444ZM298.69 112H296.998V104.62H295.27V103.198H296.998V100.444H298.69V103.198H300.418V104.62H298.69V112ZM306.977 103.126V104.674H306.221C304.619 104.674 303.629 105.646 303.629 107.338V112H301.937V103.216H303.521L303.629 104.548C303.989 103.63 304.871 103.018 306.077 103.018C306.383 103.018 306.635 103.054 306.977 103.126ZM310.786 112.216C308.896 112.216 307.78 111.154 307.78 109.552C307.78 107.932 308.986 106.924 311.056 106.762L313.828 106.546V106.294C313.828 104.818 312.946 104.296 311.758 104.296C310.336 104.296 309.526 104.926 309.526 105.988H308.05C308.05 104.152 309.562 102.946 311.83 102.946C314.008 102.946 315.484 104.098 315.484 106.474V112H314.044L313.864 110.578C313.414 111.586 312.208 112.216 310.786 112.216ZM311.272 110.902C312.874 110.902 313.846 109.858 313.846 108.202V107.734L311.596 107.914C310.102 108.058 309.49 108.634 309.49 109.498C309.49 110.434 310.174 110.902 311.272 110.902ZM322.868 103.126V104.674H322.112C320.51 104.674 319.52 105.646 319.52 107.338V112H317.828V103.216H319.412L319.52 104.548C319.88 103.63 320.762 103.018 321.968 103.018C322.274 103.018 322.526 103.054 322.868 103.126ZM335.334 112V104.62H331.428V112H329.736V104.62H328.44V103.198H329.736V101.794C329.736 99.634 330.906 98.752 332.436 98.752C332.76 98.752 333.156 98.77 333.48 98.824V100.282H332.724C331.698 100.282 331.428 100.84 331.428 101.794V103.198H337.026V112H335.334ZM336.18 101.038C335.568 101.038 335.1 100.57 335.1 99.958C335.1 99.346 335.568 98.878 336.18 98.878C336.774 98.878 337.242 99.346 337.242 99.958C337.242 100.57 336.774 101.038 336.18 101.038ZM341.159 112H339.467V98.752H341.159V112ZM346.224 112.216C344.334 112.216 343.218 111.154 343.218 109.552C343.218 107.932 344.424 106.924 346.494 106.762L349.266 106.546V106.294C349.266 104.818 348.384 104.296 347.196 104.296C345.774 104.296 344.964 104.926 344.964 105.988H343.488C343.488 104.152 345 102.946 347.268 102.946C349.446 102.946 350.922 104.098 350.922 106.474V112H349.482L349.302 110.578C348.852 111.586 347.646 112.216 346.224 112.216ZM346.71 110.902C348.312 110.902 349.284 109.858 349.284 108.202V107.734L347.034 107.914C345.54 108.058 344.928 108.634 344.928 109.498C344.928 110.434 345.612 110.902 346.71 110.902ZM360.761 112.216C358.871 112.216 357.755 111.154 357.755 109.552C357.755 107.932 358.961 106.924 361.031 106.762L363.803 106.546V106.294C363.803 104.818 362.921 104.296 361.733 104.296C360.311 104.296 359.501 104.926 359.501 105.988H358.025C358.025 104.152 359.537 102.946 361.805 102.946C363.983 102.946 365.459 104.098 365.459 106.474V112H364.019L363.839 110.578C363.389 111.586 362.183 112.216 360.761 112.216ZM361.247 110.902C362.849 110.902 363.821 109.858 363.821 108.202V107.734L361.571 107.914C360.077 108.058 359.465 108.634 359.465 109.498C359.465 110.434 360.149 110.902 361.247 110.902ZM370.146 112H368.454V104.62H366.726V103.198H368.454V100.444H370.146V103.198H371.874V104.62H370.146V112ZM379.476 103.198H381.15V112H379.638L379.458 110.668C378.954 111.586 377.784 112.216 376.488 112.216C374.436 112.216 373.284 110.83 373.284 108.67V103.198H374.976V108.112C374.976 110.002 375.786 110.722 377.082 110.722C378.63 110.722 379.476 109.732 379.476 107.842V103.198ZM386.179 112.216C384.289 112.216 383.173 111.154 383.173 109.552C383.173 107.932 384.379 106.924 386.449 106.762L389.221 106.546V106.294C389.221 104.818 388.339 104.296 387.151 104.296C385.729 104.296 384.919 104.926 384.919 105.988H383.443C383.443 104.152 384.955 102.946 387.223 102.946C389.401 102.946 390.877 104.098 390.877 106.474V112H389.437L389.257 110.578C388.807 111.586 387.601 112.216 386.179 112.216ZM386.665 110.902C388.267 110.902 389.239 109.858 389.239 108.202V107.734L386.989 107.914C385.495 108.058 384.883 108.634 384.883 109.498C384.883 110.434 385.567 110.902 386.665 110.902ZM394.948 112H393.256V98.752H394.948V112ZM132.362 149.114H130.958C129.302 147.044 128.204 143.912 128.204 140.654C128.204 137.594 129.194 134.39 130.958 132.212H132.362C130.94 134.192 129.932 137.288 129.932 140.654C129.932 143.84 130.832 147.008 132.362 149.114ZM317.902 149.114H316.48C318.01 147.008 318.91 143.84 318.91 140.654C318.91 137.288 317.92 134.192 316.48 132.212H317.902C319.648 134.39 320.638 137.594 320.638 140.654C320.638 143.912 319.54 147.044 317.902 149.114ZM152.049 217.114H150.645C148.989 215.044 147.891 211.912 147.891 208.654C147.891 205.594 148.881 202.39 150.645 200.212H152.049C150.627 202.192 149.619 205.288 149.619 208.654C149.619 211.84 150.519 215.008 152.049 217.114ZM189.346 214.018H191.668V215.35H187.798V199.492H191.668V200.842H189.346V214.018ZM246.697 215.35V214.018H249.019V200.842H246.697V199.492H250.567V215.35H246.697ZM320.486 217.114H319.064C320.594 215.008 321.494 211.84 321.494 208.654C321.494 205.288 320.504 202.192 319.064 200.212H320.486C322.232 202.39 323.222 205.594 323.222 208.654C323.222 211.912 322.124 215.044 320.486 217.114ZM152.049 285.114H150.645C148.989 283.044 147.891 279.912 147.891 276.654C147.891 273.594 148.881 270.39 150.645 268.212H152.049C150.627 270.192 149.619 273.288 149.619 276.654C149.619 279.84 150.519 283.008 152.049 285.114ZM189.346 282.018H191.668V283.35H187.798V267.492H191.668V268.842H189.346V282.018ZM246.697 283.35V282.018H249.019V268.842H246.697V267.492H250.567V283.35H246.697ZM418.899 282.018H421.221V283.35H417.351V267.492H421.221V268.842H418.899V282.018ZM484.072 283.35V282.018H486.394V268.842H484.072V267.492H487.942V283.35H484.072ZM508.608 285.114H507.186C508.716 283.008 509.616 279.84 509.616 276.654C509.616 273.288 508.626 270.192 507.186 268.212H508.608C510.354 270.39 511.344 273.594 511.344 276.654C511.344 279.912 510.246 283.044 508.608 285.114Z" fill="#595959"/>
<path d="M135.896 134.084L135.464 137.81H134.492L134.024 134.084C133.916 133.274 134.474 132.932 134.996 132.932C135.446 132.932 136.004 133.274 135.896 134.084ZM138.848 134.084L138.416 137.81H137.444L136.976 134.084C136.868 133.274 137.426 132.932 137.948 132.932C138.398 132.932 138.956 133.274 138.848 134.084ZM158.04 141.986V140.474H163.53V141.986H158.04ZM165.792 141.986V140.474H171.282V141.986H165.792ZM173.544 141.986V140.474H179.034V141.986H173.544ZM193.472 140.474H188.36V146H186.596V132.986H194.444V134.606H188.36V138.872H193.472V140.474ZM198.344 132.986V146H196.58V132.986H198.344ZM203.143 132.986V144.362H208.867V146H201.379V132.986H203.143ZM211.675 146H209.839L214.591 132.986H216.553L221.323 146H219.469L218.299 142.76H212.827L211.675 146ZM215.347 135.794L213.367 141.23H217.777L215.779 135.794C215.689 135.542 215.599 135.236 215.563 135.038C215.527 135.218 215.437 135.524 215.347 135.794ZM228.515 146H226.679L231.431 132.986H233.393L238.163 146H236.309L235.139 142.76H229.667L228.515 146ZM232.187 135.794L230.207 141.23H234.617L232.619 135.794C232.529 135.542 232.439 135.236 232.403 135.038C232.367 135.218 232.277 135.524 232.187 135.794ZM237.455 134.606V132.986H247.049V134.606H243.143V146H241.379V134.606H237.455ZM248.733 141.374V132.986H250.497V141.266C250.497 143.354 251.649 144.506 253.719 144.506C255.771 144.506 256.905 143.336 256.905 141.266V132.986H258.687V141.374C258.687 144.362 256.779 146.216 253.719 146.216C250.641 146.216 248.733 144.38 248.733 141.374ZM261.615 146H259.779L264.531 132.986H266.493L271.263 146H269.409L268.239 142.76H262.767L261.615 146ZM265.287 135.794L263.307 141.23H267.717L265.719 135.794C265.629 135.542 265.539 135.236 265.503 135.038C265.467 135.218 265.377 135.524 265.287 135.794ZM274.756 132.986V144.362H280.48V146H272.992V132.986H274.756ZM286.941 141.986V140.474H292.431V141.986H286.941ZM294.693 141.986V140.474H300.183V141.986H294.693ZM302.445 141.986V140.474H307.935V141.986H302.445ZM311.871 134.084L311.438 137.81H310.467L309.999 134.084C309.891 133.274 310.449 132.932 310.971 132.932C311.421 132.932 311.979 133.274 311.871 134.084ZM314.823 134.084L314.391 137.81H313.419L312.951 134.084C312.843 133.274 313.401 132.932 313.923 132.932C314.373 132.932 314.931 133.274 314.823 134.084ZM161.296 202.084L160.864 205.81H159.892L159.424 202.084C159.316 201.274 159.874 200.932 160.396 200.932C160.846 200.932 161.404 201.274 161.296 202.084ZM164.248 202.084L163.816 205.81H162.844L162.376 202.084C162.268 201.274 162.826 200.932 163.348 200.932C163.798 200.932 164.356 201.274 164.248 202.084ZM167.796 214.018H170.118V215.35H166.248V199.492H170.118V200.842H167.796V214.018ZM195.292 202.084L194.86 205.81H193.888L193.42 202.084C193.312 201.274 193.87 200.932 194.392 200.932C194.842 200.932 195.4 201.274 195.292 202.084ZM199.145 214H197.453V205.198H198.983L199.163 206.548C199.721 205.54 200.837 204.946 202.079 204.946C204.401 204.946 205.463 206.368 205.463 208.618V214H203.771V208.996C203.771 207.214 202.943 206.494 201.647 206.494C200.063 206.494 199.145 207.628 199.145 209.338V214ZM207.23 209.59C207.23 206.872 209.174 204.964 211.82 204.964C214.448 204.964 216.392 206.872 216.392 209.59C216.392 212.308 214.448 214.216 211.82 214.216C209.174 214.216 207.23 212.308 207.23 209.59ZM208.94 209.59C208.94 211.426 210.11 212.704 211.82 212.704C213.512 212.704 214.7 211.426 214.7 209.59C214.7 207.754 213.512 206.476 211.82 206.476C210.11 206.476 208.94 207.754 208.94 209.59ZM219.957 214H218.265V205.198H219.777L219.939 206.35C220.389 205.522 221.325 204.946 222.567 204.946C223.935 204.946 224.907 205.63 225.357 206.728C225.771 205.63 226.833 204.946 228.201 204.946C230.217 204.946 231.441 206.206 231.441 208.24V214H229.785V208.654C229.785 207.268 229.011 206.476 227.823 206.476C226.545 206.476 225.699 207.376 225.699 208.78V214H224.025V208.636C224.025 207.25 223.269 206.494 222.081 206.494C220.803 206.494 219.957 207.376 219.957 208.78V214ZM237.585 214.216C234.993 214.216 233.211 212.344 233.211 209.608C233.211 206.854 234.957 204.946 237.513 204.946C240.015 204.946 241.652 206.674 241.652 209.284V209.914L234.849 209.932C234.975 211.786 235.947 212.812 237.621 212.812C238.935 212.812 239.799 212.272 240.087 211.264H241.671C241.239 213.154 239.763 214.216 237.585 214.216ZM237.513 206.368C236.037 206.368 235.101 207.25 234.885 208.798H239.961C239.961 207.34 239.007 206.368 237.513 206.368ZM244.951 202.084L244.519 205.81H243.547L243.079 202.084C242.971 201.274 243.529 200.932 244.051 200.932C244.501 200.932 245.059 201.274 244.951 202.084ZM264.519 215.566V199.762H265.869V215.566H264.519ZM279.597 209.356H276.303V214H274.539V200.986H279.597C282.153 200.986 283.791 202.66 283.791 205.162C283.791 207.592 282.135 209.356 279.597 209.356ZM279.291 202.57H276.303V207.772H279.219C280.965 207.772 281.937 206.746 281.937 205.144C281.937 203.506 280.947 202.57 279.291 202.57ZM290.541 205.126V206.674H289.785C288.183 206.674 287.193 207.646 287.193 209.338V214H285.501V205.216H287.085L287.193 206.548C287.553 205.63 288.435 205.018 289.641 205.018C289.947 205.018 290.199 205.054 290.541 205.126ZM295.61 214.216C293.018 214.216 291.236 212.344 291.236 209.608C291.236 206.854 292.982 204.946 295.538 204.946C298.04 204.946 299.678 206.674 299.678 209.284V209.914L292.874 209.932C293 211.786 293.972 212.812 295.646 212.812C296.96 212.812 297.824 212.272 298.112 211.264H299.696C299.264 213.154 297.788 214.216 295.61 214.216ZM295.538 206.368C294.062 206.368 293.126 207.25 292.91 208.798H297.986C297.986 207.34 297.032 206.368 295.538 206.368ZM300.632 205.198H301.928V203.794C301.928 201.634 303.116 200.752 304.718 200.752C305.042 200.752 305.42 200.77 305.762 200.824V202.282H305.006C303.908 202.282 303.62 202.84 303.62 203.794V205.198H305.708V206.62H303.62V214H301.928V206.62H300.632V205.198ZM306.709 215.35V214.018H309.031V200.842H306.709V199.492H310.579V215.35H306.709ZM314.454 202.084L314.022 205.81H313.05L312.582 202.084C312.474 201.274 313.032 200.932 313.554 200.932C314.004 200.932 314.562 201.274 314.454 202.084ZM317.406 202.084L316.974 205.81H316.002L315.534 202.084C315.426 201.274 315.984 200.932 316.506 200.932C316.956 200.932 317.514 201.274 317.406 202.084ZM161.296 270.084L160.864 273.81H159.892L159.424 270.084C159.316 269.274 159.874 268.932 160.396 268.932C160.846 268.932 161.404 269.274 161.296 270.084ZM164.248 270.084L163.816 273.81H162.844L162.376 270.084C162.268 269.274 162.826 268.932 163.348 268.932C163.798 268.932 164.356 269.274 164.248 270.084ZM167.796 282.018H170.118V283.35H166.248V267.492H170.118V268.842H167.796V282.018ZM195.292 270.084L194.86 273.81H193.888L193.42 270.084C193.312 269.274 193.87 268.932 194.392 268.932C194.842 268.932 195.4 269.274 195.292 270.084ZM199.145 282H197.453V273.198H198.983L199.163 274.548C199.721 273.54 200.837 272.946 202.079 272.946C204.401 272.946 205.463 274.368 205.463 276.618V282H203.771V276.996C203.771 275.214 202.943 274.494 201.647 274.494C200.063 274.494 199.145 275.628 199.145 277.338V282ZM207.23 277.59C207.23 274.872 209.174 272.964 211.82 272.964C214.448 272.964 216.392 274.872 216.392 277.59C216.392 280.308 214.448 282.216 211.82 282.216C209.174 282.216 207.23 280.308 207.23 277.59ZM208.94 277.59C208.94 279.426 210.11 280.704 211.82 280.704C213.512 280.704 214.7 279.426 214.7 277.59C214.7 275.754 213.512 274.476 211.82 274.476C210.11 274.476 208.94 275.754 208.94 277.59ZM219.957 282H218.265V273.198H219.777L219.939 274.35C220.389 273.522 221.325 272.946 222.567 272.946C223.935 272.946 224.907 273.63 225.357 274.728C225.771 273.63 226.833 272.946 228.201 272.946C230.217 272.946 231.441 274.206 231.441 276.24V282H229.785V276.654C229.785 275.268 229.011 274.476 227.823 274.476C226.545 274.476 225.699 275.376 225.699 276.78V282H224.025V276.636C224.025 275.25 223.269 274.494 222.081 274.494C220.803 274.494 219.957 275.376 219.957 276.78V282ZM237.585 282.216C234.993 282.216 233.211 280.344 233.211 277.608C233.211 274.854 234.957 272.946 237.513 272.946C240.015 272.946 241.652 274.674 241.652 277.284V277.914L234.849 277.932C234.975 279.786 235.947 280.812 237.621 280.812C238.935 280.812 239.799 280.272 240.087 279.264H241.671C241.239 281.154 239.763 282.216 237.585 282.216ZM237.513 274.368C236.037 274.368 235.101 275.25 234.885 276.798H239.961C239.961 275.34 239.007 274.368 237.513 274.368ZM244.951 270.084L244.519 273.81H243.547L243.079 270.084C242.971 269.274 243.529 268.932 244.051 268.932C244.501 268.932 245.059 269.274 244.951 270.084ZM264.519 283.566V267.762H265.869V283.566H264.519ZM276.303 282H274.539V268.986H276.303L282.963 279.048V268.986H284.727V282H282.963L276.303 271.938V282ZM286.894 277.59C286.894 274.872 288.838 272.964 291.484 272.964C294.112 272.964 296.056 274.872 296.056 277.59C296.056 280.308 294.112 282.216 291.484 282.216C288.838 282.216 286.894 280.308 286.894 277.59ZM288.604 277.59C288.604 279.426 289.774 280.704 291.484 280.704C293.176 280.704 294.364 279.426 294.364 277.59C294.364 275.754 293.176 274.476 291.484 274.476C289.774 274.476 288.604 275.754 288.604 277.59ZM302.969 273.126V274.674H302.213C300.611 274.674 299.621 275.646 299.621 277.338V282H297.929V273.216H299.513L299.621 274.548C299.981 273.63 300.863 273.018 302.069 273.018C302.375 273.018 302.627 273.054 302.969 273.126ZM306.248 282H304.556V273.198H306.068L306.23 274.35C306.68 273.522 307.616 272.946 308.858 272.946C310.226 272.946 311.198 273.63 311.648 274.728C312.062 273.63 313.124 272.946 314.492 272.946C316.508 272.946 317.732 274.206 317.732 276.24V282H316.076V276.654C316.076 275.268 315.302 274.476 314.114 274.476C312.836 274.476 311.99 275.376 311.99 276.78V282H310.316V276.636C310.316 275.25 309.56 274.494 308.372 274.494C307.094 274.494 306.248 275.376 306.248 276.78V282ZM326.007 283.566V267.762H327.357V283.566H326.007ZM343.966 282H336.028V268.986H343.966V270.606H337.792V274.674H343.354V276.24H337.792V280.362H343.966V282ZM345.514 279.444H347.134C347.134 280.344 347.818 280.884 348.934 280.884C350.122 280.884 350.806 280.398 350.806 279.588C350.806 278.994 350.518 278.634 349.6 278.4L348.052 278.04C346.486 277.662 345.748 276.888 345.748 275.592C345.748 273.972 347.116 272.946 349.06 272.946C350.986 272.946 352.246 274.026 352.282 275.7H350.662C350.626 274.818 350.032 274.26 349.006 274.26C347.944 274.26 347.35 274.728 347.35 275.538C347.35 276.132 347.782 276.528 348.646 276.744L350.194 277.122C351.688 277.482 352.426 278.166 352.426 279.48C352.426 281.154 350.986 282.216 348.898 282.216C346.828 282.216 345.514 281.118 345.514 279.444ZM354.302 285.942V273.198H355.832L355.958 274.782C356.552 273.576 357.74 272.946 359.144 272.946C361.664 272.946 363.23 274.836 363.23 277.536C363.23 280.218 361.754 282.234 359.144 282.234C357.74 282.234 356.57 281.64 355.994 280.56V285.942H354.302ZM356.012 277.608C356.012 279.408 357.056 280.704 358.784 280.704C360.512 280.704 361.538 279.408 361.538 277.608C361.538 275.79 360.512 274.494 358.784 274.494C357.056 274.494 356.012 275.772 356.012 277.608ZM368.893 282.216C366.301 282.216 364.519 280.344 364.519 277.608C364.519 274.854 366.265 272.946 368.821 272.946C371.323 272.946 372.961 274.674 372.961 277.284V277.914L366.157 277.932C366.283 279.786 367.255 280.812 368.929 280.812C370.243 280.812 371.107 280.272 371.395 279.264H372.979C372.547 281.154 371.071 282.216 368.893 282.216ZM368.821 274.368C367.345 274.368 366.409 275.25 366.193 276.798H371.269C371.269 275.34 370.315 274.368 368.821 274.368ZM379.891 273.126V274.674H379.135C377.533 274.674 376.543 275.646 376.543 277.338V282H374.851V273.216H376.435L376.543 274.548C376.903 273.63 377.785 273.018 378.991 273.018C379.297 273.018 379.549 273.054 379.891 273.126ZM383.7 282.216C381.81 282.216 380.694 281.154 380.694 279.552C380.694 277.932 381.9 276.924 383.97 276.762L386.742 276.546V276.294C386.742 274.818 385.86 274.296 384.672 274.296C383.25 274.296 382.44 274.926 382.44 275.988H380.964C380.964 274.152 382.476 272.946 384.744 272.946C386.922 272.946 388.398 274.098 388.398 276.474V282H386.958L386.778 280.578C386.328 281.586 385.122 282.216 383.7 282.216ZM384.186 280.902C385.788 280.902 386.76 279.858 386.76 278.202V277.734L384.51 277.914C383.016 278.058 382.404 278.634 382.404 279.498C382.404 280.434 383.088 280.902 384.186 280.902ZM392.182 275.466C391.48 275.466 390.886 274.89 390.886 274.224C390.886 273.522 391.48 272.946 392.182 272.946C392.866 272.946 393.46 273.522 393.46 274.224C393.46 274.89 392.866 275.466 392.182 275.466ZM392.182 282.216C391.48 282.216 390.886 281.64 390.886 280.956C390.886 280.254 391.48 279.678 392.182 279.678C392.866 279.678 393.46 280.254 393.46 280.956C393.46 281.64 392.866 282.216 392.182 282.216ZM424.845 270.084L424.413 273.81H423.441L422.973 270.084C422.865 269.274 423.423 268.932 423.945 268.932C424.395 268.932 424.953 269.274 424.845 270.084ZM430.452 282.216C427.86 282.216 426.078 280.344 426.078 277.608C426.078 274.854 427.824 272.946 430.38 272.946C432.882 272.946 434.52 274.674 434.52 277.284V277.914L427.716 277.932C427.842 279.786 428.814 280.812 430.488 280.812C431.802 280.812 432.666 280.272 432.954 279.264H434.538C434.106 281.154 432.63 282.216 430.452 282.216ZM430.38 274.368C428.904 274.368 427.968 275.25 427.752 276.798H432.828C432.828 275.34 431.874 274.368 430.38 274.368ZM435.69 279.444H437.31C437.31 280.344 437.994 280.884 439.11 280.884C440.298 280.884 440.982 280.398 440.982 279.588C440.982 278.994 440.694 278.634 439.776 278.4L438.228 278.04C436.662 277.662 435.924 276.888 435.924 275.592C435.924 273.972 437.292 272.946 439.236 272.946C441.162 272.946 442.422 274.026 442.458 275.7H440.838C440.802 274.818 440.208 274.26 439.182 274.26C438.12 274.26 437.526 274.728 437.526 275.538C437.526 276.132 437.958 276.528 438.822 276.744L440.37 277.122C441.864 277.482 442.602 278.166 442.602 279.48C442.602 281.154 441.162 282.216 439.074 282.216C437.004 282.216 435.69 281.118 435.69 279.444ZM444.478 285.942V273.198H446.008L446.134 274.782C446.728 273.576 447.916 272.946 449.32 272.946C451.84 272.946 453.406 274.836 453.406 277.536C453.406 280.218 451.93 282.234 449.32 282.234C447.916 282.234 446.746 281.64 446.17 280.56V285.942H444.478ZM446.188 277.608C446.188 279.408 447.232 280.704 448.96 280.704C450.688 280.704 451.714 279.408 451.714 277.608C451.714 275.79 450.688 274.494 448.96 274.494C447.232 274.494 446.188 275.772 446.188 277.608ZM459.069 282.216C456.477 282.216 454.695 280.344 454.695 277.608C454.695 274.854 456.441 272.946 458.997 272.946C461.499 272.946 463.137 274.674 463.137 277.284V277.914L456.333 277.932C456.459 279.786 457.431 280.812 459.105 280.812C460.419 280.812 461.283 280.272 461.571 279.264H463.155C462.723 281.154 461.247 282.216 459.069 282.216ZM458.997 274.368C457.521 274.368 456.585 275.25 456.369 276.798H461.445C461.445 275.34 460.491 274.368 458.997 274.368ZM470.067 273.126V274.674H469.311C467.709 274.674 466.719 275.646 466.719 277.338V282H465.027V273.216H466.611L466.719 274.548C467.079 273.63 467.961 273.018 469.167 273.018C469.473 273.018 469.725 273.054 470.067 273.126ZM473.876 282.216C471.986 282.216 470.87 281.154 470.87 279.552C470.87 277.932 472.076 276.924 474.146 276.762L476.918 276.546V276.294C476.918 274.818 476.036 274.296 474.848 274.296C473.426 274.296 472.616 274.926 472.616 275.988H471.14C471.14 274.152 472.652 272.946 474.92 272.946C477.098 272.946 478.574 274.098 478.574 276.474V282H477.134L476.954 280.578C476.504 281.586 475.298 282.216 473.876 282.216ZM474.362 280.902C475.964 280.902 476.936 279.858 476.936 278.202V277.734L474.686 277.914C473.192 278.058 472.58 278.634 472.58 279.498C472.58 280.434 473.264 280.902 474.362 280.902ZM482.326 270.084L481.894 273.81H480.922L480.454 270.084C480.346 269.274 480.904 268.932 481.426 268.932C481.876 268.932 482.434 269.274 482.326 270.084ZM494.83 283.35V282.018H497.152V268.842H494.83V267.492H498.7V283.35H494.83ZM502.576 270.084L502.144 273.81H501.172L500.704 270.084C500.596 269.274 501.154 268.932 501.676 268.932C502.126 268.932 502.684 269.274 502.576 270.084ZM505.528 270.084L505.096 273.81H504.124L503.656 270.084C503.548 269.274 504.106 268.932 504.628 268.932C505.078 268.932 505.636 269.274 505.528 270.084Z" fill="#34C759"/>
<path d="M141.477 133.004L146.553 146H144.879L139.785 133.004H141.477ZM149.469 146H147.777V137.198H149.307L149.487 138.548C150.045 137.54 151.161 136.946 152.403 136.946C154.725 136.946 155.787 138.368 155.787 140.618V146H154.095V140.996C154.095 139.214 153.267 138.494 151.971 138.494C150.387 138.494 149.469 139.628 149.469 141.338V146ZM89.9755 171.198H91.2715V169.794C91.2715 167.634 92.4595 166.752 94.0615 166.752C94.3855 166.752 94.7635 166.77 95.1055 166.824V168.282H94.3495C93.2515 168.282 92.9635 168.84 92.9635 169.794V171.198H95.0515V172.62H92.9635V180H91.2715V172.62H89.9755V171.198ZM95.7847 175.59C95.7847 172.872 97.7287 170.964 100.375 170.964C103.003 170.964 104.947 172.872 104.947 175.59C104.947 178.308 103.003 180.216 100.375 180.216C97.7287 180.216 95.7847 178.308 95.7847 175.59ZM97.4947 175.59C97.4947 177.426 98.6647 178.704 100.375 178.704C102.067 178.704 103.255 177.426 103.255 175.59C103.255 173.754 102.067 172.476 100.375 172.476C98.6647 172.476 97.4947 173.754 97.4947 175.59ZM111.86 171.126V172.674H111.104C109.502 172.674 108.512 173.646 108.512 175.338V180H106.82V171.216H108.404L108.512 172.548C108.872 171.63 109.754 171.018 110.96 171.018C111.266 171.018 111.518 171.054 111.86 171.126ZM134.911 169.11C134.299 169.11 133.795 168.606 133.795 167.994C133.795 167.364 134.299 166.878 134.911 166.878C135.523 166.878 136.027 167.364 136.027 167.994C136.027 168.606 135.523 169.11 134.911 169.11ZM134.083 180V171.198H135.775V180H134.083ZM139.924 180H138.232V171.198H139.762L139.942 172.548C140.5 171.54 141.616 170.946 142.858 170.946C145.18 170.946 146.242 172.368 146.242 174.618V180H144.55V174.996C144.55 173.214 143.722 172.494 142.426 172.494C140.842 172.494 139.924 173.628 139.924 175.338V180ZM171.023 208.114V206.728C172.247 206.728 172.715 206.188 172.715 205.306V201.418C172.715 200.266 173.507 199.492 174.749 199.492H175.847V200.842H175.001C174.533 200.842 174.245 201.148 174.245 201.652V205.468C174.245 206.512 173.849 207.124 172.913 207.412C173.849 207.718 174.245 208.348 174.245 209.374V213.19C174.245 213.712 174.533 214.018 175.001 214.018H175.847V215.35H174.749C173.507 215.35 172.715 214.594 172.715 213.442V209.536C172.715 208.672 172.247 208.114 171.023 208.114ZM252.841 215.35H251.725V214.018H252.571C253.039 214.018 253.327 213.712 253.327 213.19V209.374C253.327 208.348 253.741 207.718 254.677 207.412C253.741 207.124 253.327 206.512 253.327 205.468V201.652C253.327 201.148 253.039 200.842 252.571 200.842H251.725V199.492H252.841C254.083 199.492 254.875 200.266 254.875 201.418V205.306C254.875 206.188 255.343 206.728 256.549 206.728V208.114C255.343 208.114 254.875 208.672 254.875 209.536V213.442C254.875 214.594 254.083 215.35 252.841 215.35ZM89.9755 239.198H91.2715V237.794C91.2715 235.634 92.4595 234.752 94.0615 234.752C94.3855 234.752 94.7635 234.77 95.1055 234.824V236.282H94.3495C93.2515 236.282 92.9635 236.84 92.9635 237.794V239.198H95.0515V240.62H92.9635V248H91.2715V240.62H89.9755V239.198ZM95.7847 243.59C95.7847 240.872 97.7287 238.964 100.375 238.964C103.003 238.964 104.947 240.872 104.947 243.59C104.947 246.308 103.003 248.216 100.375 248.216C97.7287 248.216 95.7847 246.308 95.7847 243.59ZM97.4947 243.59C97.4947 245.426 98.6647 246.704 100.375 246.704C102.067 246.704 103.255 245.426 103.255 243.59C103.255 241.754 102.067 240.476 100.375 240.476C98.6647 240.476 97.4947 241.754 97.4947 243.59ZM111.86 239.126V240.674H111.104C109.502 240.674 108.512 241.646 108.512 243.338V248H106.82V239.216H108.404L108.512 240.548C108.872 239.63 109.754 239.018 110.96 239.018C111.266 239.018 111.518 239.054 111.86 239.126ZM134.911 237.11C134.299 237.11 133.795 236.606 133.795 235.994C133.795 235.364 134.299 234.878 134.911 234.878C135.523 234.878 136.027 235.364 136.027 235.994C136.027 236.606 135.523 237.11 134.911 237.11ZM134.083 248V239.198H135.775V248H134.083ZM139.924 248H138.232V239.198H139.762L139.942 240.548C140.5 239.54 141.616 238.946 142.858 238.946C145.18 238.946 146.242 240.368 146.242 242.618V248H144.55V242.996C144.55 241.214 143.722 240.494 142.426 240.494C140.842 240.494 139.924 241.628 139.924 243.338V248ZM171.023 276.114V274.728C172.247 274.728 172.715 274.188 172.715 273.306V269.418C172.715 268.266 173.507 267.492 174.749 267.492H175.847V268.842H175.001C174.533 268.842 174.245 269.148 174.245 269.652V273.468C174.245 274.512 173.849 275.124 172.913 275.412C173.849 275.718 174.245 276.348 174.245 277.374V281.19C174.245 281.712 174.533 282.018 175.001 282.018H175.847V283.35H174.749C173.507 283.35 172.715 282.594 172.715 281.442V277.536C172.715 276.672 172.247 276.114 171.023 276.114ZM252.841 283.35H251.725V282.018H252.571C253.039 282.018 253.327 281.712 253.327 281.19V277.374C253.327 276.348 253.741 275.718 254.677 275.412C253.741 275.124 253.327 274.512 253.327 273.468V269.652C253.327 269.148 253.039 268.842 252.571 268.842H251.725V267.492H252.841C254.083 267.492 254.875 268.266 254.875 269.418V273.306C254.875 274.188 255.343 274.728 256.549 274.728V276.114C255.343 276.114 254.875 276.672 254.875 277.536V281.442C254.875 282.594 254.083 283.35 252.841 283.35ZM400.576 276.114V274.728C401.8 274.728 402.268 274.188 402.268 273.306V269.418C402.268 268.266 403.06 267.492 404.302 267.492H405.4V268.842H404.554C404.086 268.842 403.798 269.148 403.798 269.652V273.468C403.798 274.512 403.402 275.124 402.466 275.412C403.402 275.718 403.798 276.348 403.798 277.374V281.19C403.798 281.712 404.086 282.018 404.554 282.018H405.4V283.35H404.302C403.06 283.35 402.268 282.594 402.268 281.442V277.536C402.268 276.672 401.8 276.114 400.576 276.114ZM490.216 283.35H489.1V282.018H489.946C490.414 282.018 490.702 281.712 490.702 281.19V277.374C490.702 276.348 491.116 275.718 492.052 275.412C491.116 275.124 490.702 274.512 490.702 273.468V269.652C490.702 269.148 490.414 268.842 489.946 268.842H489.1V267.492H490.216C491.458 267.492 492.25 268.266 492.25 269.418V273.306C492.25 274.188 492.718 274.728 493.924 274.728V276.114C492.718 276.114 492.25 276.672 492.25 277.536V281.442C492.25 282.594 491.458 283.35 490.216 283.35Z" fill="#0088FF"/>
</svg>
