<svg width="600" height="452" viewBox="0 0 600 452" fill="none" xmlns="http://www.w3.org/2000/svg">
<path d="M0 20C0 8.95431 8.95431 0 20 0H580C591.046 0 600 8.9543 600 20V432C600 443.046 591.046 452 580 452H20C8.95432 452 0 443.046 0 432V20Z" fill="#2E2E2E"/>
<rect y="71" width="600" height="2" fill="#2B2B2B"/>
<circle cx="40" cy="37" r="15" fill="#FF383C"/>
<circle cx="85" cy="37" r="15" fill="#FFCC00"/>
<circle cx="130" cy="37" r="15" fill="#34C759"/>
<g opacity="0.5">
<path d="M26.773 112V110.272H30.265V100.552L26.755 103.162V101.056L29.761 98.86H32.209V110.272H35.035V112H26.773ZM41.364 112.18C40.224 112.18 39.3 111.892 38.592 111.316C37.884 110.728 37.488 109.942 37.404 108.958H39.33C39.39 109.438 39.594 109.81 39.942 110.074C40.29 110.338 40.77 110.47 41.382 110.47C42.066 110.47 42.582 110.29 42.93 109.93C43.29 109.558 43.47 109.042 43.47 108.382V107.104C43.47 106.432 43.296 105.916 42.948 105.556C42.6 105.184 42.084 104.998 41.4 104.998C40.968 104.998 40.596 105.1 40.284 105.304C39.972 105.496 39.744 105.766 39.6 106.114H37.674L37.764 98.86H44.928V100.624H39.618L39.582 104.71H40.086L39.564 105.178C39.564 104.614 39.786 104.17 40.23 103.846C40.674 103.522 41.268 103.36 42.012 103.36C43.08 103.36 43.908 103.69 44.496 104.35C45.096 104.998 45.396 105.916 45.396 107.104V108.382C45.396 109.546 45.042 110.47 44.334 111.154C43.626 111.838 42.636 112.18 41.364 112.18Z" fill="#1A1A1A"/>
<path d="M26.773 146V144.272H30.265V134.552L26.755 137.162V135.056L29.761 132.86H32.209V144.272H35.035V146H26.773ZM41.418 146.18C40.554 146.18 39.798 146 39.15 145.64C38.502 145.28 37.998 144.776 37.638 144.128C37.278 143.468 37.098 142.712 37.098 141.86C37.098 141.212 37.194 140.564 37.386 139.916C37.59 139.256 37.878 138.626 38.25 138.026L41.454 132.86H43.614L39.798 138.908L39.888 138.962C40.128 138.614 40.446 138.35 40.842 138.17C41.25 137.978 41.7 137.882 42.192 137.882C42.9 137.882 43.518 138.05 44.046 138.386C44.574 138.722 44.982 139.196 45.27 139.808C45.558 140.408 45.702 141.122 45.702 141.95C45.702 142.79 45.522 143.528 45.162 144.164C44.802 144.8 44.304 145.298 43.668 145.658C43.032 146.006 42.282 146.18 41.418 146.18ZM41.4 144.506C42.12 144.506 42.696 144.272 43.128 143.804C43.56 143.336 43.776 142.718 43.776 141.95C43.776 141.182 43.56 140.564 43.128 140.096C42.696 139.628 42.12 139.394 41.4 139.394C40.68 139.394 40.104 139.628 39.672 140.096C39.24 140.564 39.024 141.182 39.024 141.95C39.024 142.718 39.24 143.336 39.672 143.804C40.104 144.272 40.68 144.506 41.4 144.506Z" fill="#1A1A1A"/>
<path d="M26.773 180V178.272H30.265V168.552L26.755 171.162V169.056L29.761 166.86H32.209V178.272H35.035V180H26.773ZM39.06 180L43.776 168.642H39.186V170.568H37.26V166.86H45.702V168.732L41.148 180H39.06Z" fill="#1A1A1A"/>
<path d="M26.773 214V212.272H30.265V202.552L26.755 205.162V203.056L29.761 200.86H32.209V212.272H35.035V214H26.773ZM41.4 214.18C40.56 214.18 39.834 214.036 39.222 213.748C38.61 213.46 38.136 213.052 37.8 212.524C37.464 211.984 37.296 211.36 37.296 210.652C37.296 209.86 37.512 209.182 37.944 208.618C38.376 208.054 39.042 207.562 39.942 207.142L41.832 206.26C42.312 206.032 42.684 205.732 42.948 205.36C43.212 204.976 43.344 204.556 43.344 204.1C43.344 203.56 43.17 203.134 42.822 202.822C42.474 202.51 42 202.354 41.4 202.354C40.8 202.354 40.32 202.516 39.96 202.84C39.612 203.152 39.438 203.578 39.438 204.118C39.438 204.562 39.57 204.976 39.834 205.36C40.098 205.732 40.458 206.026 40.914 206.242L42.804 207.106C43.752 207.55 44.436 208.06 44.856 208.636C45.288 209.2 45.504 209.872 45.504 210.652C45.504 211.732 45.132 212.59 44.388 213.226C43.656 213.862 42.66 214.18 41.4 214.18ZM41.4 212.488C42.072 212.488 42.606 212.314 43.002 211.966C43.398 211.606 43.596 211.138 43.596 210.562C43.596 210.094 43.464 209.662 43.2 209.266C42.936 208.858 42.57 208.54 42.102 208.312L40.158 207.394C39.27 206.974 38.61 206.494 38.178 205.954C37.746 205.414 37.53 204.766 37.53 204.01C37.53 203.35 37.686 202.768 37.998 202.264C38.322 201.76 38.772 201.37 39.348 201.094C39.924 200.806 40.608 200.662 41.4 200.662C42.192 200.662 42.876 200.806 43.452 201.094C44.028 201.37 44.472 201.76 44.784 202.264C45.096 202.768 45.252 203.35 45.252 204.01C45.252 204.778 45.036 205.426 44.604 205.954C44.184 206.482 43.524 206.968 42.624 207.412L40.662 208.33C40.206 208.546 39.846 208.852 39.582 209.248C39.33 209.644 39.204 210.07 39.204 210.526C39.204 211.114 39.402 211.588 39.798 211.948C40.194 212.308 40.728 212.488 41.4 212.488Z" fill="#1A1A1A"/>
<path d="M26.773 248V246.272H30.265V236.552L26.755 239.162V237.056L29.761 234.86H32.209V246.272H35.035V248H26.773ZM39.186 248L43.002 241.952L42.912 241.898C42.672 242.246 42.348 242.516 41.94 242.708C41.544 242.888 41.1 242.978 40.608 242.978C39.9 242.978 39.282 242.81 38.754 242.474C38.226 242.138 37.818 241.664 37.53 241.052C37.242 240.44 37.098 239.726 37.098 238.91C37.098 238.058 37.278 237.32 37.638 236.696C37.998 236.06 38.496 235.568 39.132 235.22C39.78 234.86 40.53 234.68 41.382 234.68C42.246 234.68 43.002 234.86 43.65 235.22C44.298 235.58 44.802 236.084 45.162 236.732C45.522 237.38 45.702 238.136 45.702 239C45.702 239.636 45.6 240.284 45.396 240.944C45.204 241.604 44.922 242.234 44.55 242.834L41.346 248H39.186ZM41.4 241.466C42.12 241.466 42.696 241.232 43.128 240.764C43.56 240.296 43.776 239.678 43.776 238.91C43.776 238.142 43.56 237.524 43.128 237.056C42.696 236.588 42.12 236.354 41.4 236.354C40.68 236.354 40.104 236.588 39.672 237.056C39.24 237.524 39.024 238.142 39.024 238.91C39.024 239.678 39.24 240.296 39.672 240.764C40.104 241.232 40.68 241.466 41.4 241.466Z" fill="#1A1A1A"/>
<path d="M26.737 282V280.074L30.805 275.88C31.429 275.232 31.885 274.65 32.173 274.134C32.473 273.606 32.623 273.084 32.623 272.568C32.623 271.896 32.437 271.368 32.065 270.984C31.705 270.6 31.207 270.408 30.571 270.408C29.875 270.408 29.323 270.612 28.915 271.02C28.519 271.416 28.321 271.962 28.321 272.658H26.377C26.401 271.842 26.587 271.14 26.935 270.552C27.283 269.952 27.769 269.49 28.393 269.166C29.017 268.842 29.749 268.68 30.589 268.68C31.393 268.68 32.095 268.836 32.695 269.148C33.295 269.46 33.757 269.898 34.081 270.462C34.405 271.026 34.567 271.692 34.567 272.46C34.567 273.24 34.363 274.002 33.955 274.746C33.559 275.49 32.905 276.318 31.993 277.23L29.023 280.236H34.765V282H26.737ZM41.4 282.18C40.572 282.18 39.852 282.018 39.24 281.694C38.64 281.37 38.172 280.92 37.836 280.344C37.5 279.756 37.332 279.072 37.332 278.292V272.568C37.332 271.776 37.494 271.092 37.818 270.516C38.154 269.94 38.628 269.49 39.24 269.166C39.852 268.842 40.572 268.68 41.4 268.68C42.24 268.68 42.96 268.842 43.56 269.166C44.172 269.49 44.64 269.94 44.964 270.516C45.3 271.092 45.468 271.776 45.468 272.568V278.292C45.468 279.072 45.3 279.756 44.964 280.344C44.628 280.92 44.154 281.37 43.542 281.694C42.942 282.018 42.228 282.18 41.4 282.18ZM41.4 280.506C42.072 280.506 42.606 280.302 43.002 279.894C43.41 279.486 43.614 278.952 43.614 278.292V272.568C43.614 271.908 43.41 271.374 43.002 270.966C42.606 270.558 42.072 270.354 41.4 270.354C40.728 270.354 40.188 270.558 39.78 270.966C39.384 271.374 39.186 271.908 39.186 272.568V278.292C39.186 278.952 39.384 279.486 39.78 279.894C40.188 280.302 40.728 280.506 41.4 280.506ZM41.4 276.546C41.064 276.546 40.788 276.438 40.572 276.222C40.368 276.006 40.266 275.724 40.266 275.376C40.266 275.04 40.368 274.77 40.572 274.566C40.788 274.35 41.064 274.242 41.4 274.242C41.736 274.242 42.006 274.35 42.21 274.566C42.426 274.77 42.534 275.04 42.534 275.376C42.534 275.724 42.426 276.006 42.21 276.222C42.006 276.438 41.736 276.546 41.4 276.546Z" fill="#1A1A1A"/>
<path d="M26.737 316V314.074L30.805 309.88C31.429 309.232 31.885 308.65 32.173 308.134C32.473 307.606 32.623 307.084 32.623 306.568C32.623 305.896 32.437 305.368 32.065 304.984C31.705 304.6 31.207 304.408 30.571 304.408C29.875 304.408 29.323 304.612 28.915 305.02C28.519 305.416 28.321 305.962 28.321 306.658H26.377C26.401 305.842 26.587 305.14 26.935 304.552C27.283 303.952 27.769 303.49 28.393 303.166C29.017 302.842 29.749 302.68 30.589 302.68C31.393 302.68 32.095 302.836 32.695 303.148C33.295 303.46 33.757 303.898 34.081 304.462C34.405 305.026 34.567 305.692 34.567 306.46C34.567 307.24 34.363 308.002 33.955 308.746C33.559 309.49 32.905 310.318 31.993 311.23L29.023 314.236H34.765V316H26.737ZM37.566 316V314.272H41.058V304.552L37.548 307.162V305.056L40.554 302.86H43.002V314.272H45.828V316H37.566Z" fill="#1A1A1A"/>
<path d="M26.737 350V348.074L30.805 343.88C31.429 343.232 31.885 342.65 32.173 342.134C32.473 341.606 32.623 341.084 32.623 340.568C32.623 339.896 32.437 339.368 32.065 338.984C31.705 338.6 31.207 338.408 30.571 338.408C29.875 338.408 29.323 338.612 28.915 339.02C28.519 339.416 28.321 339.962 28.321 340.658H26.377C26.401 339.842 26.587 339.14 26.935 338.552C27.283 337.952 27.769 337.49 28.393 337.166C29.017 336.842 29.749 336.68 30.589 336.68C31.393 336.68 32.095 336.836 32.695 337.148C33.295 337.46 33.757 337.898 34.081 338.462C34.405 339.026 34.567 339.692 34.567 340.46C34.567 341.24 34.363 342.002 33.955 342.746C33.559 343.49 32.905 344.318 31.993 345.23L29.023 348.236H34.765V350H26.737ZM37.53 350V348.074L41.598 343.88C42.222 343.232 42.678 342.65 42.966 342.134C43.266 341.606 43.416 341.084 43.416 340.568C43.416 339.896 43.23 339.368 42.858 338.984C42.498 338.6 42 338.408 41.364 338.408C40.668 338.408 40.116 338.612 39.708 339.02C39.312 339.416 39.114 339.962 39.114 340.658H37.17C37.194 339.842 37.38 339.14 37.728 338.552C38.076 337.952 38.562 337.49 39.186 337.166C39.81 336.842 40.542 336.68 41.382 336.68C42.186 336.68 42.888 336.836 43.488 337.148C44.088 337.46 44.55 337.898 44.874 338.462C45.198 339.026 45.36 339.692 45.36 340.46C45.36 341.24 45.156 342.002 44.748 342.746C44.352 343.49 43.698 344.318 42.786 345.23L39.816 348.236H45.558V350H37.53Z" fill="#1A1A1A"/>
<path d="M26.737 384V382.074L30.805 377.88C31.429 377.232 31.885 376.65 32.173 376.134C32.473 375.606 32.623 375.084 32.623 374.568C32.623 373.896 32.437 373.368 32.065 372.984C31.705 372.6 31.207 372.408 30.571 372.408C29.875 372.408 29.323 372.612 28.915 373.02C28.519 373.416 28.321 373.962 28.321 374.658H26.377C26.401 373.842 26.587 373.14 26.935 372.552C27.283 371.952 27.769 371.49 28.393 371.166C29.017 370.842 29.749 370.68 30.589 370.68C31.393 370.68 32.095 370.836 32.695 371.148C33.295 371.46 33.757 371.898 34.081 372.462C34.405 373.026 34.567 373.692 34.567 374.46C34.567 375.24 34.363 376.002 33.955 376.746C33.559 377.49 32.905 378.318 31.993 379.23L29.023 382.236H34.765V384H26.737ZM41.238 384.18C40.41 384.18 39.69 384.024 39.078 383.712C38.466 383.4 37.992 382.962 37.656 382.398C37.332 381.822 37.17 381.156 37.17 380.4H39.114C39.114 381.06 39.3 381.576 39.672 381.948C40.056 382.32 40.584 382.506 41.256 382.506C41.94 382.506 42.468 382.314 42.84 381.93C43.212 381.546 43.398 381.036 43.398 380.4V379.428C43.398 378.756 43.212 378.24 42.84 377.88C42.468 377.508 41.94 377.322 41.256 377.322H39.852V375.486L42.912 372.57H37.728V370.86H44.892V372.696L41.274 376.098V375.63C42.522 375.63 43.512 375.972 44.244 376.656C44.976 377.34 45.342 378.258 45.342 379.41V380.4C45.342 381.156 45.174 381.822 44.838 382.398C44.502 382.962 44.022 383.4 43.398 383.712C42.786 384.024 42.066 384.18 41.238 384.18Z" fill="#1A1A1A"/>
<path d="M26.737 418V416.074L30.805 411.88C31.429 411.232 31.885 410.65 32.173 410.134C32.473 409.606 32.623 409.084 32.623 408.568C32.623 407.896 32.437 407.368 32.065 406.984C31.705 406.6 31.207 406.408 30.571 406.408C29.875 406.408 29.323 406.612 28.915 407.02C28.519 407.416 28.321 407.962 28.321 408.658H26.377C26.401 407.842 26.587 407.14 26.935 406.552C27.283 405.952 27.769 405.49 28.393 405.166C29.017 404.842 29.749 404.68 30.589 404.68C31.393 404.68 32.095 404.836 32.695 405.148C33.295 405.46 33.757 405.898 34.081 406.462C34.405 407.026 34.567 407.692 34.567 408.46C34.567 409.24 34.363 410.002 33.955 410.746C33.559 411.49 32.905 412.318 31.993 413.23L29.023 416.236H34.765V418H26.737ZM43.2 418V415.264H37.314V412.348L42.426 404.86H44.586L39.186 412.816V413.518H43.2V410.44H45.126V418H43.2Z" fill="#1A1A1A"/>
</g>
<path d="M74.752 112.216C72.196 112.216 70.648 110.308 70.648 107.626C70.648 104.926 72.214 102.946 74.824 102.946C76.174 102.946 77.308 103.54 77.902 104.62V98.752H79.576V112H78.064L77.92 110.398C77.344 111.604 76.156 112.216 74.752 112.216ZM75.094 110.686C76.822 110.686 77.884 109.408 77.884 107.572C77.884 105.772 76.822 104.476 75.094 104.476C73.366 104.476 72.358 105.772 72.358 107.572C72.358 109.39 73.366 110.686 75.094 110.686ZM85.815 112.216C83.223 112.216 81.441 110.344 81.441 107.608C81.441 104.854 83.187 102.946 85.743 102.946C88.245 102.946 89.883 104.674 89.883 107.284V107.914L83.079 107.932C83.205 109.786 84.177 110.812 85.851 110.812C87.165 110.812 88.029 110.272 88.317 109.264H89.901C89.469 111.154 87.993 112.216 85.815 112.216ZM85.743 104.368C84.267 104.368 83.331 105.25 83.115 106.798H88.191C88.191 105.34 87.237 104.368 85.743 104.368ZM90.8368 103.198H92.1328V101.794C92.1328 99.634 93.3208 98.752 94.9228 98.752C95.2468 98.752 95.6248 98.77 95.9668 98.824V100.282H95.2108C94.1128 100.282 93.8248 100.84 93.8248 101.794V103.198H95.9128V104.62H93.8248V112H92.1328V104.62H90.8368V103.198ZM152.343 205.198H153.639V203.794C153.639 201.634 154.827 200.752 156.429 200.752C156.753 200.752 157.131 200.77 157.473 200.824V202.282H156.717C155.619 202.282 155.331 202.84 155.331 203.794V205.198H157.419V206.62H155.331V214H153.639V206.62H152.343V205.198ZM152.343 307.198H153.639V305.794C153.639 303.634 154.827 302.752 156.429 302.752C156.753 302.752 157.131 302.77 157.473 302.824V304.282H156.717C155.619 304.282 155.331 304.84 155.331 305.794V307.198H157.419V308.62H155.331V316H153.639V308.62H152.343V307.198Z" fill="#6155F5"/>
<path d="M101.832 107.608C101.832 104.854 103.578 102.946 106.152 102.946C108.366 102.946 109.914 104.206 110.22 106.168H108.528C108.24 105.052 107.34 104.458 106.206 104.458C104.604 104.458 103.506 105.682 103.506 107.59C103.506 109.48 104.532 110.704 106.134 110.704C107.34 110.704 108.24 110.074 108.546 109.03H110.238C109.896 110.938 108.258 112.216 106.134 112.216C103.542 112.216 101.832 110.38 101.832 107.608ZM113.715 111.982H112.023V98.752H113.715V104.548C114.273 103.594 115.335 102.946 116.703 102.946C118.953 102.946 120.033 104.368 120.033 106.618V112H118.341V106.996C118.341 105.214 117.495 104.494 116.235 104.494C114.597 104.494 113.715 105.682 113.715 107.194V111.982ZM124.95 112.216C123.06 112.216 121.944 111.154 121.944 109.552C121.944 107.932 123.15 106.924 125.22 106.762L127.992 106.546V106.294C127.992 104.818 127.11 104.296 125.922 104.296C124.5 104.296 123.69 104.926 123.69 105.988H122.214C122.214 104.152 123.726 102.946 125.994 102.946C128.172 102.946 129.648 104.098 129.648 106.474V112H128.208L128.028 110.578C127.578 111.586 126.372 112.216 124.95 112.216ZM125.436 110.902C127.038 110.902 128.01 109.858 128.01 108.202V107.734L125.76 107.914C124.266 108.058 123.654 108.634 123.654 109.498C123.654 110.434 124.338 110.902 125.436 110.902ZM133.684 112H131.992V103.198H133.504L133.666 104.35C134.116 103.522 135.052 102.946 136.294 102.946C137.662 102.946 138.634 103.63 139.084 104.728C139.498 103.63 140.56 102.946 141.928 102.946C143.944 102.946 145.168 104.206 145.168 106.24V112H143.512V106.654C143.512 105.268 142.738 104.476 141.55 104.476C140.272 104.476 139.426 105.376 139.426 106.78V112H137.752V106.636C137.752 105.25 136.996 104.494 135.808 104.494C134.53 104.494 133.684 105.376 133.684 106.78V112ZM150.087 112.216C148.197 112.216 147.081 111.154 147.081 109.552C147.081 107.932 148.287 106.924 150.357 106.762L153.129 106.546V106.294C153.129 104.818 152.247 104.296 151.059 104.296C149.637 104.296 148.827 104.926 148.827 105.988H147.351C147.351 104.152 148.863 102.946 151.131 102.946C153.309 102.946 154.785 104.098 154.785 106.474V112H153.345L153.165 110.578C152.715 111.586 151.509 112.216 150.087 112.216ZM150.573 110.902C152.175 110.902 153.147 109.858 153.147 108.202V107.734L150.897 107.914C149.403 108.058 148.791 108.634 148.791 109.498C148.791 110.434 149.475 110.902 150.573 110.902ZM162.168 103.126V104.674H161.412C159.81 104.674 158.82 105.646 158.82 107.338V112H157.128V103.216H158.712L158.82 104.548C159.18 103.63 160.062 103.018 161.268 103.018C161.574 103.018 161.826 103.054 162.168 103.126ZM336.495 183.942V171.198H338.025L338.151 172.782C338.745 171.576 339.933 170.946 341.337 170.946C343.857 170.946 345.423 172.836 345.423 175.536C345.423 178.218 343.947 180.234 341.337 180.234C339.933 180.234 338.763 179.64 338.187 178.56V183.942H336.495ZM338.205 175.608C338.205 177.408 339.249 178.704 340.977 178.704C342.705 178.704 343.731 177.408 343.731 175.608C343.731 173.79 342.705 172.494 340.977 172.494C339.249 172.494 338.205 173.772 338.205 175.608ZM346.712 175.59C346.712 172.872 348.656 170.964 351.302 170.964C353.93 170.964 355.874 172.872 355.874 175.59C355.874 178.308 353.93 180.216 351.302 180.216C348.656 180.216 346.712 178.308 346.712 175.59ZM348.422 175.59C348.422 177.426 349.592 178.704 351.302 178.704C352.994 178.704 354.182 177.426 354.182 175.59C354.182 173.754 352.994 172.476 351.302 172.476C349.592 172.476 348.422 173.754 348.422 175.59ZM357.747 183.942V171.198H359.277L359.403 172.782C359.997 171.576 361.185 170.946 362.589 170.946C365.109 170.946 366.675 172.836 366.675 175.536C366.675 178.218 365.199 180.234 362.589 180.234C361.185 180.234 360.015 179.64 359.439 178.56V183.942H357.747ZM359.457 175.608C359.457 177.408 360.501 178.704 362.229 178.704C363.957 178.704 364.983 177.408 364.983 175.608C364.983 173.79 363.957 172.494 362.229 172.494C360.501 172.494 359.457 173.772 359.457 175.608ZM370.268 180H368.576V166.752H370.268V180ZM376.557 180.216C373.965 180.216 372.183 178.344 372.183 175.608C372.183 172.854 373.929 170.946 376.485 170.946C378.987 170.946 380.625 172.674 380.625 175.284V175.914L373.821 175.932C373.947 177.786 374.919 178.812 376.593 178.812C377.907 178.812 378.771 178.272 379.059 177.264H380.643C380.211 179.154 378.735 180.216 376.557 180.216ZM376.485 172.368C375.009 172.368 374.073 173.25 373.857 174.798H378.933C378.933 173.34 377.979 172.368 376.485 172.368ZM381.579 171.198H382.875V169.794C382.875 167.634 384.045 166.752 385.575 166.752C385.899 166.752 386.295 166.77 386.619 166.824V168.282H385.863C384.837 168.282 384.567 168.84 384.567 169.794V171.198H388.689V168.444H390.381V171.198H392.109V172.62H390.381V180H388.689V172.62H384.567V180H382.875V172.62H381.579V171.198ZM110.599 217.942V205.198H112.129L112.255 206.782C112.849 205.576 114.037 204.946 115.441 204.946C117.961 204.946 119.527 206.836 119.527 209.536C119.527 212.218 118.051 214.234 115.441 214.234C114.037 214.234 112.867 213.64 112.291 212.56V217.942H110.599ZM112.309 209.608C112.309 211.408 113.353 212.704 115.081 212.704C116.809 212.704 117.835 211.408 117.835 209.608C117.835 207.79 116.809 206.494 115.081 206.494C113.353 206.494 112.309 207.772 112.309 209.608ZM126.432 205.126V206.674H125.676C124.074 206.674 123.084 207.646 123.084 209.338V214H121.392V205.216H122.976L123.084 206.548C123.444 205.63 124.326 205.018 125.532 205.018C125.838 205.018 126.09 205.054 126.432 205.126ZM128.847 203.11C128.235 203.11 127.731 202.606 127.731 201.994C127.731 201.364 128.235 200.878 128.847 200.878C129.459 200.878 129.963 201.364 129.963 201.994C129.963 202.606 129.459 203.11 128.847 203.11ZM128.019 214V205.198H129.711V214H128.019ZM133.859 214H132.167V205.198H133.697L133.877 206.548C134.435 205.54 135.551 204.946 136.793 204.946C139.115 204.946 140.177 206.368 140.177 208.618V214H138.485V208.996C138.485 207.214 137.657 206.494 136.361 206.494C134.777 206.494 133.859 207.628 133.859 209.338V214ZM145.005 214H143.313V206.62H141.585V205.198H143.313V202.444H145.005V205.198H146.733V206.62H145.005V214ZM297.208 285.942V273.198H298.738L298.864 274.782C299.458 273.576 300.646 272.946 302.05 272.946C304.57 272.946 306.136 274.836 306.136 277.536C306.136 280.218 304.66 282.234 302.05 282.234C300.646 282.234 299.476 281.64 298.9 280.56V285.942H297.208ZM298.918 277.608C298.918 279.408 299.962 280.704 301.69 280.704C303.418 280.704 304.444 279.408 304.444 277.608C304.444 275.79 303.418 274.494 301.69 274.494C299.962 274.494 298.918 275.772 298.918 277.608ZM307.425 277.59C307.425 274.872 309.369 272.964 312.015 272.964C314.643 272.964 316.587 274.872 316.587 277.59C316.587 280.308 314.643 282.216 312.015 282.216C309.369 282.216 307.425 280.308 307.425 277.59ZM309.135 277.59C309.135 279.426 310.305 280.704 312.015 280.704C313.707 280.704 314.895 279.426 314.895 277.59C314.895 275.754 313.707 274.476 312.015 274.476C310.305 274.476 309.135 275.754 309.135 277.59ZM318.46 285.942V273.198H319.99L320.116 274.782C320.71 273.576 321.898 272.946 323.302 272.946C325.822 272.946 327.388 274.836 327.388 277.536C327.388 280.218 325.912 282.234 323.302 282.234C321.898 282.234 320.728 281.64 320.152 280.56V285.942H318.46ZM320.17 277.608C320.17 279.408 321.214 280.704 322.942 280.704C324.67 280.704 325.696 279.408 325.696 277.608C325.696 275.79 324.67 274.494 322.942 274.494C321.214 274.494 320.17 275.772 320.17 277.608ZM330.981 282H329.289V268.752H330.981V282ZM337.27 282.216C334.678 282.216 332.896 280.344 332.896 277.608C332.896 274.854 334.642 272.946 337.198 272.946C339.7 272.946 341.338 274.674 341.338 277.284V277.914L334.534 277.932C334.66 279.786 335.632 280.812 337.306 280.812C338.62 280.812 339.484 280.272 339.772 279.264H341.356C340.924 281.154 339.448 282.216 337.27 282.216ZM337.198 274.368C335.722 274.368 334.786 275.25 334.57 276.798H339.646C339.646 275.34 338.692 274.368 337.198 274.368ZM342.292 273.198H343.588V271.794C343.588 269.634 344.758 268.752 346.288 268.752C346.612 268.752 347.008 268.77 347.332 268.824V270.282H346.576C345.55 270.282 345.28 270.84 345.28 271.794V273.198H349.402V270.444H351.094V273.198H352.822V274.62H351.094V282H349.402V274.62H345.28V282H343.588V274.62H342.292V273.198ZM110.599 319.942V307.198H112.129L112.255 308.782C112.849 307.576 114.037 306.946 115.441 306.946C117.961 306.946 119.527 308.836 119.527 311.536C119.527 314.218 118.051 316.234 115.441 316.234C114.037 316.234 112.867 315.64 112.291 314.56V319.942H110.599ZM112.309 311.608C112.309 313.408 113.353 314.704 115.081 314.704C116.809 314.704 117.835 313.408 117.835 311.608C117.835 309.79 116.809 308.494 115.081 308.494C113.353 308.494 112.309 309.772 112.309 311.608ZM126.432 307.126V308.674H125.676C124.074 308.674 123.084 309.646 123.084 311.338V316H121.392V307.216H122.976L123.084 308.548C123.444 307.63 124.326 307.018 125.532 307.018C125.838 307.018 126.09 307.054 126.432 307.126ZM128.847 305.11C128.235 305.11 127.731 304.606 127.731 303.994C127.731 303.364 128.235 302.878 128.847 302.878C129.459 302.878 129.963 303.364 129.963 303.994C129.963 304.606 129.459 305.11 128.847 305.11ZM128.019 316V307.198H129.711V316H128.019ZM133.859 316H132.167V307.198H133.697L133.877 308.548C134.435 307.54 135.551 306.946 136.793 306.946C139.115 306.946 140.177 308.368 140.177 310.618V316H138.485V310.996C138.485 309.214 137.657 308.494 136.361 308.494C134.777 308.494 133.859 309.628 133.859 311.338V316ZM145.005 316H143.313V308.62H141.585V307.198H143.313V304.444H145.005V307.198H146.733V308.62H145.005V316ZM110.599 387.942V375.198H112.129L112.255 376.782C112.849 375.576 114.037 374.946 115.441 374.946C117.961 374.946 119.527 376.836 119.527 379.536C119.527 382.218 118.051 384.234 115.441 384.234C114.037 384.234 112.867 383.64 112.291 382.56V387.942H110.599ZM112.309 379.608C112.309 381.408 113.353 382.704 115.081 382.704C116.809 382.704 117.835 381.408 117.835 379.608C117.835 377.79 116.809 376.494 115.081 376.494C113.353 376.494 112.309 377.772 112.309 379.608ZM126.432 375.126V376.674H125.676C124.074 376.674 123.084 377.646 123.084 379.338V384H121.392V375.216H122.976L123.084 376.548C123.444 375.63 124.326 375.018 125.532 375.018C125.838 375.018 126.09 375.054 126.432 375.126ZM128.847 373.11C128.235 373.11 127.731 372.606 127.731 371.994C127.731 371.364 128.235 370.878 128.847 370.878C129.459 370.878 129.963 371.364 129.963 371.994C129.963 372.606 129.459 373.11 128.847 373.11ZM128.019 384V375.198H129.711V384H128.019ZM133.859 384H132.167V375.198H133.697L133.877 376.548C134.435 375.54 135.551 374.946 136.793 374.946C139.115 374.946 140.177 376.368 140.177 378.618V384H138.485V378.996C138.485 377.214 137.657 376.494 136.361 376.494C134.777 376.494 133.859 377.628 133.859 379.338V384ZM145.005 384H143.313V376.62H141.585V375.198H143.313V372.444H145.005V375.198H146.733V376.62H145.005V384Z" fill="#FFCC00"/>
<path d="M167.553 115.114H166.149C164.493 113.044 163.395 109.912 163.395 106.654C163.395 103.594 164.385 100.39 166.149 98.212H167.553C166.131 100.192 165.123 103.288 165.123 106.654C165.123 109.84 166.023 113.008 167.553 115.114ZM168.981 115.114H167.559C169.089 113.008 169.989 109.84 169.989 106.654C169.989 103.288 168.999 100.192 167.559 98.212H168.981C170.727 100.39 171.717 103.594 171.717 106.654C171.717 109.912 170.619 113.044 168.981 115.114ZM175.25 105.466C174.548 105.466 173.954 104.89 173.954 104.224C173.954 103.522 174.548 102.946 175.25 102.946C175.934 102.946 176.528 103.522 176.528 104.224C176.528 104.89 175.934 105.466 175.25 105.466ZM175.25 112.216C174.548 112.216 173.954 111.64 173.954 110.956C173.954 110.254 174.548 109.678 175.25 109.678C175.934 109.678 176.528 110.254 176.528 110.956C176.528 111.64 175.934 112.216 175.25 112.216ZM183.95 106.798H185.75L186.254 104.188H184.166L184.49 102.604H186.578L187.28 98.986H188.954L188.252 102.604H191.006L191.708 98.986H193.4L192.698 102.604H194.552L194.246 104.188H192.374L191.87 106.798H193.886L193.58 108.382H191.546L190.844 112H189.17L189.872 108.382H187.1L186.398 112H184.724L185.426 108.382H183.626L183.95 106.798ZM187.424 106.798H190.178L190.7 104.188H187.928L187.424 106.798ZM203.755 106.474H198.643V112H196.879V98.986H204.727V100.606H198.643V104.872H203.755V106.474ZM212.115 103.198H213.789V112H212.277L212.097 110.668C211.593 111.586 210.423 112.216 209.127 112.216C207.075 112.216 205.923 110.83 205.923 108.67V103.198H207.615V108.112C207.615 110.002 208.425 110.722 209.721 110.722C211.269 110.722 212.115 109.732 212.115 107.842V103.198ZM217.936 112H216.244V103.198H217.774L217.954 104.548C218.512 103.54 219.628 102.946 220.87 102.946C223.192 102.946 224.254 104.368 224.254 106.618V112H222.562V106.996C222.562 105.214 221.734 104.494 220.438 104.494C218.854 104.494 217.936 105.628 217.936 107.338V112ZM226.021 107.608C226.021 104.854 227.767 102.946 230.341 102.946C232.555 102.946 234.103 104.206 234.409 106.168H232.717C232.429 105.052 231.529 104.458 230.395 104.458C228.793 104.458 227.695 105.682 227.695 107.59C227.695 109.48 228.721 110.704 230.323 110.704C231.529 110.704 232.429 110.074 232.735 109.03H234.427C234.103 110.83 232.627 112.072 230.665 112.198L230.377 112.81C230.557 112.756 230.737 112.72 230.935 112.72C231.619 112.72 232.267 113.152 232.267 114.016C232.267 115.042 231.421 115.546 230.467 115.546C229.945 115.546 229.585 115.456 229.243 115.258V114.394C229.621 114.574 229.945 114.7 230.341 114.7C230.881 114.7 231.241 114.448 231.241 114.052C231.241 113.656 230.953 113.44 230.485 113.44C230.161 113.44 229.945 113.494 229.603 113.638L229.423 113.116L229.855 112.198C227.533 111.982 226.021 110.218 226.021 107.608ZM238.21 101.938H237.13C237.022 100.588 237.598 99.742 238.606 99.742C239.686 99.742 240.226 100.75 240.964 100.75C241.396 100.75 241.576 100.39 241.576 99.742H242.674C242.764 101.2 242.152 101.938 241.108 101.938C239.974 101.938 239.434 100.93 238.804 100.93C238.408 100.93 238.21 101.29 238.21 101.938ZM238.786 112.216C236.896 112.216 235.78 111.154 235.78 109.552C235.78 107.932 236.986 106.924 239.056 106.762L241.828 106.546V106.294C241.828 104.818 240.946 104.296 239.758 104.296C238.336 104.296 237.526 104.926 237.526 105.988H236.05C236.05 104.152 237.562 102.946 239.83 102.946C242.008 102.946 243.484 104.098 243.484 106.474V112H242.044L241.864 110.578C241.414 111.586 240.208 112.216 238.786 112.216ZM239.272 110.902C240.874 110.902 241.846 109.858 241.846 108.202V107.734L239.596 107.914C238.102 108.058 237.49 108.634 237.49 109.498C237.49 110.434 238.174 110.902 239.272 110.902ZM245.252 107.59C245.252 104.872 247.196 102.964 249.842 102.964C252.47 102.964 254.414 104.872 254.414 107.59C254.414 110.308 252.47 112.216 249.842 112.216C247.196 112.216 245.252 110.308 245.252 107.59ZM246.962 107.59C246.962 109.426 248.132 110.704 249.842 110.704C251.534 110.704 252.722 109.426 252.722 107.59C252.722 105.754 251.534 104.476 249.842 104.476C248.132 104.476 246.962 105.754 246.962 107.59ZM260.632 107.608C260.632 104.854 262.378 102.946 264.952 102.946C267.166 102.946 268.714 104.206 269.02 106.168H267.328C267.04 105.052 266.14 104.458 265.006 104.458C263.404 104.458 262.306 105.682 262.306 107.59C262.306 109.48 263.332 110.704 264.934 110.704C266.14 110.704 267.04 110.074 267.346 109.03H269.038C268.696 110.938 267.058 112.216 264.934 112.216C262.342 112.216 260.632 110.38 260.632 107.608ZM272.516 111.982H270.824V98.752H272.516V104.548C273.074 103.594 274.136 102.946 275.504 102.946C277.754 102.946 278.834 104.368 278.834 106.618V112H277.142V106.996C277.142 105.214 276.296 104.494 275.036 104.494C273.398 104.494 272.516 105.682 272.516 107.194V111.982ZM283.751 112.216C281.861 112.216 280.745 111.154 280.745 109.552C280.745 107.932 281.951 106.924 284.021 106.762L286.793 106.546V106.294C286.793 104.818 285.911 104.296 284.723 104.296C283.301 104.296 282.491 104.926 282.491 105.988H281.015C281.015 104.152 282.527 102.946 284.795 102.946C286.973 102.946 288.449 104.098 288.449 106.474V112H287.009L286.829 110.578C286.379 111.586 285.173 112.216 283.751 112.216ZM284.237 110.902C285.839 110.902 286.811 109.858 286.811 108.202V107.734L284.561 107.914C283.067 108.058 282.455 108.634 282.455 109.498C282.455 110.434 283.139 110.902 284.237 110.902ZM292.484 112H290.792V103.198H292.304L292.466 104.35C292.916 103.522 293.852 102.946 295.094 102.946C296.462 102.946 297.434 103.63 297.884 104.728C298.298 103.63 299.36 102.946 300.728 102.946C302.744 102.946 303.968 104.206 303.968 106.24V112H302.312V106.654C302.312 105.268 301.538 104.476 300.35 104.476C299.072 104.476 298.226 105.376 298.226 106.78V112H296.552V106.636C296.552 105.25 295.796 104.494 294.608 104.494C293.33 104.494 292.484 105.376 292.484 106.78V112ZM308.888 112.216C306.998 112.216 305.882 111.154 305.882 109.552C305.882 107.932 307.088 106.924 309.158 106.762L311.93 106.546V106.294C311.93 104.818 311.048 104.296 309.86 104.296C308.438 104.296 307.628 104.926 307.628 105.988H306.152C306.152 104.152 307.664 102.946 309.932 102.946C312.11 102.946 313.586 104.098 313.586 106.474V112H312.146L311.966 110.578C311.516 111.586 310.31 112.216 308.888 112.216ZM309.374 110.902C310.976 110.902 311.948 109.858 311.948 108.202V107.734L309.698 107.914C308.204 108.058 307.592 108.634 307.592 109.498C307.592 110.434 308.276 110.902 309.374 110.902ZM320.969 103.126V104.674H320.213C318.611 104.674 317.621 105.646 317.621 107.338V112H315.929V103.216H317.513L317.621 104.548C317.981 103.63 318.863 103.018 320.069 103.018C320.375 103.018 320.627 103.054 320.969 103.126ZM327.478 115.942V103.198H329.008L329.134 104.782C329.728 103.576 330.916 102.946 332.32 102.946C334.84 102.946 336.406 104.836 336.406 107.536C336.406 110.218 334.93 112.234 332.32 112.234C330.916 112.234 329.746 111.64 329.17 110.56V115.942H327.478ZM329.188 107.608C329.188 109.408 330.232 110.704 331.96 110.704C333.688 110.704 334.714 109.408 334.714 107.608C334.714 105.79 333.688 104.494 331.96 104.494C330.232 104.494 329.188 105.772 329.188 107.608ZM343.311 103.126V104.674H342.555C340.953 104.674 339.963 105.646 339.963 107.338V112H338.271V103.216H339.855L339.963 104.548C340.323 103.63 341.205 103.018 342.411 103.018C342.717 103.018 342.969 103.054 343.311 103.126ZM344.005 107.59C344.005 104.872 345.949 102.964 348.595 102.964C351.223 102.964 353.167 104.872 353.167 107.59C353.167 110.308 351.223 112.216 348.595 112.216C345.949 112.216 344.005 110.308 344.005 107.59ZM345.715 107.59C345.715 109.426 346.885 110.704 348.595 110.704C350.287 110.704 351.475 109.426 351.475 107.59C351.475 105.754 350.287 104.476 348.595 104.476C346.885 104.476 345.715 105.754 345.715 107.59ZM355.606 112H353.662L356.74 107.644L353.68 103.198H355.642L357.874 106.474L360.052 103.198H361.978L358.918 107.644L361.924 112H359.962L357.766 108.778L355.606 112ZM364.218 101.11C363.606 101.11 363.102 100.606 363.102 99.994C363.102 99.364 363.606 98.878 364.218 98.878C364.83 98.878 365.334 99.364 365.334 99.994C365.334 100.606 364.83 101.11 364.218 101.11ZM363.39 112V103.198H365.082V112H363.39ZM369.23 112H367.538V103.198H369.05L369.212 104.35C369.662 103.522 370.598 102.946 371.84 102.946C373.208 102.946 374.18 103.63 374.63 104.728C375.044 103.63 376.106 102.946 377.474 102.946C379.49 102.946 380.714 104.206 380.714 106.24V112H379.058V106.654C379.058 105.268 378.284 104.476 377.096 104.476C375.818 104.476 374.972 105.376 374.972 106.78V112H373.298V106.636C373.298 105.25 372.542 104.494 371.354 104.494C370.076 104.494 369.23 105.376 369.23 106.78V112ZM382.484 107.59C382.484 104.872 384.428 102.964 387.074 102.964C389.702 102.964 391.646 104.872 391.646 107.59C391.646 110.308 389.702 112.216 387.074 112.216C384.428 112.216 382.484 110.308 382.484 107.59ZM384.194 107.59C384.194 109.426 385.364 110.704 387.074 110.704C388.766 110.704 389.954 109.426 389.954 107.59C389.954 105.754 388.766 104.476 387.074 104.476C385.364 104.476 384.194 105.754 384.194 107.59ZM404.399 112V104.62H400.493V112H398.801V104.62H397.505V103.198H398.801V101.794C398.801 99.634 399.971 98.752 401.501 98.752C401.825 98.752 402.221 98.77 402.545 98.824V100.282H401.789C400.763 100.282 400.493 100.84 400.493 101.794V103.198H406.091V112H404.399ZM405.245 101.038C404.633 101.038 404.165 100.57 404.165 99.958C404.165 99.346 404.633 98.878 405.245 98.878C405.839 98.878 406.307 99.346 406.307 99.958C406.307 100.57 405.839 101.038 405.245 101.038ZM410.223 112H408.531V98.752H410.223V112ZM415.288 112.216C413.398 112.216 412.282 111.154 412.282 109.552C412.282 107.932 413.488 106.924 415.558 106.762L418.33 106.546V106.294C418.33 104.818 417.448 104.296 416.26 104.296C414.838 104.296 414.028 104.926 414.028 105.988H412.552C412.552 104.152 414.064 102.946 416.332 102.946C418.51 102.946 419.986 104.098 419.986 106.474V112H418.546L418.366 110.578C417.916 111.586 416.71 112.216 415.288 112.216ZM415.774 110.902C417.376 110.902 418.348 109.858 418.348 108.202V107.734L416.098 107.914C414.604 108.058 413.992 108.634 413.992 109.498C413.992 110.434 414.676 110.902 415.774 110.902ZM397.422 183.114H396.018C394.362 181.044 393.264 177.912 393.264 174.654C393.264 171.594 394.254 168.39 396.018 166.212H397.422C396 168.192 394.992 171.288 394.992 174.654C394.992 177.84 395.892 181.008 397.422 183.114ZM398.85 183.114H397.428C398.958 181.008 399.858 177.84 399.858 174.654C399.858 171.288 398.868 168.192 397.428 166.212H398.85C400.596 168.39 401.586 171.594 401.586 174.654C401.586 177.912 400.488 181.044 398.85 183.114ZM152.049 217.114H150.645C148.989 215.044 147.891 211.912 147.891 208.654C147.891 205.594 148.881 202.39 150.645 200.212H152.049C150.627 202.192 149.619 205.288 149.619 208.654C149.619 211.84 150.519 215.008 152.049 217.114ZM343.278 214.018H345.6V215.35H341.73V199.492H345.6V200.842H343.278V214.018ZM400.629 215.35V214.018H402.951V200.842H400.629V199.492H404.499V215.35H400.629ZM531.652 217.114H530.23C531.76 215.008 532.66 211.84 532.66 208.654C532.66 205.288 531.67 202.192 530.23 200.212H531.652C533.398 202.39 534.388 205.594 534.388 208.654C534.388 211.912 533.29 215.044 531.652 217.114ZM358.135 285.114H356.731C355.075 283.044 353.977 279.912 353.977 276.654C353.977 273.594 354.967 270.39 356.731 268.212H358.135C356.713 270.192 355.705 273.288 355.705 276.654C355.705 279.84 356.605 283.008 358.135 285.114ZM359.563 285.114H358.141C359.671 283.008 360.571 279.84 360.571 276.654C360.571 273.288 359.581 270.192 358.141 268.212H359.563C361.309 270.39 362.299 273.594 362.299 276.654C362.299 279.912 361.201 283.044 359.563 285.114ZM152.049 319.114H150.645C148.989 317.044 147.891 313.912 147.891 310.654C147.891 307.594 148.881 304.39 150.645 302.212H152.049C150.627 304.192 149.619 307.288 149.619 310.654C149.619 313.84 150.519 317.008 152.049 319.114ZM343.278 316.018H345.6V317.35H341.73V301.492H345.6V302.842H343.278V316.018ZM400.629 317.35V316.018H402.951V302.842H400.629V301.492H404.499V317.35H400.629ZM494.774 319.114H493.352C494.882 317.008 495.782 313.84 495.782 310.654C495.782 307.288 494.792 304.192 493.352 302.212H494.774C496.52 304.39 497.51 307.594 497.51 310.654C497.51 313.912 496.412 317.044 494.774 319.114ZM152.049 387.114H150.645C148.989 385.044 147.891 381.912 147.891 378.654C147.891 375.594 148.881 372.39 150.645 370.212H152.049C150.627 372.192 149.619 375.288 149.619 378.654C149.619 381.84 150.519 385.008 152.049 387.114ZM246.852 387.114H245.43C246.96 385.008 247.86 381.84 247.86 378.654C247.86 375.288 246.87 372.192 245.43 370.212H246.852C248.598 372.39 249.588 375.594 249.588 378.654C249.588 381.912 248.49 385.044 246.852 387.114Z" fill="#595959"/>
<path d="M111.653 146V138.62H107.747V146H106.055V138.62H104.759V137.198H106.055V135.794C106.055 133.634 107.225 132.752 108.755 132.752C109.079 132.752 109.475 132.77 109.799 132.824V134.282H109.043C108.017 134.282 107.747 134.84 107.747 135.794V137.198H113.345V146H111.653ZM112.499 135.038C111.887 135.038 111.419 134.57 111.419 133.958C111.419 133.346 111.887 132.878 112.499 132.878C113.093 132.878 113.561 133.346 113.561 133.958C113.561 134.57 113.093 135.038 112.499 135.038ZM117.477 146H115.785V132.752H117.477V146ZM122.542 146.216C120.652 146.216 119.536 145.154 119.536 143.552C119.536 141.932 120.742 140.924 122.812 140.762L125.584 140.546V140.294C125.584 138.818 124.702 138.296 123.514 138.296C122.092 138.296 121.282 138.926 121.282 139.988H119.806C119.806 138.152 121.318 136.946 123.586 136.946C125.764 136.946 127.24 138.098 127.24 140.474V146H125.8L125.62 144.578C125.17 145.586 123.964 146.216 122.542 146.216ZM123.028 144.902C124.63 144.902 125.602 143.858 125.602 142.202V141.734L123.352 141.914C121.858 142.058 121.246 142.634 121.246 143.498C121.246 144.434 121.93 144.902 123.028 144.902ZM129.439 147.656V146.324H136.819V147.656H129.439ZM139.128 149.942V137.198H140.658L140.784 138.782C141.378 137.576 142.566 136.946 143.97 136.946C146.49 136.946 148.056 138.836 148.056 141.536C148.056 144.218 146.58 146.234 143.97 146.234C142.566 146.234 141.396 145.64 140.82 144.56V149.942H139.128ZM140.838 141.608C140.838 143.408 141.882 144.704 143.61 144.704C145.338 144.704 146.364 143.408 146.364 141.608C146.364 139.79 145.338 138.494 143.61 138.494C141.882 138.494 140.838 139.772 140.838 141.608ZM154.961 137.126V138.674H154.205C152.603 138.674 151.613 139.646 151.613 141.338V146H149.921V137.216H151.505L151.613 138.548C151.973 137.63 152.855 137.018 154.061 137.018C154.367 137.018 154.619 137.054 154.961 137.126ZM160.03 146.216C157.438 146.216 155.656 144.344 155.656 141.608C155.656 138.854 157.402 136.946 159.958 136.946C162.46 136.946 164.098 138.674 164.098 141.284V141.914L157.294 141.932C157.42 143.786 158.392 144.812 160.066 144.812C161.38 144.812 162.244 144.272 162.532 143.264H164.116C163.684 145.154 162.208 146.216 160.03 146.216ZM159.958 138.368C158.482 138.368 157.546 139.25 157.33 140.798H162.406C162.406 139.34 161.452 138.368 159.958 138.368ZM165.052 137.198H166.348V135.794C166.348 133.634 167.536 132.752 169.138 132.752C169.462 132.752 169.84 132.77 170.182 132.824V134.282H169.426C168.328 134.282 168.04 134.84 168.04 135.794V137.198H170.128V138.62H168.04V146H166.348V138.62H165.052V137.198ZM175.235 146.216C172.643 146.216 170.861 144.344 170.861 141.608C170.861 138.854 172.607 136.946 175.163 136.946C177.665 136.946 179.303 138.674 179.303 141.284V141.914L172.499 141.932C172.625 143.786 173.597 144.812 175.271 144.812C176.585 144.812 177.449 144.272 177.737 143.264H179.321C178.889 145.154 177.413 146.216 175.235 146.216ZM175.163 138.368C173.687 138.368 172.751 139.25 172.535 140.798H177.611C177.611 139.34 176.657 138.368 175.163 138.368ZM186.233 137.126V138.674H185.477C183.875 138.674 182.885 139.646 182.885 141.338V146H181.193V137.216H182.777L182.885 138.548C183.245 137.63 184.127 137.018 185.333 137.018C185.639 137.018 185.891 137.054 186.233 137.126ZM191.301 146.216C188.709 146.216 186.927 144.344 186.927 141.608C186.927 138.854 188.673 136.946 191.229 136.946C193.731 136.946 195.369 138.674 195.369 141.284V141.914L188.565 141.932C188.691 143.786 189.663 144.812 191.337 144.812C192.651 144.812 193.515 144.272 193.803 143.264H195.387C194.955 145.154 193.479 146.216 191.301 146.216ZM191.229 138.368C189.753 138.368 188.817 139.25 188.601 140.798H193.677C193.677 139.34 192.723 138.368 191.229 138.368ZM198.951 146H197.259V137.198H198.789L198.969 138.548C199.527 137.54 200.643 136.946 201.885 136.946C204.207 136.946 205.269 138.368 205.269 140.618V146H203.577V140.996C203.577 139.214 202.749 138.494 201.453 138.494C199.869 138.494 198.951 139.628 198.951 141.338V146ZM207.037 141.608C207.037 138.854 208.783 136.946 211.357 136.946C213.571 136.946 215.119 138.206 215.425 140.168H213.733C213.445 139.052 212.545 138.458 211.411 138.458C209.809 138.458 208.711 139.682 208.711 141.59C208.711 143.48 209.737 144.704 211.339 144.704C212.545 144.704 213.445 144.074 213.751 143.03H215.443C215.101 144.938 213.463 146.216 211.339 146.216C208.747 146.216 207.037 144.38 207.037 141.608ZM218.056 135.11C217.444 135.11 216.94 134.606 216.94 133.994C216.94 133.364 217.444 132.878 218.056 132.878C218.668 132.878 219.172 133.364 219.172 133.994C219.172 134.606 218.668 135.11 218.056 135.11ZM217.228 146V137.198H218.92V146H217.228ZM223.95 146.216C222.06 146.216 220.944 145.154 220.944 143.552C220.944 141.932 222.15 140.924 224.22 140.762L226.992 140.546V140.294C226.992 138.818 226.11 138.296 224.922 138.296C223.5 138.296 222.69 138.926 222.69 139.988H221.214C221.214 138.152 222.726 136.946 224.994 136.946C227.172 136.946 228.648 138.098 228.648 140.474V146H227.208L227.028 144.578C226.578 145.586 225.372 146.216 223.95 146.216ZM224.436 144.902C226.038 144.902 227.01 143.858 227.01 142.202V141.734L224.76 141.914C223.266 142.058 222.654 142.634 222.654 143.498C222.654 144.434 223.338 144.902 224.436 144.902ZM232.72 146H231.028V132.752H232.72V146ZM236.65 139.466C235.948 139.466 235.354 138.89 235.354 138.224C235.354 137.522 235.948 136.946 236.65 136.946C237.334 136.946 237.928 137.522 237.928 138.224C237.928 138.89 237.334 139.466 236.65 139.466ZM236.65 146.216C235.948 146.216 235.354 145.64 235.354 144.956C235.354 144.254 235.948 143.678 236.65 143.678C237.334 143.678 237.928 144.254 237.928 144.956C237.928 145.64 237.334 146.216 236.65 146.216ZM110.599 183.942V171.198H112.129L112.255 172.782C112.849 171.576 114.037 170.946 115.441 170.946C117.961 170.946 119.527 172.836 119.527 175.536C119.527 178.218 118.051 180.234 115.441 180.234C114.037 180.234 112.867 179.64 112.291 178.56V183.942H110.599ZM112.309 175.608C112.309 177.408 113.353 178.704 115.081 178.704C116.809 178.704 117.835 177.408 117.835 175.608C117.835 173.79 116.809 172.494 115.081 172.494C113.353 172.494 112.309 173.772 112.309 175.608ZM123.966 180.216C122.076 180.216 120.96 179.154 120.96 177.552C120.96 175.932 122.166 174.924 124.236 174.762L127.008 174.546V174.294C127.008 172.818 126.126 172.296 124.938 172.296C123.516 172.296 122.706 172.926 122.706 173.988H121.23C121.23 172.152 122.742 170.946 125.01 170.946C127.188 170.946 128.664 172.098 128.664 174.474V180H127.224L127.044 178.578C126.594 179.586 125.388 180.216 123.966 180.216ZM124.452 178.902C126.054 178.902 127.026 177.858 127.026 176.202V175.734L124.776 175.914C123.282 176.058 122.67 176.634 122.67 177.498C122.67 178.434 123.354 178.902 124.452 178.902ZM130.431 175.608C130.431 172.854 132.177 170.946 134.751 170.946C136.965 170.946 138.513 172.206 138.819 174.168H137.127C136.839 173.052 135.939 172.458 134.805 172.458C133.203 172.458 132.105 173.682 132.105 175.59C132.105 177.48 133.131 178.704 134.733 178.704C135.939 178.704 136.839 178.074 137.145 177.03H138.837C138.495 178.938 136.857 180.216 134.733 180.216C132.141 180.216 130.431 178.38 130.431 175.608ZM141.45 169.11C140.838 169.11 140.334 168.606 140.334 167.994C140.334 167.364 140.838 166.878 141.45 166.878C142.062 166.878 142.566 167.364 142.566 167.994C142.566 168.606 142.062 169.11 141.45 169.11ZM140.622 180V171.198H142.314V180H140.622ZM148.569 180.216C145.977 180.216 144.195 178.344 144.195 175.608C144.195 172.854 145.941 170.946 148.497 170.946C150.999 170.946 152.637 172.674 152.637 175.284V175.914L145.833 175.932C145.959 177.786 146.931 178.812 148.605 178.812C149.919 178.812 150.783 178.272 151.071 177.264H152.655C152.223 179.154 150.747 180.216 148.569 180.216ZM148.497 172.368C147.021 172.368 146.085 173.25 145.869 174.798H150.945C150.945 173.34 149.991 172.368 148.497 172.368ZM156.219 180H154.527V171.198H156.057L156.237 172.548C156.795 171.54 157.911 170.946 159.153 170.946C161.475 170.946 162.537 172.368 162.537 174.618V180H160.845V174.996C160.845 173.214 160.017 172.494 158.721 172.494C157.137 172.494 156.219 173.628 156.219 175.338V180ZM167.364 180H165.672V172.62H163.944V171.198H165.672V168.444H167.364V171.198H169.092V172.62H167.364V180ZM174.321 180.216C171.729 180.216 169.947 178.344 169.947 175.608C169.947 172.854 171.693 170.946 174.249 170.946C176.751 170.946 178.389 172.674 178.389 175.284V175.914L171.585 175.932C171.711 177.786 172.683 178.812 174.357 178.812C175.671 178.812 176.535 178.272 176.823 177.264H178.407C177.975 179.154 176.499 180.216 174.321 180.216ZM174.249 172.368C172.773 172.368 171.837 173.25 171.621 174.798H176.697C176.697 173.34 175.743 172.368 174.249 172.368ZM207.963 180V172.62H204.057V180H202.365V172.62H201.069V171.198H202.365V169.794C202.365 167.634 203.535 166.752 205.065 166.752C205.389 166.752 205.785 166.77 206.109 166.824V168.282H205.353C204.327 168.282 204.057 168.84 204.057 169.794V171.198H209.655V180H207.963ZM208.809 169.038C208.197 169.038 207.729 168.57 207.729 167.958C207.729 167.346 208.197 166.878 208.809 166.878C209.403 166.878 209.871 167.346 209.871 167.958C209.871 168.57 209.403 169.038 208.809 169.038ZM213.788 180H212.096V166.752H213.788V180ZM218.853 180.216C216.963 180.216 215.847 179.154 215.847 177.552C215.847 175.932 217.053 174.924 219.123 174.762L221.895 174.546V174.294C221.895 172.818 221.013 172.296 219.825 172.296C218.403 172.296 217.593 172.926 217.593 173.988H216.117C216.117 172.152 217.629 170.946 219.897 170.946C222.075 170.946 223.551 172.098 223.551 174.474V180H222.111L221.931 178.578C221.481 179.586 220.275 180.216 218.853 180.216ZM219.339 178.902C220.941 178.902 221.913 177.858 221.913 176.202V175.734L219.663 175.914C218.169 176.058 217.557 176.634 217.557 177.498C217.557 178.434 218.241 178.902 219.339 178.902ZM225.75 181.656V180.324H233.13V181.656H225.75ZM235.439 183.942V171.198H236.969L237.095 172.782C237.689 171.576 238.877 170.946 240.281 170.946C242.801 170.946 244.367 172.836 244.367 175.536C244.367 178.218 242.891 180.234 240.281 180.234C238.877 180.234 237.707 179.64 237.131 178.56V183.942H235.439ZM237.149 175.608C237.149 177.408 238.193 178.704 239.921 178.704C241.649 178.704 242.675 177.408 242.675 175.608C242.675 173.79 241.649 172.494 239.921 172.494C238.193 172.494 237.149 173.772 237.149 175.608ZM251.272 171.126V172.674H250.516C248.914 172.674 247.924 173.646 247.924 175.338V180H246.232V171.216H247.816L247.924 172.548C248.284 171.63 249.166 171.018 250.372 171.018C250.678 171.018 250.93 171.054 251.272 171.126ZM256.34 180.216C253.748 180.216 251.966 178.344 251.966 175.608C251.966 172.854 253.712 170.946 256.268 170.946C258.77 170.946 260.408 172.674 260.408 175.284V175.914L253.604 175.932C253.73 177.786 254.702 178.812 256.376 178.812C257.69 178.812 258.554 178.272 258.842 177.264H260.426C259.994 179.154 258.518 180.216 256.34 180.216ZM256.268 172.368C254.792 172.368 253.856 173.25 253.64 174.798H258.716C258.716 173.34 257.762 172.368 256.268 172.368ZM261.362 171.198H262.658V169.794C262.658 167.634 263.846 166.752 265.448 166.752C265.772 166.752 266.15 166.77 266.492 166.824V168.282H265.736C264.638 168.282 264.35 168.84 264.35 169.794V171.198H266.438V172.62H264.35V180H262.658V172.62H261.362V171.198ZM271.545 180.216C268.953 180.216 267.171 178.344 267.171 175.608C267.171 172.854 268.917 170.946 271.473 170.946C273.975 170.946 275.613 172.674 275.613 175.284V175.914L268.809 175.932C268.935 177.786 269.907 178.812 271.581 178.812C272.895 178.812 273.759 178.272 274.047 177.264H275.631C275.199 179.154 273.723 180.216 271.545 180.216ZM271.473 172.368C269.997 172.368 269.061 173.25 268.845 174.798H273.921C273.921 173.34 272.967 172.368 271.473 172.368ZM282.543 171.126V172.674H281.787C280.185 172.674 279.195 173.646 279.195 175.338V180H277.503V171.216H279.087L279.195 172.548C279.555 171.63 280.437 171.018 281.643 171.018C281.949 171.018 282.201 171.054 282.543 171.126ZM287.612 180.216C285.02 180.216 283.238 178.344 283.238 175.608C283.238 172.854 284.984 170.946 287.54 170.946C290.042 170.946 291.68 172.674 291.68 175.284V175.914L284.876 175.932C285.002 177.786 285.974 178.812 287.648 178.812C288.962 178.812 289.826 178.272 290.114 177.264H291.698C291.266 179.154 289.79 180.216 287.612 180.216ZM287.54 172.368C286.064 172.368 285.128 173.25 284.912 174.798H289.988C289.988 173.34 289.034 172.368 287.54 172.368ZM295.262 180H293.57V171.198H295.1L295.28 172.548C295.838 171.54 296.954 170.946 298.196 170.946C300.518 170.946 301.58 172.368 301.58 174.618V180H299.888V174.996C299.888 173.214 299.06 172.494 297.764 172.494C296.18 172.494 295.262 173.628 295.262 175.338V180ZM303.347 175.608C303.347 172.854 305.093 170.946 307.667 170.946C309.881 170.946 311.429 172.206 311.735 174.168H310.043C309.755 173.052 308.855 172.458 307.721 172.458C306.119 172.458 305.021 173.682 305.021 175.59C305.021 177.48 306.047 178.704 307.649 178.704C308.855 178.704 309.755 178.074 310.061 177.03H311.753C311.411 178.938 309.773 180.216 307.649 180.216C305.057 180.216 303.347 178.38 303.347 175.608ZM314.366 169.11C313.754 169.11 313.25 168.606 313.25 167.994C313.25 167.364 313.754 166.878 314.366 166.878C314.978 166.878 315.482 167.364 315.482 167.994C315.482 168.606 314.978 169.11 314.366 169.11ZM313.538 180V171.198H315.23V180H313.538ZM320.261 180.216C318.371 180.216 317.255 179.154 317.255 177.552C317.255 175.932 318.461 174.924 320.531 174.762L323.303 174.546V174.294C323.303 172.818 322.421 172.296 321.233 172.296C319.811 172.296 319.001 172.926 319.001 173.988H317.525C317.525 172.152 319.037 170.946 321.305 170.946C323.483 170.946 324.959 172.098 324.959 174.474V180H323.519L323.339 178.578C322.889 179.586 321.683 180.216 320.261 180.216ZM320.747 178.902C322.349 178.902 323.321 177.858 323.321 176.202V175.734L321.071 175.914C319.577 176.058 318.965 176.634 318.965 177.498C318.965 178.434 319.649 178.902 320.747 178.902ZM329.03 180H327.338V166.752H329.03V180ZM332.781 180.216C332.079 180.216 331.485 179.64 331.485 178.956C331.485 178.254 332.079 177.678 332.781 177.678C333.465 177.678 334.059 178.254 334.059 178.956C334.059 179.64 333.465 180.216 332.781 180.216ZM272.212 217.942V205.198H273.742L273.868 206.782C274.462 205.576 275.65 204.946 277.054 204.946C279.574 204.946 281.14 206.836 281.14 209.536C281.14 212.218 279.664 214.234 277.054 214.234C275.65 214.234 274.48 213.64 273.904 212.56V217.942H272.212ZM273.922 209.608C273.922 211.408 274.966 212.704 276.694 212.704C278.422 212.704 279.448 211.408 279.448 209.608C279.448 207.79 278.422 206.494 276.694 206.494C274.966 206.494 273.922 207.772 273.922 209.608ZM285.579 214.216C283.689 214.216 282.573 213.154 282.573 211.552C282.573 209.932 283.779 208.924 285.849 208.762L288.621 208.546V208.294C288.621 206.818 287.739 206.296 286.551 206.296C285.129 206.296 284.319 206.926 284.319 207.988H282.843C282.843 206.152 284.355 204.946 286.623 204.946C288.801 204.946 290.277 206.098 290.277 208.474V214H288.837L288.657 212.578C288.207 213.586 287.001 214.216 285.579 214.216ZM286.065 212.902C287.667 212.902 288.639 211.858 288.639 210.202V209.734L286.389 209.914C284.895 210.058 284.283 210.634 284.283 211.498C284.283 212.434 284.967 212.902 286.065 212.902ZM292.044 209.608C292.044 206.854 293.79 204.946 296.364 204.946C298.578 204.946 300.126 206.206 300.432 208.168H298.74C298.452 207.052 297.552 206.458 296.418 206.458C294.816 206.458 293.718 207.682 293.718 209.59C293.718 211.48 294.744 212.704 296.346 212.704C297.552 212.704 298.452 212.074 298.758 211.03H300.45C300.108 212.938 298.47 214.216 296.346 214.216C293.754 214.216 292.044 212.38 292.044 209.608ZM303.064 203.11C302.452 203.11 301.948 202.606 301.948 201.994C301.948 201.364 302.452 200.878 303.064 200.878C303.676 200.878 304.18 201.364 304.18 201.994C304.18 202.606 303.676 203.11 303.064 203.11ZM302.236 214V205.198H303.928V214H302.236ZM310.182 214.216C307.59 214.216 305.808 212.344 305.808 209.608C305.808 206.854 307.554 204.946 310.11 204.946C312.612 204.946 314.25 206.674 314.25 209.284V209.914L307.446 209.932C307.572 211.786 308.544 212.812 310.218 212.812C311.532 212.812 312.396 212.272 312.684 211.264H314.268C313.836 213.154 312.36 214.216 310.182 214.216ZM310.11 206.368C308.634 206.368 307.698 207.25 307.482 208.798H312.558C312.558 207.34 311.604 206.368 310.11 206.368ZM317.832 214H316.14V205.198H317.67L317.85 206.548C318.408 205.54 319.524 204.946 320.766 204.946C323.088 204.946 324.15 206.368 324.15 208.618V214H322.458V208.996C322.458 207.214 321.63 206.494 320.334 206.494C318.75 206.494 317.832 207.628 317.832 209.338V214ZM328.978 214H327.286V206.62H325.558V205.198H327.286V202.444H328.978V205.198H330.706V206.62H328.978V214ZM335.934 214.216C333.342 214.216 331.56 212.344 331.56 209.608C331.56 206.854 333.306 204.946 335.862 204.946C338.364 204.946 340.002 206.674 340.002 209.284V209.914L333.198 209.932C333.324 211.786 334.296 212.812 335.97 212.812C337.284 212.812 338.148 212.272 338.436 211.264H340.02C339.588 213.154 338.112 214.216 335.934 214.216ZM335.862 206.368C334.386 206.368 333.45 207.25 333.234 208.798H338.31C338.31 207.34 337.356 206.368 335.862 206.368ZM125.627 248V240.62H121.721V248H120.029V240.62H118.733V239.198H120.029V237.794C120.029 235.634 121.199 234.752 122.729 234.752C123.053 234.752 123.449 234.77 123.773 234.824V236.282H123.017C121.991 236.282 121.721 236.84 121.721 237.794V239.198H127.319V248H125.627ZM126.473 237.038C125.861 237.038 125.393 236.57 125.393 235.958C125.393 235.346 125.861 234.878 126.473 234.878C127.067 234.878 127.535 235.346 127.535 235.958C127.535 236.57 127.067 237.038 126.473 237.038ZM131.452 248H129.76V234.752H131.452V248ZM136.517 248.216C134.627 248.216 133.511 247.154 133.511 245.552C133.511 243.932 134.717 242.924 136.787 242.762L139.559 242.546V242.294C139.559 240.818 138.677 240.296 137.489 240.296C136.067 240.296 135.257 240.926 135.257 241.988H133.781C133.781 240.152 135.293 238.946 137.561 238.946C139.739 238.946 141.215 240.098 141.215 242.474V248H139.775L139.595 246.578C139.145 247.586 137.939 248.216 136.517 248.216ZM137.003 246.902C138.605 246.902 139.577 245.858 139.577 244.202V243.734L137.327 243.914C135.833 244.058 135.221 244.634 135.221 245.498C135.221 246.434 135.905 246.902 137.003 246.902ZM143.414 249.656V248.324H150.794V249.656H143.414ZM154.795 248H153.103V239.198H154.633L154.813 240.548C155.371 239.54 156.487 238.946 157.729 238.946C160.051 238.946 161.113 240.368 161.113 242.618V248H159.421V242.996C159.421 241.214 158.593 240.494 157.297 240.494C155.713 240.494 154.795 241.628 154.795 243.338V248ZM162.88 243.59C162.88 240.872 164.824 238.964 167.47 238.964C170.098 238.964 172.042 240.872 172.042 243.59C172.042 246.308 170.098 248.216 167.47 248.216C164.824 248.216 162.88 246.308 162.88 243.59ZM164.59 243.59C164.59 245.426 165.76 246.704 167.47 246.704C169.162 246.704 170.35 245.426 170.35 243.59C170.35 241.754 169.162 240.476 167.47 240.476C165.76 240.476 164.59 241.754 164.59 243.59ZM178.955 239.126V240.674H178.199C176.597 240.674 175.607 241.646 175.607 243.338V248H173.915V239.216H175.499L175.607 240.548C175.967 239.63 176.849 239.018 178.055 239.018C178.361 239.018 178.613 239.054 178.955 239.126ZM182.234 248H180.542V239.198H182.054L182.216 240.35C182.666 239.522 183.602 238.946 184.844 238.946C186.212 238.946 187.184 239.63 187.634 240.728C188.048 239.63 189.11 238.946 190.478 238.946C192.494 238.946 193.718 240.206 193.718 242.24V248H192.062V242.654C192.062 241.268 191.288 240.476 190.1 240.476C188.822 240.476 187.976 241.376 187.976 242.78V248H186.302V242.636C186.302 241.25 185.546 240.494 184.358 240.494C183.08 240.494 182.234 241.376 182.234 242.78V248ZM198.638 248.216C196.748 248.216 195.632 247.154 195.632 245.552C195.632 243.932 196.838 242.924 198.908 242.762L201.68 242.546V242.294C201.68 240.818 200.798 240.296 199.61 240.296C198.188 240.296 197.378 240.926 197.378 241.988H195.902C195.902 240.152 197.414 238.946 199.682 238.946C201.86 238.946 203.336 240.098 203.336 242.474V248H201.896L201.716 246.578C201.266 247.586 200.06 248.216 198.638 248.216ZM199.124 246.902C200.726 246.902 201.698 245.858 201.698 244.202V243.734L199.448 243.914C197.954 244.058 197.342 244.634 197.342 245.498C197.342 246.434 198.026 246.902 199.124 246.902ZM207.407 248H205.715V234.752H207.407V248ZM211.338 241.466C210.636 241.466 210.042 240.89 210.042 240.224C210.042 239.522 210.636 238.946 211.338 238.946C212.022 238.946 212.616 239.522 212.616 240.224C212.616 240.89 212.022 241.466 211.338 241.466ZM211.338 248.216C210.636 248.216 210.042 247.64 210.042 246.956C210.042 246.254 210.636 245.678 211.338 245.678C212.022 245.678 212.616 246.254 212.616 246.956C212.616 247.64 212.022 248.216 211.338 248.216ZM110.599 285.942V273.198H112.129L112.255 274.782C112.849 273.576 114.037 272.946 115.441 272.946C117.961 272.946 119.527 274.836 119.527 277.536C119.527 280.218 118.051 282.234 115.441 282.234C114.037 282.234 112.867 281.64 112.291 280.56V285.942H110.599ZM112.309 277.608C112.309 279.408 113.353 280.704 115.081 280.704C116.809 280.704 117.835 279.408 117.835 277.608C117.835 275.79 116.809 274.494 115.081 274.494C113.353 274.494 112.309 275.772 112.309 277.608ZM123.966 282.216C122.076 282.216 120.96 281.154 120.96 279.552C120.96 277.932 122.166 276.924 124.236 276.762L127.008 276.546V276.294C127.008 274.818 126.126 274.296 124.938 274.296C123.516 274.296 122.706 274.926 122.706 275.988H121.23C121.23 274.152 122.742 272.946 125.01 272.946C127.188 272.946 128.664 274.098 128.664 276.474V282H127.224L127.044 280.578C126.594 281.586 125.388 282.216 123.966 282.216ZM124.452 280.902C126.054 280.902 127.026 279.858 127.026 278.202V277.734L124.776 277.914C123.282 278.058 122.67 278.634 122.67 279.498C122.67 280.434 123.354 280.902 124.452 280.902ZM130.431 277.608C130.431 274.854 132.177 272.946 134.751 272.946C136.965 272.946 138.513 274.206 138.819 276.168H137.127C136.839 275.052 135.939 274.458 134.805 274.458C133.203 274.458 132.105 275.682 132.105 277.59C132.105 279.48 133.131 280.704 134.733 280.704C135.939 280.704 136.839 280.074 137.145 279.03H138.837C138.495 280.938 136.857 282.216 134.733 282.216C132.141 282.216 130.431 280.38 130.431 277.608ZM141.45 271.11C140.838 271.11 140.334 270.606 140.334 269.994C140.334 269.364 140.838 268.878 141.45 268.878C142.062 268.878 142.566 269.364 142.566 269.994C142.566 270.606 142.062 271.11 141.45 271.11ZM140.622 282V273.198H142.314V282H140.622ZM148.569 282.216C145.977 282.216 144.195 280.344 144.195 277.608C144.195 274.854 145.941 272.946 148.497 272.946C150.999 272.946 152.637 274.674 152.637 277.284V277.914L145.833 277.932C145.959 279.786 146.931 280.812 148.605 280.812C149.919 280.812 150.783 280.272 151.071 279.264H152.655C152.223 281.154 150.747 282.216 148.569 282.216ZM148.497 274.368C147.021 274.368 146.085 275.25 145.869 276.798H150.945C150.945 275.34 149.991 274.368 148.497 274.368ZM156.219 282H154.527V273.198H156.057L156.237 274.548C156.795 273.54 157.911 272.946 159.153 272.946C161.475 272.946 162.537 274.368 162.537 276.618V282H160.845V276.996C160.845 275.214 160.017 274.494 158.721 274.494C157.137 274.494 156.219 275.628 156.219 277.338V282ZM167.364 282H165.672V274.62H163.944V273.198H165.672V270.444H167.364V273.198H169.092V274.62H167.364V282ZM174.321 282.216C171.729 282.216 169.947 280.344 169.947 277.608C169.947 274.854 171.693 272.946 174.249 272.946C176.751 272.946 178.389 274.674 178.389 277.284V277.914L171.585 277.932C171.711 279.786 172.683 280.812 174.357 280.812C175.671 280.812 176.535 280.272 176.823 279.264H178.407C177.975 281.154 176.499 282.216 174.321 282.216ZM174.249 274.368C172.773 274.368 171.837 275.25 171.621 276.798H176.697C176.697 275.34 175.743 274.368 174.249 274.368ZM207.963 282V274.62H204.057V282H202.365V274.62H201.069V273.198H202.365V271.794C202.365 269.634 203.535 268.752 205.065 268.752C205.389 268.752 205.785 268.77 206.109 268.824V270.282H205.353C204.327 270.282 204.057 270.84 204.057 271.794V273.198H209.655V282H207.963ZM208.809 271.038C208.197 271.038 207.729 270.57 207.729 269.958C207.729 269.346 208.197 268.878 208.809 268.878C209.403 268.878 209.871 269.346 209.871 269.958C209.871 270.57 209.403 271.038 208.809 271.038ZM213.788 282H212.096V268.752H213.788V282ZM218.853 282.216C216.963 282.216 215.847 281.154 215.847 279.552C215.847 277.932 217.053 276.924 219.123 276.762L221.895 276.546V276.294C221.895 274.818 221.013 274.296 219.825 274.296C218.403 274.296 217.593 274.926 217.593 275.988H216.117C216.117 274.152 217.629 272.946 219.897 272.946C222.075 272.946 223.551 274.098 223.551 276.474V282H222.111L221.931 280.578C221.481 281.586 220.275 282.216 218.853 282.216ZM219.339 280.902C220.941 280.902 221.913 279.858 221.913 278.202V277.734L219.663 277.914C218.169 278.058 217.557 278.634 217.557 279.498C217.557 280.434 218.241 280.902 219.339 280.902ZM225.75 283.656V282.324H233.13V283.656H225.75ZM237.131 282H235.439V273.198H236.969L237.149 274.548C237.707 273.54 238.823 272.946 240.065 272.946C242.387 272.946 243.449 274.368 243.449 276.618V282H241.757V276.996C241.757 275.214 240.929 274.494 239.633 274.494C238.049 274.494 237.131 275.628 237.131 277.338V282ZM245.216 277.59C245.216 274.872 247.16 272.964 249.806 272.964C252.434 272.964 254.378 274.872 254.378 277.59C254.378 280.308 252.434 282.216 249.806 282.216C247.16 282.216 245.216 280.308 245.216 277.59ZM246.926 277.59C246.926 279.426 248.096 280.704 249.806 280.704C251.498 280.704 252.686 279.426 252.686 277.59C252.686 275.754 251.498 274.476 249.806 274.476C248.096 274.476 246.926 275.754 246.926 277.59ZM261.291 273.126V274.674H260.535C258.933 274.674 257.943 275.646 257.943 277.338V282H256.251V273.216H257.835L257.943 274.548C258.303 273.63 259.185 273.018 260.391 273.018C260.697 273.018 260.949 273.054 261.291 273.126ZM264.57 282H262.878V273.198H264.39L264.552 274.35C265.002 273.522 265.938 272.946 267.18 272.946C268.548 272.946 269.52 273.63 269.97 274.728C270.384 273.63 271.446 272.946 272.814 272.946C274.83 272.946 276.054 274.206 276.054 276.24V282H274.398V276.654C274.398 275.268 273.624 274.476 272.436 274.476C271.158 274.476 270.312 275.376 270.312 276.78V282H268.638V276.636C268.638 275.25 267.882 274.494 266.694 274.494C265.416 274.494 264.57 275.376 264.57 276.78V282ZM280.974 282.216C279.084 282.216 277.968 281.154 277.968 279.552C277.968 277.932 279.174 276.924 281.244 276.762L284.016 276.546V276.294C284.016 274.818 283.134 274.296 281.946 274.296C280.524 274.296 279.714 274.926 279.714 275.988H278.238C278.238 274.152 279.75 272.946 282.018 272.946C284.196 272.946 285.672 274.098 285.672 276.474V282H284.232L284.052 280.578C283.602 281.586 282.396 282.216 280.974 282.216ZM281.46 280.902C283.062 280.902 284.034 279.858 284.034 278.202V277.734L281.784 277.914C280.29 278.058 279.678 278.634 279.678 279.498C279.678 280.434 280.362 280.902 281.46 280.902ZM289.743 282H288.051V268.752H289.743V282ZM293.494 282.216C292.792 282.216 292.198 281.64 292.198 280.956C292.198 280.254 292.792 279.678 293.494 279.678C294.178 279.678 294.772 280.254 294.772 280.956C294.772 281.64 294.178 282.216 293.494 282.216ZM272.212 319.942V307.198H273.742L273.868 308.782C274.462 307.576 275.65 306.946 277.054 306.946C279.574 306.946 281.14 308.836 281.14 311.536C281.14 314.218 279.664 316.234 277.054 316.234C275.65 316.234 274.48 315.64 273.904 314.56V319.942H272.212ZM273.922 311.608C273.922 313.408 274.966 314.704 276.694 314.704C278.422 314.704 279.448 313.408 279.448 311.608C279.448 309.79 278.422 308.494 276.694 308.494C274.966 308.494 273.922 309.772 273.922 311.608ZM285.579 316.216C283.689 316.216 282.573 315.154 282.573 313.552C282.573 311.932 283.779 310.924 285.849 310.762L288.621 310.546V310.294C288.621 308.818 287.739 308.296 286.551 308.296C285.129 308.296 284.319 308.926 284.319 309.988H282.843C282.843 308.152 284.355 306.946 286.623 306.946C288.801 306.946 290.277 308.098 290.277 310.474V316H288.837L288.657 314.578C288.207 315.586 287.001 316.216 285.579 316.216ZM286.065 314.902C287.667 314.902 288.639 313.858 288.639 312.202V311.734L286.389 311.914C284.895 312.058 284.283 312.634 284.283 313.498C284.283 314.434 284.967 314.902 286.065 314.902ZM292.044 311.608C292.044 308.854 293.79 306.946 296.364 306.946C298.578 306.946 300.126 308.206 300.432 310.168H298.74C298.452 309.052 297.552 308.458 296.418 308.458C294.816 308.458 293.718 309.682 293.718 311.59C293.718 313.48 294.744 314.704 296.346 314.704C297.552 314.704 298.452 314.074 298.758 313.03H300.45C300.108 314.938 298.47 316.216 296.346 316.216C293.754 316.216 292.044 314.38 292.044 311.608ZM303.064 305.11C302.452 305.11 301.948 304.606 301.948 303.994C301.948 303.364 302.452 302.878 303.064 302.878C303.676 302.878 304.18 303.364 304.18 303.994C304.18 304.606 303.676 305.11 303.064 305.11ZM302.236 316V307.198H303.928V316H302.236ZM310.182 316.216C307.59 316.216 305.808 314.344 305.808 311.608C305.808 308.854 307.554 306.946 310.11 306.946C312.612 306.946 314.25 308.674 314.25 311.284V311.914L307.446 311.932C307.572 313.786 308.544 314.812 310.218 314.812C311.532 314.812 312.396 314.272 312.684 313.264H314.268C313.836 315.154 312.36 316.216 310.182 316.216ZM310.11 308.368C308.634 308.368 307.698 309.25 307.482 310.798H312.558C312.558 309.34 311.604 308.368 310.11 308.368ZM317.832 316H316.14V307.198H317.67L317.85 308.548C318.408 307.54 319.524 306.946 320.766 306.946C323.088 306.946 324.15 308.368 324.15 310.618V316H322.458V310.996C322.458 309.214 321.63 308.494 320.334 308.494C318.75 308.494 317.832 309.628 317.832 311.338V316ZM328.978 316H327.286V308.62H325.558V307.198H327.286V304.444H328.978V307.198H330.706V308.62H328.978V316ZM335.934 316.216C333.342 316.216 331.56 314.344 331.56 311.608C331.56 308.854 333.306 306.946 335.862 306.946C338.364 306.946 340.002 308.674 340.002 311.284V311.914L333.198 311.932C333.324 313.786 334.296 314.812 335.97 314.812C337.284 314.812 338.148 314.272 338.436 313.264H340.02C339.588 315.154 338.112 316.216 335.934 316.216ZM335.862 308.368C334.386 308.368 333.45 309.25 333.234 310.798H338.31C338.31 309.34 337.356 308.368 335.862 308.368ZM124.15 343.466C123.448 343.466 122.854 342.89 122.854 342.224C122.854 341.522 123.448 340.946 124.15 340.946C124.834 340.946 125.428 341.522 125.428 342.224C125.428 342.89 124.834 343.466 124.15 343.466ZM124.15 350.216C123.448 350.216 122.854 349.64 122.854 348.956C122.854 348.254 123.448 347.678 124.15 347.678C124.834 347.678 125.428 348.254 125.428 348.956C125.428 349.64 124.834 350.216 124.15 350.216Z" fill="white"/>
<path d="M91.7395 135.11C91.1275 135.11 90.6235 134.606 90.6235 133.994C90.6235 133.364 91.1275 132.878 91.7395 132.878C92.3515 132.878 92.8555 133.364 92.8555 133.994C92.8555 134.606 92.3515 135.11 91.7395 135.11ZM90.9115 146V137.198H92.6035V146H90.9115ZM94.1239 137.198H95.4199V135.794C95.4199 133.634 96.6079 132.752 98.2099 132.752C98.5339 132.752 98.9119 132.77 99.2539 132.824V134.282H98.4979C97.3999 134.282 97.1119 134.84 97.1119 135.794V137.198H99.1999V138.62H97.1119V146H95.4199V138.62H94.1239V137.198ZM185.417 172.008H194.417V173.466H185.417V172.008ZM185.417 175.788H194.417V177.246H185.417V175.788ZM266.068 208.114V206.728C267.292 206.728 267.76 206.188 267.76 205.306V201.418C267.76 200.266 268.552 199.492 269.794 199.492H270.892V200.842H270.046C269.578 200.842 269.29 201.148 269.29 201.652V205.468C269.29 206.512 268.894 207.124 267.958 207.412C268.894 207.718 269.29 208.348 269.29 209.374V213.19C269.29 213.712 269.578 214.018 270.046 214.018H270.892V215.35H269.794C268.552 215.35 267.76 214.594 267.76 213.442V209.536C267.76 208.672 267.292 208.114 266.068 208.114ZM406.772 215.35H405.656V214.018H406.502C406.97 214.018 407.258 213.712 407.258 213.19V209.374C407.258 208.348 407.672 207.718 408.608 207.412C407.672 207.124 407.258 206.512 407.258 205.468V201.652C407.258 201.148 406.97 200.842 406.502 200.842H405.656V199.492H406.772C408.014 199.492 408.806 200.266 408.806 201.418V205.306C408.806 206.188 409.274 206.728 410.48 206.728V208.114C409.274 208.114 408.806 208.672 408.806 209.536V213.442C408.806 214.594 408.014 215.35 406.772 215.35ZM94.7095 248.216C92.1175 248.216 90.3355 246.344 90.3355 243.608C90.3355 240.854 92.0815 238.946 94.6375 238.946C97.1395 238.946 98.7775 240.674 98.7775 243.284V243.914L91.9735 243.932C92.0995 245.786 93.0715 246.812 94.7455 246.812C96.0595 246.812 96.9235 246.272 97.2115 245.264H98.7955C98.3635 247.154 96.8875 248.216 94.7095 248.216ZM94.6375 240.368C93.1615 240.368 92.2255 241.25 92.0095 242.798H97.0855C97.0855 241.34 96.1315 240.368 94.6375 240.368ZM102.395 248H100.703V234.752H102.395V248ZM105.714 237.11C105.102 237.11 104.598 236.606 104.598 235.994C104.598 235.364 105.102 234.878 105.714 234.878C106.326 234.878 106.83 235.364 106.83 235.994C106.83 236.606 106.326 237.11 105.714 237.11ZM104.886 248V239.198H106.578V248H104.886ZM108.099 239.198H109.395V237.794C109.395 235.634 110.583 234.752 112.185 234.752C112.509 234.752 112.887 234.77 113.229 234.824V236.282H112.473C111.375 236.282 111.087 236.84 111.087 237.794V239.198H113.175V240.62H111.087V248H109.395V240.62H108.099V239.198ZM185.417 274.008H194.417V275.466H185.417V274.008ZM185.417 277.788H194.417V279.246H185.417V277.788ZM266.068 310.114V308.728C267.292 308.728 267.76 308.188 267.76 307.306V303.418C267.76 302.266 268.552 301.492 269.794 301.492H270.892V302.842H270.046C269.578 302.842 269.29 303.148 269.29 303.652V307.468C269.29 308.512 268.894 309.124 267.958 309.412C268.894 309.718 269.29 310.348 269.29 311.374V315.19C269.29 315.712 269.578 316.018 270.046 316.018H270.892V317.35H269.794C268.552 317.35 267.76 316.594 267.76 315.442V311.536C267.76 310.672 267.292 310.114 266.068 310.114ZM406.772 317.35H405.656V316.018H406.502C406.97 316.018 407.258 315.712 407.258 315.19V311.374C407.258 310.348 407.672 309.718 408.608 309.412C407.672 309.124 407.258 308.512 407.258 307.468V303.652C407.258 303.148 406.97 302.842 406.502 302.842H405.656V301.492H406.772C408.014 301.492 408.806 302.266 408.806 303.418V307.306C408.806 308.188 409.274 308.728 410.48 308.728V310.114C409.274 310.114 408.806 310.672 408.806 311.536V315.442C408.806 316.594 408.014 317.35 406.772 317.35ZM94.7095 350.216C92.1175 350.216 90.3355 348.344 90.3355 345.608C90.3355 342.854 92.0815 340.946 94.6375 340.946C97.1395 340.946 98.7775 342.674 98.7775 345.284V345.914L91.9735 345.932C92.0995 347.786 93.0715 348.812 94.7455 348.812C96.0595 348.812 96.9235 348.272 97.2115 347.264H98.7955C98.3635 349.154 96.8875 350.216 94.7095 350.216ZM94.6375 342.368C93.1615 342.368 92.2255 343.25 92.0095 344.798H97.0855C97.0855 343.34 96.1315 342.368 94.6375 342.368ZM102.395 350H100.703V336.752H102.395V350ZM104.166 347.444H105.786C105.786 348.344 106.47 348.884 107.586 348.884C108.774 348.884 109.458 348.398 109.458 347.588C109.458 346.994 109.17 346.634 108.252 346.4L106.704 346.04C105.138 345.662 104.4 344.888 104.4 343.592C104.4 341.972 105.768 340.946 107.712 340.946C109.638 340.946 110.898 342.026 110.934 343.7H109.314C109.278 342.818 108.684 342.26 107.658 342.26C106.596 342.26 106.002 342.728 106.002 343.538C106.002 344.132 106.434 344.528 107.298 344.744L108.846 345.122C110.34 345.482 111.078 346.166 111.078 347.48C111.078 349.154 109.638 350.216 107.55 350.216C105.48 350.216 104.166 349.118 104.166 347.444ZM116.752 350.216C114.16 350.216 112.378 348.344 112.378 345.608C112.378 342.854 114.124 340.946 116.68 340.946C119.182 340.946 120.82 342.674 120.82 345.284V345.914L114.016 345.932C114.142 347.786 115.114 348.812 116.788 348.812C118.102 348.812 118.966 348.272 119.254 347.264H120.838C120.406 349.154 118.93 350.216 116.752 350.216ZM116.68 342.368C115.204 342.368 114.268 343.25 114.052 344.798H119.128C119.128 343.34 118.174 342.368 116.68 342.368ZM115.639 409.126V410.674H114.883C113.281 410.674 112.291 411.646 112.291 413.338V418H110.599V409.216H112.183L112.291 410.548C112.651 409.63 113.533 409.018 114.739 409.018C115.045 409.018 115.297 409.054 115.639 409.126ZM120.708 418.216C118.116 418.216 116.334 416.344 116.334 413.608C116.334 410.854 118.08 408.946 120.636 408.946C123.138 408.946 124.776 410.674 124.776 413.284V413.914L117.972 413.932C118.098 415.786 119.07 416.812 120.744 416.812C122.058 416.812 122.922 416.272 123.21 415.264H124.794C124.362 417.154 122.886 418.216 120.708 418.216ZM120.636 410.368C119.16 410.368 118.224 411.25 118.008 412.798H123.084C123.084 411.34 122.13 410.368 120.636 410.368ZM129.062 418H127.37V410.62H125.642V409.198H127.37V406.444H129.062V409.198H130.79V410.62H129.062V418ZM138.392 409.198H140.066V418H138.554L138.374 416.668C137.87 417.586 136.7 418.216 135.404 418.216C133.352 418.216 132.2 416.83 132.2 414.67V409.198H133.892V414.112C133.892 416.002 134.702 416.722 135.998 416.722C137.546 416.722 138.392 415.732 138.392 413.842V409.198ZM147.561 409.126V410.674H146.805C145.203 410.674 144.213 411.646 144.213 413.338V418H142.521V409.216H144.105L144.213 410.548C144.573 409.63 145.455 409.018 146.661 409.018C146.967 409.018 147.219 409.054 147.561 409.126ZM150.84 418H149.148V409.198H150.678L150.858 410.548C151.416 409.54 152.532 408.946 153.774 408.946C156.096 408.946 157.158 410.368 157.158 412.618V418H155.466V412.996C155.466 411.214 154.638 410.494 153.342 410.494C151.758 410.494 150.84 411.628 150.84 413.338V418Z" fill="#0088FF"/>
<path d="M161.296 202.084L160.864 205.81H159.892L159.424 202.084C159.316 201.274 159.874 200.932 160.396 200.932C160.846 200.932 161.404 201.274 161.296 202.084ZM164.248 202.084L163.816 205.81H162.844L162.376 202.084C162.268 201.274 162.826 200.932 163.348 200.932C163.798 200.932 164.356 201.274 164.248 202.084ZM171.922 214.198C168.214 214.198 165.748 211.534 165.748 207.502C165.748 203.488 168.286 200.77 172.012 200.77C174.946 200.77 177.196 202.516 177.682 205.18H175.792C175.306 203.488 173.848 202.462 171.958 202.462C169.33 202.462 167.602 204.442 167.602 207.484C167.602 210.526 169.33 212.506 171.958 212.506C173.866 212.506 175.378 211.48 175.864 209.878H177.736C177.178 212.47 174.856 214.198 171.922 214.198ZM181.215 213.982H179.523V200.752H181.215V206.548C181.773 205.594 182.835 204.946 184.203 204.946C186.453 204.946 187.533 206.368 187.533 208.618V214H185.841V208.996C185.841 207.214 184.995 206.494 183.735 206.494C182.097 206.494 181.215 207.682 181.215 209.194V213.982ZM192.45 214.216C190.56 214.216 189.444 213.154 189.444 211.552C189.444 209.932 190.65 208.924 192.72 208.762L195.492 208.546V208.294C195.492 206.818 194.61 206.296 193.422 206.296C192 206.296 191.19 206.926 191.19 207.988H189.714C189.714 206.152 191.226 204.946 193.494 204.946C195.672 204.946 197.148 206.098 197.148 208.474V214H195.708L195.528 212.578C195.078 213.586 193.872 214.216 192.45 214.216ZM192.936 212.902C194.538 212.902 195.51 211.858 195.51 210.202V209.734L193.26 209.914C191.766 210.058 191.154 210.634 191.154 211.498C191.154 212.434 191.838 212.902 192.936 212.902ZM201.184 214H199.492V205.198H201.004L201.166 206.35C201.616 205.522 202.552 204.946 203.794 204.946C205.162 204.946 206.134 205.63 206.584 206.728C206.998 205.63 208.06 204.946 209.428 204.946C211.444 204.946 212.668 206.206 212.668 208.24V214H211.012V208.654C211.012 207.268 210.238 206.476 209.05 206.476C207.772 206.476 206.926 207.376 206.926 208.78V214H205.252V208.636C205.252 207.25 204.496 206.494 203.308 206.494C202.03 206.494 201.184 207.376 201.184 208.78V214ZM217.587 214.216C215.697 214.216 214.581 213.154 214.581 211.552C214.581 209.932 215.787 208.924 217.857 208.762L220.629 208.546V208.294C220.629 206.818 219.747 206.296 218.559 206.296C217.137 206.296 216.327 206.926 216.327 207.988H214.851C214.851 206.152 216.363 204.946 218.631 204.946C220.809 204.946 222.285 206.098 222.285 208.474V214H220.845L220.665 212.578C220.215 213.586 219.009 214.216 217.587 214.216ZM218.073 212.902C219.675 212.902 220.647 211.858 220.647 210.202V209.734L218.397 209.914C216.903 210.058 216.291 210.634 216.291 211.498C216.291 212.434 216.975 212.902 218.073 212.902ZM226.32 214H224.628V205.198H226.158L226.338 206.548C226.896 205.54 228.012 204.946 229.254 204.946C231.576 204.946 232.638 206.368 232.638 208.618V214H230.946V208.996C230.946 207.214 230.118 206.494 228.822 206.494C227.238 206.494 226.32 207.628 226.32 209.338V214ZM238.51 214.216C235.954 214.216 234.406 212.308 234.406 209.626C234.406 206.926 235.972 204.946 238.582 204.946C239.932 204.946 241.066 205.54 241.66 206.62V200.752H243.334V214H241.822L241.678 212.398C241.102 213.604 239.914 214.216 238.51 214.216ZM238.852 212.686C240.58 212.686 241.642 211.408 241.642 209.572C241.642 207.772 240.58 206.476 238.852 206.476C237.124 206.476 236.116 207.772 236.116 209.572C236.116 211.39 237.124 212.686 238.852 212.686ZM245.199 209.59C245.199 206.872 247.143 204.964 249.789 204.964C252.417 204.964 254.361 206.872 254.361 209.59C254.361 212.308 252.417 214.216 249.789 214.216C247.143 214.216 245.199 212.308 245.199 209.59ZM246.909 209.59C246.909 211.426 248.079 212.704 249.789 212.704C251.481 212.704 252.669 211.426 252.669 209.59C252.669 207.754 251.481 206.476 249.789 206.476C248.079 206.476 246.909 207.754 246.909 209.59ZM257.674 207.466C256.972 207.466 256.378 206.89 256.378 206.224C256.378 205.522 256.972 204.946 257.674 204.946C258.358 204.946 258.952 205.522 258.952 206.224C258.952 206.89 258.358 207.466 257.674 207.466ZM257.674 214.216C256.972 214.216 256.378 213.64 256.378 212.956C256.378 212.254 256.972 211.678 257.674 211.678C258.358 211.678 258.952 212.254 258.952 212.956C258.952 213.64 258.358 214.216 257.674 214.216ZM349.224 202.084L348.792 205.81H347.82L347.352 202.084C347.244 201.274 347.802 200.932 348.324 200.932C348.774 200.932 349.332 201.274 349.224 202.084ZM353.076 214H351.384V205.198H352.914L353.094 206.548C353.652 205.54 354.768 204.946 356.01 204.946C358.332 204.946 359.394 206.368 359.394 208.618V214H357.702V208.996C357.702 207.214 356.874 206.494 355.578 206.494C353.994 206.494 353.076 207.628 353.076 209.338V214ZM361.162 209.59C361.162 206.872 363.106 204.964 365.752 204.964C368.38 204.964 370.324 206.872 370.324 209.59C370.324 212.308 368.38 214.216 365.752 214.216C363.106 214.216 361.162 212.308 361.162 209.59ZM362.872 209.59C362.872 211.426 364.042 212.704 365.752 212.704C367.444 212.704 368.632 211.426 368.632 209.59C368.632 207.754 367.444 206.476 365.752 206.476C364.042 206.476 362.872 207.754 362.872 209.59ZM373.889 214H372.197V205.198H373.709L373.871 206.35C374.321 205.522 375.257 204.946 376.499 204.946C377.867 204.946 378.839 205.63 379.289 206.728C379.703 205.63 380.765 204.946 382.133 204.946C384.149 204.946 385.373 206.206 385.373 208.24V214H383.717V208.654C383.717 207.268 382.943 206.476 381.755 206.476C380.477 206.476 379.631 207.376 379.631 208.78V214H377.957V208.636C377.957 207.25 377.201 206.494 376.013 206.494C374.735 206.494 373.889 207.376 373.889 208.78V214ZM391.516 214.216C388.924 214.216 387.142 212.344 387.142 209.608C387.142 206.854 388.888 204.946 391.444 204.946C393.946 204.946 395.584 206.674 395.584 209.284V209.914L388.78 209.932C388.906 211.786 389.878 212.812 391.552 212.812C392.866 212.812 393.73 212.272 394.018 211.264H395.602C395.17 213.154 393.694 214.216 391.516 214.216ZM391.444 206.368C389.968 206.368 389.032 207.25 388.816 208.798H393.892C393.892 207.34 392.938 206.368 391.444 206.368ZM398.882 202.084L398.45 205.81H397.478L397.01 202.084C396.902 201.274 397.46 200.932 397.982 200.932C398.432 200.932 398.99 201.274 398.882 202.084ZM421.241 217.114H419.837C418.181 215.044 417.083 211.912 417.083 208.654C417.083 205.594 418.073 202.39 419.837 200.212H421.241C419.819 202.192 418.811 205.288 418.811 208.654C418.811 211.84 419.711 215.008 421.241 217.114ZM427.816 209.356H424.522V214H422.758V200.986H427.816C430.372 200.986 432.01 202.66 432.01 205.162C432.01 207.592 430.354 209.356 427.816 209.356ZM427.51 202.57H424.522V207.772H427.438C429.184 207.772 430.156 206.746 430.156 205.144C430.156 203.506 429.166 202.57 427.51 202.57ZM438.76 205.126V206.674H438.004C436.402 206.674 435.412 207.646 435.412 209.338V214H433.72V205.216H435.304L435.412 206.548C435.772 205.63 436.654 205.018 437.86 205.018C438.166 205.018 438.418 205.054 438.76 205.126ZM443.829 214.216C441.237 214.216 439.455 212.344 439.455 209.608C439.455 206.854 441.201 204.946 443.757 204.946C446.259 204.946 447.897 206.674 447.897 209.284V209.914L441.093 209.932C441.219 211.786 442.191 212.812 443.865 212.812C445.179 212.812 446.043 212.272 446.331 211.264H447.915C447.483 213.154 446.007 214.216 443.829 214.216ZM443.757 206.368C442.281 206.368 441.345 207.25 441.129 208.798H446.205C446.205 207.34 445.251 206.368 443.757 206.368ZM448.851 205.198H450.147V203.794C450.147 201.634 451.335 200.752 452.937 200.752C453.261 200.752 453.639 200.77 453.981 200.824V202.282H453.225C452.127 202.282 451.839 202.84 451.839 203.794V205.198H453.927V206.62H451.839V214H450.147V206.62H448.851V205.198ZM459.034 214.216C456.442 214.216 454.66 212.344 454.66 209.608C454.66 206.854 456.406 204.946 458.962 204.946C461.464 204.946 463.102 206.674 463.102 209.284V209.914L456.298 209.932C456.424 211.786 457.396 212.812 459.07 212.812C460.384 212.812 461.248 212.272 461.536 211.264H463.12C462.688 213.154 461.212 214.216 459.034 214.216ZM458.962 206.368C457.486 206.368 456.55 207.25 456.334 208.798H461.41C461.41 207.34 460.456 206.368 458.962 206.368ZM470.032 205.126V206.674H469.276C467.674 206.674 466.684 207.646 466.684 209.338V214H464.992V205.216H466.576L466.684 206.548C467.044 205.63 467.926 205.018 469.132 205.018C469.438 205.018 469.69 205.054 470.032 205.126ZM475.1 214.216C472.508 214.216 470.726 212.344 470.726 209.608C470.726 206.854 472.472 204.946 475.028 204.946C477.53 204.946 479.168 206.674 479.168 209.284V209.914L472.364 209.932C472.49 211.786 473.462 212.812 475.136 212.812C476.45 212.812 477.314 212.272 477.602 211.264H479.186C478.754 213.154 477.278 214.216 475.1 214.216ZM475.028 206.368C473.552 206.368 472.616 207.25 472.4 208.798H477.476C477.476 207.34 476.522 206.368 475.028 206.368ZM482.75 214H481.058V205.198H482.588L482.768 206.548C483.326 205.54 484.442 204.946 485.684 204.946C488.006 204.946 489.068 206.368 489.068 208.618V214H487.376V208.996C487.376 207.214 486.548 206.494 485.252 206.494C483.668 206.494 482.75 207.628 482.75 209.338V214ZM490.836 209.608C490.836 206.854 492.582 204.946 495.156 204.946C497.37 204.946 498.918 206.206 499.224 208.168H497.532C497.244 207.052 496.344 206.458 495.21 206.458C493.608 206.458 492.51 207.682 492.51 209.59C492.51 211.48 493.536 212.704 495.138 212.704C496.344 212.704 497.244 212.074 497.55 211.03H499.242C498.9 212.938 497.262 214.216 495.138 214.216C492.546 214.216 490.836 212.38 490.836 209.608ZM501.855 203.11C501.243 203.11 500.739 202.606 500.739 201.994C500.739 201.364 501.243 200.878 501.855 200.878C502.467 200.878 502.971 201.364 502.971 201.994C502.971 202.606 502.467 203.11 501.855 203.11ZM501.027 214V205.198H502.719V214H501.027ZM507.749 214.216C505.859 214.216 504.743 213.154 504.743 211.552C504.743 209.932 505.949 208.924 508.019 208.762L510.791 208.546V208.294C510.791 206.818 509.909 206.296 508.721 206.296C507.299 206.296 506.489 206.926 506.489 207.988H505.013C505.013 206.152 506.525 204.946 508.793 204.946C510.971 204.946 512.447 206.098 512.447 208.474V214H511.007L510.827 212.578C510.377 213.586 509.171 214.216 507.749 214.216ZM508.235 212.902C509.837 212.902 510.809 211.858 510.809 210.202V209.734L508.559 209.914C507.065 210.058 506.453 210.634 506.453 211.498C506.453 212.434 507.137 212.902 508.235 212.902ZM516.518 214H514.826V200.752H516.518V214ZM519.207 217.114H517.785C519.315 215.008 520.215 211.84 520.215 208.654C520.215 205.288 519.225 202.192 517.785 200.212H519.207C520.953 202.39 521.943 205.594 521.943 208.654C521.943 211.912 520.845 215.044 519.207 217.114ZM525.621 202.084L525.188 205.81H524.217L523.749 202.084C523.641 201.274 524.199 200.932 524.721 200.932C525.171 200.932 525.729 201.274 525.621 202.084ZM528.573 202.084L528.141 205.81H527.169L526.701 202.084C526.593 201.274 527.151 200.932 527.673 200.932C528.123 200.932 528.681 201.274 528.573 202.084ZM161.296 304.084L160.864 307.81H159.892L159.424 304.084C159.316 303.274 159.874 302.932 160.396 302.932C160.846 302.932 161.404 303.274 161.296 304.084ZM164.248 304.084L163.816 307.81H162.844L162.376 304.084C162.268 303.274 162.826 302.932 163.348 302.932C163.798 302.932 164.356 303.274 164.248 304.084ZM171.922 316.198C168.214 316.198 165.748 313.534 165.748 309.502C165.748 305.488 168.286 302.77 172.012 302.77C174.946 302.77 177.196 304.516 177.682 307.18H175.792C175.306 305.488 173.848 304.462 171.958 304.462C169.33 304.462 167.602 306.442 167.602 309.484C167.602 312.526 169.33 314.506 171.958 314.506C173.866 314.506 175.378 313.48 175.864 311.878H177.736C177.178 314.47 174.856 316.198 171.922 316.198ZM181.215 315.982H179.523V302.752H181.215V308.548C181.773 307.594 182.835 306.946 184.203 306.946C186.453 306.946 187.533 308.368 187.533 310.618V316H185.841V310.996C185.841 309.214 184.995 308.494 183.735 308.494C182.097 308.494 181.215 309.682 181.215 311.194V315.982ZM192.45 316.216C190.56 316.216 189.444 315.154 189.444 313.552C189.444 311.932 190.65 310.924 192.72 310.762L195.492 310.546V310.294C195.492 308.818 194.61 308.296 193.422 308.296C192 308.296 191.19 308.926 191.19 309.988H189.714C189.714 308.152 191.226 306.946 193.494 306.946C195.672 306.946 197.148 308.098 197.148 310.474V316H195.708L195.528 314.578C195.078 315.586 193.872 316.216 192.45 316.216ZM192.936 314.902C194.538 314.902 195.51 313.858 195.51 312.202V311.734L193.26 311.914C191.766 312.058 191.154 312.634 191.154 313.498C191.154 314.434 191.838 314.902 192.936 314.902ZM201.184 316H199.492V307.198H201.004L201.166 308.35C201.616 307.522 202.552 306.946 203.794 306.946C205.162 306.946 206.134 307.63 206.584 308.728C206.998 307.63 208.06 306.946 209.428 306.946C211.444 306.946 212.668 308.206 212.668 310.24V316H211.012V310.654C211.012 309.268 210.238 308.476 209.05 308.476C207.772 308.476 206.926 309.376 206.926 310.78V316H205.252V310.636C205.252 309.25 204.496 308.494 203.308 308.494C202.03 308.494 201.184 309.376 201.184 310.78V316ZM217.587 316.216C215.697 316.216 214.581 315.154 214.581 313.552C214.581 311.932 215.787 310.924 217.857 310.762L220.629 310.546V310.294C220.629 308.818 219.747 308.296 218.559 308.296C217.137 308.296 216.327 308.926 216.327 309.988H214.851C214.851 308.152 216.363 306.946 218.631 306.946C220.809 306.946 222.285 308.098 222.285 310.474V316H220.845L220.665 314.578C220.215 315.586 219.009 316.216 217.587 316.216ZM218.073 314.902C219.675 314.902 220.647 313.858 220.647 312.202V311.734L218.397 311.914C216.903 312.058 216.291 312.634 216.291 313.498C216.291 314.434 216.975 314.902 218.073 314.902ZM226.32 316H224.628V307.198H226.158L226.338 308.548C226.896 307.54 228.012 306.946 229.254 306.946C231.576 306.946 232.638 308.368 232.638 310.618V316H230.946V310.996C230.946 309.214 230.118 308.494 228.822 308.494C227.238 308.494 226.32 309.628 226.32 311.338V316ZM238.51 316.216C235.954 316.216 234.406 314.308 234.406 311.626C234.406 308.926 235.972 306.946 238.582 306.946C239.932 306.946 241.066 307.54 241.66 308.62V302.752H243.334V316H241.822L241.678 314.398C241.102 315.604 239.914 316.216 238.51 316.216ZM238.852 314.686C240.58 314.686 241.642 313.408 241.642 311.572C241.642 309.772 240.58 308.476 238.852 308.476C237.124 308.476 236.116 309.772 236.116 311.572C236.116 313.39 237.124 314.686 238.852 314.686ZM245.199 311.59C245.199 308.872 247.143 306.964 249.789 306.964C252.417 306.964 254.361 308.872 254.361 311.59C254.361 314.308 252.417 316.216 249.789 316.216C247.143 316.216 245.199 314.308 245.199 311.59ZM246.909 311.59C246.909 313.426 248.079 314.704 249.789 314.704C251.481 314.704 252.669 313.426 252.669 311.59C252.669 309.754 251.481 308.476 249.789 308.476C248.079 308.476 246.909 309.754 246.909 311.59ZM257.674 309.466C256.972 309.466 256.378 308.89 256.378 308.224C256.378 307.522 256.972 306.946 257.674 306.946C258.358 306.946 258.952 307.522 258.952 308.224C258.952 308.89 258.358 309.466 257.674 309.466ZM257.674 316.216C256.972 316.216 256.378 315.64 256.378 314.956C256.378 314.254 256.972 313.678 257.674 313.678C258.358 313.678 258.952 314.254 258.952 314.956C258.952 315.64 258.358 316.216 257.674 316.216ZM349.224 304.084L348.792 307.81H347.82L347.352 304.084C347.244 303.274 347.802 302.932 348.324 302.932C348.774 302.932 349.332 303.274 349.224 304.084ZM353.076 316H351.384V307.198H352.914L353.094 308.548C353.652 307.54 354.768 306.946 356.01 306.946C358.332 306.946 359.394 308.368 359.394 310.618V316H357.702V310.996C357.702 309.214 356.874 308.494 355.578 308.494C353.994 308.494 353.076 309.628 353.076 311.338V316ZM361.162 311.59C361.162 308.872 363.106 306.964 365.752 306.964C368.38 306.964 370.324 308.872 370.324 311.59C370.324 314.308 368.38 316.216 365.752 316.216C363.106 316.216 361.162 314.308 361.162 311.59ZM362.872 311.59C362.872 313.426 364.042 314.704 365.752 314.704C367.444 314.704 368.632 313.426 368.632 311.59C368.632 309.754 367.444 308.476 365.752 308.476C364.042 308.476 362.872 309.754 362.872 311.59ZM373.889 316H372.197V307.198H373.709L373.871 308.35C374.321 307.522 375.257 306.946 376.499 306.946C377.867 306.946 378.839 307.63 379.289 308.728C379.703 307.63 380.765 306.946 382.133 306.946C384.149 306.946 385.373 308.206 385.373 310.24V316H383.717V310.654C383.717 309.268 382.943 308.476 381.755 308.476C380.477 308.476 379.631 309.376 379.631 310.78V316H377.957V310.636C377.957 309.25 377.201 308.494 376.013 308.494C374.735 308.494 373.889 309.376 373.889 310.78V316ZM391.516 316.216C388.924 316.216 387.142 314.344 387.142 311.608C387.142 308.854 388.888 306.946 391.444 306.946C393.946 306.946 395.584 308.674 395.584 311.284V311.914L388.78 311.932C388.906 313.786 389.878 314.812 391.552 314.812C392.866 314.812 393.73 314.272 394.018 313.264H395.602C395.17 315.154 393.694 316.216 391.516 316.216ZM391.444 308.368C389.968 308.368 389.032 309.25 388.816 310.798H393.892C393.892 309.34 392.938 308.368 391.444 308.368ZM398.882 304.084L398.45 307.81H397.478L397.01 304.084C396.902 303.274 397.46 302.932 397.982 302.932C398.432 302.932 398.99 303.274 398.882 304.084ZM421.241 319.114H419.837C418.181 317.044 417.083 313.912 417.083 310.654C417.083 307.594 418.073 304.39 419.837 302.212H421.241C419.819 304.192 418.811 307.288 418.811 310.654C418.811 313.84 419.711 317.008 421.241 319.114ZM424.522 316H422.758V302.986H424.522L431.182 313.048V302.986H432.946V316H431.182L424.522 305.938V316ZM435.113 311.59C435.113 308.872 437.057 306.964 439.703 306.964C442.331 306.964 444.275 308.872 444.275 311.59C444.275 314.308 442.331 316.216 439.703 316.216C437.057 316.216 435.113 314.308 435.113 311.59ZM436.823 311.59C436.823 313.426 437.993 314.704 439.703 314.704C441.395 314.704 442.583 313.426 442.583 311.59C442.583 309.754 441.395 308.476 439.703 308.476C437.993 308.476 436.823 309.754 436.823 311.59ZM451.188 307.126V308.674H450.432C448.83 308.674 447.84 309.646 447.84 311.338V316H446.148V307.216H447.732L447.84 308.548C448.2 307.63 449.082 307.018 450.288 307.018C450.594 307.018 450.846 307.054 451.188 307.126ZM454.467 316H452.775V307.198H454.287L454.449 308.35C454.899 307.522 455.835 306.946 457.077 306.946C458.445 306.946 459.417 307.63 459.867 308.728C460.281 307.63 461.343 306.946 462.711 306.946C464.727 306.946 465.951 308.206 465.951 310.24V316H464.295V310.654C464.295 309.268 463.521 308.476 462.333 308.476C461.055 308.476 460.209 309.376 460.209 310.78V316H458.535V310.636C458.535 309.25 457.779 308.494 456.591 308.494C455.313 308.494 454.467 309.376 454.467 310.78V316ZM470.87 316.216C468.98 316.216 467.864 315.154 467.864 313.552C467.864 311.932 469.07 310.924 471.14 310.762L473.912 310.546V310.294C473.912 308.818 473.03 308.296 471.842 308.296C470.42 308.296 469.61 308.926 469.61 309.988H468.134C468.134 308.152 469.646 306.946 471.914 306.946C474.092 306.946 475.568 308.098 475.568 310.474V316H474.128L473.948 314.578C473.498 315.586 472.292 316.216 470.87 316.216ZM471.356 314.902C472.958 314.902 473.93 313.858 473.93 312.202V311.734L471.68 311.914C470.186 312.058 469.574 312.634 469.574 313.498C469.574 314.434 470.258 314.902 471.356 314.902ZM479.64 316H477.948V302.752H479.64V316ZM482.328 319.114H480.906C482.436 317.008 483.336 313.84 483.336 310.654C483.336 307.288 482.346 304.192 480.906 302.212H482.328C484.074 304.39 485.064 307.594 485.064 310.654C485.064 313.912 483.966 317.044 482.328 319.114ZM488.742 304.084L488.31 307.81H487.338L486.87 304.084C486.762 303.274 487.32 302.932 487.842 302.932C488.292 302.932 488.85 303.274 488.742 304.084ZM491.694 304.084L491.262 307.81H490.29L489.822 304.084C489.714 303.274 490.272 302.932 490.794 302.932C491.244 302.932 491.802 303.274 491.694 304.084ZM155.583 372.084L155.151 375.81H154.179L153.711 372.084C153.603 371.274 154.161 370.932 154.683 370.932C155.133 370.932 155.691 371.274 155.583 372.084ZM158.535 372.084L158.103 375.81H157.131L156.663 372.084C156.555 371.274 157.113 370.932 157.635 370.932C158.085 370.932 158.643 371.274 158.535 372.084ZM167.861 378.474H162.749V384H160.985V370.986H168.833V372.606H162.749V376.872H167.861V378.474ZM171.509 373.11C170.897 373.11 170.393 372.606 170.393 371.994C170.393 371.364 170.897 370.878 171.509 370.878C172.121 370.878 172.625 371.364 172.625 371.994C172.625 372.606 172.121 373.11 171.509 373.11ZM170.681 384V375.198H172.373V384H170.681ZM176.557 384H174.865V370.752H176.557V384ZM181.622 384.216C179.732 384.216 178.616 383.154 178.616 381.552C178.616 379.932 179.822 378.924 181.892 378.762L184.664 378.546V378.294C184.664 376.818 183.782 376.296 182.594 376.296C181.172 376.296 180.362 376.926 180.362 377.988H178.886C178.886 376.152 180.398 374.946 182.666 374.946C184.844 374.946 186.32 376.098 186.32 378.474V384H184.88L184.7 382.578C184.25 383.586 183.044 384.216 181.622 384.216ZM182.108 382.902C183.71 382.902 184.682 381.858 184.682 380.202V379.734L182.432 379.914C180.938 380.058 180.326 380.634 180.326 381.498C180.326 382.434 181.01 382.902 182.108 382.902ZM196.051 384L192.505 375.198H194.305L196.231 380.112C196.537 380.94 196.789 381.678 196.933 382.218C197.077 381.642 197.365 380.886 197.671 380.112L199.633 375.198H201.397L197.725 384H196.051ZM204.913 384.216C203.023 384.216 201.907 383.154 201.907 381.552C201.907 379.932 203.113 378.924 205.183 378.762L207.955 378.546V378.294C207.955 376.818 207.073 376.296 205.885 376.296C204.463 376.296 203.653 376.926 203.653 377.988H202.177C202.177 376.152 203.689 374.946 205.957 374.946C208.135 374.946 209.611 376.098 209.611 378.474V384H208.171L207.991 382.578C207.541 383.586 206.335 384.216 204.913 384.216ZM205.399 382.902C207.001 382.902 207.973 381.858 207.973 380.202V379.734L205.723 379.914C204.229 380.058 203.617 380.634 203.617 381.498C203.617 382.434 204.301 382.902 205.399 382.902ZM218.272 384H211.414V382.632L216.166 376.62H211.414V375.198H218.272V376.584L213.484 382.578H218.272V384ZM221.009 373.11C220.397 373.11 219.893 372.606 219.893 371.994C219.893 371.364 220.397 370.878 221.009 370.878C221.621 370.878 222.125 371.364 222.125 371.994C222.125 372.606 221.621 373.11 221.009 373.11ZM220.181 384V375.198H221.873V384H220.181ZM226.903 384.216C225.013 384.216 223.897 383.154 223.897 381.552C223.897 379.932 225.103 378.924 227.173 378.762L229.945 378.546V378.294C229.945 376.818 229.063 376.296 227.875 376.296C226.453 376.296 225.643 376.926 225.643 377.988H224.167C224.167 376.152 225.679 374.946 227.947 374.946C230.125 374.946 231.601 376.098 231.601 378.474V384H230.161L229.981 382.578C229.531 383.586 228.325 384.216 226.903 384.216ZM227.389 382.902C228.991 382.902 229.963 381.858 229.963 380.202V379.734L227.713 379.914C226.219 380.058 225.607 380.634 225.607 381.498C225.607 382.434 226.291 382.902 227.389 382.902ZM236.015 380.094H234.701C234.521 378.744 234.395 376.35 234.395 374.01V370.986H236.339V374.01C236.339 376.386 236.195 378.762 236.015 380.094ZM235.367 384.252C234.647 384.252 234.071 383.676 234.071 382.974C234.071 382.272 234.647 381.696 235.367 381.696C236.051 381.696 236.645 382.272 236.645 382.974C236.645 383.676 236.051 384.252 235.367 384.252ZM240.82 372.084L240.388 375.81H239.416L238.948 372.084C238.84 371.274 239.398 370.932 239.92 370.932C240.37 370.932 240.928 371.274 240.82 372.084ZM243.772 372.084L243.34 375.81H242.368L241.9 372.084C241.792 371.274 242.35 370.932 242.872 370.932C243.322 370.932 243.88 371.274 243.772 372.084Z" fill="#34C759"/>
</svg>
