<svg width="400" height="412" viewBox="0 0 400 412" fill="none" xmlns="http://www.w3.org/2000/svg">
<path d="M0 20C0 8.95431 8.95431 0 20 0H380C391.046 0 400 8.95431 400 20V392C400 403.046 391.046 412 380 412H20C8.95431 412 0 403.046 0 392V20Z" fill="#2E2E2E"/>
<rect y="71" width="400" height="2" fill="#2B2B2B"/>
<circle cx="40" cy="37" r="15" fill="#FF383C"/>
<circle cx="85" cy="37" r="15" fill="#FFCC00"/>
<circle cx="130" cy="37" r="15" fill="#34C759"/>
<g opacity="0.5">
<path d="M25.1695 108V106.272H28.6615V96.552L25.1515 99.162V97.056L28.1575 94.86H30.6055V106.272H33.4315V108H25.1695Z" fill="#1A1A1A"/>
<path d="M25.1335 142V140.074L29.2015 135.88C29.8255 135.232 30.2815 134.65 30.5695 134.134C30.8695 133.606 31.0195 133.084 31.0195 132.568C31.0195 131.896 30.8335 131.368 30.4615 130.984C30.1015 130.6 29.6035 130.408 28.9675 130.408C28.2715 130.408 27.7195 130.612 27.3115 131.02C26.9155 131.416 26.7175 131.962 26.7175 132.658H24.7735C24.7975 131.842 24.9835 131.14 25.3315 130.552C25.6795 129.952 26.1655 129.49 26.7895 129.166C27.4135 128.842 28.1455 128.68 28.9855 128.68C29.7895 128.68 30.4915 128.836 31.0915 129.148C31.6915 129.46 32.1535 129.898 32.4775 130.462C32.8015 131.026 32.9635 131.692 32.9635 132.46C32.9635 133.24 32.7595 134.002 32.3515 134.746C31.9555 135.49 31.3015 136.318 30.3895 137.23L27.4195 140.236H33.1615V142H25.1335Z" fill="#1A1A1A"/>
<path d="M28.8415 176.18C28.0135 176.18 27.2935 176.024 26.6815 175.712C26.0695 175.4 25.5955 174.962 25.2595 174.398C24.9355 173.822 24.7735 173.156 24.7735 172.4H26.7175C26.7175 173.06 26.9035 173.576 27.2755 173.948C27.6595 174.32 28.1875 174.506 28.8595 174.506C29.5435 174.506 30.0715 174.314 30.4435 173.93C30.8155 173.546 31.0015 173.036 31.0015 172.4V171.428C31.0015 170.756 30.8155 170.24 30.4435 169.88C30.0715 169.508 29.5435 169.322 28.8595 169.322H27.4555V167.486L30.5155 164.57H25.3315V162.86H32.4955V164.696L28.8775 168.098V167.63C30.1255 167.63 31.1155 167.972 31.8475 168.656C32.5795 169.34 32.9455 170.258 32.9455 171.41V172.4C32.9455 173.156 32.7775 173.822 32.4415 174.398C32.1055 174.962 31.6255 175.4 31.0015 175.712C30.3895 176.024 29.6695 176.18 28.8415 176.18Z" fill="#1A1A1A"/>
<path d="M30.8035 210V207.264H24.9175V204.348L30.0295 196.86H32.1895L26.7895 204.816V205.518H30.8035V202.44H32.7295V210H30.8035Z" fill="#1A1A1A"/>
<path d="M28.9675 244.18C27.8275 244.18 26.9035 243.892 26.1955 243.316C25.4875 242.728 25.0915 241.942 25.0075 240.958H26.9335C26.9935 241.438 27.1975 241.81 27.5455 242.074C27.8935 242.338 28.3735 242.47 28.9855 242.47C29.6695 242.47 30.1855 242.29 30.5335 241.93C30.8935 241.558 31.0735 241.042 31.0735 240.382V239.104C31.0735 238.432 30.8995 237.916 30.5515 237.556C30.2035 237.184 29.6875 236.998 29.0035 236.998C28.5715 236.998 28.1995 237.1 27.8875 237.304C27.5755 237.496 27.3475 237.766 27.2035 238.114H25.2775L25.3675 230.86H32.5315V232.624H27.2215L27.1855 236.71H27.6895L27.1675 237.178C27.1675 236.614 27.3895 236.17 27.8335 235.846C28.2775 235.522 28.8715 235.36 29.6155 235.36C30.6835 235.36 31.5115 235.69 32.0995 236.35C32.6995 236.998 32.9995 237.916 32.9995 239.104V240.382C32.9995 241.546 32.6455 242.47 31.9375 243.154C31.2295 243.838 30.2395 244.18 28.9675 244.18Z" fill="#1A1A1A"/>
<path d="M29.0215 278.18C28.1575 278.18 27.4015 278 26.7535 277.64C26.1055 277.28 25.6015 276.776 25.2415 276.128C24.8815 275.468 24.7015 274.712 24.7015 273.86C24.7015 273.212 24.7975 272.564 24.9895 271.916C25.1935 271.256 25.4815 270.626 25.8535 270.026L29.0575 264.86H31.2175L27.4015 270.908L27.4915 270.962C27.7315 270.614 28.0495 270.35 28.4455 270.17C28.8535 269.978 29.3035 269.882 29.7955 269.882C30.5035 269.882 31.1215 270.05 31.6495 270.386C32.1775 270.722 32.5855 271.196 32.8735 271.808C33.1615 272.408 33.3055 273.122 33.3055 273.95C33.3055 274.79 33.1255 275.528 32.7655 276.164C32.4055 276.8 31.9075 277.298 31.2715 277.658C30.6355 278.006 29.8855 278.18 29.0215 278.18ZM29.0035 276.506C29.7235 276.506 30.2995 276.272 30.7315 275.804C31.1635 275.336 31.3795 274.718 31.3795 273.95C31.3795 273.182 31.1635 272.564 30.7315 272.096C30.2995 271.628 29.7235 271.394 29.0035 271.394C28.2835 271.394 27.7075 271.628 27.2755 272.096C26.8435 272.564 26.6275 273.182 26.6275 273.95C26.6275 274.718 26.8435 275.336 27.2755 275.804C27.7075 276.272 28.2835 276.506 29.0035 276.506Z" fill="#1A1A1A"/>
<path d="M26.6635 312L31.3795 300.642H26.7895V302.568H24.8635V298.86H33.3055V300.732L28.7515 312H26.6635Z" fill="#1A1A1A"/>
<path d="M29.0035 346.18C28.1635 346.18 27.4375 346.036 26.8255 345.748C26.2135 345.46 25.7395 345.052 25.4035 344.524C25.0675 343.984 24.8995 343.36 24.8995 342.652C24.8995 341.86 25.1155 341.182 25.5475 340.618C25.9795 340.054 26.6455 339.562 27.5455 339.142L29.4355 338.26C29.9155 338.032 30.2875 337.732 30.5515 337.36C30.8155 336.976 30.9475 336.556 30.9475 336.1C30.9475 335.56 30.7735 335.134 30.4255 334.822C30.0775 334.51 29.6035 334.354 29.0035 334.354C28.4035 334.354 27.9235 334.516 27.5635 334.84C27.2155 335.152 27.0415 335.578 27.0415 336.118C27.0415 336.562 27.1735 336.976 27.4375 337.36C27.7015 337.732 28.0615 338.026 28.5175 338.242L30.4075 339.106C31.3555 339.55 32.0395 340.06 32.4595 340.636C32.8915 341.2 33.1075 341.872 33.1075 342.652C33.1075 343.732 32.7355 344.59 31.9915 345.226C31.2595 345.862 30.2635 346.18 29.0035 346.18ZM29.0035 344.488C29.6755 344.488 30.2095 344.314 30.6055 343.966C31.0015 343.606 31.1995 343.138 31.1995 342.562C31.1995 342.094 31.0675 341.662 30.8035 341.266C30.5395 340.858 30.1735 340.54 29.7055 340.312L27.7615 339.394C26.8735 338.974 26.2135 338.494 25.7815 337.954C25.3495 337.414 25.1335 336.766 25.1335 336.01C25.1335 335.35 25.2895 334.768 25.6015 334.264C25.9255 333.76 26.3755 333.37 26.9515 333.094C27.5275 332.806 28.2115 332.662 29.0035 332.662C29.7955 332.662 30.4795 332.806 31.0555 333.094C31.6315 333.37 32.0755 333.76 32.3875 334.264C32.6995 334.768 32.8555 335.35 32.8555 336.01C32.8555 336.778 32.6395 337.426 32.2075 337.954C31.7875 338.482 31.1275 338.968 30.2275 339.412L28.2655 340.33C27.8095 340.546 27.4495 340.852 27.1855 341.248C26.9335 341.644 26.8075 342.07 26.8075 342.526C26.8075 343.114 27.0055 343.588 27.4015 343.948C27.7975 344.308 28.3315 344.488 29.0035 344.488Z" fill="#1A1A1A"/>
<path d="M26.7895 380L30.6055 373.952L30.5155 373.898C30.2755 374.246 29.9515 374.516 29.5435 374.708C29.1475 374.888 28.7035 374.978 28.2115 374.978C27.5035 374.978 26.8855 374.81 26.3575 374.474C25.8295 374.138 25.4215 373.664 25.1335 373.052C24.8455 372.44 24.7015 371.726 24.7015 370.91C24.7015 370.058 24.8815 369.32 25.2415 368.696C25.6015 368.06 26.0995 367.568 26.7355 367.22C27.3835 366.86 28.1335 366.68 28.9855 366.68C29.8495 366.68 30.6055 366.86 31.2535 367.22C31.9015 367.58 32.4055 368.084 32.7655 368.732C33.1255 369.38 33.3055 370.136 33.3055 371C33.3055 371.636 33.2035 372.284 32.9995 372.944C32.8075 373.604 32.5255 374.234 32.1535 374.834L28.9495 380H26.7895ZM29.0035 373.466C29.7235 373.466 30.2995 373.232 30.7315 372.764C31.1635 372.296 31.3795 371.678 31.3795 370.91C31.3795 370.142 31.1635 369.524 30.7315 369.056C30.2995 368.588 29.7235 368.354 29.0035 368.354C28.2835 368.354 27.7075 368.588 27.2755 369.056C26.8435 369.524 26.6275 370.142 26.6275 370.91C26.6275 371.678 26.8435 372.296 27.2755 372.764C27.7075 373.232 28.2835 373.466 29.0035 373.466Z" fill="#1A1A1A"/>
</g>
<path d="M60.288 99.198H61.584V97.794C61.584 95.634 62.772 94.752 64.374 94.752C64.698 94.752 65.076 94.77 65.418 94.824V96.282H64.662C63.564 96.282 63.276 96.84 63.276 97.794V99.198H65.364V100.62H63.276V108H61.584V100.62H60.288V99.198ZM71.9769 99.126V100.674H71.2209C69.6189 100.674 68.6289 101.646 68.6289 103.338V108H66.9369V99.216H68.5209L68.6289 100.548C68.9889 99.63 69.8709 99.018 71.0769 99.018C71.3829 99.018 71.6349 99.054 71.9769 99.126ZM72.6714 103.59C72.6714 100.872 74.6154 98.964 77.2614 98.964C79.8894 98.964 81.8334 100.872 81.8334 103.59C81.8334 106.308 79.8894 108.216 77.2614 108.216C74.6154 108.216 72.6714 106.308 72.6714 103.59ZM74.3814 103.59C74.3814 105.426 75.5514 106.704 77.2614 106.704C78.9534 106.704 80.1414 105.426 80.1414 103.59C80.1414 101.754 78.9534 100.476 77.2614 100.476C75.5514 100.476 74.3814 101.754 74.3814 103.59ZM85.3984 108H83.7064V99.198H85.2184L85.3804 100.35C85.8304 99.522 86.7664 98.946 88.0084 98.946C89.3764 98.946 90.3484 99.63 90.7984 100.728C91.2124 99.63 92.2744 98.946 93.6424 98.946C95.6584 98.946 96.8824 100.206 96.8824 102.24V108H95.2264V102.654C95.2264 101.268 94.4524 100.476 93.2644 100.476C91.9864 100.476 91.1404 101.376 91.1404 102.78V108H89.4664V102.636C89.4664 101.25 88.7104 100.494 87.5224 100.494C86.2444 100.494 85.3984 101.376 85.3984 102.78V108ZM196.437 97.11C195.825 97.11 195.321 96.606 195.321 95.994C195.321 95.364 195.825 94.878 196.437 94.878C197.049 94.878 197.553 95.364 197.553 95.994C197.553 96.606 197.049 97.11 196.437 97.11ZM195.609 108V99.198H197.301V108H195.609ZM201.449 108H199.757V99.198H201.269L201.431 100.35C201.881 99.522 202.817 98.946 204.059 98.946C205.427 98.946 206.399 99.63 206.849 100.728C207.263 99.63 208.325 98.946 209.693 98.946C211.709 98.946 212.933 100.206 212.933 102.24V108H211.277V102.654C211.277 101.268 210.503 100.476 209.315 100.476C208.037 100.476 207.191 101.376 207.191 102.78V108H205.517V102.636C205.517 101.25 204.761 100.494 203.573 100.494C202.295 100.494 201.449 101.376 201.449 102.78V108ZM215.279 111.942V99.198H216.809L216.935 100.782C217.529 99.576 218.717 98.946 220.121 98.946C222.641 98.946 224.207 100.836 224.207 103.536C224.207 106.218 222.731 108.234 220.121 108.234C218.717 108.234 217.547 107.64 216.971 106.56V111.942H215.279ZM216.989 103.608C216.989 105.408 218.033 106.704 219.761 106.704C221.489 106.704 222.515 105.408 222.515 103.608C222.515 101.79 221.489 100.494 219.761 100.494C218.033 100.494 216.989 101.772 216.989 103.608ZM225.496 103.59C225.496 100.872 227.44 98.964 230.086 98.964C232.714 98.964 234.658 100.872 234.658 103.59C234.658 106.308 232.714 108.216 230.086 108.216C227.44 108.216 225.496 106.308 225.496 103.59ZM227.206 103.59C227.206 105.426 228.376 106.704 230.086 106.704C231.778 106.704 232.966 105.426 232.966 103.59C232.966 101.754 231.778 100.476 230.086 100.476C228.376 100.476 227.206 101.754 227.206 103.59ZM241.571 99.126V100.674H240.815C239.213 100.674 238.223 101.646 238.223 103.338V108H236.531V99.216H238.115L238.223 100.548C238.583 99.63 239.465 99.018 240.671 99.018C240.977 99.018 241.229 99.054 241.571 99.126ZM245.993 108H244.301V100.62H242.573V99.198H244.301V96.444H245.993V99.198H247.721V100.62H245.993V108ZM195.878 168.008H204.878V169.466H195.878V168.008ZM195.878 171.788H204.878V173.246H195.878V171.788ZM156.59 202.008H165.59V203.466H156.59V202.008ZM156.59 205.788H165.59V207.246H156.59V205.788Z" fill="#00C3D0"/>
<path d="M103.574 103.608C103.574 100.854 105.32 98.946 107.894 98.946C110.108 98.946 111.656 100.206 111.962 102.168H110.27C109.982 101.052 109.082 100.458 107.948 100.458C106.346 100.458 105.248 101.682 105.248 103.59C105.248 105.48 106.274 106.704 107.876 106.704C109.082 106.704 109.982 106.074 110.288 105.03H111.98C111.638 106.938 110 108.216 107.876 108.216C105.284 108.216 103.574 106.38 103.574 103.608ZM113.189 103.59C113.189 100.872 115.133 98.964 117.779 98.964C120.407 98.964 122.351 100.872 122.351 103.59C122.351 106.308 120.407 108.216 117.779 108.216C115.133 108.216 113.189 106.308 113.189 103.59ZM114.899 103.59C114.899 105.426 116.069 106.704 117.779 106.704C119.471 106.704 120.659 105.426 120.659 103.59C120.659 101.754 119.471 100.476 117.779 100.476C116.069 100.476 114.899 101.754 114.899 103.59ZM125.952 108H124.26V94.752H125.952V108ZM130.171 108H128.479V94.752H130.171V108ZM136.46 108.216C133.868 108.216 132.086 106.344 132.086 103.608C132.086 100.854 133.832 98.946 136.388 98.946C138.89 98.946 140.527 100.674 140.527 103.284V103.914L133.724 103.932C133.85 105.786 134.822 106.812 136.496 106.812C137.81 106.812 138.674 106.272 138.962 105.264H140.546C140.114 107.154 138.638 108.216 136.46 108.216ZM136.388 100.368C134.912 100.368 133.976 101.25 133.76 102.798H138.836C138.836 101.34 137.882 100.368 136.388 100.368ZM141.841 103.608C141.841 100.854 143.587 98.946 146.161 98.946C148.375 98.946 149.923 100.206 150.229 102.168H148.537C148.249 101.052 147.349 100.458 146.215 100.458C144.613 100.458 143.515 101.682 143.515 103.59C143.515 105.48 144.541 106.704 146.143 106.704C147.349 106.704 148.249 106.074 148.555 105.03H150.247C149.905 106.938 148.267 108.216 146.143 108.216C143.551 108.216 141.841 106.38 141.841 103.608ZM154.517 108H152.825V100.62H151.097V99.198H152.825V96.444H154.517V99.198H156.245V100.62H154.517V108ZM158.591 97.11C157.979 97.11 157.475 96.606 157.475 95.994C157.475 95.364 157.979 94.878 158.591 94.878C159.203 94.878 159.707 95.364 159.707 95.994C159.707 96.606 159.203 97.11 158.591 97.11ZM157.763 108V99.198H159.455V108H157.763ZM161.336 103.59C161.336 100.872 163.28 98.964 165.926 98.964C168.554 98.964 170.498 100.872 170.498 103.59C170.498 106.308 168.554 108.216 165.926 108.216C163.28 108.216 161.336 106.308 161.336 103.59ZM163.046 103.59C163.046 105.426 164.216 106.704 165.926 106.704C167.618 106.704 168.806 105.426 168.806 103.59C168.806 101.754 167.618 100.476 165.926 100.476C164.216 100.476 163.046 101.754 163.046 103.59ZM174.062 108H172.37V99.198H173.9L174.08 100.548C174.638 99.54 175.754 98.946 176.996 98.946C179.318 98.946 180.38 100.368 180.38 102.618V108H178.688V102.996C178.688 101.214 177.86 100.494 176.564 100.494C174.98 100.494 174.062 101.628 174.062 103.338V108ZM181.899 105.444H183.519C183.519 106.344 184.203 106.884 185.319 106.884C186.507 106.884 187.191 106.398 187.191 105.588C187.191 104.994 186.903 104.634 185.985 104.4L184.437 104.04C182.871 103.662 182.133 102.888 182.133 101.592C182.133 99.972 183.501 98.946 185.445 98.946C187.371 98.946 188.631 100.026 188.667 101.7H187.047C187.011 100.818 186.417 100.26 185.391 100.26C184.329 100.26 183.735 100.728 183.735 101.538C183.735 102.132 184.167 102.528 185.031 102.744L186.579 103.122C188.073 103.482 188.811 104.166 188.811 105.48C188.811 107.154 187.371 108.216 185.283 108.216C183.213 108.216 181.899 107.118 181.899 105.444ZM257.689 108.216C255.134 108.216 253.586 106.308 253.586 103.626C253.586 100.926 255.152 98.946 257.762 98.946C259.112 98.946 260.246 99.54 260.84 100.62V94.752H262.514V108H261.002L260.858 106.398C260.282 107.604 259.094 108.216 257.689 108.216ZM258.032 106.686C259.76 106.686 260.822 105.408 260.822 103.572C260.822 101.772 259.76 100.476 258.032 100.476C256.304 100.476 255.296 101.772 255.296 103.572C255.296 105.39 256.304 106.686 258.032 106.686ZM268.752 108.216C266.16 108.216 264.378 106.344 264.378 103.608C264.378 100.854 266.124 98.946 268.68 98.946C271.182 98.946 272.82 100.674 272.82 103.284V103.914L266.016 103.932C266.142 105.786 267.114 106.812 268.788 106.812C270.102 106.812 270.966 106.272 271.254 105.264H272.838C272.406 107.154 270.93 108.216 268.752 108.216ZM268.68 100.368C267.204 100.368 266.268 101.25 266.052 102.798H271.128C271.128 101.34 270.174 100.368 268.68 100.368ZM274.134 103.536C274.134 100.836 275.718 98.946 278.238 98.946C279.624 98.946 280.83 99.576 281.406 100.782L281.55 99.198H283.062V111.942H281.388V106.56C280.794 107.64 279.624 108.234 278.22 108.234C275.628 108.234 274.134 106.218 274.134 103.536ZM275.844 103.608C275.844 105.408 276.852 106.704 278.58 106.704C280.308 106.704 281.37 105.408 281.37 103.608C281.37 101.772 280.308 100.494 278.58 100.494C276.852 100.494 275.844 101.79 275.844 103.608ZM291.587 99.198H293.261V108H291.749L291.569 106.668C291.065 107.586 289.895 108.216 288.599 108.216C286.547 108.216 285.395 106.83 285.395 104.67V99.198H287.087V104.112C287.087 106.002 287.897 106.722 289.193 106.722C290.741 106.722 291.587 105.732 291.587 103.842V99.198ZM299.338 108.216C296.746 108.216 294.964 106.344 294.964 103.608C294.964 100.854 296.71 98.946 299.266 98.946C301.768 98.946 303.406 100.674 303.406 103.284V103.914L296.602 103.932C296.728 105.786 297.7 106.812 299.374 106.812C300.688 106.812 301.552 106.272 301.84 105.264H303.424C302.992 107.154 301.516 108.216 299.338 108.216ZM299.266 100.368C297.79 100.368 296.854 101.25 296.638 102.798H301.714C301.714 101.34 300.76 100.368 299.266 100.368ZM67.182 176V168.62H63.276V176H61.584V168.62H60.288V167.198H61.584V165.794C61.584 163.634 62.754 162.752 64.284 162.752C64.608 162.752 65.004 162.77 65.328 162.824V164.282H64.572C63.546 164.282 63.276 164.84 63.276 165.794V167.198H68.874V176H67.182ZM68.028 165.038C67.416 165.038 66.948 164.57 66.948 163.958C66.948 163.346 67.416 162.878 68.028 162.878C68.622 162.878 69.09 163.346 69.09 163.958C69.09 164.57 68.622 165.038 68.028 165.038ZM73.0067 176H71.3147V162.752H73.0067V176ZM78.0714 176.216C76.1814 176.216 75.0654 175.154 75.0654 173.552C75.0654 171.932 76.2714 170.924 78.3414 170.762L81.1134 170.546V170.294C81.1134 168.818 80.2314 168.296 79.0434 168.296C77.6214 168.296 76.8114 168.926 76.8114 169.988H75.3354C75.3354 168.152 76.8474 166.946 79.1154 166.946C81.2934 166.946 82.7694 168.098 82.7694 170.474V176H81.3294L81.1494 174.578C80.6994 175.586 79.4934 176.216 78.0714 176.216ZM78.5574 174.902C80.1594 174.902 81.1314 173.858 81.1314 172.202V171.734L78.8814 171.914C77.3874 172.058 76.7754 172.634 76.7754 173.498C76.7754 174.434 77.4594 174.902 78.5574 174.902ZM84.9687 177.656V176.324H92.3487V177.656H84.9687ZM94.6576 179.942V167.198H96.1876L96.3136 168.782C96.9076 167.576 98.0956 166.946 99.4996 166.946C102.02 166.946 103.586 168.836 103.586 171.536C103.586 174.218 102.11 176.234 99.4996 176.234C98.0956 176.234 96.9256 175.64 96.3496 174.56V179.942H94.6576ZM96.3676 171.608C96.3676 173.408 97.4116 174.704 99.1396 174.704C100.868 174.704 101.894 173.408 101.894 171.608C101.894 169.79 100.868 168.494 99.1396 168.494C97.4116 168.494 96.3676 169.772 96.3676 171.608ZM110.491 167.126V168.674H109.735C108.133 168.674 107.143 169.646 107.143 171.338V176H105.451V167.216H107.035L107.143 168.548C107.503 167.63 108.385 167.018 109.591 167.018C109.897 167.018 110.149 167.054 110.491 167.126ZM115.559 176.216C112.967 176.216 111.185 174.344 111.185 171.608C111.185 168.854 112.931 166.946 115.487 166.946C117.989 166.946 119.627 168.674 119.627 171.284V171.914L112.823 171.932C112.949 173.786 113.921 174.812 115.595 174.812C116.909 174.812 117.773 174.272 118.061 173.264H119.645C119.213 175.154 117.737 176.216 115.559 176.216ZM115.487 168.368C114.011 168.368 113.075 169.25 112.859 170.798H117.935C117.935 169.34 116.981 168.368 115.487 168.368ZM120.581 167.198H121.877V165.794C121.877 163.634 123.065 162.752 124.667 162.752C124.991 162.752 125.369 162.77 125.711 162.824V164.282H124.955C123.857 164.282 123.569 164.84 123.569 165.794V167.198H125.657V168.62H123.569V176H121.877V168.62H120.581V167.198ZM130.764 176.216C128.172 176.216 126.39 174.344 126.39 171.608C126.39 168.854 128.136 166.946 130.692 166.946C133.194 166.946 134.832 168.674 134.832 171.284V171.914L128.028 171.932C128.154 173.786 129.126 174.812 130.8 174.812C132.114 174.812 132.978 174.272 133.266 173.264H134.85C134.418 175.154 132.942 176.216 130.764 176.216ZM130.692 168.368C129.216 168.368 128.28 169.25 128.064 170.798H133.14C133.14 169.34 132.186 168.368 130.692 168.368ZM141.762 167.126V168.674H141.006C139.404 168.674 138.414 169.646 138.414 171.338V176H136.722V167.216H138.306L138.414 168.548C138.774 167.63 139.656 167.018 140.862 167.018C141.168 167.018 141.42 167.054 141.762 167.126ZM146.831 176.216C144.239 176.216 142.457 174.344 142.457 171.608C142.457 168.854 144.203 166.946 146.759 166.946C149.261 166.946 150.899 168.674 150.899 171.284V171.914L144.095 171.932C144.221 173.786 145.193 174.812 146.867 174.812C148.181 174.812 149.045 174.272 149.333 173.264H150.917C150.485 175.154 149.009 176.216 146.831 176.216ZM146.759 168.368C145.283 168.368 144.347 169.25 144.131 170.798H149.207C149.207 169.34 148.253 168.368 146.759 168.368ZM154.48 176H152.788V167.198H154.318L154.498 168.548C155.056 167.54 156.172 166.946 157.414 166.946C159.736 166.946 160.798 168.368 160.798 170.618V176H159.106V170.996C159.106 169.214 158.278 168.494 156.982 168.494C155.398 168.494 154.48 169.628 154.48 171.338V176ZM162.566 171.608C162.566 168.854 164.312 166.946 166.886 166.946C169.1 166.946 170.648 168.206 170.954 170.168H169.262C168.974 169.052 168.074 168.458 166.94 168.458C165.338 168.458 164.24 169.682 164.24 171.59C164.24 173.48 165.266 174.704 166.868 174.704C168.074 174.704 168.974 174.074 169.28 173.03H170.972C170.63 174.938 168.992 176.216 166.868 176.216C164.276 176.216 162.566 174.38 162.566 171.608ZM173.585 165.11C172.973 165.11 172.469 164.606 172.469 163.994C172.469 163.364 172.973 162.878 173.585 162.878C174.197 162.878 174.701 163.364 174.701 163.994C174.701 164.606 174.197 165.11 173.585 165.11ZM172.757 176V167.198H174.449V176H172.757ZM179.48 176.216C177.59 176.216 176.474 175.154 176.474 173.552C176.474 171.932 177.68 170.924 179.75 170.762L182.522 170.546V170.294C182.522 168.818 181.64 168.296 180.452 168.296C179.03 168.296 178.22 168.926 178.22 169.988H176.744C176.744 168.152 178.256 166.946 180.524 166.946C182.702 166.946 184.178 168.098 184.178 170.474V176H182.738L182.558 174.578C182.108 175.586 180.902 176.216 179.48 176.216ZM179.966 174.902C181.568 174.902 182.54 173.858 182.54 172.202V171.734L180.29 171.914C178.796 172.058 178.184 172.634 178.184 173.498C178.184 174.434 178.868 174.902 179.966 174.902ZM188.249 176H186.557V162.752H188.249V176ZM67.182 210V202.62H63.276V210H61.584V202.62H60.288V201.198H61.584V199.794C61.584 197.634 62.754 196.752 64.284 196.752C64.608 196.752 65.004 196.77 65.328 196.824V198.282H64.572C63.546 198.282 63.276 198.84 63.276 199.794V201.198H68.874V210H67.182ZM68.028 199.038C67.416 199.038 66.948 198.57 66.948 197.958C66.948 197.346 67.416 196.878 68.028 196.878C68.622 196.878 69.09 197.346 69.09 197.958C69.09 198.57 68.622 199.038 68.028 199.038ZM73.0067 210H71.3147V196.752H73.0067V210ZM78.0714 210.216C76.1814 210.216 75.0654 209.154 75.0654 207.552C75.0654 205.932 76.2714 204.924 78.3414 204.762L81.1134 204.546V204.294C81.1134 202.818 80.2314 202.296 79.0434 202.296C77.6214 202.296 76.8114 202.926 76.8114 203.988H75.3354C75.3354 202.152 76.8474 200.946 79.1154 200.946C81.2934 200.946 82.7694 202.098 82.7694 204.474V210H81.3294L81.1494 208.578C80.6994 209.586 79.4934 210.216 78.0714 210.216ZM78.5574 208.902C80.1594 208.902 81.1314 207.858 81.1314 206.202V205.734L78.8814 205.914C77.3874 206.058 76.7754 206.634 76.7754 207.498C76.7754 208.434 77.4594 208.902 78.5574 208.902ZM84.9687 211.656V210.324H92.3487V211.656H84.9687ZM96.3496 210H94.6576V201.198H96.1876L96.3676 202.548C96.9256 201.54 98.0416 200.946 99.2836 200.946C101.606 200.946 102.668 202.368 102.668 204.618V210H100.976V204.996C100.976 203.214 100.148 202.494 98.8516 202.494C97.2676 202.494 96.3496 203.628 96.3496 205.338V210ZM104.435 205.59C104.435 202.872 106.379 200.964 109.025 200.964C111.653 200.964 113.597 202.872 113.597 205.59C113.597 208.308 111.653 210.216 109.025 210.216C106.379 210.216 104.435 208.308 104.435 205.59ZM106.145 205.59C106.145 207.426 107.315 208.704 109.025 208.704C110.717 208.704 111.905 207.426 111.905 205.59C111.905 203.754 110.717 202.476 109.025 202.476C107.315 202.476 106.145 203.754 106.145 205.59ZM120.51 201.126V202.674H119.754C118.152 202.674 117.162 203.646 117.162 205.338V210H115.47V201.216H117.054L117.162 202.548C117.522 201.63 118.404 201.018 119.61 201.018C119.916 201.018 120.168 201.054 120.51 201.126ZM123.789 210H122.097V201.198H123.609L123.771 202.35C124.221 201.522 125.157 200.946 126.399 200.946C127.767 200.946 128.739 201.63 129.189 202.728C129.603 201.63 130.665 200.946 132.033 200.946C134.049 200.946 135.273 202.206 135.273 204.24V210H133.617V204.654C133.617 203.268 132.843 202.476 131.655 202.476C130.377 202.476 129.531 203.376 129.531 204.78V210H127.857V204.636C127.857 203.25 127.101 202.494 125.913 202.494C124.635 202.494 123.789 203.376 123.789 204.78V210ZM140.193 210.216C138.303 210.216 137.187 209.154 137.187 207.552C137.187 205.932 138.393 204.924 140.463 204.762L143.235 204.546V204.294C143.235 202.818 142.353 202.296 141.165 202.296C139.743 202.296 138.933 202.926 138.933 203.988H137.457C137.457 202.152 138.969 200.946 141.237 200.946C143.415 200.946 144.891 202.098 144.891 204.474V210H143.451L143.271 208.578C142.821 209.586 141.615 210.216 140.193 210.216ZM140.679 208.902C142.281 208.902 143.253 207.858 143.253 206.202V205.734L141.003 205.914C139.509 206.058 138.897 206.634 138.897 207.498C138.897 208.434 139.581 208.902 140.679 208.902ZM148.962 210H147.27V196.752H148.962V210ZM62.052 267.11C61.44 267.11 60.936 266.606 60.936 265.994C60.936 265.364 61.44 264.878 62.052 264.878C62.664 264.878 63.168 265.364 63.168 265.994C63.168 266.606 62.664 267.11 62.052 267.11ZM61.224 278V269.198H62.916V278H61.224ZM67.0644 278H65.3724V269.198H66.9024L67.0824 270.548C67.6404 269.54 68.7564 268.946 69.9984 268.946C72.3204 268.946 73.3824 270.368 73.3824 272.618V278H71.6904V272.996C71.6904 271.214 70.8624 270.494 69.5664 270.494C67.9824 270.494 67.0644 271.628 67.0644 273.338V278ZM78.21 278H76.518V270.62H74.79V269.198H76.518V266.444H78.21V269.198H79.938V270.62H78.21V278ZM85.1665 278.216C82.5745 278.216 80.7925 276.344 80.7925 273.608C80.7925 270.854 82.5385 268.946 85.0945 268.946C87.5965 268.946 89.2345 270.674 89.2345 273.284V273.914L82.4305 273.932C82.5565 275.786 83.5285 276.812 85.2025 276.812C86.5165 276.812 87.3805 276.272 87.6685 275.264H89.2525C88.8205 277.154 87.3445 278.216 85.1665 278.216ZM85.0945 270.368C83.6185 270.368 82.6825 271.25 82.4665 272.798H87.5425C87.5425 271.34 86.5885 270.368 85.0945 270.368ZM90.5664 273.374C90.5664 270.89 92.1684 268.946 94.7244 268.946C96.1464 268.946 97.2444 269.594 97.8024 270.692L97.9284 269.198H99.4404V277.64C99.4404 280.412 97.7304 282.176 95.0304 282.176C92.6364 282.176 90.9984 280.826 90.6744 278.594H92.3664C92.5824 279.89 93.5544 280.646 95.0304 280.646C96.6864 280.646 97.7664 279.566 97.7664 277.892V276.128C97.1904 277.154 96.0384 277.766 94.6524 277.766C92.1504 277.766 90.5664 275.84 90.5664 273.374ZM92.2584 273.338C92.2584 274.994 93.2844 276.29 94.9404 276.29C96.6504 276.29 97.6944 275.066 97.6944 273.338C97.6944 271.646 96.6864 270.422 94.9584 270.422C93.2664 270.422 92.2584 271.718 92.2584 273.338ZM106.922 269.126V270.674H106.166C104.564 270.674 103.574 271.646 103.574 273.338V278H101.882V269.216H103.466L103.574 270.548C103.934 269.63 104.816 269.018 106.022 269.018C106.328 269.018 106.58 269.054 106.922 269.126ZM110.732 278.216C108.842 278.216 107.726 277.154 107.726 275.552C107.726 273.932 108.932 272.924 111.002 272.762L113.774 272.546V272.294C113.774 270.818 112.892 270.296 111.704 270.296C110.282 270.296 109.472 270.926 109.472 271.988H107.996C107.996 270.152 109.508 268.946 111.776 268.946C113.954 268.946 115.43 270.098 115.43 272.474V278H113.99L113.81 276.578C113.36 277.586 112.154 278.216 110.732 278.216ZM111.218 276.902C112.82 276.902 113.792 275.858 113.792 274.202V273.734L111.542 273.914C110.048 274.058 109.436 274.634 109.436 275.498C109.436 276.434 110.12 276.902 111.218 276.902ZM119.465 278H117.773V269.198H119.303L119.483 270.548C120.041 269.54 121.157 268.946 122.399 268.946C124.721 268.946 125.783 270.368 125.783 272.618V278H124.091V272.996C124.091 271.214 123.263 270.494 121.967 270.494C120.383 270.494 119.465 271.628 119.465 273.338V278ZM130.61 278H128.918V270.62H127.19V269.198H128.918V266.444H130.61V269.198H132.338V270.62H130.61V278ZM137.567 278.216C134.975 278.216 133.193 276.344 133.193 273.608C133.193 270.854 134.939 268.946 137.495 268.946C139.997 268.946 141.635 270.674 141.635 273.284V273.914L134.831 273.932C134.957 275.786 135.929 276.812 137.603 276.812C138.917 276.812 139.781 276.272 140.069 275.264H141.653C141.221 277.154 139.745 278.216 137.567 278.216ZM137.495 270.368C136.019 270.368 135.083 271.25 134.867 272.798H139.943C139.943 271.34 138.989 270.368 137.495 270.368ZM142.805 275.444H144.425C144.425 276.344 145.109 276.884 146.225 276.884C147.413 276.884 148.097 276.398 148.097 275.588C148.097 274.994 147.809 274.634 146.891 274.4L145.343 274.04C143.777 273.662 143.039 272.888 143.039 271.592C143.039 269.972 144.407 268.946 146.351 268.946C148.277 268.946 149.537 270.026 149.573 271.7H147.953C147.917 270.818 147.323 270.26 146.297 270.26C145.235 270.26 144.641 270.728 144.641 271.538C144.641 272.132 145.073 272.528 145.937 272.744L147.485 273.122C148.979 273.482 149.717 274.166 149.717 275.48C149.717 277.154 148.277 278.216 146.189 278.216C144.119 278.216 142.805 277.118 142.805 275.444ZM174.706 278.018H177.028V279.35H173.158V263.492H177.028V264.842H174.706V278.018ZM246.522 277.298C246.522 278.594 245.55 279.674 244.272 279.836V279.08C245.01 278.954 245.532 278.468 245.532 277.91C245.406 277.982 245.262 278.018 245.046 278.018C244.452 278.018 243.948 277.586 243.948 276.92C243.948 276.2 244.434 275.678 245.154 275.678C245.91 275.678 246.522 276.308 246.522 277.298ZM328.7 277.298C328.7 278.594 327.728 279.674 326.45 279.836V279.08C327.188 278.954 327.71 278.468 327.71 277.91C327.583 277.982 327.44 278.018 327.224 278.018C326.63 278.018 326.125 277.586 326.125 276.92C326.125 276.2 326.612 275.678 327.332 275.678C328.088 275.678 328.7 276.308 328.7 277.298ZM133.407 311.298C133.407 312.594 132.435 313.674 131.157 313.836V313.08C131.895 312.954 132.417 312.468 132.417 311.91C132.291 311.982 132.147 312.018 131.931 312.018C131.337 312.018 130.833 311.586 130.833 310.92C130.833 310.2 131.319 309.678 132.039 309.678C132.795 309.678 133.407 310.308 133.407 311.298ZM240.334 311.298C240.334 312.594 239.362 313.674 238.084 313.836V313.08C238.822 312.954 239.344 312.468 239.344 311.91C239.218 311.982 239.074 312.018 238.858 312.018C238.264 312.018 237.76 311.586 237.76 310.92C237.76 310.2 238.246 309.678 238.966 309.678C239.722 309.678 240.334 310.308 240.334 311.298ZM302.404 313.35V312.018H304.726V298.842H302.404V297.492H306.274V313.35H302.404Z" fill="#DEDEDE"/>
<path d="M215.994 176.216C213.438 176.216 211.89 174.308 211.89 171.626C211.89 168.926 213.456 166.946 216.066 166.946C217.416 166.946 218.55 167.54 219.144 168.62V162.752H220.818V176H219.306L219.162 174.398C218.586 175.604 217.398 176.216 215.994 176.216ZM216.336 174.686C218.064 174.686 219.126 173.408 219.126 171.572C219.126 169.772 218.064 168.476 216.336 168.476C214.608 168.476 213.6 169.772 213.6 171.572C213.6 173.39 214.608 174.686 216.336 174.686ZM227.057 176.216C224.465 176.216 222.683 174.344 222.683 171.608C222.683 168.854 224.429 166.946 226.985 166.946C229.487 166.946 231.125 168.674 231.125 171.284V171.914L224.321 171.932C224.447 173.786 225.419 174.812 227.093 174.812C228.407 174.812 229.271 174.272 229.559 173.264H231.143C230.711 175.154 229.235 176.216 227.057 176.216ZM226.985 168.368C225.509 168.368 224.573 169.25 224.357 170.798H229.433C229.433 169.34 228.479 168.368 226.985 168.368ZM232.439 171.536C232.439 168.836 234.023 166.946 236.543 166.946C237.929 166.946 239.135 167.576 239.711 168.782L239.855 167.198H241.367V179.942H239.693V174.56C239.099 175.64 237.929 176.234 236.525 176.234C233.933 176.234 232.439 174.218 232.439 171.536ZM234.149 171.608C234.149 173.408 235.157 174.704 236.885 174.704C238.613 174.704 239.675 173.408 239.675 171.608C239.675 169.772 238.613 168.494 236.885 168.494C235.157 168.494 234.149 169.79 234.149 171.608ZM249.892 167.198H251.566V176H250.054L249.874 174.668C249.37 175.586 248.2 176.216 246.904 176.216C244.852 176.216 243.7 174.83 243.7 172.67V167.198H245.392V172.112C245.392 174.002 246.202 174.722 247.498 174.722C249.046 174.722 249.892 173.732 249.892 171.842V167.198ZM257.643 176.216C255.051 176.216 253.269 174.344 253.269 171.608C253.269 168.854 255.015 166.946 257.571 166.946C260.073 166.946 261.711 168.674 261.711 171.284V171.914L254.907 171.932C255.033 173.786 256.005 174.812 257.679 174.812C258.993 174.812 259.857 174.272 260.145 173.264H261.729C261.297 175.154 259.821 176.216 257.643 176.216ZM257.571 168.368C256.095 168.368 255.159 169.25 254.943 170.798H260.019C260.019 169.34 259.065 168.368 257.571 168.368Z" fill="#FFCC00"/>
<path d="M267.399 179.114H265.995C264.339 177.044 263.241 173.912 263.241 170.654C263.241 167.594 264.231 164.39 265.995 162.212H267.399C265.977 164.192 264.969 167.288 264.969 170.654C264.969 173.84 265.869 177.008 267.399 179.114ZM268.826 179.114H267.404C268.934 177.008 269.834 173.84 269.834 170.654C269.834 167.288 268.844 164.192 267.404 162.212H268.826C270.572 164.39 271.562 167.594 271.562 170.654C271.562 173.912 270.464 177.044 268.826 179.114ZM228.112 213.114H226.708C225.052 211.044 223.954 207.912 223.954 204.654C223.954 201.594 224.944 198.39 226.708 196.212H228.112C226.69 198.192 225.682 201.288 225.682 204.654C225.682 207.84 226.582 211.008 228.112 213.114ZM229.539 213.114H228.117C229.647 211.008 230.547 207.84 230.547 204.654C230.547 201.288 229.557 198.192 228.117 196.212H229.539C231.285 198.39 232.275 201.594 232.275 204.654C232.275 207.912 231.177 211.044 229.539 213.114Z" fill="#404040"/>
<path d="M176.707 210.216C174.151 210.216 172.603 208.308 172.603 205.626C172.603 202.926 174.169 200.946 176.779 200.946C178.129 200.946 179.263 201.54 179.857 202.62V196.752H181.531V210H180.019L179.875 208.398C179.299 209.604 178.111 210.216 176.707 210.216ZM177.049 208.686C178.777 208.686 179.839 207.408 179.839 205.572C179.839 203.772 178.777 202.476 177.049 202.476C175.321 202.476 174.313 203.772 174.313 205.572C174.313 207.39 175.321 208.686 177.049 208.686ZM187.77 210.216C185.178 210.216 183.396 208.344 183.396 205.608C183.396 202.854 185.142 200.946 187.698 200.946C190.2 200.946 191.838 202.674 191.838 205.284V205.914L185.034 205.932C185.16 207.786 186.132 208.812 187.806 208.812C189.12 208.812 189.984 208.272 190.272 207.264H191.856C191.424 209.154 189.948 210.216 187.77 210.216ZM187.698 202.368C186.222 202.368 185.286 203.25 185.07 204.798H190.146C190.146 203.34 189.192 202.368 187.698 202.368ZM193.152 205.536C193.152 202.836 194.736 200.946 197.256 200.946C198.642 200.946 199.848 201.576 200.424 202.782L200.568 201.198H202.08V213.942H200.406V208.56C199.812 209.64 198.642 210.234 197.238 210.234C194.646 210.234 193.152 208.218 193.152 205.536ZM194.862 205.608C194.862 207.408 195.87 208.704 197.598 208.704C199.326 208.704 200.388 207.408 200.388 205.608C200.388 203.772 199.326 202.494 197.598 202.494C195.87 202.494 194.862 203.79 194.862 205.608ZM210.605 201.198H212.279V210H210.767L210.587 208.668C210.083 209.586 208.913 210.216 207.617 210.216C205.565 210.216 204.413 208.83 204.413 206.67V201.198H206.105V206.112C206.105 208.002 206.915 208.722 208.211 208.722C209.759 208.722 210.605 207.732 210.605 205.842V201.198ZM218.356 210.216C215.764 210.216 213.982 208.344 213.982 205.608C213.982 202.854 215.728 200.946 218.284 200.946C220.786 200.946 222.424 202.674 222.424 205.284V205.914L215.62 205.932C215.746 207.786 216.718 208.812 218.392 208.812C219.706 208.812 220.57 208.272 220.858 207.264H222.442C222.01 209.154 220.534 210.216 218.356 210.216ZM218.284 202.368C216.808 202.368 215.872 203.25 215.656 204.798H220.732C220.732 203.34 219.778 202.368 218.284 202.368Z" fill="#FFCC00"/>
<path d="M156.731 270.008H165.731V271.466H156.731V270.008ZM156.731 273.788H165.731V275.246H156.731V273.788Z" fill="#00C3D0"/>
<path d="M180.723 267.65C180.723 268.334 180.255 268.838 179.535 268.838C178.815 268.838 178.239 268.244 178.239 267.272C178.239 265.958 179.157 264.914 180.417 264.734V265.49C179.715 265.634 179.211 266.102 179.211 266.678C179.337 266.606 179.499 266.552 179.715 266.552C180.273 266.552 180.723 266.948 180.723 267.65ZM183.945 267.65C183.945 268.334 183.459 268.838 182.757 268.838C182.019 268.838 181.443 268.244 181.443 267.272C181.443 265.958 182.379 264.914 183.639 264.734V265.49C182.937 265.634 182.433 266.102 182.433 266.66C182.559 266.588 182.721 266.552 182.919 266.552C183.477 266.552 183.945 266.948 183.945 267.65ZM197.754 271.484C197.754 275.444 195.162 278.216 191.472 278.216C187.8 278.216 185.244 275.444 185.244 271.484C185.244 267.542 187.818 264.752 191.49 264.752C195.18 264.752 197.754 267.524 197.754 271.484ZM195.9 271.484C195.9 268.46 194.136 266.462 191.49 266.462C188.844 266.462 187.098 268.46 187.098 271.484C187.098 274.508 188.844 276.524 191.49 276.524C194.136 276.524 195.9 274.49 195.9 271.484ZM202.206 278H200.514V270.62H198.786V269.198H200.514V266.444H202.206V269.198H203.934V270.62H202.206V278ZM211.269 265.778L209.721 268.172H208.407L209.631 265.778H211.269ZM207.921 278.216C206.031 278.216 204.915 277.154 204.915 275.552C204.915 273.932 206.121 272.924 208.191 272.762L210.963 272.546V272.294C210.963 270.818 210.081 270.296 208.893 270.296C207.471 270.296 206.661 270.926 206.661 271.988H205.185C205.185 270.152 206.697 268.946 208.965 268.946C211.143 268.946 212.619 270.098 212.619 272.474V278H211.179L210.999 276.578C210.549 277.586 209.343 278.216 207.921 278.216ZM208.407 276.902C210.009 276.902 210.981 275.858 210.981 274.202V273.734L208.731 273.914C207.237 274.058 206.625 274.634 206.625 275.498C206.625 276.434 207.309 276.902 208.407 276.902ZM217.077 278L213.531 269.198H215.331L217.257 274.112C217.563 274.94 217.815 275.678 217.959 276.218C218.103 275.642 218.391 274.886 218.697 274.112L220.659 269.198H222.423L218.751 278H217.077ZM224.597 267.11C223.985 267.11 223.481 266.606 223.481 265.994C223.481 265.364 223.985 264.878 224.597 264.878C225.209 264.878 225.713 265.364 225.713 265.994C225.713 266.606 225.209 267.11 224.597 267.11ZM223.769 278V269.198H225.461V278H223.769ZM227.341 273.59C227.341 270.872 229.285 268.964 231.931 268.964C234.559 268.964 236.503 270.872 236.503 273.59C236.503 276.308 234.559 278.216 231.931 278.216C229.285 278.216 227.341 276.308 227.341 273.59ZM229.051 273.59C229.051 275.426 230.221 276.704 231.931 276.704C233.623 276.704 234.811 275.426 234.811 273.59C234.811 271.754 233.623 270.476 231.931 270.476C230.221 270.476 229.051 271.754 229.051 273.59ZM240.014 266.3C240.014 267.614 239.096 268.676 237.836 268.838V268.082C238.538 267.956 239.042 267.488 239.042 266.912C238.916 266.984 238.754 267.02 238.538 267.02C237.998 267.02 237.53 266.624 237.53 265.922C237.53 265.238 237.998 264.734 238.718 264.734C239.438 264.734 240.014 265.328 240.014 266.3ZM243.236 266.3C243.236 267.614 242.318 268.676 241.04 268.838V268.082C241.742 267.956 242.246 267.488 242.246 266.912C242.12 266.984 241.976 267.02 241.76 267.02C241.202 267.02 240.734 266.624 240.734 265.922C240.734 265.238 241.22 264.734 241.922 264.734C242.66 264.734 243.236 265.328 243.236 266.3Z" fill="#34C759"/>
<path d="M256.256 267.65C256.256 268.334 255.788 268.838 255.068 268.838C254.348 268.838 253.772 268.244 253.772 267.272C253.772 265.958 254.69 264.914 255.95 264.734V265.49C255.248 265.634 254.744 266.102 254.744 266.678C254.87 266.606 255.032 266.552 255.248 266.552C255.806 266.552 256.256 266.948 256.256 267.65ZM259.478 267.65C259.478 268.334 258.992 268.838 258.29 268.838C257.552 268.838 256.976 268.244 256.976 267.272C256.976 265.958 257.912 264.914 259.172 264.734V265.49C258.47 265.634 257.966 266.102 257.966 266.66C258.092 266.588 258.254 266.552 258.452 266.552C259.01 266.552 259.478 266.948 259.478 267.65ZM263.842 278H262.114V264.986H263.842L268.324 275.93L272.806 264.986H274.57V278H272.842V272.852C272.842 270.422 272.86 269.54 272.95 268.622L269.152 278H267.496L263.716 268.658C263.806 269.288 263.842 270.62 263.842 272.438V278ZM279.886 278.216C277.996 278.216 276.88 277.154 276.88 275.552C276.88 273.932 278.086 272.924 280.156 272.762L282.928 272.546V272.294C282.928 270.818 282.046 270.296 280.858 270.296C279.436 270.296 278.626 270.926 278.626 271.988H277.15C277.15 270.152 278.662 268.946 280.93 268.946C283.108 268.946 284.584 270.098 284.584 272.474V278H283.144L282.964 276.578C282.514 277.586 281.308 278.216 279.886 278.216ZM280.372 276.902C281.974 276.902 282.946 275.858 282.946 274.202V273.734L280.696 273.914C279.202 274.058 278.59 274.634 278.59 275.498C278.59 276.434 279.274 276.902 280.372 276.902ZM289.271 278H287.579V270.62H285.851V269.198H287.579V266.444H289.271V269.198H290.999V270.62H289.271V278ZM296.227 278.216C293.635 278.216 291.853 276.344 291.853 273.608C291.853 270.854 293.599 268.946 296.155 268.946C298.657 268.946 300.295 270.674 300.295 273.284V273.914L293.491 273.932C293.617 275.786 294.589 276.812 296.263 276.812C297.577 276.812 298.441 276.272 298.729 275.264H300.313C299.881 277.154 298.405 278.216 296.227 278.216ZM296.155 270.368C294.679 270.368 293.743 271.25 293.527 272.798H298.603C298.603 271.34 297.649 270.368 296.155 270.368ZM308.269 269.198H309.943V278H308.431L308.251 276.668C307.747 277.586 306.577 278.216 305.281 278.216C303.229 278.216 302.077 276.83 302.077 274.67V269.198H303.769V274.112C303.769 276.002 304.579 276.722 305.875 276.722C307.423 276.722 308.269 275.732 308.269 273.842V269.198ZM311.502 275.444H313.122C313.122 276.344 313.806 276.884 314.922 276.884C316.11 276.884 316.794 276.398 316.794 275.588C316.794 274.994 316.506 274.634 315.588 274.4L314.04 274.04C312.474 273.662 311.736 272.888 311.736 271.592C311.736 269.972 313.104 268.946 315.048 268.946C316.974 268.946 318.234 270.026 318.27 271.7H316.65C316.614 270.818 316.02 270.26 314.994 270.26C313.932 270.26 313.338 270.728 313.338 271.538C313.338 272.132 313.77 272.528 314.634 272.744L316.182 273.122C317.676 273.482 318.414 274.166 318.414 275.48C318.414 277.154 316.974 278.216 314.886 278.216C312.816 278.216 311.502 277.118 311.502 275.444ZM322.192 266.3C322.192 267.614 321.274 268.676 320.014 268.838V268.082C320.716 267.956 321.22 267.488 321.22 266.912C321.094 266.984 320.932 267.02 320.716 267.02C320.176 267.02 319.708 266.624 319.708 265.922C319.708 265.238 320.176 264.734 320.896 264.734C321.616 264.734 322.192 265.328 322.192 266.3ZM325.414 266.3C325.414 267.614 324.496 268.676 323.218 268.838V268.082C323.92 267.956 324.424 267.488 324.424 266.912C324.298 266.984 324.154 267.02 323.938 267.02C323.38 267.02 322.912 266.624 322.912 265.922C322.912 265.238 323.398 264.734 324.1 264.734C324.838 264.734 325.414 265.328 325.414 266.3ZM63.6 301.65C63.6 302.334 63.132 302.838 62.412 302.838C61.692 302.838 61.116 302.244 61.116 301.272C61.116 299.958 62.034 298.914 63.294 298.734V299.49C62.592 299.634 62.088 300.102 62.088 300.678C62.214 300.606 62.376 300.552 62.592 300.552C63.15 300.552 63.6 300.948 63.6 301.65ZM66.822 301.65C66.822 302.334 66.336 302.838 65.634 302.838C64.896 302.838 64.32 302.244 64.32 301.272C64.32 299.958 65.256 298.914 66.516 298.734V299.49C65.814 299.634 65.31 300.102 65.31 300.66C65.436 300.588 65.598 300.552 65.796 300.552C66.354 300.552 66.822 300.948 66.822 301.65ZM69.4573 312V298.986H74.4253C76.9633 298.986 78.5113 300.282 78.5113 302.424C78.5113 303.918 77.8633 304.926 76.5673 305.466C78.0073 305.934 78.7453 306.978 78.7453 308.526C78.7453 310.686 77.1793 312 74.6053 312H69.4573ZM74.3173 300.552H71.2213V304.728H74.4253C75.8833 304.728 76.7113 303.936 76.7113 302.586C76.7113 301.29 75.8473 300.552 74.3173 300.552ZM74.5693 306.258H71.2213V310.434H74.5693C76.0813 310.434 76.9273 309.66 76.9273 308.31C76.9273 307.014 76.0633 306.258 74.5693 306.258ZM85.7054 303.126V304.674H84.9494C83.3474 304.674 82.3574 305.646 82.3574 307.338V312H80.6654V303.216H82.2494L82.3574 304.548C82.7174 303.63 83.5994 303.018 84.8054 303.018C85.1114 303.018 85.3634 303.054 85.7054 303.126ZM89.5148 312.216C87.6248 312.216 86.5088 311.154 86.5088 309.552C86.5088 307.932 87.7148 306.924 89.7848 306.762L92.5568 306.546V306.294C92.5568 304.818 91.6748 304.296 90.4868 304.296C89.0648 304.296 88.2548 304.926 88.2548 305.988H86.7788C86.7788 304.152 88.2908 302.946 90.5588 302.946C92.7368 302.946 94.2128 304.098 94.2128 306.474V312H92.7728L92.5928 310.578C92.1428 311.586 90.9368 312.216 89.5148 312.216ZM90.0008 310.902C91.6028 310.902 92.5748 309.858 92.5748 308.202V307.734L90.3248 307.914C88.8308 308.058 88.2188 308.634 88.2188 309.498C88.2188 310.434 88.9028 310.902 90.0008 310.902ZM95.4991 315.942V314.556H96.6331C97.4431 314.556 98.0911 314.43 98.5051 313.314L98.8111 312.468L95.2651 303.198H97.0471L99.6031 310.29L102.213 303.198H103.959L99.8011 313.98C99.2071 315.492 98.3251 316.122 96.9751 316.122C96.4171 316.122 95.9491 316.05 95.4991 315.942ZM107.48 312.216C105.59 312.216 104.474 311.154 104.474 309.552C104.474 307.932 105.68 306.924 107.75 306.762L110.522 306.546V306.294C110.522 304.818 109.64 304.296 108.452 304.296C107.03 304.296 106.22 304.926 106.22 305.988H104.744C104.744 304.152 106.256 302.946 108.524 302.946C110.702 302.946 112.178 304.098 112.178 306.474V312H110.738L110.558 310.578C110.108 311.586 108.902 312.216 107.48 312.216ZM107.966 310.902C109.568 310.902 110.54 309.858 110.54 308.202V307.734L108.29 307.914C106.796 308.058 106.184 308.634 106.184 309.498C106.184 310.434 106.868 310.902 107.966 310.902ZM116.213 312H114.521V303.198H116.051L116.231 304.548C116.789 303.54 117.905 302.946 119.147 302.946C121.469 302.946 122.531 304.368 122.531 306.618V312H120.839V306.996C120.839 305.214 120.011 304.494 118.715 304.494C117.131 304.494 116.213 305.628 116.213 307.338V312ZM126.899 300.3C126.899 301.614 125.981 302.676 124.721 302.838V302.082C125.423 301.956 125.927 301.488 125.927 300.912C125.801 300.984 125.639 301.02 125.423 301.02C124.883 301.02 124.415 300.624 124.415 299.922C124.415 299.238 124.883 298.734 125.603 298.734C126.323 298.734 126.899 299.328 126.899 300.3ZM130.121 300.3C130.121 301.614 129.203 302.676 127.925 302.838V302.082C128.627 301.956 129.131 301.488 129.131 300.912C129.005 300.984 128.861 301.02 128.645 301.02C128.087 301.02 127.619 300.624 127.619 299.922C127.619 299.238 128.105 298.734 128.807 298.734C129.545 298.734 130.121 299.328 130.121 300.3ZM143.141 301.65C143.141 302.334 142.673 302.838 141.953 302.838C141.233 302.838 140.657 302.244 140.657 301.272C140.657 299.958 141.575 298.914 142.835 298.734V299.49C142.133 299.634 141.629 300.102 141.629 300.678C141.755 300.606 141.917 300.552 142.133 300.552C142.691 300.552 143.141 300.948 143.141 301.65ZM146.363 301.65C146.363 302.334 145.877 302.838 145.175 302.838C144.437 302.838 143.861 302.244 143.861 301.272C143.861 299.958 144.797 298.914 146.057 298.734V299.49C145.355 299.634 144.851 300.102 144.851 300.66C144.977 300.588 145.139 300.552 145.337 300.552C145.895 300.552 146.363 300.948 146.363 301.65ZM146.405 308.382V307.734H148.115V308.382C148.115 309.66 148.817 310.578 150.257 310.578C151.733 310.578 152.381 309.678 152.381 308.328V298.986H154.145V308.4C154.145 310.74 152.579 312.216 150.257 312.216C147.773 312.216 146.405 310.632 146.405 308.382ZM156.22 307.59C156.22 304.872 158.164 302.964 160.81 302.964C163.438 302.964 165.382 304.872 165.382 307.59C165.382 310.308 163.438 312.216 160.81 312.216C158.164 312.216 156.22 310.308 156.22 307.59ZM157.93 307.59C157.93 309.426 159.1 310.704 160.81 310.704C162.502 310.704 163.69 309.426 163.69 307.59C163.69 305.754 162.502 304.476 160.81 304.476C159.1 304.476 157.93 305.754 157.93 307.59ZM169.253 301.938H168.173C168.065 300.588 168.641 299.742 169.649 299.742C170.729 299.742 171.269 300.75 172.007 300.75C172.439 300.75 172.619 300.39 172.619 299.742H173.717C173.807 301.2 173.195 301.938 172.151 301.938C171.017 301.938 170.477 300.93 169.847 300.93C169.451 300.93 169.253 301.29 169.253 301.938ZM169.829 312.216C167.939 312.216 166.823 311.154 166.823 309.552C166.823 307.932 168.029 306.924 170.099 306.762L172.871 306.546V306.294C172.871 304.818 171.989 304.296 170.801 304.296C169.379 304.296 168.569 304.926 168.569 305.988H167.093C167.093 304.152 168.605 302.946 170.873 302.946C173.051 302.946 174.527 304.098 174.527 306.474V312H173.087L172.907 310.578C172.457 311.586 171.251 312.216 169.829 312.216ZM170.315 310.902C171.917 310.902 172.889 309.858 172.889 308.202V307.734L170.639 307.914C169.145 308.058 168.533 308.634 168.533 309.498C168.533 310.434 169.217 310.902 170.315 310.902ZM176.294 307.59C176.294 304.872 178.238 302.964 180.884 302.964C183.512 302.964 185.456 304.872 185.456 307.59C185.456 310.308 183.512 312.216 180.884 312.216C178.238 312.216 176.294 310.308 176.294 307.59ZM178.004 307.59C178.004 309.426 179.174 310.704 180.884 310.704C182.576 310.704 183.764 309.426 183.764 307.59C183.764 305.754 182.576 304.476 180.884 304.476C179.174 304.476 178.004 305.754 178.004 307.59ZM196.157 312L191.207 298.986H193.097L196.265 307.302C196.553 308.04 196.805 308.778 197.075 309.75C197.381 308.724 197.687 307.86 197.903 307.284L201.053 298.986H202.889L197.993 312H196.157ZM205.12 301.11C204.508 301.11 204.004 300.606 204.004 299.994C204.004 299.364 204.508 298.878 205.12 298.878C205.732 298.878 206.236 299.364 206.236 299.994C206.236 300.606 205.732 301.11 205.12 301.11ZM204.292 312V303.198H205.984V312H204.292ZM210.925 312H209.233V304.62H207.505V303.198H209.233V300.444H210.925V303.198H212.653V304.62H210.925V312ZM213.507 307.59C213.507 304.872 215.451 302.964 218.097 302.964C220.725 302.964 222.669 304.872 222.669 307.59C222.669 310.308 220.725 312.216 218.097 312.216C215.451 312.216 213.507 310.308 213.507 307.59ZM215.217 307.59C215.217 309.426 216.387 310.704 218.097 310.704C219.789 310.704 220.977 309.426 220.977 307.59C220.977 305.754 219.789 304.476 218.097 304.476C216.387 304.476 215.217 305.754 215.217 307.59ZM229.582 303.126V304.674H228.826C227.224 304.674 226.234 305.646 226.234 307.338V312H224.542V303.216H226.126L226.234 304.548C226.594 303.63 227.476 303.018 228.682 303.018C228.988 303.018 229.24 303.054 229.582 303.126ZM233.827 300.3C233.827 301.614 232.909 302.676 231.649 302.838V302.082C232.351 301.956 232.855 301.488 232.855 300.912C232.729 300.984 232.567 301.02 232.351 301.02C231.811 301.02 231.343 300.624 231.343 299.922C231.343 299.238 231.811 298.734 232.531 298.734C233.251 298.734 233.827 299.328 233.827 300.3ZM237.049 300.3C237.049 301.614 236.131 302.676 234.853 302.838V302.082C235.555 301.956 236.059 301.488 236.059 300.912C235.933 300.984 235.789 301.02 235.573 301.02C235.015 301.02 234.547 300.624 234.547 299.922C234.547 299.238 235.033 298.734 235.735 298.734C236.473 298.734 237.049 299.328 237.049 300.3ZM250.069 301.65C250.069 302.334 249.601 302.838 248.881 302.838C248.161 302.838 247.585 302.244 247.585 301.272C247.585 299.958 248.503 298.914 249.763 298.734V299.49C249.061 299.634 248.557 300.102 248.557 300.678C248.683 300.606 248.845 300.552 249.061 300.552C249.619 300.552 250.069 300.948 250.069 301.65ZM253.291 301.65C253.291 302.334 252.805 302.838 252.103 302.838C251.365 302.838 250.789 302.244 250.789 301.272C250.789 299.958 251.725 298.914 252.985 298.734V299.49C252.283 299.634 251.779 300.102 251.779 300.66C251.905 300.588 252.067 300.552 252.265 300.552C252.823 300.552 253.291 300.948 253.291 301.65ZM254.673 312H252.837L257.589 298.986H259.551L264.321 312H262.467L261.297 308.76H255.825L254.673 312ZM258.345 301.794L256.365 307.23H260.775L258.777 301.794C258.687 301.542 258.597 301.236 258.561 301.038C258.525 301.218 258.435 301.524 258.345 301.794ZM270.803 303.126V304.674H270.047C268.445 304.674 267.455 305.646 267.455 307.338V312H265.763V303.216H267.347L267.455 304.548C267.815 303.63 268.697 303.018 269.903 303.018C270.209 303.018 270.461 303.054 270.803 303.126ZM275.226 312H273.534V304.62H271.806V303.198H273.534V300.444H275.226V303.198H276.954V304.62H275.226V312ZM284.556 303.198H286.23V312H284.718L284.538 310.668C284.034 311.586 282.864 312.216 281.568 312.216C279.516 312.216 278.364 310.83 278.364 308.67V303.198H280.056V308.112C280.056 310.002 280.866 310.722 282.162 310.722C283.71 310.722 284.556 309.732 284.556 307.842V303.198ZM293.725 303.126V304.674H292.969C291.367 304.674 290.377 305.646 290.377 307.338V312H288.685V303.216H290.269L290.377 304.548C290.737 303.63 291.619 303.018 292.825 303.018C293.131 303.018 293.383 303.054 293.725 303.126ZM297.969 300.3C297.969 301.614 297.051 302.676 295.791 302.838V302.082C296.493 301.956 296.997 301.488 296.997 300.912C296.871 300.984 296.709 301.02 296.493 301.02C295.953 301.02 295.485 300.624 295.485 299.922C295.485 299.238 295.953 298.734 296.673 298.734C297.393 298.734 297.969 299.328 297.969 300.3ZM301.191 300.3C301.191 301.614 300.273 302.676 298.995 302.838V302.082C299.697 301.956 300.201 301.488 300.201 300.912C300.075 300.984 299.931 301.02 299.715 301.02C299.157 301.02 298.689 300.624 298.689 299.922C298.689 299.238 299.175 298.734 299.877 298.734C300.615 298.734 301.191 299.328 301.191 300.3Z" fill="#34C759"/>
</svg>
