<svg width="600" height="324" viewBox="0 0 600 324" fill="none" xmlns="http://www.w3.org/2000/svg">
<path d="M0 20C0 8.95431 8.95431 0 20 0H580C591.046 0 600 8.95431 600 20V304C600 315.046 591.046 324 580 324H20C8.95432 324 0 315.046 0 304V20Z" fill="#2E2E2E"/>
<rect y="71" width="600" height="2" fill="#2B2B2B"/>
<circle cx="40" cy="37" r="15" fill="#FF383C"/>
<circle cx="85" cy="37" r="15" fill="#FFCC00"/>
<circle cx="130" cy="37" r="15" fill="#34C759"/>
<g opacity="0.5">
<path d="M32.407 112V109.264H26.521V106.348L31.633 98.86H33.793L28.393 106.816V107.518H32.407V104.44H34.333V112H32.407ZM37.566 112V110.272H41.058V100.552L37.548 103.162V101.056L40.554 98.86H43.002V110.272H45.828V112H37.566Z" fill="#1A1A1A"/>
<path d="M32.407 146V143.264H26.521V140.348L31.633 132.86H33.793L28.393 140.816V141.518H32.407V138.44H34.333V146H32.407ZM37.53 146V144.074L41.598 139.88C42.222 139.232 42.678 138.65 42.966 138.134C43.266 137.606 43.416 137.084 43.416 136.568C43.416 135.896 43.23 135.368 42.858 134.984C42.498 134.6 42 134.408 41.364 134.408C40.668 134.408 40.116 134.612 39.708 135.02C39.312 135.416 39.114 135.962 39.114 136.658H37.17C37.194 135.842 37.38 135.14 37.728 134.552C38.076 133.952 38.562 133.49 39.186 133.166C39.81 132.842 40.542 132.68 41.382 132.68C42.186 132.68 42.888 132.836 43.488 133.148C44.088 133.46 44.55 133.898 44.874 134.462C45.198 135.026 45.36 135.692 45.36 136.46C45.36 137.24 45.156 138.002 44.748 138.746C44.352 139.49 43.698 140.318 42.786 141.23L39.816 144.236H45.558V146H37.53Z" fill="#1A1A1A"/>
<path d="M32.407 180V177.264H26.521V174.348L31.633 166.86H33.793L28.393 174.816V175.518H32.407V172.44H34.333V180H32.407ZM41.238 180.18C40.41 180.18 39.69 180.024 39.078 179.712C38.466 179.4 37.992 178.962 37.656 178.398C37.332 177.822 37.17 177.156 37.17 176.4H39.114C39.114 177.06 39.3 177.576 39.672 177.948C40.056 178.32 40.584 178.506 41.256 178.506C41.94 178.506 42.468 178.314 42.84 177.93C43.212 177.546 43.398 177.036 43.398 176.4V175.428C43.398 174.756 43.212 174.24 42.84 173.88C42.468 173.508 41.94 173.322 41.256 173.322H39.852V171.486L42.912 168.57H37.728V166.86H44.892V168.696L41.274 172.098V171.63C42.522 171.63 43.512 171.972 44.244 172.656C44.976 173.34 45.342 174.258 45.342 175.41V176.4C45.342 177.156 45.174 177.822 44.838 178.398C44.502 178.962 44.022 179.4 43.398 179.712C42.786 180.024 42.066 180.18 41.238 180.18Z" fill="#1A1A1A"/>
<path d="M32.407 214V211.264H26.521V208.348L31.633 200.86H33.793L28.393 208.816V209.518H32.407V206.44H34.333V214H32.407ZM43.2 214V211.264H37.314V208.348L42.426 200.86H44.586L39.186 208.816V209.518H43.2V206.44H45.126V214H43.2Z" fill="#1A1A1A"/>
<path d="M32.407 248V245.264H26.521V242.348L31.633 234.86H33.793L28.393 242.816V243.518H32.407V240.44H34.333V248H32.407ZM41.364 248.18C40.224 248.18 39.3 247.892 38.592 247.316C37.884 246.728 37.488 245.942 37.404 244.958H39.33C39.39 245.438 39.594 245.81 39.942 246.074C40.29 246.338 40.77 246.47 41.382 246.47C42.066 246.47 42.582 246.29 42.93 245.93C43.29 245.558 43.47 245.042 43.47 244.382V243.104C43.47 242.432 43.296 241.916 42.948 241.556C42.6 241.184 42.084 240.998 41.4 240.998C40.968 240.998 40.596 241.1 40.284 241.304C39.972 241.496 39.744 241.766 39.6 242.114H37.674L37.764 234.86H44.928V236.624H39.618L39.582 240.71H40.086L39.564 241.178C39.564 240.614 39.786 240.17 40.23 239.846C40.674 239.522 41.268 239.36 42.012 239.36C43.08 239.36 43.908 239.69 44.496 240.35C45.096 240.998 45.396 241.916 45.396 243.104V244.382C45.396 245.546 45.042 246.47 44.334 247.154C43.626 247.838 42.636 248.18 41.364 248.18Z" fill="#1A1A1A"/>
<path d="M32.407 282V279.264H26.521V276.348L31.633 268.86H33.793L28.393 276.816V277.518H32.407V274.44H34.333V282H32.407ZM41.418 282.18C40.554 282.18 39.798 282 39.15 281.64C38.502 281.28 37.998 280.776 37.638 280.128C37.278 279.468 37.098 278.712 37.098 277.86C37.098 277.212 37.194 276.564 37.386 275.916C37.59 275.256 37.878 274.626 38.25 274.026L41.454 268.86H43.614L39.798 274.908L39.888 274.962C40.128 274.614 40.446 274.35 40.842 274.17C41.25 273.978 41.7 273.882 42.192 273.882C42.9 273.882 43.518 274.05 44.046 274.386C44.574 274.722 44.982 275.196 45.27 275.808C45.558 276.408 45.702 277.122 45.702 277.95C45.702 278.79 45.522 279.528 45.162 280.164C44.802 280.8 44.304 281.298 43.668 281.658C43.032 282.006 42.282 282.18 41.418 282.18ZM41.4 280.506C42.12 280.506 42.696 280.272 43.128 279.804C43.56 279.336 43.776 278.718 43.776 277.95C43.776 277.182 43.56 276.564 43.128 276.096C42.696 275.628 42.12 275.394 41.4 275.394C40.68 275.394 40.104 275.628 39.672 276.096C39.24 276.564 39.024 277.182 39.024 277.95C39.024 278.718 39.24 279.336 39.672 279.804C40.104 280.272 40.68 280.506 41.4 280.506Z" fill="#1A1A1A"/>
</g>
<path d="M72.034 111L70.504 101.1H72.142L73.06 107.634C73.108 107.934 73.15 108.27 73.186 108.642C73.234 109.002 73.27 109.302 73.294 109.542C73.318 109.302 73.354 109.002 73.402 108.642C73.462 108.282 73.516 107.946 73.564 107.634L74.59 101.1H76.228L77.236 107.634C77.284 107.946 77.332 108.288 77.38 108.66C77.44 109.02 77.482 109.32 77.506 109.56C77.53 109.308 77.566 109.002 77.614 108.642C77.674 108.27 77.728 107.934 77.776 107.634L78.712 101.1H80.296L78.712 111H76.66L75.688 104.538C75.64 104.202 75.586 103.848 75.526 103.476C75.466 103.092 75.424 102.786 75.4 102.558C75.364 102.786 75.316 103.092 75.256 103.476C75.208 103.848 75.16 104.202 75.112 104.538L74.104 111H72.034ZM82.305 111V97.86H84.249V101.1L84.231 102.99H84.699L84.231 103.44C84.231 102.648 84.465 102.03 84.933 101.586C85.401 101.142 86.049 100.92 86.877 100.92C87.861 100.92 88.647 101.238 89.235 101.874C89.823 102.498 90.117 103.344 90.117 104.412V111H88.173V104.628C88.173 103.98 87.999 103.476 87.651 103.116C87.303 102.756 86.829 102.576 86.229 102.576C85.617 102.576 85.131 102.768 84.771 103.152C84.423 103.524 84.249 104.058 84.249 104.754V111H82.305ZM93.0439 111V109.236H96.5179V102.864H93.4939V101.1H98.4079V109.236H101.594V111H93.0439ZM97.2739 99.39C96.8539 99.39 96.5179 99.282 96.2659 99.066C96.0139 98.838 95.8879 98.538 95.8879 98.166C95.8879 97.782 96.0139 97.482 96.2659 97.266C96.5179 97.038 96.8539 96.924 97.2739 96.924C97.6939 96.924 98.0299 97.038 98.2819 97.266C98.5339 97.482 98.6599 97.782 98.6599 98.166C98.6599 98.538 98.5339 98.838 98.2819 99.066C98.0299 99.282 97.6939 99.39 97.2739 99.39ZM109.201 111C108.589 111 108.055 110.88 107.599 110.64C107.143 110.388 106.783 110.034 106.519 109.578C106.267 109.122 106.141 108.594 106.141 107.994V99.624H102.901V97.86H108.085V107.994C108.085 108.378 108.193 108.684 108.409 108.912C108.625 109.128 108.919 109.236 109.291 109.236H112.351V111H109.201ZM118.572 111.18C117.768 111.18 117.06 111.024 116.448 110.712C115.848 110.388 115.386 109.938 115.062 109.362C114.738 108.786 114.576 108.114 114.576 107.346V104.754C114.576 103.974 114.738 103.302 115.062 102.738C115.386 102.162 115.848 101.718 116.448 101.406C117.06 101.082 117.768 100.92 118.572 100.92C119.388 100.92 120.096 101.082 120.696 101.406C121.296 101.718 121.758 102.162 122.082 102.738C122.406 103.302 122.568 103.974 122.568 104.754V106.518H116.448V107.346C116.448 108.078 116.628 108.636 116.988 109.02C117.36 109.404 117.894 109.596 118.59 109.596C119.154 109.596 119.61 109.5 119.958 109.308C120.306 109.104 120.522 108.81 120.606 108.426H122.532C122.388 109.266 121.956 109.938 121.236 110.442C120.516 110.934 119.628 111.18 118.572 111.18ZM120.696 105.348V104.736C120.696 104.016 120.516 103.458 120.156 103.062C119.796 102.666 119.268 102.468 118.572 102.468C117.888 102.468 117.36 102.666 116.988 103.062C116.628 103.458 116.448 104.022 116.448 104.754V105.204L120.84 105.186L120.696 105.348ZM139.186 111V99.642H135.676V97.842H144.64V99.642H141.13V111H139.186ZM147.387 111V101.1H149.259V102.99H149.727L149.133 104.16C149.133 103.092 149.367 102.288 149.835 101.748C150.303 101.196 150.999 100.92 151.923 100.92C152.979 100.92 153.813 101.25 154.425 101.91C155.049 102.558 155.361 103.452 155.361 104.592V105.258H153.363V104.754C153.363 104.046 153.183 103.506 152.823 103.134C152.475 102.75 151.983 102.558 151.347 102.558C150.711 102.558 150.213 102.75 149.853 103.134C149.505 103.518 149.331 104.058 149.331 104.754V111H147.387ZM161.726 111.18C160.538 111.18 159.59 110.838 158.882 110.154C158.174 109.458 157.82 108.516 157.82 107.328V101.1H159.764V107.328C159.764 108.012 159.938 108.546 160.286 108.93C160.634 109.302 161.114 109.488 161.726 109.488C162.35 109.488 162.836 109.302 163.184 108.93C163.544 108.546 163.724 108.012 163.724 107.328V101.1H165.668V107.328C165.668 108.516 165.308 109.458 164.588 110.154C163.88 110.838 162.926 111.18 161.726 111.18ZM172.537 111.18C171.733 111.18 171.025 111.024 170.413 110.712C169.813 110.388 169.351 109.938 169.027 109.362C168.703 108.786 168.541 108.114 168.541 107.346V104.754C168.541 103.974 168.703 103.302 169.027 102.738C169.351 102.162 169.813 101.718 170.413 101.406C171.025 101.082 171.733 100.92 172.537 100.92C173.353 100.92 174.061 101.082 174.661 101.406C175.261 101.718 175.723 102.162 176.047 102.738C176.371 103.302 176.533 103.974 176.533 104.754V106.518H170.413V107.346C170.413 108.078 170.593 108.636 170.953 109.02C171.325 109.404 171.859 109.596 172.555 109.596C173.119 109.596 173.575 109.5 173.923 109.308C174.271 109.104 174.487 108.81 174.571 108.426H176.497C176.353 109.266 175.921 109.938 175.201 110.442C174.481 110.934 173.593 111.18 172.537 111.18ZM174.661 105.348V104.736C174.661 104.016 174.481 103.458 174.121 103.062C173.761 102.666 173.233 102.468 172.537 102.468C171.853 102.468 171.325 102.666 170.953 103.062C170.593 103.458 170.413 104.022 170.413 104.754V105.204L174.805 105.186L174.661 105.348Z" fill="#0088FF"/>
<path d="M183.33 103.782C182.862 103.782 182.478 103.65 182.178 103.386C181.89 103.122 181.746 102.774 181.746 102.342C181.746 101.91 181.89 101.568 182.178 101.316C182.478 101.052 182.862 100.92 183.33 100.92C183.81 100.92 184.194 101.052 184.482 101.316C184.77 101.568 184.914 101.91 184.914 102.342C184.914 102.774 184.77 103.122 184.482 103.386C184.194 103.65 183.81 103.782 183.33 103.782ZM183.33 111.18C182.862 111.18 182.478 111.048 182.178 110.784C181.89 110.52 181.746 110.178 181.746 109.758C181.746 109.314 181.89 108.966 182.178 108.714C182.478 108.45 182.862 108.318 183.33 108.318C183.81 108.318 184.194 108.45 184.482 108.714C184.77 108.966 184.914 109.314 184.914 109.758C184.914 110.178 184.77 110.52 184.482 110.784C184.194 111.048 183.81 111.18 183.33 111.18ZM175.867 147.16C174.103 146.716 172.735 145.882 171.763 144.658C170.791 143.422 170.305 141.916 170.305 140.14V136.9C170.305 135.736 170.527 134.68 170.971 133.732C171.427 132.784 172.069 131.98 172.897 131.32C173.737 130.648 174.727 130.168 175.867 129.88V131.752C175.123 131.932 174.481 132.262 173.941 132.742C173.401 133.21 172.981 133.798 172.681 134.506C172.393 135.214 172.249 136.012 172.249 136.9V140.14C172.249 141.004 172.393 141.79 172.681 142.498C172.981 143.206 173.401 143.794 173.941 144.262C174.481 144.718 175.123 145.036 175.867 145.216V147.16ZM439.031 147.16V145.216C439.775 145.036 440.417 144.718 440.957 144.262C441.497 143.794 441.911 143.206 442.199 142.498C442.499 141.79 442.649 141.004 442.649 140.14V136.9C442.649 136.012 442.499 135.214 442.199 134.506C441.911 133.798 441.497 133.21 440.957 132.742C440.417 132.262 439.775 131.932 439.031 131.752V129.88C440.183 130.168 441.173 130.648 442.001 131.32C442.829 131.98 443.465 132.784 443.909 133.732C444.365 134.68 444.593 135.736 444.593 136.9V140.14C444.593 141.916 444.107 143.422 443.135 144.658C442.163 145.882 440.795 146.716 439.031 147.16ZM175.867 181.16C174.103 180.716 172.735 179.882 171.763 178.658C170.791 177.422 170.305 175.916 170.305 174.14V170.9C170.305 169.736 170.527 168.68 170.971 167.732C171.427 166.784 172.069 165.98 172.897 165.32C173.737 164.648 174.727 164.168 175.867 163.88V165.752C175.123 165.932 174.481 166.262 173.941 166.742C173.401 167.21 172.981 167.798 172.681 168.506C172.393 169.214 172.249 170.012 172.249 170.9V174.14C172.249 175.004 172.393 175.79 172.681 176.498C172.981 177.206 173.401 177.794 173.941 178.262C174.481 178.718 175.123 179.036 175.867 179.216V181.16ZM395.859 181.16V179.216C396.603 179.036 397.245 178.718 397.785 178.262C398.325 177.794 398.739 177.206 399.027 176.498C399.327 175.79 399.477 175.004 399.477 174.14V170.9C399.477 170.012 399.327 169.214 399.027 168.506C398.739 167.798 398.325 167.21 397.785 166.742C397.245 166.262 396.603 165.932 395.859 165.752V163.88C397.011 164.168 398.001 164.648 398.829 165.32C399.657 165.98 400.293 166.784 400.737 167.732C401.193 168.68 401.421 169.736 401.421 170.9V174.14C401.421 175.916 400.935 177.422 399.963 178.658C398.991 179.882 397.623 180.716 395.859 181.16ZM175.867 215.16C174.103 214.716 172.735 213.882 171.763 212.658C170.791 211.422 170.305 209.916 170.305 208.14V204.9C170.305 203.736 170.527 202.68 170.971 201.732C171.427 200.784 172.069 199.98 172.897 199.32C173.737 198.648 174.727 198.168 175.867 197.88V199.752C175.123 199.932 174.481 200.262 173.941 200.742C173.401 201.21 172.981 201.798 172.681 202.506C172.393 203.214 172.249 204.012 172.249 204.9V208.14C172.249 209.004 172.393 209.79 172.681 210.498C172.981 211.206 173.401 211.794 173.941 212.262C174.481 212.718 175.123 213.036 175.867 213.216V215.16ZM374.273 215.16V213.216C375.017 213.036 375.659 212.718 376.199 212.262C376.739 211.794 377.153 211.206 377.441 210.498C377.741 209.79 377.891 209.004 377.891 208.14V204.9C377.891 204.012 377.741 203.214 377.441 202.506C377.153 201.798 376.739 201.21 376.199 200.742C375.659 200.262 375.017 199.932 374.273 199.752V197.88C375.425 198.168 376.415 198.648 377.243 199.32C378.071 199.98 378.707 200.784 379.151 201.732C379.607 202.68 379.835 203.736 379.835 204.9V208.14C379.835 209.916 379.349 211.422 378.377 212.658C377.405 213.882 376.037 214.716 374.273 215.16ZM175.867 249.16C174.103 248.716 172.735 247.882 171.763 246.658C170.791 245.422 170.305 243.916 170.305 242.14V238.9C170.305 237.736 170.527 236.68 170.971 235.732C171.427 234.784 172.069 233.98 172.897 233.32C173.737 232.648 174.727 232.168 175.867 231.88V233.752C175.123 233.932 174.481 234.262 173.941 234.742C173.401 235.21 172.981 235.798 172.681 236.506C172.393 237.214 172.249 238.012 172.249 238.9V242.14C172.249 243.004 172.393 243.79 172.681 244.498C172.981 245.206 173.401 245.794 173.941 246.262C174.481 246.718 175.123 247.036 175.867 247.216V249.16ZM287.929 249.16V247.216C288.673 247.036 289.315 246.718 289.855 246.262C290.395 245.794 290.809 245.206 291.097 244.498C291.397 243.79 291.547 243.004 291.547 242.14V238.9C291.547 238.012 291.397 237.214 291.097 236.506C290.809 235.798 290.395 235.21 289.855 234.742C289.315 234.262 288.673 233.932 287.929 233.752V231.88C289.081 232.168 290.071 232.648 290.899 233.32C291.727 233.98 292.363 234.784 292.807 235.732C293.263 236.68 293.491 237.736 293.491 238.9V242.14C293.491 243.916 293.005 245.422 292.033 246.658C291.061 247.882 289.693 248.716 287.929 249.16ZM118.572 281.162C117.756 281.162 117.048 281.006 116.448 280.694C115.848 280.382 115.386 279.938 115.062 279.362C114.738 278.786 114.576 278.108 114.576 277.328V274.772C114.576 273.98 114.738 273.302 115.062 272.738C115.386 272.162 115.848 271.718 116.448 271.406C117.048 271.094 117.756 270.938 118.572 270.938C119.388 270.938 120.096 271.094 120.696 271.406C121.296 271.718 121.758 272.162 122.082 272.738C122.406 273.302 122.568 273.98 122.568 274.772V277.328C122.568 278.108 122.406 278.786 122.082 279.362C121.758 279.938 121.296 280.382 120.696 280.694C120.096 281.006 119.388 281.162 118.572 281.162ZM118.572 279.452C119.232 279.452 119.742 279.272 120.102 278.912C120.462 278.54 120.642 278.012 120.642 277.328V274.772C120.642 274.076 120.462 273.548 120.102 273.188C119.742 272.828 119.232 272.648 118.572 272.648C117.924 272.648 117.414 272.828 117.042 273.188C116.682 273.548 116.502 274.076 116.502 274.772V277.328C116.502 278.012 116.682 278.54 117.042 278.912C117.414 279.272 117.924 279.452 118.572 279.452ZM125.477 284.24V271.1H127.403V272.99H127.817L127.403 273.44C127.403 272.66 127.643 272.048 128.123 271.604C128.615 271.148 129.269 270.92 130.085 270.92C131.081 270.92 131.873 271.256 132.461 271.928C133.061 272.588 133.361 273.494 133.361 274.646V277.436C133.361 278.204 133.223 278.87 132.947 279.434C132.683 279.986 132.305 280.418 131.813 280.73C131.333 281.03 130.757 281.18 130.085 281.18C129.281 281.18 128.633 280.958 128.141 280.514C127.649 280.058 127.403 279.44 127.403 278.66L127.817 279.11H127.367L127.421 281.414V284.24H125.477ZM129.419 279.488C130.055 279.488 130.547 279.308 130.895 278.948C131.255 278.576 131.435 278.042 131.435 277.346V274.754C131.435 274.058 131.255 273.53 130.895 273.17C130.547 272.798 130.055 272.612 129.419 272.612C128.807 272.612 128.321 272.804 127.961 273.188C127.601 273.56 127.421 274.082 127.421 274.754V277.346C127.421 278.018 127.601 278.546 127.961 278.93C128.321 279.302 128.807 279.488 129.419 279.488ZM140.23 281.18C139.414 281.18 138.694 281.03 138.07 280.73C137.458 280.418 136.984 279.974 136.648 279.398C136.324 278.81 136.162 278.126 136.162 277.346V274.754C136.162 273.962 136.324 273.278 136.648 272.702C136.984 272.126 137.458 271.688 138.07 271.388C138.694 271.076 139.414 270.92 140.23 270.92C141.418 270.92 142.372 271.232 143.092 271.856C143.812 272.48 144.19 273.332 144.226 274.412H142.282C142.246 273.848 142.048 273.41 141.688 273.098C141.328 272.786 140.842 272.63 140.23 272.63C139.57 272.63 139.048 272.816 138.664 273.188C138.28 273.548 138.088 274.064 138.088 274.736V277.346C138.088 278.018 138.28 278.54 138.664 278.912C139.048 279.284 139.57 279.47 140.23 279.47C140.842 279.47 141.328 279.314 141.688 279.002C142.048 278.69 142.246 278.252 142.282 277.688H144.226C144.19 278.768 143.812 279.62 143.092 280.244C142.372 280.868 141.418 281.18 140.23 281.18ZM149.961 281.18C148.929 281.18 148.113 280.916 147.513 280.388C146.925 279.848 146.631 279.116 146.631 278.192C146.631 277.256 146.943 276.524 147.567 275.996C148.203 275.456 149.073 275.186 150.177 275.186H152.931V274.268C152.931 273.728 152.763 273.308 152.427 273.008C152.091 272.708 151.617 272.558 151.005 272.558C150.465 272.558 150.015 272.678 149.655 272.918C149.295 273.146 149.085 273.452 149.025 273.836H147.117C147.225 272.948 147.633 272.24 148.341 271.712C149.061 271.184 149.967 270.92 151.059 270.92C152.235 270.92 153.165 271.22 153.849 271.82C154.533 272.408 154.875 273.212 154.875 274.232V281H152.985V279.182H152.661L152.985 278.822C152.985 279.542 152.709 280.118 152.157 280.55C151.605 280.97 150.873 281.18 149.961 281.18ZM150.537 279.686C151.233 279.686 151.803 279.512 152.247 279.164C152.703 278.804 152.931 278.348 152.931 277.796V276.5H150.213C149.709 276.5 149.307 276.638 149.007 276.914C148.719 277.19 148.575 277.568 148.575 278.048C148.575 278.552 148.749 278.954 149.097 279.254C149.445 279.542 149.925 279.686 150.537 279.686ZM161.744 281.162C160.928 281.162 160.22 281.006 159.62 280.694C159.02 280.382 158.558 279.938 158.234 279.362C157.91 278.786 157.748 278.108 157.748 277.328V274.772C157.748 273.98 157.91 273.302 158.234 272.738C158.558 272.162 159.02 271.718 159.62 271.406C160.22 271.094 160.928 270.938 161.744 270.938C162.56 270.938 163.268 271.094 163.868 271.406C164.468 271.718 164.93 272.162 165.254 272.738C165.578 273.302 165.74 273.98 165.74 274.772V277.328C165.74 278.108 165.578 278.786 165.254 279.362C164.93 279.938 164.468 280.382 163.868 280.694C163.268 281.006 162.56 281.162 161.744 281.162ZM161.744 279.452C162.404 279.452 162.914 279.272 163.274 278.912C163.634 278.54 163.814 278.012 163.814 277.328V274.772C163.814 274.076 163.634 273.548 163.274 273.188C162.914 272.828 162.404 272.648 161.744 272.648C161.096 272.648 160.586 272.828 160.214 273.188C159.854 273.548 159.674 274.076 159.674 274.772V277.328C159.674 278.012 159.854 278.54 160.214 278.912C160.586 279.272 161.096 279.452 161.744 279.452ZM262.21 283.16C260.446 282.716 259.078 281.882 258.106 280.658C257.134 279.422 256.648 277.916 256.648 276.14V272.9C256.648 271.736 256.87 270.68 257.314 269.732C257.77 268.784 258.412 267.98 259.24 267.32C260.08 266.648 261.07 266.168 262.21 265.88V267.752C261.466 267.932 260.824 268.262 260.284 268.742C259.744 269.21 259.324 269.798 259.024 270.506C258.736 271.214 258.592 272.012 258.592 272.9V276.14C258.592 277.004 258.736 277.79 259.024 278.498C259.324 279.206 259.744 279.794 260.284 280.262C260.824 280.718 261.466 281.036 262.21 281.216V283.16ZM385.066 283.16V281.216C385.81 281.036 386.452 280.718 386.992 280.262C387.532 279.794 387.946 279.206 388.234 278.498C388.534 277.79 388.684 277.004 388.684 276.14V272.9C388.684 272.012 388.534 271.214 388.234 270.506C387.946 269.798 387.532 269.21 386.992 268.742C386.452 268.262 385.81 267.932 385.066 267.752V265.88C386.218 266.168 387.208 266.648 388.036 267.32C388.864 267.98 389.5 268.784 389.944 269.732C390.4 270.68 390.628 271.736 390.628 272.9V276.14C390.628 277.916 390.142 279.422 389.17 280.658C388.198 281.882 386.83 282.716 385.066 283.16Z" fill="white"/>
<path d="M114.684 148.24V135.1H116.61V136.99H117.024L116.61 137.44C116.61 136.66 116.85 136.048 117.33 135.604C117.822 135.148 118.476 134.92 119.292 134.92C120.288 134.92 121.08 135.256 121.668 135.928C122.268 136.588 122.568 137.494 122.568 138.646V141.436C122.568 142.204 122.43 142.87 122.154 143.434C121.89 143.986 121.512 144.418 121.02 144.73C120.54 145.03 119.964 145.18 119.292 145.18C118.488 145.18 117.84 144.958 117.348 144.514C116.856 144.058 116.61 143.44 116.61 142.66L117.024 143.11H116.574L116.628 145.414V148.24H114.684ZM118.626 143.488C119.262 143.488 119.754 143.308 120.102 142.948C120.462 142.576 120.642 142.042 120.642 141.346V138.754C120.642 138.058 120.462 137.53 120.102 137.17C119.754 136.798 119.262 136.612 118.626 136.612C118.014 136.612 117.528 136.804 117.168 137.188C116.808 137.56 116.628 138.082 116.628 138.754V141.346C116.628 142.018 116.808 142.546 117.168 142.93C117.528 143.302 118.014 143.488 118.626 143.488ZM125.801 145V135.1H127.673V136.99H128.141L127.547 138.16C127.547 137.092 127.781 136.288 128.249 135.748C128.717 135.196 129.413 134.92 130.337 134.92C131.393 134.92 132.227 135.25 132.839 135.91C133.463 136.558 133.775 137.452 133.775 138.592V139.258H131.777V138.754C131.777 138.046 131.597 137.506 131.237 137.134C130.889 136.75 130.397 136.558 129.761 136.558C129.125 136.558 128.627 136.75 128.267 137.134C127.919 137.518 127.745 138.058 127.745 138.754V145H125.801ZM136.216 145V143.236H139.69V136.864H136.666V135.1H141.58V143.236H144.766V145H136.216ZM140.446 133.39C140.026 133.39 139.69 133.282 139.438 133.066C139.186 132.838 139.06 132.538 139.06 132.166C139.06 131.782 139.186 131.482 139.438 131.266C139.69 131.038 140.026 130.924 140.446 130.924C140.866 130.924 141.202 131.038 141.454 131.266C141.706 131.482 141.832 131.782 141.832 132.166C141.832 132.538 141.706 132.838 141.454 133.066C141.202 133.282 140.866 133.39 140.446 133.39ZM147.063 145V135.1H148.989V136.99H149.457L148.989 137.44C148.989 136.648 149.223 136.03 149.691 135.586C150.159 135.142 150.807 134.92 151.635 134.92C152.619 134.92 153.405 135.238 153.993 135.874C154.581 136.498 154.875 137.344 154.875 138.412V145H152.931V138.628C152.931 137.98 152.757 137.482 152.409 137.134C152.061 136.786 151.587 136.612 150.987 136.612C150.375 136.612 149.889 136.798 149.529 137.17C149.181 137.53 149.007 138.058 149.007 138.754V145H147.063ZM162.824 145C161.924 145 161.222 144.754 160.718 144.262C160.214 143.77 159.962 143.086 159.962 142.21V136.864H157.226V135.1H159.962V132.31H161.906V135.1H165.776V136.864H161.906V142.21C161.906 142.894 162.236 143.236 162.896 143.236H165.596V145H162.824Z" fill="#FFCC00"/>
<path d="M184.446 137.26L184.23 133.858V131.86H186.246V133.858L186.03 137.26H184.446ZM180.648 137.26L180.414 133.858V131.86H182.43V133.858L182.232 137.26H180.648ZM234.415 139.942V138.178H240.175V139.942H234.415ZM255.244 145V143.272H257.89V133.588H255.244V131.86H262.516V133.588H259.87V143.272H262.516V145H255.244ZM265.785 145V135.1H267.711V136.99H268.179L267.711 137.44C267.711 136.648 267.945 136.03 268.413 135.586C268.881 135.142 269.529 134.92 270.357 134.92C271.341 134.92 272.127 135.238 272.715 135.874C273.303 136.498 273.597 137.344 273.597 138.412V145H271.653V138.628C271.653 137.98 271.479 137.482 271.131 137.134C270.783 136.786 270.309 136.612 269.709 136.612C269.097 136.612 268.611 136.798 268.251 137.17C267.903 137.53 267.729 138.058 267.729 138.754V145H265.785ZM280.124 145.162C279.416 145.162 278.792 145.048 278.252 144.82C277.724 144.592 277.304 144.28 276.992 143.884C276.692 143.476 276.518 142.996 276.47 142.444H278.414C278.462 142.768 278.636 143.032 278.936 143.236C279.236 143.428 279.632 143.524 280.124 143.524H280.898C281.486 143.524 281.93 143.404 282.23 143.164C282.53 142.924 282.68 142.606 282.68 142.21C282.68 141.826 282.542 141.526 282.266 141.31C282.002 141.082 281.606 140.932 281.078 140.86L279.8 140.662C278.744 140.494 277.964 140.194 277.46 139.762C276.968 139.318 276.722 138.664 276.722 137.8C276.722 136.888 277.016 136.186 277.604 135.694C278.204 135.19 279.086 134.938 280.25 134.938H280.934C281.966 134.938 282.788 135.178 283.4 135.658C284.024 136.126 284.378 136.756 284.462 137.548H282.518C282.47 137.26 282.308 137.026 282.032 136.846C281.768 136.666 281.402 136.576 280.934 136.576H280.25C279.686 136.576 279.272 136.684 279.008 136.9C278.756 137.104 278.63 137.41 278.63 137.818C278.63 138.178 278.744 138.448 278.972 138.628C279.2 138.808 279.554 138.934 280.034 139.006L281.348 139.222C282.464 139.378 283.28 139.69 283.796 140.158C284.324 140.614 284.588 141.28 284.588 142.156C284.588 143.104 284.276 143.842 283.652 144.37C283.04 144.898 282.122 145.162 280.898 145.162H280.124ZM291.259 145.18C290.455 145.18 289.747 145.024 289.135 144.712C288.535 144.388 288.073 143.938 287.749 143.362C287.425 142.786 287.263 142.114 287.263 141.346V138.754C287.263 137.974 287.425 137.302 287.749 136.738C288.073 136.162 288.535 135.718 289.135 135.406C289.747 135.082 290.455 134.92 291.259 134.92C292.075 134.92 292.783 135.082 293.383 135.406C293.983 135.718 294.445 136.162 294.769 136.738C295.093 137.302 295.255 137.974 295.255 138.754V140.518H289.135V141.346C289.135 142.078 289.315 142.636 289.675 143.02C290.047 143.404 290.581 143.596 291.277 143.596C291.841 143.596 292.297 143.5 292.645 143.308C292.993 143.104 293.209 142.81 293.293 142.426H295.219C295.075 143.266 294.643 143.938 293.923 144.442C293.203 144.934 292.315 145.18 291.259 145.18ZM293.383 139.348V138.736C293.383 138.016 293.203 137.458 292.843 137.062C292.483 136.666 291.955 136.468 291.259 136.468C290.575 136.468 290.047 136.666 289.675 137.062C289.315 137.458 289.135 138.022 289.135 138.754V139.204L293.527 139.186L293.383 139.348ZM298.488 145V135.1H300.36V136.99H300.828L300.234 138.16C300.234 137.092 300.468 136.288 300.936 135.748C301.404 135.196 302.1 134.92 303.024 134.92C304.08 134.92 304.914 135.25 305.526 135.91C306.15 136.558 306.462 137.452 306.462 138.592V139.258H304.464V138.754C304.464 138.046 304.284 137.506 303.924 137.134C303.576 136.75 303.084 136.558 302.448 136.558C301.812 136.558 301.314 136.75 300.954 137.134C300.606 137.518 300.432 138.058 300.432 138.754V145H298.488ZM308.903 145V143.236H312.377V136.864H309.353V135.1H314.267V143.236H317.453V145H308.903ZM313.133 133.39C312.713 133.39 312.377 133.282 312.125 133.066C311.873 132.838 311.747 132.538 311.747 132.166C311.747 131.782 311.873 131.482 312.125 131.266C312.377 131.038 312.713 130.924 313.133 130.924C313.553 130.924 313.889 131.038 314.141 131.266C314.393 131.482 314.519 131.782 314.519 132.166C314.519 132.538 314.393 132.838 314.141 133.066C313.889 133.282 313.553 133.39 313.133 133.39ZM320.074 145V135.1H321.946V136.99H322.414L321.82 138.16C321.82 137.092 322.054 136.288 322.522 135.748C322.99 135.196 323.686 134.92 324.61 134.92C325.666 134.92 326.5 135.25 327.112 135.91C327.736 136.558 328.048 137.452 328.048 138.592V139.258H326.05V138.754C326.05 138.046 325.87 137.506 325.51 137.134C325.162 136.75 324.67 136.558 324.034 136.558C323.398 136.558 322.9 136.75 322.54 137.134C322.192 137.518 322.018 138.058 322.018 138.754V145H320.074ZM341.336 148.24V135.1H343.262V136.99H343.676L343.262 137.44C343.262 136.66 343.502 136.048 343.982 135.604C344.474 135.148 345.128 134.92 345.944 134.92C346.94 134.92 347.732 135.256 348.32 135.928C348.92 136.588 349.22 137.494 349.22 138.646V141.436C349.22 142.204 349.082 142.87 348.806 143.434C348.542 143.986 348.164 144.418 347.672 144.73C347.192 145.03 346.616 145.18 345.944 145.18C345.14 145.18 344.492 144.958 344 144.514C343.508 144.058 343.262 143.44 343.262 142.66L343.676 143.11H343.226L343.28 145.414V148.24H341.336ZM345.278 143.488C345.914 143.488 346.406 143.308 346.754 142.948C347.114 142.576 347.294 142.042 347.294 141.346V138.754C347.294 138.058 347.114 137.53 346.754 137.17C346.406 136.798 345.914 136.612 345.278 136.612C344.666 136.612 344.18 136.804 343.82 137.188C343.46 137.56 343.28 138.082 343.28 138.754V141.346C343.28 142.018 343.46 142.546 343.82 142.93C344.18 143.302 344.666 143.488 345.278 143.488ZM355.027 145.18C353.995 145.18 353.179 144.916 352.579 144.388C351.991 143.848 351.697 143.116 351.697 142.192C351.697 141.256 352.009 140.524 352.633 139.996C353.269 139.456 354.139 139.186 355.243 139.186H357.997V138.268C357.997 137.728 357.829 137.308 357.493 137.008C357.157 136.708 356.683 136.558 356.071 136.558C355.531 136.558 355.081 136.678 354.721 136.918C354.361 137.146 354.151 137.452 354.091 137.836H352.183C352.291 136.948 352.699 136.24 353.407 135.712C354.127 135.184 355.033 134.92 356.125 134.92C357.301 134.92 358.231 135.22 358.915 135.82C359.599 136.408 359.941 137.212 359.941 138.232V145H358.051V143.182H357.727L358.051 142.822C358.051 143.542 357.775 144.118 357.223 144.55C356.671 144.97 355.939 145.18 355.027 145.18ZM355.603 143.686C356.299 143.686 356.869 143.512 357.313 143.164C357.769 142.804 357.997 142.348 357.997 141.796V140.5H355.279C354.775 140.5 354.373 140.638 354.073 140.914C353.785 141.19 353.641 141.568 353.641 142.048C353.641 142.552 353.815 142.954 354.163 143.254C354.511 143.542 354.991 143.686 355.603 143.686ZM366.882 145.18C366.066 145.18 365.346 145.03 364.722 144.73C364.11 144.418 363.636 143.974 363.3 143.398C362.976 142.81 362.814 142.126 362.814 141.346V138.754C362.814 137.962 362.976 137.278 363.3 136.702C363.636 136.126 364.11 135.688 364.722 135.388C365.346 135.076 366.066 134.92 366.882 134.92C368.07 134.92 369.024 135.232 369.744 135.856C370.464 136.48 370.842 137.332 370.878 138.412H368.934C368.898 137.848 368.7 137.41 368.34 137.098C367.98 136.786 367.494 136.63 366.882 136.63C366.222 136.63 365.7 136.816 365.316 137.188C364.932 137.548 364.74 138.064 364.74 138.736V141.346C364.74 142.018 364.932 142.54 365.316 142.912C365.7 143.284 366.222 143.47 366.882 143.47C367.494 143.47 367.98 143.314 368.34 143.002C368.7 142.69 368.898 142.252 368.934 141.688H370.878C370.842 142.768 370.464 143.62 369.744 144.244C369.024 144.868 368.07 145.18 366.882 145.18ZM373.661 145V143.236H377.135V136.864H374.111V135.1H379.025V143.236H382.211V145H373.661ZM377.891 133.39C377.471 133.39 377.135 133.282 376.883 133.066C376.631 132.838 376.505 132.538 376.505 132.166C376.505 131.782 376.631 131.482 376.883 131.266C377.135 131.038 377.471 130.924 377.891 130.924C378.311 130.924 378.647 131.038 378.899 131.266C379.151 131.482 379.277 131.782 379.277 132.166C379.277 132.538 379.151 132.838 378.899 133.066C378.647 133.282 378.311 133.39 377.891 133.39ZM388.396 145.18C387.592 145.18 386.884 145.024 386.272 144.712C385.672 144.388 385.21 143.938 384.886 143.362C384.562 142.786 384.4 142.114 384.4 141.346V138.754C384.4 137.974 384.562 137.302 384.886 136.738C385.21 136.162 385.672 135.718 386.272 135.406C386.884 135.082 387.592 134.92 388.396 134.92C389.212 134.92 389.92 135.082 390.52 135.406C391.12 135.718 391.582 136.162 391.906 136.738C392.23 137.302 392.392 137.974 392.392 138.754V140.518H386.272V141.346C386.272 142.078 386.452 142.636 386.812 143.02C387.184 143.404 387.718 143.596 388.414 143.596C388.978 143.596 389.434 143.5 389.782 143.308C390.13 143.104 390.346 142.81 390.43 142.426H392.356C392.212 143.266 391.78 143.938 391.06 144.442C390.34 144.934 389.452 145.18 388.396 145.18ZM390.52 139.348V138.736C390.52 138.016 390.34 137.458 389.98 137.062C389.62 136.666 389.092 136.468 388.396 136.468C387.712 136.468 387.184 136.666 386.812 137.062C386.452 137.458 386.272 138.022 386.272 138.754V139.204L390.664 139.186L390.52 139.348ZM395.301 145V135.1H397.227V136.99H397.695L397.227 137.44C397.227 136.648 397.461 136.03 397.929 135.586C398.397 135.142 399.045 134.92 399.873 134.92C400.857 134.92 401.643 135.238 402.231 135.874C402.819 136.498 403.113 137.344 403.113 138.412V145H401.169V138.628C401.169 137.98 400.995 137.482 400.647 137.134C400.299 136.786 399.825 136.612 399.225 136.612C398.613 136.612 398.127 136.798 397.767 137.17C397.419 137.53 397.245 138.058 397.245 138.754V145H395.301ZM411.062 145C410.162 145 409.46 144.754 408.956 144.262C408.452 143.77 408.2 143.086 408.2 142.21V136.864H405.464V135.1H408.2V132.31H410.144V135.1H414.014V136.864H410.144V142.21C410.144 142.894 410.474 143.236 411.134 143.236H413.834V145H411.062ZM420.775 145.18C419.971 145.18 419.263 145.024 418.651 144.712C418.051 144.388 417.589 143.938 417.265 143.362C416.941 142.786 416.779 142.114 416.779 141.346V138.754C416.779 137.974 416.941 137.302 417.265 136.738C417.589 136.162 418.051 135.718 418.651 135.406C419.263 135.082 419.971 134.92 420.775 134.92C421.591 134.92 422.299 135.082 422.899 135.406C423.499 135.718 423.961 136.162 424.285 136.738C424.609 137.302 424.771 137.974 424.771 138.754V140.518H418.651V141.346C418.651 142.078 418.831 142.636 419.191 143.02C419.563 143.404 420.097 143.596 420.793 143.596C421.357 143.596 421.813 143.5 422.161 143.308C422.509 143.104 422.725 142.81 422.809 142.426H424.735C424.591 143.266 424.159 143.938 423.439 144.442C422.719 144.934 421.831 145.18 420.775 145.18ZM422.899 139.348V138.736C422.899 138.016 422.719 137.458 422.359 137.062C421.999 136.666 421.471 136.468 420.775 136.468C420.091 136.468 419.563 136.666 419.191 137.062C418.831 137.458 418.651 138.022 418.651 138.754V139.204L423.043 139.186L422.899 139.348ZM432.684 137.26L432.468 133.858V131.86H434.484V133.858L434.268 137.26H432.684ZM428.886 137.26L428.652 133.858V131.86H430.668V133.858L430.47 137.26H428.886ZM184.446 171.26L184.23 167.858V165.86H186.246V167.858L186.03 171.26H184.446ZM180.648 171.26L180.414 167.858V165.86H182.43V167.858L182.232 171.26H180.648ZM190.253 179V177.074L194.321 172.88C194.945 172.232 195.401 171.65 195.689 171.134C195.989 170.606 196.139 170.084 196.139 169.568C196.139 168.896 195.953 168.368 195.581 167.984C195.221 167.6 194.723 167.408 194.087 167.408C193.391 167.408 192.839 167.612 192.431 168.02C192.035 168.416 191.837 168.962 191.837 169.658H189.893C189.917 168.842 190.103 168.14 190.451 167.552C190.799 166.952 191.285 166.49 191.909 166.166C192.533 165.842 193.265 165.68 194.105 165.68C194.909 165.68 195.611 165.836 196.211 166.148C196.811 166.46 197.273 166.898 197.597 167.462C197.921 168.026 198.083 168.692 198.083 169.46C198.083 170.24 197.879 171.002 197.471 171.746C197.075 172.49 196.421 173.318 195.509 174.23L192.539 177.236H198.281V179H190.253ZM212.829 173.942V172.178H218.589V173.942H212.829ZM237.367 179.18C236.551 179.18 235.837 179.03 235.225 178.73C234.625 178.418 234.157 177.974 233.821 177.398C233.497 176.81 233.335 176.126 233.335 175.346V169.514C233.335 168.722 233.497 168.038 233.821 167.462C234.157 166.886 234.625 166.448 235.225 166.148C235.837 165.836 236.551 165.68 237.367 165.68C238.183 165.68 238.891 165.836 239.491 166.148C240.091 166.46 240.553 166.904 240.877 167.48C241.213 168.044 241.381 168.722 241.381 169.514H239.437C239.437 168.83 239.257 168.308 238.897 167.948C238.537 167.588 238.027 167.408 237.367 167.408C236.707 167.408 236.191 167.588 235.819 167.948C235.459 168.308 235.279 168.824 235.279 169.496V175.346C235.279 176.018 235.459 176.54 235.819 176.912C236.191 177.272 236.707 177.452 237.367 177.452C238.027 177.452 238.537 177.272 238.897 176.912C239.257 176.54 239.437 176.018 239.437 175.346H241.381C241.381 176.126 241.213 176.804 240.877 177.38C240.553 177.956 240.091 178.4 239.491 178.712C238.891 179.024 238.183 179.18 237.367 179.18ZM244.2 179V165.86H246.144V169.1L246.126 170.99H246.594L246.126 171.44C246.126 170.648 246.36 170.03 246.828 169.586C247.296 169.142 247.944 168.92 248.772 168.92C249.756 168.92 250.542 169.238 251.13 169.874C251.718 170.498 252.012 171.344 252.012 172.412V179H250.068V172.628C250.068 171.98 249.894 171.476 249.546 171.116C249.198 170.756 248.724 170.576 248.124 170.576C247.512 170.576 247.026 170.768 246.666 171.152C246.318 171.524 246.144 172.058 246.144 172.754V179H244.2ZM257.89 179.18C256.858 179.18 256.042 178.916 255.442 178.388C254.854 177.848 254.56 177.116 254.56 176.192C254.56 175.256 254.872 174.524 255.496 173.996C256.132 173.456 257.002 173.186 258.106 173.186H260.86V172.268C260.86 171.728 260.692 171.308 260.356 171.008C260.02 170.708 259.546 170.558 258.934 170.558C258.394 170.558 257.944 170.678 257.584 170.918C257.224 171.146 257.014 171.452 256.954 171.836H255.046C255.154 170.948 255.562 170.24 256.27 169.712C256.99 169.184 257.896 168.92 258.988 168.92C260.164 168.92 261.094 169.22 261.778 169.82C262.462 170.408 262.804 171.212 262.804 172.232V179H260.914V177.182H260.59L260.914 176.822C260.914 177.542 260.638 178.118 260.086 178.55C259.534 178.97 258.802 179.18 257.89 179.18ZM258.466 177.686C259.162 177.686 259.732 177.512 260.176 177.164C260.632 176.804 260.86 176.348 260.86 175.796V174.5H258.142C257.638 174.5 257.236 174.638 256.936 174.914C256.648 175.19 256.504 175.568 256.504 176.048C256.504 176.552 256.678 176.954 257.026 177.254C257.374 177.542 257.854 177.686 258.466 177.686ZM265.335 179V169.1H266.955V170.36H267.315L267.045 170.738C267.045 170.186 267.195 169.748 267.495 169.424C267.795 169.088 268.197 168.92 268.701 168.92C269.241 168.92 269.655 169.13 269.943 169.55C270.243 169.97 270.393 170.546 270.393 171.278L269.961 170.36H270.645L270.357 170.738C270.357 170.186 270.507 169.748 270.807 169.424C271.119 169.088 271.533 168.92 272.049 168.92C272.661 168.92 273.141 169.154 273.489 169.622C273.837 170.078 274.011 170.69 274.011 171.458V179H272.283V171.512C272.283 171.14 272.199 170.852 272.031 170.648C271.875 170.444 271.647 170.342 271.347 170.342C271.047 170.342 270.813 170.444 270.645 170.648C270.489 170.84 270.411 171.122 270.411 171.494V179H268.953V171.512C268.953 171.128 268.869 170.84 268.701 170.648C268.533 170.444 268.293 170.342 267.981 170.342C267.681 170.342 267.453 170.444 267.297 170.648C267.153 170.84 267.081 171.122 267.081 171.494V179H265.335ZM279.476 179.18C278.444 179.18 277.628 178.916 277.028 178.388C276.44 177.848 276.146 177.116 276.146 176.192C276.146 175.256 276.458 174.524 277.082 173.996C277.718 173.456 278.588 173.186 279.692 173.186H282.446V172.268C282.446 171.728 282.278 171.308 281.942 171.008C281.606 170.708 281.132 170.558 280.52 170.558C279.98 170.558 279.53 170.678 279.17 170.918C278.81 171.146 278.6 171.452 278.54 171.836H276.632C276.74 170.948 277.148 170.24 277.856 169.712C278.576 169.184 279.482 168.92 280.574 168.92C281.75 168.92 282.68 169.22 283.364 169.82C284.048 170.408 284.39 171.212 284.39 172.232V179H282.5V177.182H282.176L282.5 176.822C282.5 177.542 282.224 178.118 281.672 178.55C281.12 178.97 280.388 179.18 279.476 179.18ZM280.052 177.686C280.748 177.686 281.318 177.512 281.762 177.164C282.218 176.804 282.446 176.348 282.446 175.796V174.5H279.728C279.224 174.5 278.822 174.638 278.522 174.914C278.234 175.19 278.09 175.568 278.09 176.048C278.09 176.552 278.264 176.954 278.612 177.254C278.96 177.542 279.44 177.686 280.052 177.686ZM287.695 179V169.1H289.567V170.99H290.035L289.441 172.16C289.441 171.092 289.675 170.288 290.143 169.748C290.611 169.196 291.307 168.92 292.231 168.92C293.287 168.92 294.121 169.25 294.733 169.91C295.357 170.558 295.669 171.452 295.669 172.592V173.258H293.671V172.754C293.671 172.046 293.491 171.506 293.131 171.134C292.783 170.75 292.291 170.558 291.655 170.558C291.019 170.558 290.521 170.75 290.161 171.134C289.813 171.518 289.639 172.058 289.639 172.754V179H287.695ZM308.957 182.24V169.1H310.883V170.99H311.297L310.883 171.44C310.883 170.66 311.123 170.048 311.603 169.604C312.095 169.148 312.749 168.92 313.565 168.92C314.561 168.92 315.353 169.256 315.941 169.928C316.541 170.588 316.841 171.494 316.841 172.646V175.436C316.841 176.204 316.703 176.87 316.427 177.434C316.163 177.986 315.785 178.418 315.293 178.73C314.813 179.03 314.237 179.18 313.565 179.18C312.761 179.18 312.113 178.958 311.621 178.514C311.129 178.058 310.883 177.44 310.883 176.66L311.297 177.11H310.847L310.901 179.414V182.24H308.957ZM312.899 177.488C313.535 177.488 314.027 177.308 314.375 176.948C314.735 176.576 314.915 176.042 314.915 175.346V172.754C314.915 172.058 314.735 171.53 314.375 171.17C314.027 170.798 313.535 170.612 312.899 170.612C312.287 170.612 311.801 170.804 311.441 171.188C311.081 171.56 310.901 172.082 310.901 172.754V175.346C310.901 176.018 311.081 176.546 311.441 176.93C311.801 177.302 312.287 177.488 312.899 177.488ZM320.074 179V169.1H321.946V170.99H322.414L321.82 172.16C321.82 171.092 322.054 170.288 322.522 169.748C322.99 169.196 323.686 168.92 324.61 168.92C325.666 168.92 326.5 169.25 327.112 169.91C327.736 170.558 328.048 171.452 328.048 172.592V173.258H326.05V172.754C326.05 172.046 325.87 171.506 325.51 171.134C325.162 170.75 324.67 170.558 324.034 170.558C323.398 170.558 322.9 170.75 322.54 171.134C322.192 171.518 322.018 172.058 322.018 172.754V179H320.074ZM334.431 179.162C333.615 179.162 332.907 179.006 332.307 178.694C331.707 178.382 331.245 177.938 330.921 177.362C330.597 176.786 330.435 176.108 330.435 175.328V172.772C330.435 171.98 330.597 171.302 330.921 170.738C331.245 170.162 331.707 169.718 332.307 169.406C332.907 169.094 333.615 168.938 334.431 168.938C335.247 168.938 335.955 169.094 336.555 169.406C337.155 169.718 337.617 170.162 337.941 170.738C338.265 171.302 338.427 171.98 338.427 172.772V175.328C338.427 176.108 338.265 176.786 337.941 177.362C337.617 177.938 337.155 178.382 336.555 178.694C335.955 179.006 335.247 179.162 334.431 179.162ZM334.431 177.452C335.091 177.452 335.601 177.272 335.961 176.912C336.321 176.54 336.501 176.012 336.501 175.328V172.772C336.501 172.076 336.321 171.548 335.961 171.188C335.601 170.828 335.091 170.648 334.431 170.648C333.783 170.648 333.273 170.828 332.901 171.188C332.541 171.548 332.361 172.076 332.361 172.772V175.328C332.361 176.012 332.541 176.54 332.901 176.912C333.273 177.272 333.783 177.452 334.431 177.452ZM333.225 167.39L335.133 164.87H337.221L335.187 167.39H333.225ZM340.598 179L344.072 173.888L340.814 169.1H343.046L344.792 171.836C344.876 171.98 344.96 172.136 345.044 172.304C345.128 172.46 345.194 172.592 345.242 172.7C345.278 172.592 345.338 172.46 345.422 172.304C345.506 172.136 345.59 171.98 345.674 171.836L347.42 169.1H349.652L346.394 173.906L349.85 179H347.618L345.692 176.03C345.608 175.886 345.524 175.724 345.44 175.544C345.356 175.364 345.29 175.22 345.242 175.112C345.194 175.22 345.122 175.364 345.026 175.544C344.942 175.724 344.852 175.886 344.756 176.03L342.812 179H340.598ZM352.075 179V177.236H355.549V170.864H352.525V169.1H357.439V177.236H360.625V179H352.075ZM356.305 167.39C355.885 167.39 355.549 167.282 355.297 167.066C355.045 166.838 354.919 166.538 354.919 166.166C354.919 165.782 355.045 165.482 355.297 165.266C355.549 165.038 355.885 164.924 356.305 164.924C356.725 164.924 357.061 165.038 357.313 165.266C357.565 165.482 357.691 165.782 357.691 166.166C357.691 166.538 357.565 166.838 357.313 167.066C357.061 167.282 356.725 167.39 356.305 167.39ZM362.472 179V169.1H364.092V170.36H364.452L364.182 170.738C364.182 170.186 364.332 169.748 364.632 169.424C364.932 169.088 365.334 168.92 365.838 168.92C366.378 168.92 366.792 169.13 367.08 169.55C367.38 169.97 367.53 170.546 367.53 171.278L367.098 170.36H367.782L367.494 170.738C367.494 170.186 367.644 169.748 367.944 169.424C368.256 169.088 368.67 168.92 369.186 168.92C369.798 168.92 370.278 169.154 370.626 169.622C370.974 170.078 371.148 170.69 371.148 171.458V179H369.42V171.512C369.42 171.14 369.336 170.852 369.168 170.648C369.012 170.444 368.784 170.342 368.484 170.342C368.184 170.342 367.95 170.444 367.782 170.648C367.626 170.84 367.548 171.122 367.548 171.494V179H366.09V171.512C366.09 171.128 366.006 170.84 365.838 170.648C365.67 170.444 365.43 170.342 365.118 170.342C364.818 170.342 364.59 170.444 364.434 170.648C364.29 170.84 364.218 171.122 364.218 171.494V179H362.472ZM377.603 179.162C376.787 179.162 376.079 179.006 375.479 178.694C374.879 178.382 374.417 177.938 374.093 177.362C373.769 176.786 373.607 176.108 373.607 175.328V172.772C373.607 171.98 373.769 171.302 374.093 170.738C374.417 170.162 374.879 169.718 375.479 169.406C376.079 169.094 376.787 168.938 377.603 168.938C378.419 168.938 379.127 169.094 379.727 169.406C380.327 169.718 380.789 170.162 381.113 170.738C381.437 171.302 381.599 171.98 381.599 172.772V175.328C381.599 176.108 381.437 176.786 381.113 177.362C380.789 177.938 380.327 178.382 379.727 178.694C379.127 179.006 378.419 179.162 377.603 179.162ZM377.603 177.452C378.263 177.452 378.773 177.272 379.133 176.912C379.493 176.54 379.673 176.012 379.673 175.328V172.772C379.673 172.076 379.493 171.548 379.133 171.188C378.773 170.828 378.263 170.648 377.603 170.648C376.955 170.648 376.445 170.828 376.073 171.188C375.713 171.548 375.533 172.076 375.533 172.772V175.328C375.533 176.012 375.713 176.54 376.073 176.912C376.445 177.272 376.955 177.452 377.603 177.452ZM389.512 171.26L389.296 167.858V165.86H391.312V167.858L391.096 171.26H389.512ZM385.714 171.26L385.48 167.858V165.86H387.496V167.858L387.298 171.26H385.714ZM184.446 205.26L184.23 201.858V199.86H186.246V201.858L186.03 205.26H184.446ZM180.648 205.26L180.414 201.858V199.86H182.43V201.858L182.232 205.26H180.648ZM193.961 213.18C193.133 213.18 192.413 213.024 191.801 212.712C191.189 212.4 190.715 211.962 190.379 211.398C190.055 210.822 189.893 210.156 189.893 209.4H191.837C191.837 210.06 192.023 210.576 192.395 210.948C192.779 211.32 193.307 211.506 193.979 211.506C194.663 211.506 195.191 211.314 195.563 210.93C195.935 210.546 196.121 210.036 196.121 209.4V208.428C196.121 207.756 195.935 207.24 195.563 206.88C195.191 206.508 194.663 206.322 193.979 206.322H192.575V204.486L195.635 201.57H190.451V199.86H197.615V201.696L193.997 205.098V204.63C195.245 204.63 196.235 204.972 196.967 205.656C197.699 206.34 198.065 207.258 198.065 208.41V209.4C198.065 210.156 197.897 210.822 197.561 211.398C197.225 211.962 196.745 212.4 196.121 212.712C195.509 213.024 194.789 213.18 193.961 213.18ZM212.829 207.942V206.178H218.589V207.942H212.829ZM233.083 213V199.86H235.477L236.791 204.072C236.923 204.468 237.037 204.852 237.133 205.224C237.229 205.584 237.295 205.854 237.331 206.034C237.379 205.854 237.445 205.584 237.529 205.224C237.625 204.852 237.733 204.468 237.853 204.072L239.113 199.86H241.507V213H239.671V208.572C239.671 208.008 239.683 207.384 239.707 206.7C239.743 206.004 239.791 205.308 239.851 204.612C239.911 203.904 239.971 203.232 240.031 202.596C240.091 201.948 240.145 201.384 240.193 200.904L238.249 207.294H236.377L234.397 200.904C234.457 201.372 234.517 201.918 234.577 202.542C234.637 203.154 234.691 203.808 234.739 204.504C234.787 205.2 234.829 205.902 234.865 206.61C234.901 207.306 234.919 207.96 234.919 208.572V213H233.083ZM248.088 213.162C247.272 213.162 246.564 213.006 245.964 212.694C245.364 212.382 244.902 211.938 244.578 211.362C244.254 210.786 244.092 210.108 244.092 209.328V206.772C244.092 205.98 244.254 205.302 244.578 204.738C244.902 204.162 245.364 203.718 245.964 203.406C246.564 203.094 247.272 202.938 248.088 202.938C248.904 202.938 249.612 203.094 250.212 203.406C250.812 203.718 251.274 204.162 251.598 204.738C251.922 205.302 252.084 205.98 252.084 206.772V209.328C252.084 210.108 251.922 210.786 251.598 211.362C251.274 211.938 250.812 212.382 250.212 212.694C249.612 213.006 248.904 213.162 248.088 213.162ZM248.088 211.452C248.748 211.452 249.258 211.272 249.618 210.912C249.978 210.54 250.158 210.012 250.158 209.328V206.772C250.158 206.076 249.978 205.548 249.618 205.188C249.258 204.828 248.748 204.648 248.088 204.648C247.44 204.648 246.93 204.828 246.558 205.188C246.198 205.548 246.018 206.076 246.018 206.772V209.328C246.018 210.012 246.198 210.54 246.558 210.912C246.93 211.272 247.44 211.452 248.088 211.452ZM258.538 213.162C257.83 213.162 257.206 213.048 256.666 212.82C256.138 212.592 255.718 212.28 255.406 211.884C255.106 211.476 254.932 210.996 254.884 210.444H256.828C256.876 210.768 257.05 211.032 257.35 211.236C257.65 211.428 258.046 211.524 258.538 211.524H259.312C259.9 211.524 260.344 211.404 260.644 211.164C260.944 210.924 261.094 210.606 261.094 210.21C261.094 209.826 260.956 209.526 260.68 209.31C260.416 209.082 260.02 208.932 259.492 208.86L258.214 208.662C257.158 208.494 256.378 208.194 255.874 207.762C255.382 207.318 255.136 206.664 255.136 205.8C255.136 204.888 255.43 204.186 256.018 203.694C256.618 203.19 257.5 202.938 258.664 202.938H259.348C260.38 202.938 261.202 203.178 261.814 203.658C262.438 204.126 262.792 204.756 262.876 205.548H260.932C260.884 205.26 260.722 205.026 260.446 204.846C260.182 204.666 259.816 204.576 259.348 204.576H258.664C258.1 204.576 257.686 204.684 257.422 204.9C257.17 205.104 257.044 205.41 257.044 205.818C257.044 206.178 257.158 206.448 257.386 206.628C257.614 206.808 257.968 206.934 258.448 207.006L259.762 207.222C260.878 207.378 261.694 207.69 262.21 208.158C262.738 208.614 263.002 209.28 263.002 210.156C263.002 211.104 262.69 211.842 262.066 212.37C261.454 212.898 260.536 213.162 259.312 213.162H258.538ZM270.753 213C269.853 213 269.151 212.754 268.647 212.262C268.143 211.77 267.891 211.086 267.891 210.21V204.864H265.155V203.1H267.891V200.31H269.835V203.1H273.705V204.864H269.835V210.21C269.835 210.894 270.165 211.236 270.825 211.236H273.525V213H270.753ZM276.902 213V203.1H278.774V204.99H279.242L278.648 206.16C278.648 205.092 278.882 204.288 279.35 203.748C279.818 203.196 280.514 202.92 281.438 202.92C282.494 202.92 283.328 203.25 283.94 203.91C284.564 204.558 284.876 205.452 284.876 206.592V207.258H282.878V206.754C282.878 206.046 282.698 205.506 282.338 205.134C281.99 204.75 281.498 204.558 280.862 204.558C280.226 204.558 279.728 204.75 279.368 205.134C279.02 205.518 278.846 206.058 278.846 206.754V213H276.902ZM290.269 213.18C289.237 213.18 288.421 212.916 287.821 212.388C287.233 211.848 286.939 211.116 286.939 210.192C286.939 209.256 287.251 208.524 287.875 207.996C288.511 207.456 289.381 207.186 290.485 207.186H293.239V206.268C293.239 205.728 293.071 205.308 292.735 205.008C292.399 204.708 291.925 204.558 291.313 204.558C290.773 204.558 290.323 204.678 289.963 204.918C289.603 205.146 289.393 205.452 289.333 205.836H287.425C287.533 204.948 287.941 204.24 288.649 203.712C289.369 203.184 290.275 202.92 291.367 202.92C292.543 202.92 293.473 203.22 294.157 203.82C294.841 204.408 295.183 205.212 295.183 206.232V213H293.293V211.182H292.969L293.293 210.822C293.293 211.542 293.017 212.118 292.465 212.55C291.913 212.97 291.181 213.18 290.269 213.18ZM290.845 211.686C291.541 211.686 292.111 211.512 292.555 211.164C293.011 210.804 293.239 210.348 293.239 209.796V208.5H290.521C290.017 208.5 289.615 208.638 289.315 208.914C289.027 209.19 288.883 209.568 288.883 210.048C288.883 210.552 289.057 210.954 289.405 211.254C289.753 211.542 290.233 211.686 290.845 211.686ZM298.488 213V203.1H300.36V204.99H300.828L300.234 206.16C300.234 205.092 300.468 204.288 300.936 203.748C301.404 203.196 302.1 202.92 303.024 202.92C304.08 202.92 304.914 203.25 305.526 203.91C306.15 204.558 306.462 205.452 306.462 206.592V207.258H304.464V206.754C304.464 206.046 304.284 205.506 303.924 205.134C303.576 204.75 303.084 204.558 302.448 204.558C301.812 204.558 301.314 204.75 300.954 205.134C300.606 205.518 300.432 206.058 300.432 206.754V213H298.488ZM322.072 213V205.908H319.264V204.144H322.072V202.542C322.072 201.714 322.336 201.06 322.864 200.58C323.392 200.1 324.112 199.86 325.024 199.86H327.922V201.588H325.06C324.724 201.588 324.46 201.672 324.268 201.84C324.088 202.008 323.998 202.248 323.998 202.56V204.144H327.922V205.908H323.998V213H322.072ZM330.489 213V211.236H333.963V204.864H330.939V203.1H335.853V211.236H339.039V213H330.489ZM334.719 201.39C334.299 201.39 333.963 201.282 333.711 201.066C333.459 200.838 333.333 200.538 333.333 200.166C333.333 199.782 333.459 199.482 333.711 199.266C333.963 199.038 334.299 198.924 334.719 198.924C335.139 198.924 335.475 199.038 335.727 199.266C335.979 199.482 336.105 199.782 336.105 200.166C336.105 200.538 335.979 200.838 335.727 201.066C335.475 201.282 335.139 201.39 334.719 201.39ZM346.646 213C346.034 213 345.5 212.88 345.044 212.64C344.588 212.388 344.228 212.034 343.964 211.578C343.712 211.122 343.586 210.594 343.586 209.994V201.624H340.346V199.86H345.53V209.994C345.53 210.378 345.638 210.684 345.854 210.912C346.07 211.128 346.364 211.236 346.736 211.236H349.796V213H346.646ZM355.027 213.18C353.995 213.18 353.179 212.916 352.579 212.388C351.991 211.848 351.697 211.116 351.697 210.192C351.697 209.256 352.009 208.524 352.633 207.996C353.269 207.456 354.139 207.186 355.243 207.186H357.997V206.268C357.997 205.728 357.829 205.308 357.493 205.008C357.157 204.708 356.683 204.558 356.071 204.558C355.531 204.558 355.081 204.678 354.721 204.918C354.361 205.146 354.151 205.452 354.091 205.836H352.183C352.291 204.948 352.699 204.24 353.407 203.712C354.127 203.184 355.033 202.92 356.125 202.92C357.301 202.92 358.231 203.22 358.915 203.82C359.599 204.408 359.941 205.212 359.941 206.232V213H358.051V211.182H357.727L358.051 210.822C358.051 211.542 357.775 212.118 357.223 212.55C356.671 212.97 355.939 213.18 355.027 213.18ZM355.603 211.686C356.299 211.686 356.869 211.512 357.313 211.164C357.769 210.804 357.997 210.348 357.997 209.796V208.5H355.279C354.775 208.5 354.373 208.638 354.073 208.914C353.785 209.19 353.641 209.568 353.641 210.048C353.641 210.552 353.815 210.954 354.163 211.254C354.511 211.542 354.991 211.686 355.603 211.686ZM367.926 205.26L367.71 201.858V199.86H369.726V201.858L369.51 205.26H367.926ZM364.128 205.26L363.894 201.858V199.86H365.91V201.858L365.712 205.26H364.128ZM184.446 239.26L184.23 235.858V233.86H186.246V235.858L186.03 239.26H184.446ZM180.648 239.26L180.414 235.858V233.86H182.43V235.858L182.232 239.26H180.648ZM195.923 247V244.264H190.037V241.348L195.149 233.86H197.309L191.909 241.816V242.518H195.923V239.44H197.849V247H195.923ZM212.829 241.942V240.178H218.589V241.942H212.829ZM237.349 247.18C236.461 247.18 235.699 247.036 235.063 246.748C234.427 246.448 233.935 246.028 233.587 245.488C233.239 244.936 233.065 244.282 233.065 243.526H234.991C234.991 244.126 235.201 244.6 235.621 244.948C236.041 245.284 236.623 245.452 237.367 245.452C238.063 245.452 238.609 245.284 239.005 244.948C239.401 244.612 239.599 244.15 239.599 243.562C239.599 243.07 239.461 242.644 239.185 242.284C238.921 241.924 238.537 241.678 238.033 241.546L236.377 241.06C235.417 240.784 234.673 240.316 234.145 239.656C233.629 238.984 233.371 238.186 233.371 237.262C233.371 236.542 233.533 235.912 233.857 235.372C234.181 234.832 234.643 234.412 235.243 234.112C235.843 233.812 236.551 233.662 237.367 233.662C238.567 233.662 239.527 233.986 240.247 234.634C240.979 235.282 241.351 236.152 241.363 237.244H239.419C239.419 236.668 239.233 236.218 238.861 235.894C238.501 235.558 237.991 235.39 237.331 235.39C236.695 235.39 236.197 235.546 235.837 235.858C235.477 236.158 235.297 236.584 235.297 237.136C235.297 237.628 235.429 238.054 235.693 238.414C235.969 238.774 236.359 239.026 236.863 239.17L238.537 239.674C239.497 239.938 240.235 240.406 240.751 241.078C241.267 241.75 241.525 242.554 241.525 243.49C241.525 244.222 241.351 244.87 241.003 245.434C240.655 245.986 240.169 246.418 239.545 246.73C238.921 247.03 238.189 247.18 237.349 247.18ZM247.098 247.18C246.066 247.18 245.25 246.916 244.65 246.388C244.062 245.848 243.768 245.116 243.768 244.192C243.768 243.256 244.08 242.524 244.704 241.996C245.34 241.456 246.21 241.186 247.313 241.186H250.068V240.268C250.068 239.728 249.9 239.308 249.564 239.008C249.228 238.708 248.754 238.558 248.142 238.558C247.602 238.558 247.152 238.678 246.792 238.918C246.432 239.146 246.222 239.452 246.162 239.836H244.254C244.362 238.948 244.77 238.24 245.478 237.712C246.198 237.184 247.104 236.92 248.196 236.92C249.372 236.92 250.302 237.22 250.986 237.82C251.67 238.408 252.012 239.212 252.012 240.232V247H250.122V245.182H249.798L250.122 244.822C250.122 245.542 249.846 246.118 249.294 246.55C248.742 246.97 248.01 247.18 247.098 247.18ZM247.674 245.686C248.37 245.686 248.94 245.512 249.384 245.164C249.84 244.804 250.068 244.348 250.068 243.796V242.5H247.35C246.846 242.5 246.444 242.638 246.144 242.914C245.856 243.19 245.712 243.568 245.712 244.048C245.712 244.552 245.886 244.954 246.234 245.254C246.582 245.542 247.062 245.686 247.674 245.686ZM254.938 247V245.236H258.412V238.864H255.388V237.1H260.302V245.236H263.488V247H254.938ZM259.168 235.39C258.748 235.39 258.412 235.282 258.16 235.066C257.908 234.838 257.782 234.538 257.782 234.166C257.782 233.782 257.908 233.482 258.16 233.266C258.412 233.038 258.748 232.924 259.168 232.924C259.588 232.924 259.924 233.038 260.176 233.266C260.428 233.482 260.554 233.782 260.554 234.166C260.554 234.538 260.428 234.838 260.176 235.066C259.924 235.282 259.588 235.39 259.168 235.39ZM266.109 247V237.1H267.981V238.99H268.449L267.855 240.16C267.855 239.092 268.089 238.288 268.557 237.748C269.025 237.196 269.721 236.92 270.645 236.92C271.701 236.92 272.535 237.25 273.147 237.91C273.771 238.558 274.083 239.452 274.083 240.592V241.258H272.085V240.754C272.085 240.046 271.905 239.506 271.545 239.134C271.197 238.75 270.705 238.558 270.069 238.558C269.433 238.558 268.935 238.75 268.575 239.134C268.227 239.518 268.053 240.058 268.053 240.754V247H266.109ZM281.582 239.26L281.366 235.858V233.86H283.382V235.858L283.166 239.26H281.582ZM277.784 239.26L277.55 235.858V233.86H279.566V235.858L279.368 239.26H277.784ZM270.789 273.26L270.573 269.858V267.86H272.589V269.858L272.373 273.26H270.789ZM266.991 273.26L266.757 269.858V267.86H268.773V269.858L268.575 273.26H266.991ZM276.758 281V267.86H284.48V269.588H278.666V273.314H283.85V275.024H278.666V279.272H284.48V281H276.758ZM290.917 281.162C290.209 281.162 289.585 281.048 289.045 280.82C288.517 280.592 288.097 280.28 287.785 279.884C287.485 279.476 287.311 278.996 287.263 278.444H289.207C289.255 278.768 289.429 279.032 289.729 279.236C290.029 279.428 290.425 279.524 290.917 279.524H291.691C292.279 279.524 292.723 279.404 293.023 279.164C293.323 278.924 293.473 278.606 293.473 278.21C293.473 277.826 293.335 277.526 293.059 277.31C292.795 277.082 292.399 276.932 291.871 276.86L290.593 276.662C289.537 276.494 288.757 276.194 288.253 275.762C287.761 275.318 287.515 274.664 287.515 273.8C287.515 272.888 287.809 272.186 288.397 271.694C288.997 271.19 289.879 270.938 291.043 270.938H291.727C292.759 270.938 293.581 271.178 294.193 271.658C294.817 272.126 295.171 272.756 295.255 273.548H293.311C293.263 273.26 293.101 273.026 292.825 272.846C292.561 272.666 292.195 272.576 291.727 272.576H291.043C290.479 272.576 290.065 272.684 289.801 272.9C289.549 273.104 289.423 273.41 289.423 273.818C289.423 274.178 289.537 274.448 289.765 274.628C289.993 274.808 290.347 274.934 290.827 275.006L292.141 275.222C293.257 275.378 294.073 275.69 294.589 276.158C295.117 276.614 295.381 277.28 295.381 278.156C295.381 279.104 295.069 279.842 294.445 280.37C293.833 280.898 292.915 281.162 291.691 281.162H290.917ZM302.124 281.18C301.308 281.18 300.588 281.03 299.964 280.73C299.352 280.418 298.878 279.974 298.542 279.398C298.218 278.81 298.056 278.126 298.056 277.346V274.754C298.056 273.962 298.218 273.278 298.542 272.702C298.878 272.126 299.352 271.688 299.964 271.388C300.588 271.076 301.308 270.92 302.124 270.92C303.312 270.92 304.266 271.232 304.986 271.856C305.706 272.48 306.084 273.332 306.12 274.412H304.176C304.14 273.848 303.942 273.41 303.582 273.098C303.222 272.786 302.736 272.63 302.124 272.63C301.464 272.63 300.942 272.816 300.558 273.188C300.174 273.548 299.982 274.064 299.982 274.736V277.346C299.982 278.018 300.174 278.54 300.558 278.912C300.942 279.284 301.464 279.47 302.124 279.47C302.736 279.47 303.222 279.314 303.582 279.002C303.942 278.69 304.14 278.252 304.176 277.688H306.12C306.084 278.768 305.706 279.62 304.986 280.244C304.266 280.868 303.312 281.18 302.124 281.18ZM312.845 281.162C312.029 281.162 311.321 281.006 310.721 280.694C310.121 280.382 309.659 279.938 309.335 279.362C309.011 278.786 308.849 278.108 308.849 277.328V274.772C308.849 273.98 309.011 273.302 309.335 272.738C309.659 272.162 310.121 271.718 310.721 271.406C311.321 271.094 312.029 270.938 312.845 270.938C313.661 270.938 314.369 271.094 314.969 271.406C315.569 271.718 316.031 272.162 316.355 272.738C316.679 273.302 316.841 273.98 316.841 274.772V277.328C316.841 278.108 316.679 278.786 316.355 279.362C316.031 279.938 315.569 280.382 314.969 280.694C314.369 281.006 313.661 281.162 312.845 281.162ZM312.845 279.452C313.505 279.452 314.015 279.272 314.375 278.912C314.735 278.54 314.915 278.012 314.915 277.328V274.772C314.915 274.076 314.735 273.548 314.375 273.188C314.015 272.828 313.505 272.648 312.845 272.648C312.197 272.648 311.687 272.828 311.315 273.188C310.955 273.548 310.775 274.076 310.775 274.772V277.328C310.775 278.012 310.955 278.54 311.315 278.912C311.687 279.272 312.197 279.452 312.845 279.452ZM325.06 281C324.448 281 323.914 280.88 323.458 280.64C323.002 280.388 322.642 280.034 322.378 279.578C322.126 279.122 322 278.594 322 277.994V269.624H318.76V267.86H323.944V277.994C323.944 278.378 324.052 278.684 324.268 278.912C324.484 279.128 324.778 279.236 325.15 279.236H328.21V281H325.06ZM330.543 281V267.86H332.487V271.1L332.469 272.99H332.937L332.469 273.44C332.469 272.648 332.703 272.03 333.171 271.586C333.639 271.142 334.287 270.92 335.115 270.92C336.099 270.92 336.885 271.238 337.473 271.874C338.061 272.498 338.355 273.344 338.355 274.412V281H336.411V274.628C336.411 273.98 336.237 273.476 335.889 273.116C335.541 272.756 335.067 272.576 334.467 272.576C333.855 272.576 333.369 272.768 333.009 273.152C332.661 273.524 332.487 274.058 332.487 274.754V281H330.543ZM344.234 281.18C343.202 281.18 342.386 280.916 341.786 280.388C341.198 279.848 340.904 279.116 340.904 278.192C340.904 277.256 341.216 276.524 341.84 275.996C342.476 275.456 343.346 275.186 344.45 275.186H347.204V274.268C347.204 273.728 347.036 273.308 346.7 273.008C346.364 272.708 345.89 272.558 345.278 272.558C344.738 272.558 344.288 272.678 343.928 272.918C343.568 273.146 343.358 273.452 343.298 273.836H341.39C341.498 272.948 341.906 272.24 342.614 271.712C343.334 271.184 344.24 270.92 345.332 270.92C346.508 270.92 347.438 271.22 348.122 271.82C348.806 272.408 349.148 273.212 349.148 274.232V281H347.258V279.182H346.934L347.258 278.822C347.258 279.542 346.982 280.118 346.43 280.55C345.878 280.97 345.146 281.18 344.234 281.18ZM344.81 279.686C345.506 279.686 346.076 279.512 346.52 279.164C346.976 278.804 347.204 278.348 347.204 277.796V276.5H344.486C343.982 276.5 343.58 276.638 343.28 276.914C342.992 277.19 342.848 277.568 342.848 278.048C342.848 278.552 343.022 278.954 343.37 279.254C343.718 279.542 344.198 279.686 344.81 279.686ZM356.017 273.782C355.549 273.782 355.165 273.65 354.865 273.386C354.577 273.122 354.433 272.774 354.433 272.342C354.433 271.91 354.577 271.568 354.865 271.316C355.165 271.052 355.549 270.92 356.017 270.92C356.497 270.92 356.881 271.052 357.169 271.316C357.457 271.568 357.601 271.91 357.601 272.342C357.601 272.774 357.457 273.122 357.169 273.386C356.881 273.65 356.497 273.782 356.017 273.782ZM356.017 281.18C355.549 281.18 355.165 281.048 354.865 280.784C354.577 280.52 354.433 280.178 354.433 279.758C354.433 279.314 354.577 278.966 354.865 278.714C355.165 278.45 355.549 278.318 356.017 278.318C356.497 278.318 356.881 278.45 357.169 278.714C357.457 278.966 357.601 279.314 357.601 279.758C357.601 280.178 357.457 280.52 357.169 280.784C356.881 281.048 356.497 281.18 356.017 281.18ZM378.719 273.26L378.503 269.858V267.86H380.519V269.858L380.303 273.26H378.719ZM374.921 273.26L374.687 269.858V267.86H376.703V269.858L376.505 273.26H374.921Z" fill="#34C759"/>
<path d="M196.265 146.98L189.929 130.06H191.963L198.299 146.98H196.265ZM201.028 145V135.1H202.954V136.99H203.422L202.954 137.44C202.954 136.648 203.188 136.03 203.656 135.586C204.124 135.142 204.772 134.92 205.6 134.92C206.584 134.92 207.37 135.238 207.958 135.874C208.546 136.498 208.84 137.344 208.84 138.412V145H206.896V138.628C206.896 137.98 206.722 137.482 206.374 137.134C206.026 136.786 205.552 136.612 204.952 136.612C204.34 136.612 203.854 136.798 203.494 137.17C203.146 137.53 202.972 138.058 202.972 138.754V145H201.028ZM211.875 145V143.272H215.367V133.552L211.857 136.162V134.056L214.863 131.86H217.311V143.272H220.137V145H211.875ZM179.442 273.746V272H187.218V273.746H179.442ZM179.442 278.12V276.374H187.218V278.12H179.442Z" fill="#0088FF"/>
<path d="M114.684 182.24V169.1H116.61V170.99H117.024L116.61 171.44C116.61 170.66 116.85 170.048 117.33 169.604C117.822 169.148 118.476 168.92 119.292 168.92C120.288 168.92 121.08 169.256 121.668 169.928C122.268 170.588 122.568 171.494 122.568 172.646V175.436C122.568 176.204 122.43 176.87 122.154 177.434C121.89 177.986 121.512 178.418 121.02 178.73C120.54 179.03 119.964 179.18 119.292 179.18C118.488 179.18 117.84 178.958 117.348 178.514C116.856 178.058 116.61 177.44 116.61 176.66L117.024 177.11H116.574L116.628 179.414V182.24H114.684ZM118.626 177.488C119.262 177.488 119.754 177.308 120.102 176.948C120.462 176.576 120.642 176.042 120.642 175.346V172.754C120.642 172.058 120.462 171.53 120.102 171.17C119.754 170.798 119.262 170.612 118.626 170.612C118.014 170.612 117.528 170.804 117.168 171.188C116.808 171.56 116.628 172.082 116.628 172.754V175.346C116.628 176.018 116.808 176.546 117.168 176.93C117.528 177.302 118.014 177.488 118.626 177.488ZM125.801 179V169.1H127.673V170.99H128.141L127.547 172.16C127.547 171.092 127.781 170.288 128.249 169.748C128.717 169.196 129.413 168.92 130.337 168.92C131.393 168.92 132.227 169.25 132.839 169.91C133.463 170.558 133.775 171.452 133.775 172.592V173.258H131.777V172.754C131.777 172.046 131.597 171.506 131.237 171.134C130.889 170.75 130.397 170.558 129.761 170.558C129.125 170.558 128.627 170.75 128.267 171.134C127.919 171.518 127.745 172.058 127.745 172.754V179H125.801ZM136.216 179V177.236H139.69V170.864H136.666V169.1H141.58V177.236H144.766V179H136.216ZM140.446 167.39C140.026 167.39 139.69 167.282 139.438 167.066C139.186 166.838 139.06 166.538 139.06 166.166C139.06 165.782 139.186 165.482 139.438 165.266C139.69 165.038 140.026 164.924 140.446 164.924C140.866 164.924 141.202 165.038 141.454 165.266C141.706 165.482 141.832 165.782 141.832 166.166C141.832 166.538 141.706 166.838 141.454 167.066C141.202 167.282 140.866 167.39 140.446 167.39ZM147.063 179V169.1H148.989V170.99H149.457L148.989 171.44C148.989 170.648 149.223 170.03 149.691 169.586C150.159 169.142 150.807 168.92 151.635 168.92C152.619 168.92 153.405 169.238 153.993 169.874C154.581 170.498 154.875 171.344 154.875 172.412V179H152.931V172.628C152.931 171.98 152.757 171.482 152.409 171.134C152.061 170.786 151.587 170.612 150.987 170.612C150.375 170.612 149.889 170.798 149.529 171.17C149.181 171.53 149.007 172.058 149.007 172.754V179H147.063ZM162.824 179C161.924 179 161.222 178.754 160.718 178.262C160.214 177.77 159.962 177.086 159.962 176.21V170.864H157.226V169.1H159.962V166.31H161.906V169.1H165.776V170.864H161.906V176.21C161.906 176.894 162.236 177.236 162.896 177.236H165.596V179H162.824Z" fill="#FFCC00"/>
<path d="M114.684 216.24V203.1H116.61V204.99H117.024L116.61 205.44C116.61 204.66 116.85 204.048 117.33 203.604C117.822 203.148 118.476 202.92 119.292 202.92C120.288 202.92 121.08 203.256 121.668 203.928C122.268 204.588 122.568 205.494 122.568 206.646V209.436C122.568 210.204 122.43 210.87 122.154 211.434C121.89 211.986 121.512 212.418 121.02 212.73C120.54 213.03 119.964 213.18 119.292 213.18C118.488 213.18 117.84 212.958 117.348 212.514C116.856 212.058 116.61 211.44 116.61 210.66L117.024 211.11H116.574L116.628 213.414V216.24H114.684ZM118.626 211.488C119.262 211.488 119.754 211.308 120.102 210.948C120.462 210.576 120.642 210.042 120.642 209.346V206.754C120.642 206.058 120.462 205.53 120.102 205.17C119.754 204.798 119.262 204.612 118.626 204.612C118.014 204.612 117.528 204.804 117.168 205.188C116.808 205.56 116.628 206.082 116.628 206.754V209.346C116.628 210.018 116.808 210.546 117.168 210.93C117.528 211.302 118.014 211.488 118.626 211.488ZM125.801 213V203.1H127.673V204.99H128.141L127.547 206.16C127.547 205.092 127.781 204.288 128.249 203.748C128.717 203.196 129.413 202.92 130.337 202.92C131.393 202.92 132.227 203.25 132.839 203.91C133.463 204.558 133.775 205.452 133.775 206.592V207.258H131.777V206.754C131.777 206.046 131.597 205.506 131.237 205.134C130.889 204.75 130.397 204.558 129.761 204.558C129.125 204.558 128.627 204.75 128.267 205.134C127.919 205.518 127.745 206.058 127.745 206.754V213H125.801ZM136.216 213V211.236H139.69V204.864H136.666V203.1H141.58V211.236H144.766V213H136.216ZM140.446 201.39C140.026 201.39 139.69 201.282 139.438 201.066C139.186 200.838 139.06 200.538 139.06 200.166C139.06 199.782 139.186 199.482 139.438 199.266C139.69 199.038 140.026 198.924 140.446 198.924C140.866 198.924 141.202 199.038 141.454 199.266C141.706 199.482 141.832 199.782 141.832 200.166C141.832 200.538 141.706 200.838 141.454 201.066C141.202 201.282 140.866 201.39 140.446 201.39ZM147.063 213V203.1H148.989V204.99H149.457L148.989 205.44C148.989 204.648 149.223 204.03 149.691 203.586C150.159 203.142 150.807 202.92 151.635 202.92C152.619 202.92 153.405 203.238 153.993 203.874C154.581 204.498 154.875 205.344 154.875 206.412V213H152.931V206.628C152.931 205.98 152.757 205.482 152.409 205.134C152.061 204.786 151.587 204.612 150.987 204.612C150.375 204.612 149.889 204.798 149.529 205.17C149.181 205.53 149.007 206.058 149.007 206.754V213H147.063ZM162.824 213C161.924 213 161.222 212.754 160.718 212.262C160.214 211.77 159.962 211.086 159.962 210.21V204.864H157.226V203.1H159.962V200.31H161.906V203.1H165.776V204.864H161.906V210.21C161.906 210.894 162.236 211.236 162.896 211.236H165.596V213H162.824ZM114.684 250.24V237.1H116.61V238.99H117.024L116.61 239.44C116.61 238.66 116.85 238.048 117.33 237.604C117.822 237.148 118.476 236.92 119.292 236.92C120.288 236.92 121.08 237.256 121.668 237.928C122.268 238.588 122.568 239.494 122.568 240.646V243.436C122.568 244.204 122.43 244.87 122.154 245.434C121.89 245.986 121.512 246.418 121.02 246.73C120.54 247.03 119.964 247.18 119.292 247.18C118.488 247.18 117.84 246.958 117.348 246.514C116.856 246.058 116.61 245.44 116.61 244.66L117.024 245.11H116.574L116.628 247.414V250.24H114.684ZM118.626 245.488C119.262 245.488 119.754 245.308 120.102 244.948C120.462 244.576 120.642 244.042 120.642 243.346V240.754C120.642 240.058 120.462 239.53 120.102 239.17C119.754 238.798 119.262 238.612 118.626 238.612C118.014 238.612 117.528 238.804 117.168 239.188C116.808 239.56 116.628 240.082 116.628 240.754V243.346C116.628 244.018 116.808 244.546 117.168 244.93C117.528 245.302 118.014 245.488 118.626 245.488ZM125.801 247V237.1H127.673V238.99H128.141L127.547 240.16C127.547 239.092 127.781 238.288 128.249 237.748C128.717 237.196 129.413 236.92 130.337 236.92C131.393 236.92 132.227 237.25 132.839 237.91C133.463 238.558 133.775 239.452 133.775 240.592V241.258H131.777V240.754C131.777 240.046 131.597 239.506 131.237 239.134C130.889 238.75 130.397 238.558 129.761 238.558C129.125 238.558 128.627 238.75 128.267 239.134C127.919 239.518 127.745 240.058 127.745 240.754V247H125.801ZM136.216 247V245.236H139.69V238.864H136.666V237.1H141.58V245.236H144.766V247H136.216ZM140.446 235.39C140.026 235.39 139.69 235.282 139.438 235.066C139.186 234.838 139.06 234.538 139.06 234.166C139.06 233.782 139.186 233.482 139.438 233.266C139.69 233.038 140.026 232.924 140.446 232.924C140.866 232.924 141.202 233.038 141.454 233.266C141.706 233.482 141.832 233.782 141.832 234.166C141.832 234.538 141.706 234.838 141.454 235.066C141.202 235.282 140.866 235.39 140.446 235.39ZM147.063 247V237.1H148.989V238.99H149.457L148.989 239.44C148.989 238.648 149.223 238.03 149.691 237.586C150.159 237.142 150.807 236.92 151.635 236.92C152.619 236.92 153.405 237.238 153.993 237.874C154.581 238.498 154.875 239.344 154.875 240.412V247H152.931V240.628C152.931 239.98 152.757 239.482 152.409 239.134C152.061 238.786 151.587 238.612 150.987 238.612C150.375 238.612 149.889 238.798 149.529 239.17C149.181 239.53 149.007 240.058 149.007 240.754V247H147.063ZM162.824 247C161.924 247 161.222 246.754 160.718 246.262C160.214 245.77 159.962 245.086 159.962 244.21V238.864H157.226V237.1H159.962V234.31H161.906V237.1H165.776V238.864H161.906V244.21C161.906 244.894 162.236 245.236 162.896 245.236H165.596V247H162.824ZM200.974 281V279.236H204.448V272.864H201.424V271.1H206.338V279.236H209.524V281H200.974ZM205.204 269.39C204.784 269.39 204.448 269.282 204.196 269.066C203.944 268.838 203.818 268.538 203.818 268.166C203.818 267.782 203.944 267.482 204.196 267.266C204.448 267.038 204.784 266.924 205.204 266.924C205.624 266.924 205.96 267.038 206.212 267.266C206.464 267.482 206.59 267.782 206.59 268.166C206.59 268.538 206.464 268.838 206.212 269.066C205.96 269.282 205.624 269.39 205.204 269.39ZM211.821 281V271.1H213.747V272.99H214.215L213.747 273.44C213.747 272.648 213.981 272.03 214.449 271.586C214.917 271.142 215.565 270.92 216.393 270.92C217.377 270.92 218.163 271.238 218.751 271.874C219.339 272.498 219.633 273.344 219.633 274.412V281H217.689V274.628C217.689 273.98 217.515 273.482 217.167 273.134C216.819 272.786 216.345 272.612 215.745 272.612C215.133 272.612 214.647 272.798 214.287 273.17C213.939 273.53 213.765 274.058 213.765 274.754V281H211.821ZM222.614 284.24V271.1H224.54V272.99H224.954L224.54 273.44C224.54 272.66 224.78 272.048 225.26 271.604C225.752 271.148 226.406 270.92 227.222 270.92C228.218 270.92 229.01 271.256 229.598 271.928C230.198 272.588 230.498 273.494 230.498 274.646V277.436C230.498 278.204 230.36 278.87 230.084 279.434C229.82 279.986 229.442 280.418 228.95 280.73C228.47 281.03 227.894 281.18 227.222 281.18C226.418 281.18 225.77 280.958 225.278 280.514C224.786 280.058 224.54 279.44 224.54 278.66L224.954 279.11H224.504L224.558 281.414V284.24H222.614ZM226.556 279.488C227.192 279.488 227.684 279.308 228.032 278.948C228.392 278.576 228.572 278.042 228.572 277.346V274.754C228.572 274.058 228.392 273.53 228.032 273.17C227.684 272.798 227.192 272.612 226.556 272.612C225.944 272.612 225.458 272.804 225.098 273.188C224.738 273.56 224.558 274.082 224.558 274.754V277.346C224.558 278.018 224.738 278.546 225.098 278.93C225.458 279.302 225.944 279.488 226.556 279.488ZM237.277 281.18C236.089 281.18 235.141 280.838 234.433 280.154C233.725 279.458 233.371 278.516 233.371 277.328V271.1H235.315V277.328C235.315 278.012 235.489 278.546 235.837 278.93C236.185 279.302 236.665 279.488 237.277 279.488C237.901 279.488 238.387 279.302 238.735 278.93C239.095 278.546 239.275 278.012 239.275 277.328V271.1H241.219V277.328C241.219 278.516 240.859 279.458 240.139 280.154C239.431 280.838 238.477 281.18 237.277 281.18ZM249.168 281C248.268 281 247.566 280.754 247.062 280.262C246.558 279.77 246.306 279.086 246.306 278.21V272.864H243.57V271.1H246.306V268.31H248.25V271.1H252.12V272.864H248.25V278.21C248.25 278.894 248.58 279.236 249.24 279.236H251.939V281H249.168Z" fill="#FEBC2F"/>
</svg>
